<svg width="104" height="117" viewBox="0 0 104 117" fill="none" xmlns="http://www.w3.org/2000/svg">
<path d="M89.8 42.7C89.8 42.7 87.3 35.9 85.1 25.2V25.1V25C78.3 -6.8 27.1 -7.9 19.6 22.9C19.1 24.2 18.6 25.7 18.2 27.4V27.5C18.1 27.8 18.1 28.1 18 28.5C15.6 38.2 6 45.3 6 45.3C11.8 43.2 15.2 40.7 17.1 38.2C17.2 40.9 17.6 43.8 18.5 46.7L18.4 53.1C18.4 54.4 18.5 55.6 18.5 56.9C18 61.7 18.2 70.3 24 75C26.5 77 27.7 80.1 27.2 83.2C26.6 86.5 24.2 89.8 17.1 89.9C17.1 89.9 18.2 98.2 50.5 98.5C83.4 98.8 83.9 90 83.9 90C76.8 89.9 74.4 87.7 73.8 85.5C73.2 83.4 74.5 81.3 77 79.9C81.7 77.3 83.6 68.6 84.4 61.4H85C85.4 58.7 85.7 56 85.7 53.1V37.1C86.6 38.9 87.9 40.7 89.8 42.7Z" fill="#080603"/>
<path d="M83.7 101.4C66.1 94.3 60.3 85.5 61.8 72.9H51H49.7H42.4C43.9 85.5 38.1 94.3 20.5 101.4C2.9 108.5 0.600006 116.2 0.600006 116.2H47.6H50.9H103.4C103.6 116.2 101.3 108.5 83.7 101.4Z" fill="#C0C1C8"/>
<path d="M76.9 98.3C64.7 91.8 60.6 83.8 61.9 73H51.1H49.8H42.5C43.7 82.7 40.5 90.1 31.1 96.2C30.6 101.2 29.6 106.1 35.2 108.7C41.9 111.7 49.8 111.2 56.8 109.1C64.2 106.9 71 103.2 76.9 98.3Z" fill="#ABACB2"/>
<path d="M74.5 96.9C64.1 90.6 60.7 83 61.9 72.9H51.1H49.8H42.5C43.5 81.5 41.2 88.3 34 94C34 94.2 34 94.3 34 94.5C33.7 99.2 32.2 104 37.5 106.3C43.4 108.9 50.2 108.5 56.4 106.7C63.1 104.8 69.3 101.4 74.5 96.9Z" fill="#C54E2A"/>
<path d="M52 92.6C57.2 92.6 61.9 91.6 65.9 89.7C62.2 84.9 61 79.4 61.8 72.9H51H49.7H42.4C43.2 79.4 42 84.9 38.3 89.7C42.4 91.6 47 92.6 52 92.6Z" fill="#B33E1B"/>
<path d="M24.187 65.87C29.0814 63.3112 30.4147 56.198 27.1651 49.9822C23.9155 43.7664 17.3136 40.8017 12.4192 43.3605C7.52487 45.9192 6.19154 53.0324 9.44114 59.2482C12.6907 65.464 19.2927 68.4287 24.187 65.87Z" fill="#C54E2A"/>
<path d="M24.4 61.8C24.4 61.5 24.3 61.3 24.3 61.1C24.3 61.3 24.4 61.4 24.4 61.5C24.4 60.2 24.2 59.2 23.9 58.4C21.3 47.9 11.5 46.9 11.5 46.9C16.5 49.9 19.6 53.2 21.5 55.9C18 54.5 12.5 57.5 12.5 57.5C19 55.8 21.9 57.2 23.3 58.9C24.1 60.6 24.4 61.8 24.4 61.8Z" fill="#B62900"/>
<path d="M22 58.9C22.2 57.9 14.4 52 20.2 33.2L26.4 31.7L22 58.9Z" fill="#080603"/>
<path d="M91.6524 43.3369C86.7581 40.7782 80.1561 43.7428 76.9065 49.9586C73.6569 56.1745 74.9903 63.2876 79.8846 65.8464C84.779 68.4051 91.3809 65.4405 94.6305 59.2246C97.8801 53.0088 96.5468 45.8956 91.6524 43.3369Z" fill="#C54E2A"/>
<path d="M79.7 61.8C79.7 61.5 79.8 61.3 79.8 61.1C79.8 61.3 79.7 61.4 79.7 61.5C79.7 60.2 79.9 59.2 80.2 58.4C82.8 47.9 92.6 46.9 92.6 46.9C87.6 49.9 84.5 53.2 82.6 55.9C86.1 54.5 91.6 57.5 91.6 57.5C85.1 55.8 82.2 57.2 80.8 58.9C80 60.6 79.7 61.8 79.7 61.8Z" fill="#B62900"/>
<path d="M80.8 55V17.5C80.8 17.5 92.1 36 80.8 55Z" fill="#080603"/>
<path d="M43 14.7C31.6 14.7 22.4 23.9 22.2 35.2L22 55C22 73.1 33.3 87.8 52 87.8C71.2 87.8 82 73.1 82 55L81.9 34C81.9 23.3 73.2 14.7 62.5 14.7H43Z" fill="#E8653F"/>
<path opacity="0.45" d="M43 14.7C31.6 14.7 22.4 23.9 22.2 35.2L22 55C22 73.1 33.3 87.8 52 87.8C71.2 87.8 82 73.1 82 55L81.9 34C81.9 23.3 73.2 14.7 62.5 14.7H43Z" fill="url(#paint0_linear_2_359)"/>
<path d="M52 82.3C40.3 82.3 31.1 77.8 25.2 70.8C29.8 81 39.1 87.9 52 87.9C65 87.9 74.2 81.1 78.8 71C73 77.9 63.9 82.3 52 82.3Z" fill="#FF7F59"/>
<path d="M65.7 50.7C66.6941 50.7 67.5 48.7748 67.5 46.4C67.5 44.0252 66.6941 42.1 65.7 42.1C64.7059 42.1 63.9 44.0252 63.9 46.4C63.9 48.7748 64.7059 50.7 65.7 50.7Z" fill="#25110D"/>
<path d="M38.4 50.7C39.3941 50.7 40.2 48.7748 40.2 46.4C40.2 44.0252 39.3941 42.1 38.4 42.1C37.4059 42.1 36.6 44.0252 36.6 46.4C36.6 48.7748 37.4059 50.7 38.4 50.7Z" fill="#25110D"/>
<path d="M34.1 60.9C34 60.9 33.9 60.9 33.8 60.8C33.4 60.6 33.2 60.1 33.4 59.7L35.9 54.6C36.1 54.2 36.6 54 37 54.2C37.4 54.4 37.6 54.9 37.4 55.3L34.9 60.4C34.7 60.7 34.4 60.9 34.1 60.9Z" fill="#B62900"/>
<path d="M29.1 60.9C29 60.9 28.9 60.9 28.8 60.8C28.4 60.6 28.2 60.1 28.4 59.7L30.9 54.6C31.1 54.2 31.6 54 32 54.2C32.4 54.4 32.6 54.9 32.4 55.3L29.9 60.4C29.7 60.7 29.4 60.9 29.1 60.9Z" fill="#B62900"/>
<path d="M69.5 60.9C69.2 60.9 68.9 60.7 68.8 60.5L66.3 55.4C66.1 55 66.3 54.5 66.7 54.3C67.1 54.1 67.6 54.3 67.8 54.7L70.3 59.8C70.5 60.2 70.3 60.7 69.9 60.9C69.7 60.8 69.6 60.9 69.5 60.9Z" fill="#B62900"/>
<path d="M74.5 60.9C74.2 60.9 73.9 60.7 73.8 60.5L71.3 55.4C71.1 55 71.3 54.5 71.7 54.3C72.1 54.1 72.6 54.3 72.8 54.7L75.3 59.8C75.5 60.2 75.3 60.7 74.9 60.9C74.7 60.8 74.6 60.9 74.5 60.9Z" fill="#B62900"/>
<path d="M55.5 54.9C55.6 54.4 55.6 53.8 55.6 53.2C55.6 49.6 54.4 45.1 52.1 45.1C49.7 45.1 48.6 49.6 48.6 53.2C48.6 53.8 48.6 54.4 48.7 55C44.6 56.2 45.4 59.3 45.4 59.3C45.4 59.3 52.3 62.8 59.2 59.3C59 59.4 60 56 55.5 54.9Z" fill="#B62900"/>
<path d="M52 68.4C46 68.4 42.5 66.3 42.3 66.2C41.8 65.9 41.7 65.3 42 64.8C42.3 64.3 42.9 64.2 43.4 64.5C43.5 64.5 50.7 68.7 62.3 64.4C62.8 64.2 63.4 64.5 63.6 65C63.8 65.5 63.5 66.1 63 66.3C58.7 67.9 55.1 68.4 52 68.4Z" fill="#B62900"/>
<path d="M46.7 70.4C46.7 70.4 55.5 72.7 60.4 68.8C60.4 68.8 59.6 72.9 54.5 73.5C52.5 73.7 49.8 72.9 46.7 70.4Z" fill="#CF4821"/>
<path d="M28 39C27.8 38.8 39.1 36 44.9 38.1C44.9 38.2 46.5 32.9 37.9 33.1C29.4 33.8 28 39.1 28 39Z" fill="#230E0A"/>
<path d="M75.3 38.5C75.5 38.3 64 36.1 58.4 38.6C58.4 38.7 56.5 33.5 65.1 33.2C73.6 33.3 75.3 38.6 75.3 38.5Z" fill="#230E0A"/>
<path opacity="0.77" d="M35.1 60.8C41.7827 60.8 47.2 55.3826 47.2 48.7C47.2 42.0173 41.7827 36.6 35.1 36.6C28.4174 36.6 23 42.0173 23 48.7C23 55.3826 28.4174 60.8 35.1 60.8Z" fill="#A7B9EB"/>
<path opacity="0.4" d="M46.3 44L27.8 58.3C29.8 59.9 32.4 60.8 35.2 60.8C41.9 60.8 47.3 55.4 47.3 48.7C47.2 47 46.9 45.4 46.3 44Z" fill="white"/>
<path opacity="0.4" d="M36 36.6L23.8 44.6C23.3 45.9 23.1 47.2 23.1 48.7C23.1 49.2 23.1 49.7 23.2 50.1L40.1 37.6C38.7 37 37.4 36.7 36 36.6Z" fill="white"/>
<path d="M35.1 36.6C41.8 36.6 47.2 42 47.2 48.7C47.2 55.4 41.8 60.8 35.1 60.8C28.4 60.8 23 55.4 23 48.7C23 42 28.4 36.6 35.1 36.6ZM35.1 35.5C27.8 35.5 22 41.4 22 48.6C22 55.9 27.9 61.7 35.1 61.7C42.4 61.7 48.2 55.8 48.2 48.6C48.3 41.4 42.4 35.5 35.1 35.5Z" fill="#230E0A"/>
<path opacity="0.77" d="M69.2 60.8C75.8827 60.8 81.3 55.3826 81.3 48.7C81.3 42.0173 75.8827 36.6 69.2 36.6C62.5174 36.6 57.1 42.0173 57.1 48.7C57.1 55.3826 62.5174 60.8 69.2 60.8Z" fill="#A7B9EB"/>
<path opacity="0.4" d="M76 38.7L59.5 56C60.9 57.9 62.9 59.4 65.2 60.2L80.6 44.7C79.8 42.2 78.1 40.1 76 38.7Z" fill="white"/>
<path d="M69.2 36.6C75.9 36.6 81.3 42 81.3 48.7C81.3 55.4 75.9 60.8 69.2 60.8C62.5 60.8 57.1 55.4 57.1 48.7C57.1 42 62.5 36.6 69.2 36.6ZM69.2 35.5C61.9 35.5 56.1 41.4 56.1 48.6C56.1 55.9 62 61.7 69.2 61.7C76.5 61.7 82.3 55.8 82.3 48.6C82.4 41.4 76.5 35.5 69.2 35.5Z" fill="#230E0A"/>
<path d="M47.6 46.4L46.7 45.4C46.7 45.4 51.3 41.3 57.2 44.6L56.6 45.7C51.5 42.9 47.6 46.4 47.6 46.4Z" fill="#230E0A"/>
<path d="M26.4 40.3C26.2 40.3 26.1 40.2 25.9 40.2H22.6C21.2 40.2 20.2 41.3 20.2 42.6C20.2 44 21.3 45 22.6 45H23.5C24.1 43.3 25.1 41.6 26.4 40.3Z" fill="#230E0A"/>
<path d="M78.6 40.3C78.8 40.3 78.9 40.2 79.1 40.2H82.4C83.8 40.2 84.8 41.3 84.8 42.6C84.8 44 83.7 45 82.4 45H81.5C80.9 43.3 79.9 41.6 78.6 40.3Z" fill="#230E0A"/>
<path d="M33.6 13.7L36.4 15.3C40 17.3 44 18.4 48.2 18.4H56.4C62.7 18.4 68.8 15.9 73.3 11.4L33.6 13.7Z" fill="#080603"/>
<defs>
<linearGradient id="paint0_linear_2_359" x1="53.7331" y1="4.34928" x2="52.5479" y2="35.1641" gradientUnits="userSpaceOnUse">
<stop stop-color="#9C1628"/>
<stop offset="0.2086" stop-color="#9C1628" stop-opacity="0.7914"/>
<stop offset="0.3652" stop-color="#9C1628" stop-opacity="0.91"/>
<stop offset="0.8855" stop-color="#9C1628" stop-opacity="0"/>
</linearGradient>
</defs>
</svg>
