<svg width="104" height="124" viewBox="0 0 104 124" fill="none" xmlns="http://www.w3.org/2000/svg">
<path d="M103.1 123.2L101.7 114.1C101 109.7 98.8 105.6 95.5 102.5L90 97.4C88.2 95.7 86.9 93.6 86.3 91.2C85.8 89.2 85.4 87.1 86.1 85.1C86.9 82.9 89 81.5 90.3 79.6C92.8 76.3 93 71.9 93.2 67.8C93.2 66.9 93.3 66 93 65.1C92.7 63.8 91.8 62.8 90.9 61.8C89.8 60.7 88.7 59.8 87.5 58.9C88.4 57.5 88.8 56.2 88.8 56.2C97.5 46.5 97.1 32.9 88.8 18.1C83.6 8.89999 74.8 7.39999 69.8 8.99999C66.4 1.39999 57.9 -1.10001 38.2 1.39999C38.2 1.39999 17.8 4.09999 14.2 25.2C12.6 34.6 11.1 47 16.7 61.3C15.5 62 14.4 62.7 13.6 63.8C11.6 65.3 10.7 68.2 11.1 70.8C11.6 74.1 13.6 77 15.3 79.8C17 82.7 18.6 85.9 18.1 89.2C17.5 92.8 14.7 95.5 12.7 98.5C10 102.6 8.80001 107.6 9.20001 112.4C9.30001 113.1 9.4 114 10 114.4C10.4 114.7 11 114.8 11.5 114.9C33.1 118.2 103.1 123.2 103.1 123.2Z" fill="#381706"/>
<path d="M37.5 6.69999C58.1 4.09999 66.9 6.6 70.5 14.3C75.7 12.7 84.9 14.2 90.3 23.4C91.9 26.2 93.3 28.9 94.3 31.6C93.3 27.3 91.4 22.8 88.8 18.1C83.6 8.89999 74.8 7.39999 69.8 8.99999C66.4 1.39999 57.9 -1.10001 38.2 1.39999C38.2 1.39999 19.2 3.89999 14.7 23.1C21.4 8.69999 37.5 6.69999 37.5 6.69999Z" fill="#6A2B0C"/>
<path d="M83.9 108.4C66.3 101.3 60.5 92.5 62 79.9H51.2H50H42.7C44.2 92.5 38.4 101.3 20.8 108.4C3.19999 115.5 0.899994 123.2 0.899994 123.2H47.9H51.2H103.7C103.8 123.2 101.4 115.5 83.9 108.4Z" fill="#222961"/>
<path d="M52.3 119.1C62.5 119.1 71.6 113.1 77.1 105.4C64.7 98.9 60.6 90.8 61.9 80H51.1H50H42.7C44 90.9 39.9 98.9 27.5 105.4C33.1 113 42.1 119.1 52.3 119.1Z" fill="#DA9039"/>
<path d="M52.3 115.9C61.7 115.9 69.9 111.2 74.8 104C64.2 97.7 60.7 90 61.9 79.9H51.1H50H42.7C43.9 90.1 40.4 97.7 29.8 104C34.7 111.2 43 115.9 52.3 115.9Z" fill="#D1F9F6"/>
<path d="M33.1 101.9C37.1 108.3 44.2 112.6 52.4 112.6C60.6 112.6 67.7 108.3 71.7 101.9C63.7 96 61 88.9 62.1 79.9H51.3H50H42.7C43.7 89 41.1 96 33.1 101.9Z" fill="#FD9877"/>
<path d="M62 79.9H51.2H50H42.7C43.5 86.9 42.1 92.7 37.8 97.7C42.1 99.7 46.9 100.8 51.6 100.8C56.7 100.8 61.9 99.5 66.5 97.2C62.5 92.3 61.2 86.7 62 79.9Z" fill="#FD8259"/>
<path opacity="0.45" d="M33.1 101.9C37.1 108.3 44.2 112.6 52.4 112.6C60.6 112.6 67.7 108.3 71.7 101.9C63.7 96 61 88.9 62.1 79.9H51.3H50H42.7C43.7 89 41.1 96 33.1 101.9Z" fill="url(#paint0_linear_2_294)"/>
<path d="M39.7 81.9C39.7 81.9 40 95.2 32.9 102.6C25.8 110 18 110.1 19.9 119.7C19.9 119.7 8.49998 115.4 19.9 94.3L39.7 81.9Z" fill="#381706"/>
<path opacity="0.45" d="M39.7 81.9C39.7 81.9 40 95.2 32.9 102.6C25.8 110 18 110.1 19.9 119.7C19.9 119.7 8.49998 115.4 19.9 94.3L39.7 81.9Z" fill="url(#paint1_linear_2_294)"/>
<path d="M63.5 79.9C63.5 79.9 63.2 93.2 70.3 100.6C77.4 108 85.2 108.1 83.3 117.7C83.3 117.7 94.7 113.4 83.3 92.3L63.5 79.9Z" fill="#381706"/>
<path opacity="0.45" d="M63.5 79.9C63.5 79.9 63.2 93.2 70.3 100.6C77.4 108 85.2 108.1 83.3 117.7C83.3 117.7 94.7 113.4 83.3 92.3L63.5 79.9Z" fill="url(#paint2_linear_2_294)"/>
<path d="M23.691 72.8829C28.5853 70.3242 29.9186 63.211 26.669 56.9952C23.4194 50.7793 16.8175 47.8147 11.9231 50.3734C7.02878 52.9322 5.69545 60.0453 8.94504 66.2612C12.1946 72.477 18.7966 75.4416 23.691 72.8829Z" fill="#FD9877"/>
<path d="M23.9 68.8C23.9 68.5 23.8 68.3 23.8 68.1C23.8 68.3 23.9 68.4 23.9 68.5C23.9 67.2 23.7 66.2 23.4 65.4C20.8 54.9 11 53.9 11 53.9C16 56.9 19.1 60.2 21 62.9C17.5 61.5 12 64.5 12 64.5C18.5 62.8 21.4 64.2 22.8 65.9C23.6 67.6 23.9 68.8 23.9 68.8Z" fill="#FD6933"/>
<path d="M91.1909 50.3489C86.2965 47.7901 79.6945 50.7548 76.4449 56.9706C73.1954 63.1864 74.5287 70.2996 79.423 72.8583C84.3174 75.4171 90.9194 72.4524 94.1689 66.2366C97.4185 60.0208 96.0852 52.9076 91.1909 50.3489Z" fill="#FD9877"/>
<path d="M79.3 68.8C79.3 68.5 79.4 68.3 79.4 68.1C79.4 68.3 79.3 68.4 79.3 68.5C79.3 67.2 79.5 66.2 79.8 65.4C82.4 54.9 92.2 53.9 92.2 53.9C87.2 56.9 84.1 60.2 82.2 62.9C85.7 61.5 91.2 64.5 91.2 64.5C84.7 62.8 81.8 64.2 80.4 65.9C79.5 67.6 79.3 68.8 79.3 68.8Z" fill="#FD6933"/>
<path d="M42.5 21.7C31.1 21.7 21.9 30.9 21.7 42.2L21.5 62C21.5 69.3 22.2 76.1 26.1 81.5C31.9 89.5 41.6 94.7 51.5 94.7C60.8 94.7 70.1 90.1 75.9 82.9C80.5 77.2 81.5 69.9 81.5 62L81.4 41C81.4 30.3 72.7 21.7 62 21.7H42.5V21.7Z" fill="#EBBB81"/>
<path opacity="0.45" d="M42.5 21.7C31.1 21.7 21.9 30.9 21.7 42.2L21.5 62C21.5 69.3 22.2 76.1 26.1 81.5C31.9 89.5 41.6 94.7 51.5 94.7C60.8 94.7 70.1 90.1 75.9 82.9C80.5 77.2 81.5 69.9 81.5 62L81.4 41C81.4 30.3 72.7 21.7 62 21.7H42.5V21.7Z" fill="url(#paint3_linear_2_294)"/>
<path d="M75.9 79C70.1 86.2 60.8 90.8 51.5 90.8C41.6 90.8 31.9 85.6 26.1 77.6C22.5 72.6 21.6 66.6 21.5 60V62C21.5 69.3 22.2 76.1 26.1 81.5C31.9 89.5 41.6 94.7 51.5 94.7C60.8 94.7 70.1 90.1 75.9 82.9C80.5 77.2 81.5 69.9 81.5 62V58.9C81.5 66.6 80.3 73.5 75.9 79Z" fill="#EBC9A0"/>
<path d="M67.8 38.7C66.4 38.6 63.1 38.5 61.1 38.6C60.4 38.6 59.8 39.2 59.8 39.9L59.7 42.4C59.7 43 60.1 43.5 60.8 43.5C68.1 43.5 79.7 46.2 79.5 46.4C79.5 46.5 78.1 39.9 67.8 38.7Z" fill="#381605"/>
<path d="M35.7 38.7C37.1 38.6 40.4 38.5 42.4 38.6C43.1 38.6 43.7 39.2 43.7 39.9L43.8 42.4C43.8 43 43.4 43.5 42.7 43.5C35.4 43.5 23.8 46.2 24 46.4C24.1 46.5 25.4 39.9 35.7 38.7Z" fill="#381605"/>
<path d="M65.2 57.7C66.1941 57.7 67 55.7748 67 53.4C67 51.0252 66.1941 49.1 65.2 49.1C64.2059 49.1 63.4 51.0252 63.4 53.4C63.4 55.7748 64.2059 57.7 65.2 57.7Z" fill="#25120B"/>
<path d="M37.9 57.7C38.8941 57.7 39.7 55.7748 39.7 53.4C39.7 51.0252 38.8941 49.1 37.9 49.1C36.9059 49.1 36.1 51.0252 36.1 53.4C36.1 55.7748 36.9059 57.7 37.9 57.7Z" fill="#25120B"/>
<path d="M54.8 62.2C54.7 59.4 53.3 56.1 51.6 56.1C49.9 56.1 48.5 59.5 48.4 62.3C44.4 63.4 45.2 66.4 45.2 66.4C45.2 66.4 51.7 69.7 58.3 66.4C58.2 66.4 59.2 63.2 54.8 62.2Z" fill="#FD6933"/>
<path d="M42 72.4C43.8 72.7 45.5 72.8 47.2 72.9C48.9 73 50.6 72.9 52.2 72.7C53 72.6 53.8 72.4 54.6 72.3C55.4 72.1 56.2 71.9 57 71.6C58.6 71.1 60.1 70.4 61.8 69.6C60.7 71 59.3 72.2 57.6 73C56.8 73.5 55.9 73.7 55.1 74.1C54.2 74.3 53.3 74.6 52.4 74.6C50.6 74.8 48.7 74.7 47 74.3C45.2 74 43.5 73.4 42 72.4Z" fill="#FD6933"/>
<path d="M48.8 76C48.8 76 57.3 77.5 60.5 73C60.5 73 60.1 78 55.8 78.7C51.5 79.5 48.8 76 48.8 76Z" fill="#FD9877"/>
<path d="M33.6 67.9C33.5 67.9 33.4 67.9 33.3 67.8C32.9 67.6 32.7 67.1 32.9 66.7L35.4 61.6C35.6 61.2 36.1 61 36.5 61.2C36.9 61.4 37.1 61.9 36.9 62.3L34.4 67.4C34.2 67.7 33.9 67.9 33.6 67.9Z" fill="#FD7949"/>
<path d="M28.7 67.9C28.6 67.9 28.5 67.9 28.4 67.8C28 67.6 27.8 67.1 28 66.7L30.5 61.6C30.7 61.2 31.2 61 31.6 61.2C32 61.4 32.2 61.9 32 62.3L29.5 67.4C29.2 67.7 29 67.9 28.7 67.9Z" fill="#FD7949"/>
<path d="M69 67.9C68.7 67.9 68.4 67.7 68.3 67.5L65.8 62.4C65.6 62 65.8 61.5 66.2 61.3C66.6 61.1 67.1 61.3 67.3 61.7L69.8 66.8C70 67.2 69.8001 67.7 69.4001 67.9C69.3001 67.8 69.1 67.9 69 67.9Z" fill="#FD7949"/>
<path d="M74 67.9C73.7 67.9 73.4 67.7 73.3 67.5L70.8 62.4C70.6 62 70.8 61.5 71.2 61.3C71.6 61.1 72.1 61.3 72.3 61.7L74.8 66.8C75 67.2 74.8001 67.7 74.4001 67.9C74.2001 67.8 74.1 67.9 74 67.9Z" fill="#FD7949"/>
<path opacity="0.77" d="M34.8 68.6C41.4826 68.6 46.9 63.1826 46.9 56.5C46.9 49.8173 41.4826 44.4 34.8 44.4C28.1173 44.4 22.7 49.8173 22.7 56.5C22.7 63.1826 28.1173 68.6 34.8 68.6Z" fill="#949CEB"/>
<path opacity="0.4" d="M46 51.9L27.5 66.2C29.5 67.8 32.1 68.7 34.9 68.7C41.6 68.7 47 63.3 47 56.6C47 54.9 46.6 53.3 46 51.9Z" fill="white"/>
<path opacity="0.4" d="M35.7 44.5L23.5 52.5C23 53.8 22.8 55.1 22.8 56.6C22.8 57.1 22.8 57.6 22.9 58L39.8 45.5C38.5 44.9 37.1 44.6 35.7 44.5Z" fill="white"/>
<path d="M34.8 44.4C41.5 44.4 46.9 49.8 46.9 56.5C46.9 63.2 41.5 68.6 34.8 68.6C28.1 68.6 22.7 63.2 22.7 56.5C22.7 49.8 28.2 44.4 34.8 44.4ZM34.8 43.4C27.5 43.4 21.7 49.3 21.7 56.5C21.7 63.8 27.6 69.6 34.8 69.6C42.1 69.6 47.9 63.7 47.9 56.5C48 49.3 42.1 43.4 34.8 43.4Z" fill="#230F08"/>
<path opacity="0.77" d="M68.9 68.6C75.5827 68.6 81 63.1826 81 56.5C81 49.8173 75.5827 44.4 68.9 44.4C62.2174 44.4 56.8 49.8173 56.8 56.5C56.8 63.1826 62.2174 68.6 68.9 68.6Z" fill="#949CEB"/>
<path opacity="0.4" d="M75.7 46.5L59.2 63.8C60.6 65.7 62.6 67.2 64.9 68L80.3 52.5C79.5 50.1 77.9 48 75.7 46.5Z" fill="white"/>
<path d="M68.9 44.4C75.6 44.4 81 49.8 81 56.5C81 63.2 75.6 68.6 68.9 68.6C62.2 68.6 56.8 63.2 56.8 56.5C56.8 49.8 62.3 44.4 68.9 44.4ZM68.9 43.4C61.6 43.4 55.8 49.3 55.8 56.5C55.8 63.8 61.7 69.6 68.9 69.6C76.2 69.6 82 63.7 82 56.5C82.1 49.3 76.2 43.4 68.9 43.4Z" fill="#230F08"/>
<path d="M47.3 54.3L46.4 53.3C46.4 53.3 51 49.2 56.9 52.5L56.3 53.6C51.2 50.8 47.3 54.2 47.3 54.3Z" fill="#230F08"/>
<path d="M26.1 48.2C25.9 48.2 25.8 48.1 25.6 48.1H22.3C20.9 48.1 19.9 49.2 19.9 50.5C19.9 51.9 21 52.9 22.3 52.9H23.2C23.8 51.2 24.8 49.5 26.1 48.2Z" fill="#230F08"/>
<path d="M78.3 48.2C78.5 48.2 78.6 48.1 78.8 48.1H82.1C83.4 48.1 84.5 49.2 84.5 50.5C84.5 51.9 83.4 52.9 82.1 52.9H81.2C80.6 51.2 79.6 49.5 78.3 48.2Z" fill="#230F08"/>
<defs>
<linearGradient id="paint0_linear_2_294" x1="50.9851" y1="77.6351" x2="52.7629" y2="109.635" gradientUnits="userSpaceOnUse">
<stop stop-color="#F00E47"/>
<stop offset="0.2086" stop-color="#F00E47" stop-opacity="0.7914"/>
<stop offset="0.3652" stop-color="#F00E47" stop-opacity="0.5024"/>
<stop offset="0.8855" stop-color="#F00E47" stop-opacity="0"/>
</linearGradient>
<linearGradient id="paint1_linear_2_294" x1="20.99" y1="119.614" x2="28.0106" y2="94.7338" gradientUnits="userSpaceOnUse">
<stop stop-color="#FF9500"/>
<stop offset="0.2086" stop-color="#FF9500" stop-opacity="0.7914"/>
<stop offset="0.8855" stop-color="#FF9500" stop-opacity="0"/>
</linearGradient>
<linearGradient id="paint2_linear_2_294" x1="80.8828" y1="116.313" x2="74.5757" y2="89.7335" gradientUnits="userSpaceOnUse">
<stop stop-color="#FF9500"/>
<stop offset="0.2086" stop-color="#FF9500" stop-opacity="0.7914"/>
<stop offset="0.8855" stop-color="#FF9500" stop-opacity="0"/>
</linearGradient>
<linearGradient id="paint3_linear_2_294" x1="51.3969" y1="13.4906" x2="51.6931" y2="91.7127" gradientUnits="userSpaceOnUse">
<stop stop-color="#F00E47"/>
<stop offset="0.2086" stop-color="#F00E47" stop-opacity="0.7914"/>
<stop offset="0.3652" stop-color="#F00E47" stop-opacity="0.5024"/>
<stop offset="0.8855" stop-color="#F00E47" stop-opacity="0"/>
</linearGradient>
</defs>
</svg>
