<svg width="104" height="127" viewBox="0 0 104 127" fill="none" xmlns="http://www.w3.org/2000/svg">
<path d="M92.6 21.3C87.9 16.9 81.3 15.8 74.7 15.7C74.7 15.3 54.6 -18.6 13.8 14.6C7.30001 19.9 3.70002 24.2 2.00002 27.8C2.00002 27.8 -2.59998 35.5 4.00002 42.9C5.90002 45.1 7.00002 47.3 7.50002 49.4C7.90002 52.5 7.70005 55 6.90005 57.3C6.80005 57.4 5.00005 59.3 3.40005 62.8C3.30005 62.9 3.30001 62.9 3.30001 63H3.40005C1.80005 66.6 0.400021 71.8 1.00002 78.7C1.50002 84.4 3.60003 89.8 6.70003 94.6C10.3 100.1 17.7 110.4 11.2 120.6H81.8C81.8 120.6 95.1 110.5 97.3 84.8C98.1 76.1 97.6 65.5 94.9 53C95.3 52.2 95.7 51.3 96.1 50.4C100.1 40.5 99.7 28 92.6 21.3Z" fill="#29080F"/>
<path d="M83.3 111.4C65.7 104.3 59.9001 95.5 61.4001 82.9H50.6H49.3H42C43.5 95.5 37.7 104.3 20.1 111.4C2.50001 118.5 0.200043 126.2 0.200043 126.2H47.2H50.5H103C103.2 126.2 100.9 118.5 83.3 111.4Z" fill="#8641BA"/>
<path d="M34.6 103.3C38.6 108.4 44.8 111.7 51.8 111.7C58.8 111.7 65 108.4 69 103.3C62.6 97.8 60.5 91.2 61.5 83H50.7H49.4001H42.1C43.1 91.1 41 97.7 34.6 103.3Z" fill="#BF5E2A"/>
<path d="M51.6 103.8C56.5 103.8 61.2 101.7 65.3 99.4C61.8 94.7 60.6001 89.3 61.4001 82.9H50.6H49.3H42C42.8 89.3 41.6 94.8 38 99.5C42.6 101.8 48.4 103.8 51.6 103.8Z" fill="#AB4F1D"/>
<path d="M93.9001 88.9C93.9001 89 93.8 89.1 93.8 89.2C92.7 91.3 91.3 93.9 90 96.9C88.1 101.3 88.8 106.8 91.8 110.2C92.7 111.2 93.7 112.2 94.7 113C94.7 113 91.9001 115.5 87.9001 117.1C86.2001 117.8 84 118.3 81.8 118.4C79.7 118.5 77.6 117.8 75.8 116.4C72 113.5 65 106.8 62 94.8L74 88.9H93.9001V88.9Z" fill="#29080F"/>
<path opacity="0.45" d="M93.9001 88.9C93.9001 89 93.8 89.1 93.8 89.2C92.7 91.3 91.3 93.9 90 96.9C88.1 101.3 88.8 106.8 91.8 110.2C92.7 111.2 93.7 112.2 94.7 113C94.7 113 91.9001 115.5 87.9001 117.1C86.2001 117.8 84 118.3 81.8 118.4C79.7 118.5 77.6 117.8 75.8 116.4C72 113.5 65 106.8 62 94.8L74 88.9H93.9001V88.9Z" fill="url(#paint0_linear_2_248)"/>
<path d="M23.7863 75.8608C28.6807 73.3021 30.014 66.1889 26.7644 59.973C23.5148 53.7572 16.9129 50.7926 12.0185 53.3513C7.12418 55.91 5.79085 63.0232 9.04044 69.239C12.29 75.4549 18.892 78.4195 23.7863 75.8608Z" fill="#BF5E2A"/>
<path d="M23.9001 71.8C23.9001 71.5 23.8 71.3 23.8 71.1C23.8 71.3 23.9001 71.4 23.9001 71.5C23.9001 70.2 23.7001 69.2 23.4001 68.4C20.8001 57.9 11 56.9 11 56.9C16 59.9 19.1 63.2 21 65.9C17.5 64.5 12 67.5 12 67.5C18.5 65.8 21.4 67.2 22.8 68.9C23.7 70.6 23.9001 71.8 23.9001 71.8Z" fill="#B03D02"/>
<path d="M91.1861 53.3256C86.2918 50.7669 79.6898 53.7315 76.4402 59.9474C73.1906 66.1632 74.524 73.2764 79.4183 75.8351C84.3127 78.3938 90.9146 75.4292 94.1642 69.2134C97.4138 62.9975 96.0805 55.8844 91.1861 53.3256Z" fill="#BF5E2A"/>
<path d="M79.3 71.8C79.3 71.5 79.4001 71.3 79.4001 71.1C79.4001 71.3 79.3 71.4 79.3 71.5C79.3 70.2 79.5 69.2 79.8 68.4C82.4 57.9 92.2 56.9 92.2 56.9C87.2 59.9 84.1 63.2 82.2 65.9C85.7 64.5 91.2 67.5 91.2 67.5C84.7 65.8 81.8001 67.2 80.4001 68.9C79.6001 70.6 79.3 71.8 79.3 71.8Z" fill="#B03D02"/>
<path d="M42.6 22.7C31.2 22.7 22 33.9 21.8 45.2L21.6 65C21.6 77.3 27.8 88 37 93.6C41.3 96.3 48.1 98.8 51.7 98.8C56.8 98.8 61.7001 96.4 65.9001 93.9C75.3001 88.4 81.7 77.5 81.7 65L81.6 44C81.6 33.3 72.9 22.7 62.2 22.7H42.6V22.7Z" fill="#E2773F"/>
<path opacity="0.45" d="M42.6 22.7C31.2 22.7 22 33.9 21.8 45.2L21.6 65C21.6 77.3 27.8 88 37 93.6C41.3 96.3 48.1 98.8 51.7 98.8C56.8 98.8 61.7001 96.4 65.9001 93.9C75.3001 88.4 81.7 77.5 81.7 65L81.6 44C81.6 33.3 72.9 22.7 62.2 22.7H42.6V22.7Z" fill="url(#paint1_linear_2_248)"/>
<path opacity="0.31" d="M38.3 48.5C50 46.9 64.3 47.8 69.8 33.4C69.8 33.4 77.3 38.2 81.5 50.7V44.1C81.5 33.4 72.8 22.8 62.1 22.8H42.5C31.1 22.8 21.9 34 21.7 45.3L21.6 58C24.7 54.6 30.6 49.5 38.3 48.5Z" fill="#E2773F"/>
<path d="M66.5 89.5C62.1 92 57 94.4 51.6 94.4C47.9 94.4 40.7 91.9 36.2 89.2C30.2 85.7 25.4 80.2 22.6 73.6C24.7 82.2 30.0001 89.4 36.9001 93.7C41.2001 96.4 48 98.9 51.6 98.9C56.7 98.9 61.6 96.5 65.8 94C73 89.8 78.4 82.4 80.6 73.6C77.8 80.4 72.8 86 66.5 89.5Z" fill="#E28E56"/>
<path d="M65.3 60.7C66.2941 60.7 67.1 58.7748 67.1 56.4C67.1 54.0252 66.2941 52.1 65.3 52.1C64.3059 52.1 63.5 54.0252 63.5 56.4C63.5 58.7748 64.3059 60.7 65.3 60.7Z" fill="#1F110B"/>
<path d="M75.7001 54.2C75.9001 54.1 66.1 47.8 60 48.1C59.9 48.2 60.1001 42.7 68.2001 45.6C76.0001 48.7 75.6001 54.3 75.7001 54.2Z" fill="black"/>
<path d="M37.9001 60.7C38.8942 60.7 39.7 58.7748 39.7 56.4C39.7 54.0252 38.8942 52.1 37.9001 52.1C36.9059 52.1 36.1 54.0252 36.1 56.4C36.1 58.7748 36.9059 60.7 37.9001 60.7Z" fill="#1F110B"/>
<path d="M28.7001 51.7C28.5001 51.6 38.3001 45.3 44.4001 45.6C44.5001 45.7 44.3001 40.2 36.2001 43.1C28.4001 46.3 28.7001 51.8 28.7001 51.7Z" fill="black"/>
<path d="M33.7001 70.9C33.6001 70.9 33.5001 70.9 33.4001 70.8C33.0001 70.6 32.8001 70.1 33.0001 69.7L35.5001 64.6C35.7001 64.2 36.2 64 36.6 64.2C37 64.4 37.2001 64.9 37.0001 65.3L34.5001 70.4C34.3001 70.7 34.0001 70.9 33.7001 70.9Z" fill="#A33902"/>
<path d="M28.7001 70.9C28.6001 70.9 28.5001 70.9 28.4001 70.8C28.0001 70.6 27.8001 70.1 28.0001 69.7L30.5001 64.6C30.7001 64.2 31.2 64 31.6 64.2C32 64.4 32.2001 64.9 32.0001 65.3L29.5001 70.4C29.3001 70.7 29.0001 70.9 28.7001 70.9Z" fill="#A33902"/>
<path d="M69.1 70.9C68.8 70.9 68.5 70.7 68.4 70.5L65.9 65.4C65.7 65 65.9 64.5 66.3 64.3C66.7 64.1 67.2 64.3 67.4 64.7L69.9 69.8C70.1 70.2 69.9 70.7 69.5 70.9C69.3 70.8 69.2 70.9 69.1 70.9Z" fill="#A33902"/>
<path d="M74.1 70.9C73.8 70.9 73.5 70.7 73.4 70.5L70.9 65.4C70.7 65 70.9 64.5 71.3 64.3C71.7 64.1 72.2 64.3 72.4 64.7L74.9 69.8C75.1 70.2 74.9 70.7 74.5 70.9C74.3 70.8 74.2 70.9 74.1 70.9Z" fill="#A33902"/>
<path d="M45.2 69.4C45.2 69.4 51.7 72.7 58.3 69.4C58.3 69.4 59.6 64.8 51.8 64.9C44.1 64.9 45.2 69.4 45.2 69.4Z" fill="#A33902"/>
<path d="M41.8 76.7C45.4 76.6 48.8 76.7 52.2 76.3C53.9 76.1 55.5 75.8 57.1 75.3C58.7 74.8 60.1001 73.9 61.4001 72.7C60.8001 74.4 59.4 75.9 57.8 76.8C56.1 77.7 54.3 78.2 52.5 78.4C50.7 78.6 48.9 78.5 47.1 78.3C45.2 77.9 43.5 77.5 41.8 76.7Z" fill="#B302C7"/>
<path d="M49.5 81.9C49.5 81.9 58.5001 83 61.4001 79C61.4001 78.9 59.2 87 49.5 81.9Z" fill="#BF5E2A"/>
<path d="M87.6 40.3L81.7 20.2L19.3 18.9L15.7 48.6C20 51.5 21.9001 52.4 21.9001 52.4C21.9001 52.4 23.6001 42.3 47.4001 42.1C63.1001 41.9 68.2 32.9 70.3 25.5C70.7 34.1 81.7 36.1 81.7 49.4C81.7 54.4 84.5 50.3 87.6 49.3V40.3Z" fill="#29080F"/>
<path d="M6.40005 94.5C6.40005 94.6 6.50003 94.6 6.50003 94.7C7.60003 96.4 9.00002 98.5 10.3 101C12.2 104.6 11.5 109 8.50003 111.8C7.60003 112.6 6.60001 113.4 5.60001 114.1C5.60001 114.1 8.40005 116.1 12.4001 117.5C14.1001 118.1 16.3 118.5 18.5 118.5C20.6 118.6 22.7 118 24.5 116.9C28.3 114.5 35.3 109.1 38.3 99.3L26.3 94.5H6.40005V94.5Z" fill="#29080F"/>
<path opacity="0.45" d="M6.40005 94.5C6.40005 94.6 6.50003 94.6 6.50003 94.7C7.60003 96.4 9.00002 98.5 10.3 101C12.2 104.6 11.5 109 8.50003 111.8C7.60003 112.6 6.60001 113.4 5.60001 114.1C5.60001 114.1 8.40005 116.1 12.4001 117.5C14.1001 118.1 16.3 118.5 18.5 118.5C20.6 118.6 22.7 118 24.5 116.9C28.3 114.5 35.3 109.1 38.3 99.3L26.3 94.5H6.40005V94.5Z" fill="url(#paint2_linear_2_248)"/>
<defs>
<linearGradient id="paint0_linear_2_248" x1="88.7137" y1="128.654" x2="77.7507" y2="91.3207" gradientUnits="userSpaceOnUse">
<stop stop-color="#FFF200"/>
<stop offset="0.2086" stop-color="#FFF200" stop-opacity="0.7914"/>
<stop offset="0.8855" stop-color="#FFF200" stop-opacity="0"/>
</linearGradient>
<linearGradient id="paint1_linear_2_248" x1="53.0059" y1="26.8115" x2="51.5244" y2="59.7004" gradientUnits="userSpaceOnUse">
<stop stop-color="#F00E47"/>
<stop offset="0.2086" stop-color="#F00E47" stop-opacity="0.7914"/>
<stop offset="0.3652" stop-color="#F00E47" stop-opacity="0.5024"/>
<stop offset="0.8855" stop-color="#F00E47" stop-opacity="0"/>
</linearGradient>
<linearGradient id="paint2_linear_2_248" x1="12.8911" y1="134.511" x2="23.2615" y2="93.3256" gradientUnits="userSpaceOnUse">
<stop stop-color="#FFF200"/>
<stop offset="0.2086" stop-color="#FFF200" stop-opacity="0.7914"/>
<stop offset="0.8855" stop-color="#FFF200" stop-opacity="0"/>
</linearGradient>
</defs>
</svg>
