<svg width="112" height="127" viewBox="0 0 112 127" fill="none" xmlns="http://www.w3.org/2000/svg">
<path d="M109.8 89.1C108.9 83.5 103.7 73.3 101.7 64.1C101.1 61.4 101 58.6 101.2 56.3C101.6 49.6 100.9 42.8 98.6 36.5C94.8 25.8 87.2 11.8 72.4 5.10001C69.6 3.80001 67.3 3.19999 65.3 2.89999C64.9 2.69999 64.5 2.59999 64 2.39999C62.5 1.89999 61 1.50001 59.5 1.20001C57.4 0.800012 55.3 0.600006 53.1 0.600006C52.1 0.600006 51 0.699994 50 0.899994C36.5 3.69999 36 13.3 36 13.3C25.8 14.2 19.3 22.6 15.3 31.1C11.5 39.2 9.59999 48.1 9.49999 57.1C9.49999 60.3 9.29999 64 8.69999 66.9C6.79999 76.1 3.29999 83.2 2.19999 88.9C-2.80001 115.2 4.09999 126 4.09999 126H55.8H106.9C106.7 126.2 113.9 114.5 109.8 89.1Z" fill="#230E0A"/>
<path d="M57.7 126.2H72C98.5 102.8 90.6 65.4 90.6 65.4L55.2 66L57.7 126.2Z" fill="black"/>
<path d="M86.8 111.4C69.2 104.3 63.4 95.5 64.9 82.9H54.1H52.8H45.5C47 95.5 41.2 104.3 23.6 111.4C5.99998 118.5 3.69998 126.2 3.69998 126.2H50.7H54H106.5C106.7 126.2 104.3 118.5 86.8 111.4Z" fill="#E82A40"/>
<path opacity="0.28" d="M57.6 116.9C66.3 116.9 74.5 114.2 81.5 109C81.2 108.8 80.8 108.7 80.5 108.5C73.8 113.3 65.9 115.9 57.6 115.9C48.5 115.9 39.8 112.8 32.8 107C32.5 107.2 32.2 107.4 31.9 107.5C39.1 113.6 48.2 116.9 57.6 116.9Z" fill="#E8E1E2"/>
<path d="M35.9 105C41.6 110 49.2 113.1 57.4 113.1C64.7 113.1 71.5 110.7 77 106.6C67.1 100.4 63.8 92.9 65 83H54.2H52.9H45.6C46.7 92 44 99.1 35.9 105Z" fill="#FFA3A3"/>
<path d="M68.4 98.9C65.2 94.3 64.2 89.1 64.9 83H54.1H52.8H45.5C46.3 89.5 45.1 95 41.4 99.7C43.4 101.4 45 103.3 47.8 104.1C50.1 104.8 52.5 105.1 55 105.1C57.5 105.1 59.9 104.7 62.2 104.1C65 103.3 66.4 100.6 68.4 98.9Z" fill="#FF7A7A"/>
<path d="M27.2624 75.8576C32.1567 73.2989 33.49 66.1857 30.2405 59.9699C26.9909 53.7541 20.3889 50.7894 15.4945 53.3481C10.6002 55.9069 9.26686 63.0201 12.5165 69.2359C15.766 75.4517 22.368 78.4164 27.2624 75.8576Z" fill="#FF8282"/>
<path d="M27.4 71.8C27.4 71.5 27.3 71.3 27.3 71.1C27.3 71.3 27.4 71.4 27.4 71.5C27.4 70.2 27.2 69.2 26.9 68.4C24.3 57.9 14.5 56.9 14.5 56.9C19.5 59.9 22.6 63.2 24.5 65.9C21 64.5 15.5 67.5 15.5 67.5C22 65.8 24.9 67.2 26.3 68.9C27.2 70.7 27.4 71.8 27.4 71.8Z" fill="#FF4F4F"/>
<path d="M94.691 53.3776C89.7966 50.8188 83.1947 53.7835 79.9451 59.9993C76.6955 66.2151 78.0288 73.3283 82.9232 75.887C87.8175 78.4458 94.4195 75.4811 97.6691 69.2653C100.919 63.0495 99.5853 55.9363 94.691 53.3776Z" fill="#FF8282"/>
<path d="M82.8 71.8C82.8 71.5 82.9 71.3 82.9 71.1C82.9 71.3 82.8 71.4 82.8 71.5C82.8 70.2 83 69.2 83.3 68.4C85.9 57.9 95.7 56.9 95.7 56.9C90.7 59.9 87.6 63.2 85.7 65.9C89.2 64.5 94.7 67.5 94.7 67.5C88.2 65.8 85.3 67.2 83.9 68.9C83.1 70.7 82.8 71.8 82.8 71.8Z" fill="#FF4F4F"/>
<path d="M46.1 24.7C34.7 24.7 25.5 33.9 25.3 45.2L25.1 65C25.1 75.8 30.6 89.2 38.8 93C42.4 94.7 44 97.8 47.9 98.8C50.2 99.4 52.6 99.8 55.1 99.8C57.6 99.8 60 99.5 62.3 98.8C65.5 97.9 66.9 94.4 69.8 93C78.3 88.8 85.1 76.6 85.1 65L85 44C85 33.3 76.3 24.7 65.6 24.7H46.1Z" fill="#FDBFA8"/>
<path opacity="0.45" d="M46.1 24.7C34.7 24.7 25.5 33.9 25.3 45.2L25.1 65C25.1 75.8 30.6 89.2 38.8 93C42.4 94.7 44 97.8 47.9 98.8C50.2 99.4 52.6 99.8 55.1 99.8C57.6 99.8 60 99.5 62.3 98.8C65.5 97.9 66.9 94.4 69.8 93C78.3 88.8 85.1 76.6 85.1 65L85 44C85 33.3 76.3 24.7 65.6 24.7H46.1Z" fill="url(#paint0_linear_2_186)"/>
<path opacity="0.38" d="M49.5 80.3C49.5 80.3 57.6 82.3 62.3 78.1C62.3 78.1 61.8 82.1 56.3 83C51 83.8 49.5 80.3 49.5 80.3Z" fill="#FF7A7A"/>
<path d="M71.7 88.7C68.4 90.1 66.9 93.6 63.3 94.5C60.7 95.1 58 95.5 55.2 95.5C52.4 95.5 49.7 95.2 47.1 94.5C42.8 93.5 40.9 90.3 36.9 88.7C34.2 87.6 31.8 85.7 29.8 83.3C32.1 87.7 35.3 91.4 39 93.1C42.6 94.8 44.2 97.9 48.1 98.9C50.4 99.5 52.8 99.9 55.3 99.9C57.8 99.9 60.2 99.6 62.5 98.9C65.7 98 67.1 94.5 70 93.1C74.3 91 78.2 86.8 80.9 81.6C78.2 84.7 75.1 87.2 71.7 88.7Z" fill="#FFDCCF"/>
<path d="M68.7999 60.7C69.7941 60.7 70.5999 58.7748 70.5999 56.4C70.5999 54.0252 69.7941 52.1 68.7999 52.1C67.8058 52.1 66.9999 54.0252 66.9999 56.4C66.9999 58.7748 67.8058 60.7 68.7999 60.7Z" fill="#25110D"/>
<path d="M77.2 51.8C77.4 51.7 67.6 45.4 61.5 45.7C61.4 45.8 61.6 40.3 69.7 43.2C77.5 46.3 77.1 51.9 77.2 51.8Z" fill="#25110D"/>
<path d="M41.5 60.7C42.4941 60.7 43.3 58.7748 43.3 56.4C43.3 54.0252 42.4941 52.1 41.5 52.1C40.5059 52.1 39.7 54.0252 39.7 56.4C39.7 58.7748 40.5059 60.7 41.5 60.7Z" fill="#25110D"/>
<path d="M32.2 51.8C32 51.7 41.8 45.4 47.9 45.7C48 45.8 47.8 40.3 39.7 43.2C31.9 46.3 32.2 51.9 32.2 51.8Z" fill="#25110D"/>
<path d="M37.2 70.9C37.1 70.9 37 70.9 36.9 70.8C36.5 70.6 36.3 70.1 36.5 69.7L39 64.6C39.2 64.2 39.7 64 40.1 64.2C40.5 64.4 40.7 64.9 40.5 65.3L38 70.4C37.8 70.7 37.5 70.9 37.2 70.9Z" fill="#FF8282"/>
<path d="M32.2 70.9C32.1 70.9 32 70.9 31.9 70.8C31.5 70.6 31.3 70.1 31.5 69.7L34 64.6C34.2 64.2 34.7 64 35.1 64.2C35.5 64.4 35.7 64.9 35.5 65.3L33 70.4C32.8 70.7 32.5 70.9 32.2 70.9Z" fill="#FF8282"/>
<path d="M72.6 70.9C72.3 70.9 72 70.7 71.9 70.5L69.4 65.4C69.2 65 69.4 64.5 69.8 64.3C70.2 64.1 70.7 64.3 70.9 64.7L73.4 69.8C73.6 70.2 73.4 70.7 73 70.9C72.8 70.9 72.7 70.9 72.6 70.9Z" fill="#FF8282"/>
<path d="M77.6 70.9C77.3 70.9 77 70.7 76.9 70.5L74.4 65.4C74.2 65 74.4 64.5 74.8 64.3C75.2 64.1 75.7 64.3 75.9 64.7L78.4 69.8C78.6 70.2 78.4 70.7 78 70.9C77.8 70.9 77.7 70.9 77.6 70.9Z" fill="#FF8282"/>
<path d="M46.8 69.1C46.8 69.1 55.2 73.4 63.6 69.1C63.6 69.1 65.3 63.2 55.2 63.3C45.4 63.3 46.8 69.1 46.8 69.1Z" fill="#FF8282"/>
<path d="M45.5 76.8L50.2 76.5C51.7 76.4 53.2 76.3 54.7 76.1C56.2 75.9 57.7 75.8 59.2 75.5C60.7 75.3 62.2 75 63.8 74.8C62.5 75.8 61.1 76.5 59.6 77C58.1 77.5 56.5 77.9 54.9 78C53.3 78.2 51.7 78.1 50.1 77.9C48.5 77.9 46.9 77.5 45.5 76.8Z" fill="#FF8282"/>
<path opacity="0.77" d="M38 73.8C44.6826 73.8 50.1 68.3827 50.1 61.7C50.1 55.0174 44.6826 49.6 38 49.6C31.3173 49.6 25.9 55.0174 25.9 61.7C25.9 68.3827 31.3173 73.8 38 73.8Z" fill="#A7B9EB"/>
<path opacity="0.4" d="M49.1 57L30.6 71.3C32.6 72.9 35.2 73.8 38 73.8C44.7 73.8 50.1 68.4 50.1 61.7C50.1 60 49.7 58.5 49.1 57Z" fill="white"/>
<path opacity="0.4" d="M38.8 49.6L26.6 57.6C26.1 58.9 25.9 60.2 25.9 61.7C25.9 62.2 25.9 62.7 26 63.1L42.9 50.6C41.6 50.1 40.2 49.7 38.8 49.6Z" fill="white"/>
<path d="M38 49.6C44.7 49.6 50.1 55 50.1 61.7C50.1 68.4 44.7 73.8 38 73.8C31.3 73.8 25.9 68.4 25.9 61.7C25.8 55 31.3 49.6 38 49.6ZM38 48.5C30.7 48.5 24.9 54.4 24.9 61.6C24.9 68.8 30.8 74.7 38 74.7C45.3 74.7 51.1 68.8 51.1 61.6C51.1 54.4 45.2 48.5 38 48.5Z" fill="#230E0A"/>
<path opacity="0.77" d="M72.1 73.8C78.7826 73.8 84.2 68.3827 84.2 61.7C84.2 55.0174 78.7826 49.6 72.1 49.6C65.4173 49.6 60 55.0174 60 61.7C60 68.3827 65.4173 73.8 72.1 73.8Z" fill="#A7B9EB"/>
<path opacity="0.4" d="M78.9 51.7L62.4 69C63.8 70.9 65.8 72.4 68.1 73.2L83.5 57.7C82.6 55.2 81 53.1 78.9 51.7Z" fill="white"/>
<path d="M72.1 49.6C78.8 49.6 84.2 55 84.2 61.7C84.2 68.4 78.8 73.8 72.1 73.8C65.4 73.8 60 68.4 60 61.7C59.9 55 65.4 49.6 72.1 49.6ZM72.1 48.5C64.8 48.5 59 54.4 59 61.6C59 68.8 64.9 74.7 72.1 74.7C79.4 74.7 85.2 68.8 85.2 61.6C85.2 54.4 79.3 48.5 72.1 48.5Z" fill="#230E0A"/>
<path d="M50.4 59.4L49.5 58.4C49.5 58.4 54.1 54.3 60 57.6L59.4 58.7C54.3 55.9 50.4 59.4 50.4 59.4Z" fill="#230E0A"/>
<path d="M29.2 53.3C29 53.3 28.9 53.2 28.7 53.2H25.4C24.1 53.2 23 54.3 23 55.6C23 57 24.1 58 25.4 58H26.3C26.9 56.3 27.9 54.7 29.2 53.3Z" fill="#230E0A"/>
<path d="M81.5 53.3C81.7 53.3 81.8 53.2 82 53.2H85.3C86.7 53.2 87.7 54.3 87.7 55.6C87.7 57 86.6 58 85.3 58H84.4C83.7 56.3 82.7 54.7 81.5 53.3Z" fill="#230E0A"/>
<path d="M41.8 34.8C46.3 34.1 49.7 30.3 50 25.7L50.2 21.5L32 14.2C24 16.6 18.6 23.9 15 31.3C11.2 39.4 9.29999 48.3 9.19999 57.3C9.19999 60.5 8.99999 64.2 8.39999 67.1C6.49999 76.3 2.99999 83.4 1.89999 89.1C1.39999 91.5 1.09999 93.8 0.799988 96C2.39999 112.5 3.79999 126.2 3.79999 126.2C3.79999 126.2 9.59999 117 18.7 113.6C25 111.3 27.9 116.5 34.3 109.4C48.8 93.3 28 83.5 34.3 43.1C34.8 40.2 38.8 35.3 41.8 34.8Z" fill="#230E0A"/>
<defs>
<linearGradient id="paint0_linear_2_186" x1="52.7535" y1="27.0174" x2="55.7165" y2="62.2767" gradientUnits="userSpaceOnUse">
<stop stop-color="#FF2441"/>
<stop offset="0.2086" stop-color="#FF2441" stop-opacity="0.7914"/>
<stop offset="0.8855" stop-color="#FF2441" stop-opacity="0"/>
</linearGradient>
</defs>
</svg>
