<svg width="113" height="130" viewBox="0 0 113 130" fill="none" xmlns="http://www.w3.org/2000/svg">
<path d="M1.2 62.8C2.1 57 3.10001 51 6.30001 46C9.10001 41.5 13.8 37.5 13.5 32.3C13.4 29.7 12 27.3 11.8 24.7C11.5 20.6 14.5 16.6 18.5 15.3C21.8 14.2 24.9 14.6 27.6 16.1V16C31.8 3.4 52.9 -1.3 64.2 1.1C76.4 3.6 86.8 13.1 90.6 24.9C91.4 27.6 92 30.3 93.1 32.9C97.9 43.9 108.7 42.9 112.1 60.7C115 75.8 106.6 92.3 98.1 97.9C76 112.5 36 108.7 22 104C-3 95.5 0.100001 69 1.2 62.8Z" fill="#E83F53"/>
<path d="M8.49999 69.1C8.49999 69.1 7.09999 87.3 17.4 102.1C18.8 102.8 20.2 103.4 21.8 103.9C34.6 108.3 69.1 111.8 91.8 101.2C96.8 93 99.1 82.3 97.1 69H8.49999V69.1Z" fill="#BF2133"/>
<path d="M62 6.20001C80.3 9.10001 91.4 27.5 91.4 27.5C91.1 26.6 90.9 25.6 90.6 24.7C86.9 12.9 76.4 3.39999 64.2 0.899988C53 -1.40001 31.8 3.29998 27.6 15.8V15.9C27.6 16 43.6 3.30001 62 6.20001Z" fill="#FF7081"/>
<path d="M18.4 15.3C15 16.4 12.3 19.5 11.8 23C18.3 17.5 25.9 16.2 27.3 16C24.7 14.5 21.7 14.2 18.4 15.3Z" fill="#FF7081"/>
<path d="M21.7 114.4C39.3 107.3 45.1 98.5 43.6 85.9H54.4H55.7H63C61.5 98.5 67.3 107.3 84.9 114.4C102.5 121.5 104.8 129.2 104.8 129.2H57.8H54.5H1.99999C1.69999 129.2 4.09999 121.5 21.7 114.4Z" fill="#FFDF57"/>
<path d="M62.8 85.9H55.5H54.2H43.4C44.5 95.1 41.7 102.2 33.4 108.2C38.6 113.7 46 117.2 54.2 117.2C61.9 117.2 69 114.1 74.1 109.1C64.8 103 61.7 95.6 62.8 85.9Z" fill="#FFA3A3"/>
<path d="M55.6 85.9H54.3H43.5C44.2 91.9 43.3 97 40.3 101.5C44.6 103.7 49 104.8 53.1 104.6C58.2 104.3 62.7 103.4 66.5 102.1C63.2 97.5 62.1 92.2 62.9 86H55.6V85.9Z" fill="#FF8282"/>
<path d="M25.0469 78.96C29.9412 76.4013 31.2953 69.3278 28.0713 63.1609C24.8473 56.994 18.2661 54.0691 13.3717 56.6278C8.47736 59.1865 7.12327 66.26 10.3473 72.4269C13.5713 78.5938 20.1525 81.5188 25.0469 78.96Z" fill="#FF8282"/>
<path d="M25.2 74.9C25.2 74.6 25.1 74.4 25.1 74.2C25.1 74.4 25.2 74.5 25.2 74.6C25.2 73.3 25 72.3 24.7 71.5C22.1 61 12.4 60 12.4 60C17.4 63 20.4 66.3 22.4 69C18.9 67.6 13.4 70.6 13.4 70.6C19.8 68.9 22.8 70.3 24.1 71.9C25 73.8 25.2 74.9 25.2 74.9Z" fill="#FF4F4F"/>
<path d="M92.3173 56.5609C87.423 54.0021 80.8418 56.9271 77.6177 63.094C74.3937 69.2609 75.7478 76.3343 80.6422 78.8931C85.5365 81.4518 92.1177 78.5269 95.3417 72.36C98.5658 66.1931 97.2117 59.1196 92.3173 56.5609Z" fill="#FF8282"/>
<path d="M80.4 74.9C80.4 74.6 80.5 74.4 80.5 74.2C80.5 74.4 80.4 74.5 80.4 74.6C80.4 73.3 80.6 72.3 80.9 71.5C83.5 61 93.2 60 93.2 60C88.2 63 85.2 66.3 83.2 69C86.7 67.6 92.2 70.6 92.2 70.6C85.8 68.9 82.8 70.3 81.5 71.9C80.7 73.8 80.4 74.9 80.4 74.9Z" fill="#FF4F4F"/>
<path d="M53.1 99.5C74.7 98.3 83.5 85.9 83.5 69.1V50.2C83.5 37.7 73.4 27.6 60.9 27.6H45.3C32.8 27.6 29.8 34.6 27.6 52.4C27.1 56.7 22.6 62.1 22.7 69.1C22.8 85.9 40 100.2 53.1 99.5Z" fill="#FDBFA8"/>
<path opacity="0.47" d="M52.4 81.4C52.4 81.4 59.4 82 62.7 77.8C62.7 77.8 62.9 81.8 59.4 82.9C55.8 84.1 52.4 81.4 52.4 81.4Z" fill="#FF8282"/>
<path d="M53.1 92.3C42.7 92.8 30 85.6 23.5 75.4C27.1 89.3 41.6 100.2 53.1 99.5C70.2 98.5 79.4 90.5 82.4 78.8C77.3 86.5 67.9 91.6 53.1 92.3Z" fill="#FDD3C3"/>
<path d="M66.3 64.9C67.3493 64.9 68.2 62.9748 68.2 60.6C68.2 58.2252 67.3493 56.3 66.3 56.3C65.2507 56.3 64.4 58.2252 64.4 60.6C64.4 62.9748 65.2507 64.9 66.3 64.9Z" fill="#2E230E"/>
<path d="M40.1 64.9C41.1493 64.9 42 62.9748 42 60.6C42 58.2252 41.1493 56.3 40.1 56.3C39.0507 56.3 38.2 58.2252 38.2 60.6C38.2 62.9748 39.0507 64.9 40.1 64.9Z" fill="#2E230E"/>
<path d="M30.8 55.6C30.8 55.6 40.4 50.5 45.5 49.8C45.5 49.8 43.6 44.3 37.7 46.4C30.8 48.9 30.8 55.6 30.8 55.6Z" fill="#A31727"/>
<path d="M75.3 55.6C75.3 55.6 65.7 50.5 60.6 49.8C60.6 49.8 62.5 44.3 68.4 46.4C75.4 48.9 75.3 55.6 75.3 55.6Z" fill="#A31727"/>
<path d="M57.8 69.5C57.8 71.5 56.2 73.1 54.3 73.1C52.4 73.1 50.8 71.5 50.8 69.5C50.8 67.5 52.4 62.2 54.3 62.2C56.2 62.2 57.8 67.5 57.8 69.5Z" fill="#FF8282"/>
<path d="M38.2 75.1C38.1 75.1 38 75.1 37.8 75C37.4 74.8 37.2 74.3 37.4 73.9L40 68.8C40.2 68.4 40.7 68.2 41.1 68.4C41.5 68.6 41.7 69.1 41.5 69.5L38.9 74.6C38.8 74.9 38.5 75.1 38.2 75.1Z" fill="#FF8282"/>
<path d="M33 75.1C32.9 75.1 32.8 75.1 32.6 75C32.2 74.8 32 74.3 32.2 73.9L34.8 68.8C35 68.4 35.5 68.2 35.9 68.4C36.3 68.6 36.5 69.1 36.3 69.5L33.7 74.6C33.6 74.9 33.3 75.1 33 75.1Z" fill="#FF8282"/>
<path d="M69.7 75.1C69.4 75.1 69.1 74.9 69 74.7L66.4 69.6C66.2 69.2 66.4 68.7 66.8 68.5C67.2 68.3 67.7 68.5 67.9 68.9L70.5 74C70.7 74.4 70.5 74.9 70.1 75.1C70 75.1 69.9 75.1 69.7 75.1Z" fill="#FF8282"/>
<path d="M73.8 74.7C73.5 74.7 73.2 74.5 73.1 74.3L70.5 69.2C70.3 68.8 70.5 68.3 70.9 68.1C71.3 67.9 71.8 68.1 72 68.5L74.6 73.6C74.8 74 74.6 74.5 74.2 74.7C74.1 74.6 74 74.7 73.8 74.7Z" fill="#FF8282"/>
<path d="M52.9 79.2C50 79.2 47.7 78.5 47.5 78.4C47 78.2 46.7 77.7 46.8 77.1C47 76.6 47.5 76.3 48.1 76.4C48.2 76.4 57.1 79.1 61.8 73.1C62.1 72.7 62.8 72.6 63.2 72.9C63.6 73.2 63.7 73.9 63.4 74.3C60.5 78.3 56.3 79.2 52.9 79.2Z" fill="#FF8282"/>
<path d="M76.6 23.3L54.7 17.8L24.3 27.6L22.9 66C27.7 60.2 33.1 41.9 35.7 32C43.3 45.6 67.4 46.6 78.8 46.3C78.9 62.9 83.3 69 83.3 69L85 46L76.6 23.3Z" fill="#E83F53"/>
</svg>
