<svg width="103" height="127" viewBox="0 0 103 127" fill="none" xmlns="http://www.w3.org/2000/svg">
<path d="M83.1 111.4C65.5 104.3 59.7 95.5 61.2 82.9H50.4H49.1H41.8C43.3 95.5 37.5 104.3 19.9 111.4C2.29999 118.5 0 126.2 0 126.2H47H50.3H103C103 126.2 100.6 118.5 83.1 111.4Z" fill="#4A81D2"/>
<path d="M51.5 117.7C62.8 117.7 72.9 114.7 79.8 110C64.8 103.2 59.8 94.7 61.2 82.9H50.4H49.1H41.8C43.2 94.7 38.2 103.2 23.2 110C30.1 114.7 40.2 117.7 51.5 117.7Z" fill="#6692D2"/>
<path d="M27.5 107.9C33.2 112 41.8 114.6 51.5 114.6C61.1 114.6 69.7 112 75.5 107.9C63.8 101.5 59.9 93.6 61.2 82.9H50.4H49.1H41.8C43.1 93.5 39.2 101.4 27.5 107.9Z" fill="#E35224"/>
<path d="M61.2 82.9H50.4H49.1H41.8C42.7 90.7 40.9 97 35.2 102.4C37.6 103.3 40.3 104 43.4 104.4C44.6 106.9 48 108.7 51.9 108.7C56 108.7 59.5 106.8 60.6 104.1C63.2 103.7 65.4 103 67.4 102.2C62.1 96.8 60.3 90.6 61.2 82.9Z" fill="#E33C07"/>
<path d="M22.9172 76.4868C27.8115 73.9281 29.1656 66.8546 25.9416 60.6877C22.7176 54.5208 16.1364 51.5958 11.242 54.1546C6.34769 56.7133 4.99361 63.7868 8.21762 69.9537C11.4416 76.1206 18.0228 79.0456 22.9172 76.4868Z" fill="#E35224"/>
<path d="M23.1 72.5C23.1 72.2 23 72 23 71.8C23 72 23.1 72.1 23.1 72.2C23.1 70.9 22.9 69.9 22.6 69.1C20.1 58.7 10.3 57.6 10.3 57.6C15.2 60.6 18.3 63.9 20.2 66.6C16.7 65.2 11.3 68.2 11.3 68.2C17.7 66.5 20.7 67.9 22 69.5C22.9 71.3 23.1 72.5 23.1 72.5Z" fill="#A61B08"/>
<path d="M90.0509 54.2339C85.1566 51.6751 78.5754 54.6001 75.3513 60.767C72.1273 66.9338 73.4814 74.0074 78.3758 76.5661C83.2701 79.1248 89.8513 76.1998 93.0753 70.033C96.2994 63.8661 94.9453 56.7926 90.0509 54.2339Z" fill="#E35224"/>
<path d="M78.2 72.5C78.2 72.2 78.3 72 78.3 71.8C78.3 72 78.2 72.1 78.2 72.2C78.2 70.9 78.4 69.9 78.7 69.1C81.2 58.7 91 57.6 91 57.6C86.1 60.6 83 63.9 81.1 66.6C84.6 65.2 90 68.2 90 68.2C83.6 66.5 80.6 67.9 79.3 69.5C78.5 71.3 78.2 72.5 78.2 72.5Z" fill="#A61B08"/>
<path d="M81.2 70.4L80.1 66.1L77.9 40.9C77.5 45.7 74.2 45.9 74.2 45.9C75.3 43.4 72.7 36.1 72.7 36.1C71.6 40.5 65 40.2 65 40.2C70.5 32.4 65 20.8 65 20.8C64.3 34.1 54 39.2 36.5 45.9C23.4 50.9 20.9 62.9 20.5 68.6C20.9 82.9 24.8 96.1 43.9 98.6C45 100.9 48.2 102.6 51.8 102.6C55.6 102.6 58.9 100.8 59.9 98.3C77.3 95.3 80.7 83.4 81.2 70.4Z" fill="#F08065"/>
<path opacity="0.45" d="M81.2 70.4L80.1 66.1L77.9 40.9C77.5 45.7 74.2 45.9 74.2 45.9C75.3 43.4 72.7 36.1 72.7 36.1C71.6 40.5 65 40.2 65 40.2C70.5 32.4 65 20.8 65 20.8C64.3 34.1 54 39.2 36.5 45.9C23.4 50.9 20.9 62.9 20.5 68.6C20.9 82.9 24.8 96.1 43.9 98.6C45 100.9 48.2 102.6 51.8 102.6C55.6 102.6 58.9 100.8 59.9 98.3C77.3 95.3 80.7 83.4 81.2 70.4Z" fill="url(#paint0_linear_2_420)"/>
<path d="M60.5 93.2C59.4 95.7 56 97.5 52 97.5C48.1 97.5 44.9 95.8 43.7 93.5C30.8 91.9 24.6 85.9 21.6 78C23.6 88.3 29.3 96.7 44.1 98.6C45.2 100.9 48.4 102.6 52 102.6C55.8 102.6 59.1 100.8 60.1 98.3C73.5 96 78.6 88.2 80.4 78.7C77.6 85.8 72 91.3 60.5 93.2Z" fill="#F0937C"/>
<path d="M71.3 12.2C71.2 5.49999 65 0.899994 65 0.899994L67.3 9.39999C59.2 4.49999 40.2 -3.30001 20.6 15.5C20.6 15.5 -0.3 32.2 13.7 58.3L20.6 71.8C20.8 64.2 22.7 59.3 24 56.8C26.3 52.5 30.2 48.4 36.7 45.9C44.3 43 50.5 40.4 55.2 37.3C52.6 41.3 49.6 43.9 49.6 43.9C66.2 35.1 65.2 20.8 65.2 20.8C65.2 20.8 70.7 32.4 65.2 40.2C65.2 40.2 71.8 40.5 72.9 36.1C72.9 36.1 75.5 43.4 74.4 45.9C74.4 45.9 77.7 45.7 78.1 40.9L78.9 49.9L80.3 66L80.5 66.7L81.2 74.1C81.2 74.1 81.4 73.2 81.8 71.7V71.8L87.2 54C86.9 54 100.9 20.8 71.3 12.2Z" fill="#080603"/>
<path d="M64.1 62.5C65.1493 62.5 66 60.5748 66 58.2C66 55.8252 65.1493 53.9 64.1 53.9C63.0507 53.9 62.2 55.8252 62.2 58.2C62.2 60.5748 63.0507 62.5 64.1 62.5Z" fill="#110918"/>
<path d="M38 62.4C39.0493 62.4 39.9 60.5196 39.9 58.2C39.9 55.8804 39.0493 54 38 54C36.9507 54 36.1 55.8804 36.1 58.2C36.1 60.5196 36.9507 62.4 38 62.4Z" fill="#110918"/>
<path d="M29.7 53.7C29.7 53.7 40 50.4 45.1 50.7C45.1 50.7 44.2 45 38.1 46C30.8 47.1 29.7 53.7 29.7 53.7Z" fill="#080603"/>
<path d="M73 51.1C73.4 50.6 62.3 46.5 57 49.8C57 50 55.3 43.9 63.4 43.2C73.2 43.4 73.1 51.4 73 51.1Z" fill="#080603"/>
<path d="M36.1 72.7C36 72.7 35.9 72.7 35.7 72.6C35.3 72.4 35.1 71.9 35.3 71.6L37.9 66.5C38.1 66.1 38.6 65.9 39 66.1C39.4 66.3 39.6 66.8 39.4 67.1L36.8 72.2C36.7 72.5 36.4 72.7 36.1 72.7Z" fill="#C4301B"/>
<path d="M30.9 72.7C30.8 72.7 30.7 72.7 30.5 72.6C30.1 72.4 29.9 71.9 30.1 71.5L32.7 66.4C32.9 66 33.4 65.8 33.8 66C34.2 66.2 34.4 66.7 34.2 67L31.6 72.1C31.5 72.5 31.2 72.7 30.9 72.7Z" fill="#C4301B"/>
<path d="M67.5 72.7C67.2 72.7 66.9 72.5 66.8 72.3L64.2 67.2C64 66.8 64.2 66.3 64.6 66.2C65 66 65.5 66.2 65.7 66.6L68.3 71.7C68.5 72.1 68.3 72.6 67.9 72.7C67.8 72.6 67.6 72.7 67.5 72.7Z" fill="#C4301B"/>
<path d="M71.6 72.2C71.3 72.2 71 72 70.9 71.8L68.3 66.7C68.1 66.3 68.3 65.8 68.7 65.7C69.1 65.5 69.6 65.7 69.8 66.1L72.4 71.2C72.6 71.6 72.4 72.1 72 72.2C71.8 72.2 71.7 72.2 71.6 72.2Z" fill="#C4301B"/>
<path d="M55.9 64.2C55.6 61.2 53.7 55 51.4 55.1C49.1 55.1 47.2 61.2 47 64.2C45 64.6 43.6 66.6 44 68.7L44.1 69.5C44.3 70.5 45.1 71.2 46.1 71.2H56.8C57.8 71.2 58.6 70.5 58.8 69.5L58.9 68.7C59.3 66.6 57.9 64.7 55.9 64.2Z" fill="#C4301B"/>
<path d="M50.3 79.8C44.3 79.8 39.9 77.8 39.7 77.7C39.2 77.5 39 76.9 39.2 76.4C39.4 75.9 40 75.7 40.5 75.9C40.6 75.9 51.3 80.7 61.7 74.9C62.2 74.6 62.8 74.8 63.1 75.3C63.4 75.8 63.2 76.4 62.7 76.7C58.4 79 54.1 79.8 50.3 79.8Z" fill="#C4301B"/>
<path d="M43.3 81.5C43.3 81.5 53.4 84.1 60.5 80.4C60.5 80.4 52.8 88.3 43.3 81.5Z" fill="#E3572A"/>
<defs>
<linearGradient id="paint0_linear_2_420" x1="49.8488" y1="32.0269" x2="50.9599" y2="70.9158" gradientUnits="userSpaceOnUse">
<stop stop-color="#F00E47"/>
<stop offset="0.2086" stop-color="#F00E47" stop-opacity="0.7914"/>
<stop offset="0.3652" stop-color="#F00E47" stop-opacity="0.5024"/>
<stop offset="0.8855" stop-color="#F00E47" stop-opacity="0"/>
</linearGradient>
</defs>
</svg>
