<svg width="104" height="129" viewBox="0 0 104 129" fill="none" xmlns="http://www.w3.org/2000/svg">
<path d="M84 113.4C66.4 106.3 60.6 97.5 62.1 84.9H51.3H50H42.7C44.2 97.5 38.4 106.3 20.8 113.4C3.19999 120.5 0.899994 128.2 0.899994 128.2H47.9H51.2H103.7C103.9 128.2 101.6 120.5 84 113.4Z" fill="#FF8482"/>
<path d="M52.4 105.5C57.5 105.5 62.3 104.2 66.5 101.9C62.6 97.1 61.4 91.5 62.2 84.9H51.4H50.1H42.8C43.6 91.6 42.3 97.2 38.4 102C42.6 104.3 47.4 105.5 52.4 105.5Z" fill="#FF5B59"/>
<path d="M84 113.4C77.9 110.9 73.2 108.3 69.8 105.3L53.6 120.3L35.4 105.1C31.9 108.1 27.2 110.8 21 113.3C3.4 120.4 1.10001 128.1 1.10001 128.1H48.1H51.4H103.9C103.9 128.2 101.6 120.5 84 113.4Z" fill="#6F87ED"/>
<path d="M24.4704 77.8842C29.3648 75.3254 30.6981 68.2123 27.4485 61.9964C24.1989 55.7806 17.597 52.816 12.7026 55.3747C7.80826 57.9334 6.47493 65.0466 9.72452 71.2624C12.9741 77.4783 19.5761 80.4429 24.4704 77.8842Z" fill="#FF8482"/>
<path d="M24.7 73.8C24.7 73.5 24.6 73.3 24.6 73.1C24.6 73.3 24.7 73.4 24.7 73.5C24.7 72.2 24.5 71.2 24.2 70.4C21.6 59.9 11.8 58.9 11.8 58.9C16.8 61.9 19.9 65.2 21.8 67.9C18.3 66.5 12.8 69.5 12.8 69.5C19.3 67.8 22.2 69.2 23.6 70.9C24.4 72.7 24.7 73.8 24.7 73.8Z" fill="#FF5B59"/>
<path d="M91.9703 55.402C87.0759 52.8433 80.474 55.8079 77.2244 62.0237C73.9748 68.2396 75.3081 75.3528 80.2025 77.9115C85.0968 80.4702 91.6988 77.5056 94.9484 71.2897C98.198 65.0739 96.8646 57.9607 91.9703 55.402Z" fill="#FF8482"/>
<path d="M80.1 73.8C80.1 73.5 80.2 73.3 80.2 73.1C80.2 73.3 80.1 73.4 80.1 73.5C80.1 72.2 80.3 71.2 80.6 70.4C83.2 59.9 93 58.9 93 58.9C88 61.9 84.9 65.2 83 67.9C86.5 66.5 92 69.5 92 69.5C85.5 67.8 82.6 69.2 81.2 70.9C80.3 72.7 80.1 73.8 80.1 73.8Z" fill="#FF5B59"/>
<path d="M90.9 35.7C94.9 27 99.8 11.5 80 2.60001C80.1 2.70001 71.6 -4.59999 56.3 8.60001C51.4 12.9 44.9 14.7 38.7 12.7C32.5 10.7 24.4 10.9 19.9 22.1C18.7 25.1 18.3 27.8 18.5 30.2C17.1 28.4 15.1 27.2 13.3 30.1C11.8 32.4 13 42.4 16.6 51.5C16.6 51.5 18.7 73.3 28.6 76.7L38.4 63.3C46.5 63.1 56.6 62.8 65 62.7L75.3 76.8C82.4 74.4 85.5 62.6 86.7 56C87.1 55.6 87.5 55.1 87.9 54.7C92.5 49.6 94.2 42.6 91.4 36.8C91.2 36.3 91.1 36 90.9 35.7Z" fill="#420E2F"/>
<path d="M38.8 12.6C32.6 10.6 24.5 10.8 20 22C19.5 23.2 19.2 24.3 18.9 25.4L19.2 26C19.1 26 25.2 11.9 38.8 12.6Z" fill="#7C1A59"/>
<path d="M80 2.50001C80.1 2.60001 74.9 -1.79999 65.4 2.50001C67.3 2.50001 91 2.70001 94.1 26C95.5 18 93.6 8.70001 80 2.50001Z" fill="#7C1A59"/>
<path d="M43.3 26.7C31.9 26.7 22.7 35.9 22.5 47.2L22.3 67C22.3 85.1 35.7 99.8 52.3 99.8C68.9 99.8 82.3 85.1 82.3 67L82.2 46C82.2 35.3 75.3 20.6 64.6 20.6L43.3 26.7Z" fill="#FDB193"/>
<path opacity="0.39" d="M54.7 85.8C54.7 85.8 60.1 86 62 81.7C62 81.7 63.5 84.8 59.9 86.6C56.2 88.4 54.7 85.8 54.7 85.8Z" fill="#FF8282"/>
<path opacity="0.55" d="M82.3 46.1C82.3 35.4 75.4 20.7 64.7 20.7L43.3 26.8C31.9 26.8 22.7 36 22.5 47.3L22.4 56.7L25.4 51.5C25.4 51.4 27.5 42.6 46.5 42.3C53.1 42.2 61.2 40.3 66.5 32.7C68.4 38.4 71.5 43.5 75.3 46.6C77.5 48.4 79.8 49.4 82.3 49.8V46.1Z" fill="#FDB193"/>
<path d="M52.4 95.6C40 95.6 29.3 88.4 24 77.8C28.1 90.6 39.2 99.9 52.4 99.9C65.5 99.9 76.7 90.7 80.8 77.8C75.4 88.3 64.7 95.6 52.4 95.6Z" fill="#FDD5C5"/>
<path d="M61.5 72.8C61.8 73.8 62 74.8 62 75.9C62 80.7 58.2 84.6 53.5 84.6C49.4 84.6 46 81.6 45.2 77.6L61.5 72.8Z" fill="#230F0B"/>
<path d="M53.5 84.6C52 84.6 50.7 84.2 49.5 83.6C50.3 79.8 53.8 76.9 58.1 76.9C59.4 76.9 60.7 77.2 61.8 77.7C61 81.6 57.6 84.6 53.5 84.6Z" fill="#E8132C"/>
<path d="M56.7 67.6C56.7 70.4 54.8 72.7 52.4 72.7C50 72.7 48.1 70.4 48.1 67.6C48.1 64.8 50 61.2 52.4 61.2C54.7 61.2 56.7 64.7 56.7 67.6Z" fill="#FF6A68"/>
<path d="M66 62.7C66.9941 62.7 67.8 60.7748 67.8 58.4C67.8 56.0252 66.9941 54.1 66 54.1C65.0059 54.1 64.2 56.0252 64.2 58.4C64.2 60.7748 65.0059 62.7 66 62.7Z" fill="#25110D"/>
<path d="M74.4 53.8C74.6 53.7 64.8 47.4 58.7 47.7C58.6 47.8 58.8 42.3 66.9 45.2C74.7 48.3 74.3 53.9 74.4 53.8Z" fill="#420E2F"/>
<path d="M38.7 62.7C39.6941 62.7 40.5 60.7748 40.5 58.4C40.5 56.0252 39.6941 54.1 38.7 54.1C37.7059 54.1 36.9 56.0252 36.9 58.4C36.9 60.7748 37.7059 62.7 38.7 62.7Z" fill="#25110D"/>
<path d="M29.4 53.8C29.2 53.7 39 47.4 45.1 47.7C45.2 47.8 45 42.3 36.9 45.2C29.1 48.3 29.5 53.9 29.4 53.8Z" fill="#420E2F"/>
<path d="M34.4 72.9C34.3 72.9 34.2 72.9 34.1 72.8C33.7 72.6 33.5 72.1 33.7 71.7L36.2 66.6C36.4 66.2 36.9 66 37.3 66.2C37.7 66.4 37.9 66.9 37.7 67.3L35.2 72.4C35 72.7 34.7 72.9 34.4 72.9Z" fill="#FF6A68"/>
<path d="M29.5 72.9C29.4 72.9 29.3 72.9 29.2 72.8C28.8 72.6 28.6 72.1 28.8 71.7L31.3 66.6C31.5 66.2 32 66 32.4 66.2C32.8 66.4 33 66.9 32.8 67.3L30.3 72.4C30 72.7 29.8 72.9 29.5 72.9Z" fill="#FF6A68"/>
<path d="M69.8 72.9C69.5 72.9 69.2 72.7 69.1 72.5L66.6 67.4C66.4 67 66.6 66.5 67 66.3C67.4 66.1 67.9 66.3 68.1 66.7L70.6 71.8C70.8 72.2 70.6 72.7 70.2 72.9C70.1 72.9 69.9 72.9 69.8 72.9Z" fill="#FF6A68"/>
<path d="M74.8 72.9C74.5 72.9 74.2 72.7 74.1 72.5L71.6 67.4C71.4 67 71.6 66.5 72 66.3C72.4 66.1 72.9 66.3 73.1 66.7L75.6 71.8C75.8 72.2 75.6 72.7 75.2 72.9C75 72.9 74.9 72.9 74.8 72.9Z" fill="#FF6A68"/>
<path d="M83.7 37.5L69.6 13.4L35.5 23.7L17.2 45.8C21.1 48.7 22.5 50.9 22.5 50.9C22.5 50.9 24.5 39.5 46.5 39.3C61 39.1 65.8 30.1 67.6 22.7C68 31.3 72.2 40.1 77.2 44.2C80.9 47.2 84.5 47.3 87.4 46.3L83.7 37.5Z" fill="#420E2F"/>
</svg>
