<svg width="107" height="126" viewBox="0 0 107 126" fill="none" xmlns="http://www.w3.org/2000/svg">
<path d="M104.3 55.4C104.3 55.4 99.2 72.3 73.2 60.4V40.4C73.2 40.4 88.7 48.6 100.2 46.6C106.4 45.4 104.3 55.4 104.3 55.4Z" fill="#078C81"/>
<path d="M85.7 110C67.6 102.7 61.6 93.6 63.1 80.6H52H50.7H43.2C44.7 93.7 38.8 102.7 20.6 110C2.40001 117.3 0 125.3 0 125.3H48.6H52H106.2C106.3 125.2 103.9 117.3 85.7 110Z" fill="#E83F53"/>
<path d="M30.2 105.3L30.7 105.7C37.5 111.1 45.3 114 53.1 114C61 114 68.7 111.1 75.5 105.7L76 105.3C75.4 104.9 74.8 104.5 74.2 104.2C67.9 109.2 60.7 112.1 53 112.1C45.3 112.1 38.1 109.2 31.8 104.2C31.4 104.5 30.8 104.9 30.2 105.3Z" fill="white"/>
<path d="M32 104.1C38.3 109.1 45.5 112 53.2 112C60.9 112 68.1 109.1 74.4 104.1C65.1 97.9 62 90.3 63.2 80.5H52.1H50.8H43.3C44.4 90.3 41.3 97.9 32 104.1Z" fill="#FD9A8B"/>
<path d="M63.2 80.5H52.1H50.8H43.3C44.1 87.1 42.9 92.6 39.3 97.4C43.6 99.7 48.3 101.1 53.4 101.1C58.4 101.1 63.1 99.8 67.3 97.5C63.5 92.7 62.4 87.1 63.2 80.5Z" fill="#FD7058"/>
<path d="M25.1807 74.6807C30.075 72.122 31.4084 65.0088 28.1588 58.793C24.9092 52.5772 18.3072 49.6125 13.4129 52.1713C8.51853 54.73 7.18518 61.8432 10.4348 68.059C13.6844 74.2748 20.2863 77.2395 25.1807 74.6807Z" fill="#FD8977"/>
<path d="M25.4 70.6C25.4 70.3 25.3 70.1 25.3 69.9C25.3 70.1 25.4 70.2 25.4 70.3C25.4 69 25.2 68 24.9 67.2C22.3 56.7 12.5 55.7 12.5 55.7C17.5 58.7 20.6 62 22.5 64.7C19 63.3 13.5 66.3 13.5 66.3C20 64.6 22.9 66 24.3 67.7C25.1 69.4 25.4 70.6 25.4 70.6Z" fill="#FD5F47"/>
<path d="M92.6611 52.1596C87.7667 49.6009 81.1647 52.5656 77.9152 58.7814C74.6656 64.9972 75.9989 72.1104 80.8932 74.6691C85.7876 77.2279 92.3896 74.2632 95.6392 68.0474C98.8887 61.8316 97.5554 54.7184 92.6611 52.1596Z" fill="#FD8977"/>
<path d="M80.7 70.6C80.7 70.3 80.8 70.1 80.8 69.9C80.8 70.1 80.7 70.2 80.7 70.3C80.7 69 80.9 68 81.2 67.2C83.8 56.7 93.6 55.7 93.6 55.7C88.6 58.7 85.5 62 83.6 64.7C87.1 63.3 92.6 66.3 92.6 66.3C86.1 64.6 83.2 66 81.8 67.7C81 69.4 80.7 70.6 80.7 70.6Z" fill="#FD5F47"/>
<path d="M87.6 44.4C87.6 44.4 90.7 70.3 77.6 73.6L66.6 56.8L72.2 25.1L87.6 44.4Z" fill="#1E1C36"/>
<path d="M18.4 41.9C18.4 41.9 16.7 63.6 26.6 70.6L33.5 23.7L18.4 41.9Z" fill="#1E1C36"/>
<path d="M44 23.5C32.6 23.5 23.4 32.7 23.2 44L23 63.8C23 81.9 36.4 96.6 53 96.6C69.6 96.6 83 81.9 83 63.8L82.9 42.8C82.9 32.1 74.2 23.5 63.5 23.5H44Z" fill="#EBB084"/>
<path opacity="0.49" d="M83 48.5V42.9C83 32.2 74.3 23.6 63.6 23.6H44C32.6 23.6 23.4 32.8 23.2 44.1V44.6C34.9 41.9 55.5 40 83 48.5Z" fill="#FD7058"/>
<path d="M53.1 90.8C41.7 90.8 31.7 85.3 25.6 77C30.2 88.6 40.8 96.7 53.1 96.7C65.4 96.7 76 88.6 80.6 77C74.5 85.3 64.4 90.8 53.1 90.8Z" fill="#EBC5A9"/>
<path d="M66.7 59.5C67.6941 59.5 68.5 57.5748 68.5 55.2C68.5 52.8252 67.6941 50.9 66.7 50.9C65.7059 50.9 64.9 52.8252 64.9 55.2C64.9 57.5748 65.7059 59.5 66.7 59.5Z" fill="#25110D"/>
<path d="M75.1 50.5C75.3 50.4 65.5 44.1 59.4 44.4C59.3 44.5 59.5 39 67.6 41.9C75.4 45.1 75 50.6 75.1 50.5Z" fill="#1E1C36"/>
<path d="M39.4 59.5C40.3941 59.5 41.2 57.5748 41.2 55.2C41.2 52.8252 40.3941 50.9 39.4 50.9C38.4059 50.9 37.6 52.8252 37.6 55.2C37.6 57.5748 38.4059 59.5 39.4 59.5Z" fill="#25110D"/>
<path d="M30.1 50.5C29.9 50.4 39.7 44.1 45.8 44.4C45.9 44.5 45.7 39 37.6 41.9C29.8 45.1 30.2 50.6 30.1 50.5Z" fill="#1E1C36"/>
<path d="M35.1 69.7C35 69.7 34.9 69.7 34.8 69.6C34.4 69.4 34.2 68.9 34.4 68.5L36.9 63.4C37.1 63 37.6 62.8 38 63C38.4 63.2 38.6 63.7 38.4 64.1L35.9 69.2C35.7 69.5 35.4 69.7 35.1 69.7Z" fill="#FD5F44"/>
<path d="M30.1 69.7C30 69.7 29.9 69.7 29.8 69.6C29.4 69.4 29.2 68.9 29.4 68.5L31.9 63.4C32.1 63 32.6 62.8 33 63C33.4 63.2 33.6 63.7 33.4 64.1L30.9 69.2C30.7 69.5 30.4 69.7 30.1 69.7Z" fill="#FD5F44"/>
<path d="M70.5 69.7C70.2 69.7 69.9 69.5 69.8 69.3L67.3 64.2C67.1 63.8 67.3 63.3 67.7 63.1C68.1 62.9 68.6 63.1 68.8 63.5L71.3 68.6C71.5 69 71.3001 69.5 70.9001 69.7C70.8001 69.7 70.6 69.7 70.5 69.7Z" fill="#FD5F44"/>
<path d="M75.5 69.7C75.2 69.7 74.9 69.5 74.8 69.3L72.3 64.2C72.1 63.8 72.3 63.3 72.7 63.1C73.1 62.9 73.6 63.1 73.8 63.5L76.3 68.6C76.5 69 76.3001 69.5 75.9001 69.7C75.7001 69.7 75.6 69.7 75.5 69.7Z" fill="#FD5F44"/>
<path d="M46 75.4C45.6 75.1 45.3 74.9 45 74.7C44.6 74.4 44.6 73.9 44.9 73.5C45.2 73.1 45.7 73.1 46.1 73.4C46.4 73.6 53.2 78.9 58 74.1C58.3 73.8 58.9 73.8 59.2 74.1C59.5 74.4 59.5 75 59.2 75.3C54.9 79.5 49.2 77.5 46 75.4Z" fill="#FD5F44"/>
<path d="M45.3 68C45.3 68 53.2 72 61.1 68C61.1 68 62.7 62.5 53.2 62.5C44 62.5 45.3 68 45.3 68Z" fill="#FD5F44"/>
<path d="M87.6 44.4C87.6 44.4 43.4 31.1 18.4 41.9C18.4 41.9 17.1 21.7 23.2 15.1C29.1 8.7 41.7 2.49999 54.2 2.89999C69.4 3.39999 84.3 11.7 86.3 15.3C93.7 28.4 87.6 44.4 87.6 44.4Z" fill="#0AC2B2"/>
<path d="M37.1 34.1V37.9C47.7 37.2 58.9 38.5 68 40L68.6 35.1L52 26.3L37.1 34.1Z" fill="#078C81"/>
<path d="M54.7 5C57.7928 5 60.3 4.05979 60.3 2.89999C60.3 1.7402 57.7928 0.799988 54.7 0.799988C51.6072 0.799988 49.1 1.7402 49.1 2.89999C49.1 4.05979 51.6072 5 54.7 5Z" fill="#078C81"/>
<path d="M68.6 35.1C68.6 35.1 51.5 30.1 37.1 34.1C37.1 34.1 39.1 19.4 51.5 17.6C64 15.8 68.6 35.1 68.6 35.1Z" fill="#1E1C36"/>
</svg>
