<svg width="104" height="123" viewBox="0 0 104 123" fill="none" xmlns="http://www.w3.org/2000/svg">
<path d="M83.3 107.4C65.7 100.3 59.9001 91.5 61.4001 78.9H50.6H49.3H42C43.5 91.5 37.7 100.3 20.1 107.4C2.50001 114.5 0.200043 122.2 0.200043 122.2H47.2H50.5H103C103.2 122.2 100.9 114.5 83.3 107.4Z" fill="#0AC2B2"/>
<path opacity="0.44" d="M52.4001 113.2C45.3001 113.2 39 116.8 35.3 122.3H47.3H50.6H69.4001C65.8001 116.8 59.5001 113.2 52.4001 113.2Z" fill="#078C81"/>
<path d="M35.6 98.3C39.8 103.1 45.9 106.1 52.8 106.1C59.2 106.1 64.9 103.5 69 99.3C62.5 93.7 60.4001 87.1 61.4001 78.9H50.6H49.3H42C43 86.7 41.2 93 35.6 98.3Z" fill="#B23A3A"/>
<path d="M51.6 97.8C56.3 97.8 60.8 96.7 64.8 94.7C61.7 90.2 60.7001 85 61.4001 79H50.6H49.3H42C42.7 85.1 41.7 90.3 38.6 94.8C42.6 96.7 47 97.8 51.6 97.8Z" fill="#9C2222"/>
<path d="M89.3 50.9C89.9 42.4 91.7 28.5 89.7 23.5C91.3 22.9 92.6 21.5 93.1 19.9C93.2 19.4 93.3 18.8 93.2 18.3C93.1 17.9 92.9 17.5 92.6 17.1C92 16.3 91.1 15.6 90.1 15.1C91.6 13.4 91.9 10.7 90.7 8.70002C90.4 8.20002 90.1 7.80001 89.6 7.50001C89.2 7.30001 88.8 7.20002 88.3 7.10002C85.3 6.80002 82.1 8.70001 81 11.5C80.8 12 80.6 12.6 80.3 13.3C78.2 12.5 75.9 12.2 73.5 12.5C73.3 12.5 73.1 12.5 73.1 12.5C71.4 12.8 69.8 12.6 68.2 12.1L67 57.1L89.3 50.9Z" fill="#080603"/>
<path d="M23.7712 71.8815C28.6656 69.3228 29.9989 62.2096 26.7493 55.9938C23.4997 49.7779 16.8977 46.8133 12.0034 49.372C7.10904 51.9307 5.77571 59.0439 9.0253 65.2598C12.2749 71.4756 18.8769 74.4402 23.7712 71.8815Z" fill="#A82929"/>
<path d="M24 67.8C24 67.5 23.9001 67.3 23.9001 67.1C23.9001 67.3 24 67.4 24 67.5C24 66.2 23.8 65.2 23.5 64.4C20.9 53.9 11.1 52.9 11.1 52.9C16.1 55.9 19.2 59.2 21.1 61.9C17.6 60.5 12.1 63.5 12.1 63.5C18.6 61.8 21.5001 63.2 22.9001 64.9C23.7001 66.7 24 67.8 24 67.8Z" fill="#871313"/>
<path d="M91.2295 49.3968C86.3352 46.8381 79.7332 49.8027 76.4836 56.0185C73.234 62.2344 74.5674 69.3476 79.4617 71.9063C84.356 74.465 90.958 71.5004 94.2076 65.2845C97.4572 59.0687 96.1239 51.9556 91.2295 49.3968Z" fill="#A82929"/>
<path d="M79.3 67.8C79.3 67.5 79.4001 67.3 79.4001 67.1C79.4001 67.3 79.3 67.4 79.3 67.5C79.3 66.2 79.5 65.2 79.8 64.4C82.4 53.9 92.2 52.9 92.2 52.9C87.2 55.9 84.1 59.2 82.2 61.9C85.7 60.5 91.2 63.5 91.2 63.5C84.7 61.8 81.8001 63.2 80.4001 64.9C79.6001 66.7 79.3 67.8 79.3 67.8Z" fill="#871313"/>
<path d="M22.1 67.1C22.1 67.1 14.0001 51.8 17.9001 33L30.0001 23.3L22.1 67.1Z" fill="#080603"/>
<path d="M81.3 67.1C81.3 67.1 89.4 51.8 85.5 33L73.4001 23.3L81.3 67.1Z" fill="#080603"/>
<path d="M42.6 20.7C31.2 20.7 22 29.9 21.8 41.2L21.6 61C21.6 79.1 35 93.8 51.6 93.8C68.2 93.8 81.6 79.1 81.6 61L81.5 40C81.5 29.3 72.8 20.7 62.1 20.7H42.6Z" fill="#C06161"/>
<path d="M81.6 43.1V40.1C81.6 29.4 72.9 20.8 62.2 20.8H42.6C31.2 20.8 22 30 21.8 41.3V43.1C31.1 38.7 53.3 29.4 67.7 33.1C72.9 34.3 77.6 38.2 81.6 43.1Z" fill="#B23A3A"/>
<path d="M51.6 89.8C41.6 89.8 32.6001 85.5 26.4001 78.8C31.7001 87.8 41 93.8 51.6 93.8C62.2 93.8 71.5 87.8 76.8 78.8C70.7 85.6 61.7 89.8 51.6 89.8Z" fill="#D97979"/>
<path d="M55.9001 61.6C55.9001 64.4 54 66.7 51.6 66.7C49.2 66.7 47.3 64.4 47.3 61.6C47.3 58.8 49.2 55.2 51.6 55.2C54 55.2 55.9001 58.7 55.9001 61.6Z" fill="#A82929"/>
<path d="M65.3 56.7C66.2941 56.7 67.1 54.7748 67.1 52.4C67.1 50.0252 66.2941 48.1 65.3 48.1C64.3059 48.1 63.5 50.0252 63.5 52.4C63.5 54.7748 64.3059 56.7 65.3 56.7Z" fill="#25110D"/>
<path d="M73.7001 47.8C73.9001 47.7 64.1 41.4 58 41.7C57.9 41.8 58.1001 36.3 66.2001 39.2C74.0001 42.3 73.6001 47.9 73.7001 47.8Z" fill="#080603"/>
<path d="M38 56.7C38.9941 56.7 39.8 54.7748 39.8 52.4C39.8 50.0252 38.9941 48.1 38 48.1C37.0059 48.1 36.2 50.0252 36.2 52.4C36.2 54.7748 37.0059 56.7 38 56.7Z" fill="#25110D"/>
<path d="M28.7001 47.8C28.5001 47.7 38.3001 41.4 44.4001 41.7C44.5001 41.8 44.3001 36.3 36.2001 39.2C28.4001 42.3 28.8001 47.9 28.7001 47.8Z" fill="#080603"/>
<path d="M33.7001 66.9C33.6001 66.9 33.5001 66.9 33.4001 66.8C33.0001 66.6 32.8001 66.1 33.0001 65.7L35.5001 60.6C35.7001 60.2 36.2 60 36.6 60.2C37 60.4 37.2001 60.9 37.0001 61.3L34.5001 66.4C34.3001 66.7 34.0001 66.9 33.7001 66.9Z" fill="#A82929"/>
<path d="M28.7001 66.9C28.6001 66.9 28.5001 66.9 28.4001 66.8C28.0001 66.6 27.8001 66.1 28.0001 65.7L30.5001 60.6C30.7001 60.2 31.2 60 31.6 60.2C32 60.4 32.2001 60.9 32.0001 61.3L29.5001 66.4C29.3001 66.7 29.0001 66.9 28.7001 66.9Z" fill="#A82929"/>
<path d="M69.1 66.9C68.8 66.9 68.5 66.7 68.4 66.5L65.9 61.4C65.7 61 65.9 60.5 66.3 60.3C66.7 60.1 67.2 60.3 67.4 60.7L69.9 65.8C70.1 66.2 69.9 66.7 69.5 66.9C69.3 66.9 69.2 66.9 69.1 66.9Z" fill="#A82929"/>
<path d="M74.1 66.9C73.8 66.9 73.5 66.7 73.4 66.5L70.9 61.4C70.7 61 70.9 60.5 71.3 60.3C71.7 60.1 72.2 60.3 72.4 60.7L74.9 65.8C75.1 66.2 74.9 66.7 74.5 66.9C74.3 66.9 74.2 66.9 74.1 66.9Z" fill="#A82929"/>
<path d="M48.8 72.5C46.9 72.5 44.6 72.1 41.8 70.6C41.3 70.3 41.1 69.7 41.4 69.2C41.7 68.7 42.3 68.5 42.8 68.8C48.2 71.6 51.8 69.9 52 69.9C52.5 69.7 53.1 69.9 53.3 70.4C53.5 70.9 53.3 71.5 52.8 71.7C52.8 71.7 51.2 72.5 48.8 72.5Z" fill="#A82929"/>
<path d="M66.5 3.10002C55.2 -0.0999849 9.20004 -5.09999 5.70004 30.5C9.70004 27.3 15.1001 25.7 18.9001 25.7C10.7001 32.9 11.1 44.2 11 44.2C42.1 22.8 74.8 21.9 81.2 36.5C81.1 36.8 87.5 8.80001 66.5 3.10002Z" fill="#080603"/>
</svg>
