<svg width="106" height="136" viewBox="0 0 106 136" fill="none" xmlns="http://www.w3.org/2000/svg">
<path d="M52.1 101.4C74.8541 101.4 93.3 78.7008 93.3 50.7C93.3 22.6992 74.8541 0 52.1 0C29.3459 0 10.9 22.6992 10.9 50.7C10.9 78.7008 29.3459 101.4 52.1 101.4Z" fill="#E6D66A"/>
<path d="M52.1 101.4C80.7083 101.4 103.9 79.6858 103.9 52.9C103.9 26.1142 80.7083 4.39999 52.1 4.39999C23.4916 4.39999 0.299988 26.1142 0.299988 52.9C0.299988 79.6858 23.4916 101.4 52.1 101.4Z" fill="#FAEE9B"/>
<path d="M52.1 9.89999C70.3 9.89999 86.5 17.2 96.9 28.6C87.9 14.2 71.2 4.39999 52.1 4.39999C33 4.39999 16.3 14.1 7.29999 28.6C17.6 17.2 33.8 9.89999 52.1 9.89999Z" fill="#FAF3C6"/>
<path d="M103.4 59.4C100.5 54 95.9 49.6 88.6 47.2L23.6 45.3C23.6 45.3 9.19998 51.9 2.19998 66.1C8.29998 86.5 28.3 101.4 52.1 101.4C78.3 101.5 100 83.1 103.4 59.4Z" fill="#E6D66A"/>
<path d="M88.3 86.6C87.2 83.6 87 80.3 87.6 77.1C87.6 76.9 87.7 76.6 87.7 76.4C91.9 70.5 94.3 63.4 94.3 55.8C94.3 35 76.3 18.1 54 18.1C31.8 18.1 13.7 35 13.7 55.8C13.7 59.7 14.3 63.4 15.5 66.9C13.1 70.3 9.50001 74.6 4.90001 77.4C-3.99999 82.7 -0.399998 98.2 17.6 102.9C17.6 102.9 17.9 106.3 14.7 109.1C14.7 109.1 26.7 115.1 39.6 114.6C48.1 114.2 56.7 114.6 65.1 115.6C91.3 118.8 102.1 101.6 102.1 101.6C95 100.1 90.7 93 88.3 86.6Z" fill="#230E0A"/>
<path d="M85.3 120.4C67.7 113.3 61.9 104.5 63.4 91.9H52.6H51.3H44C45.5 104.5 39.7 113.3 22.1 120.4C4.50001 127.5 2.20001 135.2 2.20001 135.2H49.2H52.5H105C105.2 135.2 102.8 127.5 85.3 120.4Z" fill="white"/>
<path d="M34.9 113.6C39.1 124.3 46 131.3 53.7 131.3C61.4 131.3 68.4 124.3 72.5 113.6C64.8 107.8 62.3 100.8 63.3 91.9H52.5H51.2H43.9C45.1 100.8 42.6 107.8 34.9 113.6Z" fill="#FF8282"/>
<path opacity="0.45" d="M34.9 113.6C39.1 124.3 46 131.3 53.7 131.3C61.4 131.3 68.4 124.3 72.5 113.6C64.8 107.8 62.3 100.8 63.3 91.9H52.5H51.2H43.9C45.1 100.8 42.6 107.8 34.9 113.6Z" fill="url(#paint0_linear_2_464)"/>
<path opacity="0.57" d="M65.3 109.6C65.8 109.1 66.4 108.6 67 108C63.7 103.4 62.6 98.1 63.4 91.9H52.6H51.3H44C44.7 98.1 43.7 103.3 40.5 107.9C42 109.1 43.4 110.1 44.6 110.9C47.1 112.6 50.1 113.5 53.2 113.5H55.1C58.9 113.6 62.5 112.2 65.3 109.6Z" fill="#FF6161"/>
<path d="M25.7811 84.8509C30.6754 82.2922 32.0088 75.179 28.7592 68.9632C25.5096 62.7473 18.9076 59.7827 14.0132 62.3414C9.1189 64.9001 7.78557 72.0133 11.0352 78.2292C14.2848 84.445 20.8867 87.4096 25.7811 84.8509Z" fill="#FF8282"/>
<path d="M25.9 80.8C25.9 80.5 25.8 80.3 25.8 80.1C25.8 80.3 25.9 80.4 25.9 80.5C25.9 79.2 25.7 78.2 25.4 77.4C22.8 66.9 13 65.9 13 65.9C18 68.9 21.1 72.2 23 74.9C19.5 73.5 14 76.5 14 76.5C20.5 74.8 23.4 76.2 24.8 77.9C25.7 79.6 25.9 80.8 25.9 80.8Z" fill="#FF4F4F"/>
<path d="M93.2047 62.3203C88.3104 59.7616 81.7084 62.7262 78.4588 68.9421C75.2092 75.1579 76.5425 82.2711 81.4369 84.8298C86.3312 87.3885 92.9332 84.4239 96.1828 78.208C99.4324 71.9922 98.0991 64.879 93.2047 62.3203Z" fill="#FF8282"/>
<path d="M81.3 80.8C81.3 80.5 81.4 80.3 81.4 80.1C81.4 80.3 81.3 80.4 81.3 80.5C81.3 79.2 81.5 78.2 81.8 77.4C84.4 66.9 94.2 65.9 94.2 65.9C89.2 68.9 86.1 72.2 84.2 74.9C87.7 73.5 93.2 76.5 93.2 76.5C86.7 74.8 83.8 76.2 82.4 77.9C81.6 79.6 81.3 80.8 81.3 80.8Z" fill="#FF4F4F"/>
<path d="M21 85.6C22.1598 85.6 23.1 84.6598 23.1 83.5C23.1 82.3402 22.1598 81.4 21 81.4C19.8402 81.4 18.9 82.3402 18.9 83.5C18.9 84.6598 19.8402 85.6 21 85.6Z" fill="white"/>
<path d="M85.8 85.6C86.9598 85.6 87.9 84.6598 87.9 83.5C87.9 82.3402 86.9598 81.4 85.8 81.4C84.6402 81.4 83.7 82.3402 83.7 83.5C83.7 84.6598 84.6402 85.6 85.8 85.6Z" fill="white"/>
<path d="M81.3 57.1C81.9 58.6 82.6 60.1 83.4 61.5C84.1 62.9 85 64.3 85.9 65.5C87.8 68 90.1 70 92.7 71.3C93.4 71.6 94.1 71.9 94.8 72.2C95.6 72.5 96.4 72.8 97.2 73.2L98.4 73.8C98.8 74 99.1 74.3 99.5 74.5C99.9 74.7 100.2 75 100.6 75.3C100.9 75.6 101.3 75.9 101.6 76.2C104.1 78.7 105.6 82.2 105.3 85.6C104.4 82.4 102.5 79.8 100.1 78C98.9 77.1 97.6 76.3 96.2 75.8C95.5 75.5 94.8 75.3 94.1 75C93.3 74.7 92.4 74.4 91.6 74C88.4 72.4 85.7 69.8 84.1 66.7C83.7 66 83.3 65.2 83 64.4C82.7 63.6 82.4 62.8 82.2 62C81.6 60.5 81.3 58.8 81.3 57.1Z" fill="#230E0A"/>
<path d="M82.5 77.9C82.5 77.9 90.9 60.4 88 45.7V45.2C88 33 78 23 65.8 23H43.3C30.3 23 19.6 33.5 19.5 46.5L19.4 51.4C17.2 67.2 23.6 74 23.6 74L35.8 58.2L75.6 56.2L82.5 77.9Z" fill="#230E0A"/>
<path d="M44.6 33.7C33.2 33.7 24 42.9 23.8 54.2L23.6 74C23.6 87.7 38.3 99.5 45.4 104.3C47.7 105.9 50.4 106.7 53.2 106.7H55C58.5 106.7 61.8 105.4 64.3 103.1C71 96.9 83.6 84.1 83.6 73.9L83.5 52.9C83.5 42.2 74.8 33.6 64.1 33.6H44.6V33.7Z" fill="#FDBFA8"/>
<path opacity="0.4" d="M46.6 87.2C46.6 87.2 52.8 91.5 57.9 88.4C57.9 88.4 56.3 92.2 51 91.3C49.5 91.1 47.5 89.3 46.6 87.2Z" fill="#FF8282"/>
<path opacity="0.45" d="M44.6 33.7C33.2 33.7 24 42.9 23.8 54.2L23.6 74C23.6 87.7 38.3 99.5 45.4 104.3C47.7 105.9 50.4 106.7 53.2 106.7H55C58.5 106.7 61.8 105.4 64.3 103.1C71 96.9 83.6 84.1 83.6 73.9L83.5 52.9C83.5 42.2 74.8 33.6 64.1 33.6H44.6V33.7Z" fill="url(#paint1_linear_2_464)"/>
<path opacity="0.5" d="M23.8 54.2L23.7 65.3C23.7 65.3 31.4 57.5 32 49.5C32 49.5 45 51.6 49.9 50.6L42.1 33.8C31.9 35.1 23.9 43.7 23.8 54.2Z" fill="#FF8282"/>
<path opacity="0.5" d="M65.4 42L67.3 48.5L83.6 52.3C83.2 41.9 74.7 33.7 64.2 33.7H52.1L61.2 50.4L65.4 42Z" fill="#FF8282"/>
<path d="M65.8 98.3C62.9 100.6 59.1 101.9 55.2 101.9H53.2C50 101.9 46.9 101.1 44.3 99.5C39.7 96.7 32.4 91.8 26.9 85.6C31.6 94.1 40.4 101 45.4 104.4C47.7 106 50.4 106.8 53.2 106.8H55C58.5 106.8 61.8 105.5 64.3 103.2C68.8 99.1 75.9 92 80.2 84.6C75.6 90.1 69.8 95.1 65.8 98.3Z" fill="#FDD4C5"/>
<path d="M67.3 69.7C68.2941 69.7 69.1 67.7748 69.1 65.4C69.1 63.0252 68.2941 61.1 67.3 61.1C66.3059 61.1 65.5 63.0252 65.5 65.4C65.5 67.7748 66.3059 69.7 67.3 69.7Z" fill="#25110D"/>
<path d="M75.7 60.7C75.9 60.6 66.1 54.3 60 54.6C59.9 54.7 60.4 47.6 68.5 50.5C76.3 53.7 75.6 60.8 75.7 60.7Z" fill="#230E0A"/>
<path d="M40 69.7C40.9941 69.7 41.8 67.7748 41.8 65.4C41.8 63.0252 40.9941 61.1 40 61.1C39.0059 61.1 38.2 63.0252 38.2 65.4C38.2 67.7748 39.0059 69.7 40 69.7Z" fill="#25110D"/>
<path d="M30.7 60.7C30.5 60.6 40.3 54.3 46.4 54.6C46.5 54.7 46.3 48.3 38.2 51.2C30.3 54.4 30.7 60.8 30.7 60.7Z" fill="#230E0A"/>
<path d="M35.7 79.9C35.6 79.9 35.5 79.9 35.4 79.8C35 79.6 34.8 79.1 35 78.7L37.5 73.6C37.7 73.2 38.2 73 38.6 73.2C39 73.4 39.2 73.9 39 74.3L36.5 79.4C36.3 79.7 36 79.9 35.7 79.9Z" fill="#FF8282"/>
<path d="M30.7 79.9C30.6 79.9 30.5 79.9 30.4 79.8C30 79.6 29.8 79.1 30 78.7L32.5 73.6C32.7 73.2 33.2 73 33.6 73.2C34 73.4 34.2 73.9 34 74.3L31.5 79.4C31.3 79.7 31 79.9 30.7 79.9Z" fill="#FF8282"/>
<path d="M71.1 79.9C70.8 79.9 70.5 79.7 70.4 79.5L67.9 74.4C67.7 74 67.9 73.5 68.3 73.3C68.7 73.1 69.2 73.3 69.4 73.7L71.9 78.8C72.1 79.2 71.9 79.7 71.5 79.9C71.3 79.8 71.2 79.9 71.1 79.9Z" fill="#FF8282"/>
<path d="M76.1 79.9C75.8 79.9 75.5 79.7 75.4 79.5L72.9 74.4C72.7 74 72.9 73.5 73.3 73.3C73.7 73.1 74.2 73.3 74.4 73.7L76.9 78.8C77.1 79.2 76.9 79.7 76.5 79.9C76.3 79.8 76.2 79.9 76.1 79.9Z" fill="#FF8282"/>
<path d="M46.6 85.6C46.2 85.3 45.9 85.1 45.6 84.9C45.2 84.6 45.2 84.1 45.5 83.7C45.8 83.3 46.3 83.3 46.7 83.6C47 83.8 53.8 89.1 58.6 84.3C58.9 84 59.5 84 59.8 84.3C60.1 84.6 60.1 85.2 59.8 85.5C55.5 89.7 49.8 87.7 46.6 85.6Z" fill="#FF8282"/>
<path d="M57 72.9C56.6 70.1 55.3 66.9 53.8 66.9C52.2 66.9 50.9 70.1 50.6 72.9C45 74 46 78.1 46 78.1C46 78.1 53.9 82.1 61.8 78.1C61.6 78.1 62.8 74 57 72.9Z" fill="#FF8282"/>
<path d="M62.6 81.7C63.0971 81.7 63.5 81.2971 63.5 80.8C63.5 80.303 63.0971 79.9 62.6 79.9C62.103 79.9 61.7 80.303 61.7 80.8C61.7 81.2971 62.103 81.7 62.6 81.7Z" fill="#230E0A"/>
<path opacity="0.29" d="M44.4 82.2C44.8971 82.2 45.3 81.7971 45.3 81.3C45.3 80.803 44.8971 80.4 44.4 80.4C43.9029 80.4 43.5 80.803 43.5 81.3C43.5 81.7971 43.9029 82.2 44.4 82.2Z" fill="#230E0A"/>
<path d="M31.1 44C34.5 46.4 39.4 48.3 46.5 48.3L42.1 33.9C36.3 34.6 31.3 37.7 28 42.1C27.8 42.4 27.6 42.7 27.4 43C27.3 43.2 27.1 43.4 27 43.6C26.7 44.1 26.4 44.6 26.1 45.2C26 45.5 25.8 45.8 25.7 46.1C25.6 46.4 25.5 46.6 25.4 46.9C25.3 47.2 25.1 47.5 25 47.9C24.9 48.2 24.8 48.4 24.8 48.7C24.7 49.1 24.6 49.4 24.5 49.8C24.4 50.1 24.4 50.3 24.3 50.6C24.2 51 24.2 51.4 24.1 51.8C24.1 52 24 52.2 24 52.4C23.9 53 23.9 53.7 23.9 54.4L23.8 65.5C25.3 63.2 26.4 60.7 27.2 58.1L31.1 44Z" fill="#230E0A"/>
<path d="M61.7 45.3C61.7 45.3 63.8 39.7 63.4 33.7H52.1C55.3 36.7 58.8 40.6 61.7 45.3Z" fill="#230E0A"/>
<path d="M65.4 33.8C66.8 37.2 67.9 41.2 67.8 45.4L80.8 48.6L81.1 56.2C81.2 59.5 81.9 62.8 83.2 66L83.6 67.1V53.2C83.6 51.8 83.4 50.5 83.2 49.3C81.4 40.7 74.2 34.3 65.4 33.8Z" fill="#230E0A"/>
<path opacity="0.77" d="M36.7 79.6C43.3827 79.6 48.8 74.1826 48.8 67.5C48.8 60.8174 43.3827 55.4 36.7 55.4C30.0174 55.4 24.6 60.8174 24.6 67.5C24.6 74.1826 30.0174 79.6 36.7 79.6Z" fill="#A7B9EB"/>
<path opacity="0.4" d="M47.9 62.8L29.4 77.1C31.4 78.7 34 79.6 36.8 79.6C43.5 79.6 48.9 74.2 48.9 67.5C48.8 65.8 48.5 64.2 47.9 62.8Z" fill="white"/>
<path opacity="0.4" d="M37.5 55.4L25.3 63.4C24.8 64.7 24.6 66 24.6 67.5C24.6 68 24.6 68.5 24.7 68.9L41.6 56.4C40.3 55.8 39 55.5 37.5 55.4Z" fill="white"/>
<path d="M36.7 55.4C43.4 55.4 48.8 60.8 48.8 67.5C48.8 74.2 43.4 79.6 36.7 79.6C30 79.6 24.6 74.2 24.6 67.5C24.6 60.8 30 55.4 36.7 55.4ZM36.7 54.3C29.4 54.3 23.6 60.2 23.6 67.4C23.6 74.7 29.5 80.5 36.7 80.5C43.9 80.5 49.8 74.6 49.8 67.4C49.9 60.2 44 54.3 36.7 54.3Z" fill="#FAEE9B"/>
<path opacity="0.77" d="M70.8 79.6C77.4827 79.6 82.9 74.1826 82.9 67.5C82.9 60.8174 77.4827 55.4 70.8 55.4C64.1174 55.4 58.7 60.8174 58.7 67.5C58.7 74.1826 64.1174 79.6 70.8 79.6Z" fill="#A7B9EB"/>
<path opacity="0.4" d="M77.6 57.5L61.1 74.8C62.5 76.7 64.5 78.2 66.8 79L82.2 63.5C81.3 61 79.7 58.9 77.6 57.5Z" fill="white"/>
<path d="M70.8 55.4C77.5 55.4 82.9 60.8 82.9 67.5C82.9 74.2 77.5 79.6 70.8 79.6C64.1 79.6 58.7 74.2 58.7 67.5C58.7 60.8 64.1 55.4 70.8 55.4ZM70.8 54.3C63.5 54.3 57.7 60.2 57.7 67.4C57.7 74.7 63.6 80.5 70.8 80.5C78.1 80.5 83.9 74.6 83.9 67.4C84 60.2 78.1 54.3 70.8 54.3Z" fill="#FAEE9B"/>
<path d="M49.2 65.2L48.3 64.2C48.3 64.2 52.9 60.1 58.8 63.4L58.2 64.5C53.1 61.7 49.2 65.2 49.2 65.2Z" fill="#FAEE9B"/>
<defs>
<linearGradient id="paint0_linear_2_464" x1="53.1543" y1="97.9661" x2="54.0432" y2="121.077" gradientUnits="userSpaceOnUse">
<stop stop-color="#690F1B"/>
<stop offset="0.2086" stop-color="#690F1B" stop-opacity="0.7914"/>
<stop offset="0.8855" stop-color="#690F1B" stop-opacity="0"/>
</linearGradient>
<linearGradient id="paint1_linear_2_464" x1="54.3898" y1="32.9547" x2="53.5009" y2="74.7325" gradientUnits="userSpaceOnUse">
<stop stop-color="#FF2441"/>
<stop offset="0.2086" stop-color="#FF2441" stop-opacity="0.7914"/>
<stop offset="0.8855" stop-color="#FF2441" stop-opacity="0"/>
</linearGradient>
</defs>
</svg>
