<svg width="146" height="141" viewBox="0 0 146 141" fill="none" xmlns="http://www.w3.org/2000/svg">
<g id="p2" opacity="0.71">
<path id="Vector" opacity="0.71" d="M140.4 72.2C140.2 79.8 138.7 87.5 135.9 95C134.8 97.8 133.6 100.6 132.2 103.2C132 103.6 131.8 104 131.6 104.4C127.1 112.4 121.2 119.3 114.3 124.8C112.2 126.5 110 128.1 107.7 129.5C102.8 132.6 97.5 135 92.1 136.8C91.7 136.9 91.3 137.1 90.9 137.2C76.6 141.6 60.9 141.4 45.8 135.7C32.7 130.7 22 122.3 14.3 111.8C10 106 6.6 99.5 4.3 92.7C2.5 87.4 1.3 81.8 0.800005 76.1C0.800005 75.7 0.700006 75.2 0.700006 74.8C0.100006 65.1 1.50001 55.2 5.10001 45.6C5.40001 44.7 5.80001 43.8 6.20001 43C8.10001 38.5 10.5 34.2 13.2 30.3C14.5 28.4 15.9 26.6 17.4 24.9C17.6 24.6 17.9 24.3 18.1 24C22.5 19.1 27.5 14.8 32.9 11.4C33.3 11.1 33.7 10.9 34.1 10.7C35.2 10 36.3 9.39999 37.4 8.79999C37.7 8.59999 38.1 8.39999 38.4 8.29999C55.4 -0.500012 75.9 -2.3 95.2 5C106.6 9.3 116.3 16.3 123.7 25C124.1 25.4 124.5 25.9 124.8 26.4C126.7 28.7 128.4 31.2 130 33.7C130.3 34.2 130.6 34.7 130.9 35.2C133.8 40.2 136.1 45.6 137.7 51.2C137.8 51.6 137.9 52 138 52.3C139.3 57.1 140.1 62.1 140.3 67.1C140.4 68.7 140.5 70.4 140.4 72.2Z" fill="url(#paint0_radial_1_829)"/>
<path id="Vector_2" opacity="0.5" d="M138.8 85C138.8 85 106.7 87.5 100.1 75.8C93.5 64.1 86.8 61.2 76.3 62.4C65.8 63.6 52.6 72.1 39.9 68.7C27.2 65.3 3 52 3 52C0.9 58.4 0.5 70.5 0.5 70.5C0.5 70.5 6.2 90.7 22.1 91.9C38.1 93.1 74 98.7 97.6 105.6C121.2 112.5 127.7 110.5 127.7 110.5C136.8 97.7 138.8 85 138.8 85ZM23.9 85.6C22.2 81.5 32.9 81 34.9 84C37 87 27.4 94.4 23.9 85.6ZM68.9 66.8C78.8 62.7 96.3 70 94.7 76.5C93 83.1 61.2 69.9 68.9 66.8ZM88.9 100.2C88.6 94.4 95.7 98.2 97.3 101.2C99 104.2 89.1 104.9 88.9 100.2ZM119.8 100.1C120 97 124.4 96.8 124.4 100.2C124.3 103.6 119.7 101.7 119.8 100.1Z" fill="#974D8B"/>
<path id="Vector_3" opacity="0.51" d="M140.4 72.2C140.4 72.2 117.4 57.8 99.1 54.1C80.9 50.4 60.7 61.9 37.4 57.8C25.3 55.7 14.1 49 6.09998 42.9C7.99998 38.4 10.4 34.1 13.1 30.2C17.4 34.5 29.1 45.6 40.1 49.6C53.8 54.6 66.5 49.2 89.6 50.5C109.4 51.6 133.7 63.6 140.3 67C140.4 68.7 140.5 70.4 140.4 72.2Z" fill="#5FCCCC"/>
<path id="Vector_4" opacity="0.51" d="M28.7 107.2C26 109 19.5 107 20.1 105.7C21.2 103.3 31.4 105.3 28.7 107.2ZM33.7 103.4C34.7 102 40.6 103 40.3 103.9C39.9 104.8 32.8 104.7 33.7 103.4ZM100.1 122.1C102.1 119.9 112.6 124.1 112 126.6C111.4 129.1 98.1 124.3 100.1 122.1ZM51.4 105.2C25 100 10.4 95 4.29999 92.6C6.59999 99.4 9.99999 105.9 14.3 111.7C25.5 111.9 36.4 102 66.5 111.3C84.6 116.9 99.1 124.4 107.8 129.5C110.1 128.1 112.3 126.5 114.4 124.8C103.2 120.2 78.4 110.6 51.4 105.2Z" fill="#5FCCCC"/>
<path id="Vector_5" opacity="0.1" d="M37.9 35.9C37.4 38.4 47.5 43.2 49.5 40.3C51.5 37.4 39 30.6 37.9 35.9Z" fill="#190024"/>
<path id="Vector_6" opacity="0.1" d="M41.4 44.2C41.8 46.2 44.2 46.2 44.5 45.4C44.7 44.5 41 42.2 41.4 44.2Z" fill="#190024"/>
<path id="Vector_7" opacity="0.1" d="M100 69.6C102.8 66.7 104.1 68.4 104.8 69.9C105.5 71.3 99.2 70.5 100 69.6Z" fill="#190024"/>
<path id="Vector_8" opacity="0.1" d="M101.2 46.1C104 43.2 105.3 44.9 106 46.4C106.6 47.8 100.3 46.9 101.2 46.1Z" fill="#190024"/>
<path id="Vector_9" opacity="0.1" d="M62.5 121.7C65.3 118.8 66.6 120.5 67.3 122C67.9 123.5 61.6 122.6 62.5 121.7Z" fill="#190024"/>
<path id="Vector_10" opacity="0.1" d="M113.5 79C113.8 80.5 116.4 80.7 116.2 79.1C116.1 77.4 113 76.6 113.5 79Z" fill="#190024"/>
<path id="Vector_11" opacity="0.1" d="M61 19.2C61.3 20.7 63.9 20.9 63.7 19.3C63.5 17.6 60.4 16.7 61 19.2Z" fill="#190024"/>
<path id="Vector_12" opacity="0.51" d="M109.8 114.1C110.9 114.4 114.8 117.1 114.6 119.4C114.4 121.7 104.7 119.7 105 117.6C105.5 115.5 108.3 113.7 109.8 114.1Z" fill="#5FCCCC"/>
<path id="Vector_13" opacity="0.51" d="M112.3 46C113.4 46.3 117.3 49 117.1 51.3C116.9 53.6 107.2 51.6 107.5 49.5C107.9 47.3 110.8 45.5 112.3 46Z" fill="#5FCCCC"/>
<path id="Vector_14" opacity="0.51" d="M85.1 17.7C85.4 18.8 85 23.5 82.9 24.5C80.8 25.5 77.8 16 79.8 15.2C81.8 14.5 84.7 16.2 85.1 17.7Z" fill="#5FCCCC"/>
<g id="Group" opacity="0.71">
<path id="Vector_15" opacity="0.71" d="M100.4 35C100.7 33.9 100.7 32.8 100.5 31.7C100.5 31.5 100.4 31.3 100.3 31.2C100.1 30.9 99.7 30.8 99.4 30.8C98.5 30.9 97.8 31.5 97.6 32.4C97.4 33.2 97.6 34.1 98.2 34.8C98.5 35.2 98.9 35.5 99.4 35.5C99.9 35.5 100.4 35.2 100.5 34.8C100.4 34.7 100.2 34.7 100.1 34.9L100.4 35Z" fill="#E9E9A8"/>
<path id="Vector_16" opacity="0.71" d="M116.8 41.4C116.9 40.8 116.7 40.1 116.2 39.6C115.6 39.8 115 40.3 114.9 40.9C114.7 41.5 115.1 42.3 115.7 42.4C116.3 42.5 117 41.7 116.6 41.2L116.8 41.4Z" fill="#E9E9A8"/>
<path id="Vector_17" opacity="0.71" d="M114.9 35.6C114.8 35.4 114.7 35.2 114.6 35C114.6 35 114.6 35 114.5 34.9H114.4C114.2 35 114.2 35.4 114 35.4H113.9C113.8 35.4 113.9 35.5 113.9 35.6C114.2 35.9 114.7 35.8 114.9 35.6Z" fill="#E9E9A8"/>
<path id="Vector_18" opacity="0.71" d="M110.3 30.2C110.2 29.8 110 29.4 109.8 29.1L109.7 29C109.6 29 109.6 29 109.5 29C109.1 29.2 109.1 29.9 108.7 29.9C108.6 29.9 108.5 29.9 108.5 29.9C108.4 30 108.5 30.1 108.5 30.2C109 30.7 109.9 30.6 110.2 30C110.3 30.1 110.3 30.1 110.3 30.2Z" fill="#E9E9A8"/>
<path id="Vector_19" opacity="0.71" d="M121.4 27.4C121.3 27 121.1 26.6 120.9 26.3L120.8 26.2C120.7 26.2 120.7 26.2 120.6 26.2C120.2 26.4 120.2 27.1 119.8 27.1C119.7 27.1 119.6 27.1 119.6 27.1C119.5 27.2 119.6 27.3 119.6 27.4C120.1 27.9 121 27.8 121.3 27.2C121.4 27.4 121.4 27.4 121.4 27.4Z" fill="#E9E9A8"/>
<path id="Vector_20" opacity="0.71" d="M116.2 31.9C116.2 31.6 116.1 31.3 115.9 31.1C115.8 31.2 115.7 31.3 115.6 31.4C115.5 31.5 115.5 31.7 115.6 31.8C115.8 31.9 116 31.9 116.2 31.9C116.1 31.9 116.1 31.9 116.2 31.9Z" fill="#E9E9A8"/>
<path id="Vector_21" opacity="0.71" d="M114.2 31.1C114.2 31 114.1 30.9 114.1 30.9C114 30.9 113.9 30.9 113.9 30.9C113.7 30.9 113.5 30.9 113.2 30.8C113.4 31.1 113.7 31.4 113.9 31.7C113.9 31.7 113.9 31.7 113.9 31.8C113.9 31.9 113.8 32 113.8 32.1C113.8 32.2 113.9 32.4 114 32.4C114.9 32.8 114.3 31.5 114.2 31.1Z" fill="#E9E9A8"/>
<path id="Vector_22" opacity="0.71" d="M103.6 27.1C103.6 27 103.5 26.9 103.5 26.9C103.4 26.9 103.3 26.9 103.3 26.9C103.1 26.9 102.9 26.9 102.6 26.8C102.8 27.1 103.1 27.4 103.3 27.7C103.3 27.7 103.3 27.7 103.3 27.8C103.3 27.9 103.2 28 103.2 28.1C103.2 28.2 103.3 28.4 103.4 28.4C104.4 28.9 103.8 27.6 103.6 27.1Z" fill="#E9E9A8"/>
<path id="Vector_23" opacity="0.71" d="M117.2 24.6C117.1 24.5 117.1 24.4 117 24.3C116.8 24.4 116.7 24.7 116.8 24.9C116.9 25.1 117.2 25.2 117.3 25C117.4 24.9 117.4 24.7 117.5 24.7L117.2 24.6Z" fill="#E9E9A8"/>
<path id="Vector_24" opacity="0.71" d="M101 24.4C101 24.7 100.6 24.9 100.3 24.8C100 24.6 100 24.2 100.3 24C100.6 23.8 101 24 101 24.4Z" fill="#E9E9A8"/>
<path id="Vector_25" opacity="0.71" d="M104.9 27.5C105.1 27.6 105.3 27.9 105.2 28.1C105.1 28.3 104.8 28.3 104.6 28.2C104.5 28.2 104.4 28.1 104.4 28C104.3 27.8 104.8 27.7 104.8 27.5C104.9 27.5 104.9 27.6 104.9 27.6V27.5Z" fill="#E9E9A8"/>
<path id="Vector_26" opacity="0.71" d="M120.3 44.6C120.2 44.3 120.1 43.9 119.7 43.7C119.4 43.6 118.9 43.7 118.9 44.1C118.9 44.2 118.9 44.3 119 44.4L119.1 44.5C119.3 44.6 119.5 44.8 119.8 44.7C120 44.7 120.3 44.4 120.2 44.2L120.3 44.6Z" fill="#E9E9A8"/>
<path id="Vector_27" opacity="0.71" d="M127.7 48.6C127.6 48.6 127.5 48.6 127.4 48.7C127.3 48.8 127.3 48.9 127.3 49C127.2 49.2 126.9 49.3 126.8 49.5C126.5 49.8 126.7 50.3 126.8 50.7C126.8 50.8 126.9 50.9 127 50.9C127.1 50.9 127.1 50.9 127.2 50.9C127.7 50.7 128 51.2 128.4 51.1C128.7 51.1 129.2 50.6 129.3 50.3C129.6 49.3 128.6 48.4 127.7 48.6Z" fill="#E9E9A8"/>
<path id="Vector_28" opacity="0.71" d="M116.4 35.6C116.5 35.7 116.5 35.7 116.5 35.8C116.3 35.8 116.1 35.6 115.9 35.4C115.8 35.3 115.7 35.2 115.8 35C115.8 34.9 115.9 34.9 116 34.8C116.1 34.7 116.2 34.4 116.4 34.5C116.5 34.5 116.6 34.6 116.6 34.7C116.6 34.8 116.6 34.9 116.5 35C116.4 35.2 116.3 35.4 116.2 35.6H116.4Z" fill="#E9E9A8"/>
<path id="Vector_29" opacity="0.71" d="M113.9 38.1C113.9 37.9 113.6 37.9 113.5 38C113.4 38.2 113.4 38.4 113.5 38.5C113.8 38.5 114 38.3 114.1 38L113.9 38.1Z" fill="#E9E9A8"/>
<path id="Vector_30" opacity="0.71" d="M113.3 35.3C113.3 35.2 113.3 35.1 113.2 35C113.1 34.9 113 34.9 113 34.9C112.9 34.9 112.8 35.1 112.7 35.3C112.6 35.4 112.4 35.4 112.3 35.6C112.2 35.7 112.4 35.9 112.5 35.9C112.6 35.9 112.8 35.9 112.9 35.8C113 35.7 113.1 35.7 113.2 35.5C113.3 35.4 113.3 35.2 113.1 35.1L113.3 35.3Z" fill="#E9E9A8"/>
<path id="Vector_31" opacity="0.71" d="M112.9 34.2C112.9 34.3 112.8 34.3 112.7 34.3C112.6 34.3 112.5 34.2 112.5 34.1C112.5 34.1 112.5 34 112.4 34C112.4 33.9 112.5 33.8 112.6 33.8C112.7 33.8 112.8 33.9 112.8 34C112.8 34.1 112.7 34.2 112.6 34.2H112.9Z" fill="#E9E9A8"/>
<path id="Vector_32" opacity="0.71" d="M100.4 36.6C100.4 36.7 100.3 36.7 100.2 36.7C100.1 36.7 100 36.6 100 36.5C100 36.5 100 36.4 99.9 36.4C99.9 36.3 100 36.2 100.1 36.2C100.2 36.2 100.3 36.3 100.3 36.4C100.3 36.5 100.2 36.6 100.1 36.6H100.4Z" fill="#E9E9A8"/>
<path id="Vector_33" opacity="0.71" d="M114 33.7C114.2 33.7 114.3 33.4 114.1 33.3C114 33.3 113.9 33.4 113.8 33.4C113.7 33.4 113.7 33.6 113.8 33.7C113.9 33.8 114 33.8 114 33.7Z" fill="#E9E9A8"/>
<path id="Vector_34" opacity="0.71" d="M101.3 20.1C101.5 20.1 101.6 19.8 101.4 19.7C101.3 19.7 101.2 19.8 101.1 19.8C101 19.9 101 20 101.1 20.1C101.2 20.2 101.4 20.1 101.3 20.1Z" fill="#E9E9A8"/>
<path id="Vector_35" opacity="0.71" d="M97.4 28.8C97.5 28.6 97.5 28.4 97.4 28.1C97.2 28.2 97.1 28.3 96.9 28.4C96.8 28.4 96.7 28.5 96.7 28.6C96.6 28.7 96.7 29 96.9 29C97.1 29.1 97.3 29 97.4 28.8Z" fill="#E9E9A8"/>
<path id="Vector_36" opacity="0.71" d="M102.5 30.7C102.7 31 102.9 31.3 103.1 31.5C103 31.6 102.8 31.5 102.7 31.4C102.6 31.3 102.4 31.2 102.4 31C102.4 30.8 102.4 30.7 102.5 30.7Z" fill="#E9E9A8"/>
<path id="Vector_37" opacity="0.71" d="M125.8 38.9C126 38.7 125.9 38.4 125.6 38.3C125.4 38.2 125.1 38.4 125 38.6C125 38.7 124.9 38.8 125 38.9C125.1 39 125.3 39.1 125.4 39.1C125.5 39.1 125.8 39 125.8 38.9Z" fill="#E9E9A8"/>
<path id="Vector_38" opacity="0.71" d="M103.9 26.5C104.1 26.3 104.1 26.1 104 25.9C103.8 25.9 103.7 26 103.6 26.1C103.4 26.3 103.4 26.5 103.5 26.7C103.6 26.9 104 26.8 103.9 26.5Z" fill="#E9E9A8"/>
<path id="Vector_39" opacity="0.71" d="M103.2 28.8C103.2 29 103.1 29.1 102.9 29.1C102.8 29 102.7 28.8 102.6 28.7C102.7 28.5 103.1 28.5 103.2 28.7V28.8Z" fill="#E9E9A8"/>
<path id="Vector_40" opacity="0.71" d="M121.8 41.3C121.6 41.5 121.5 41.7 121.3 41.9C121.3 42 121.2 42 121.2 42.1C121.2 42.2 121.2 42.3 121.2 42.3C121.3 42.6 121.5 42.9 121.8 42.9C122.1 42.9 122.2 42.5 122.4 42.2C122.6 41.7 124 40.8 123.5 40.2C123 39.5 122.1 40.9 121.8 41.3Z" fill="#E9E9A8"/>
<path id="Vector_41" opacity="0.71" d="M124.4 37.7C124.5 37.7 124.5 37.8 124.5 37.8C124.4 37.9 124.2 37.9 124.1 37.9C123.9 37.9 123.8 37.8 123.7 37.7C123.7 37.5 123.8 37.4 124 37.4C124.2 37.5 124.3 37.6 124.4 37.7Z" fill="#E9E9A8"/>
<path id="Vector_42" opacity="0.71" d="M112 36.6C112 36.7 111.9 36.8 111.8 36.9C111.7 36.9 111.5 36.9 111.5 36.8C111.4 36.7 111.4 36.6 111.5 36.6H111.6C111.7 36.6 111.9 36.6 112 36.6Z" fill="#E9E9A8"/>
<path id="Vector_43" opacity="0.71" d="M109.5 37.4C109.3 37.3 109.2 37.5 109.1 37.6C109 37.7 108.9 37.9 108.7 37.8C108.7 37.8 108.6 37.8 108.6 37.7C108.5 37.6 108.7 37.5 108.7 37.4C108.8 37.3 108.8 37.2 108.8 37.1C108.9 36.9 109.1 36.8 109.3 36.8C109.4 36.9 109.5 37 109.4 37.1C109.4 37.2 109.3 37.3 109.2 37.3L109.5 37.4Z" fill="#E9E9A8"/>
<path id="Vector_44" opacity="0.71" d="M109.1 35.8C109.1 35.7 109.1 35.7 109 35.6C108.9 35.6 108.8 35.7 108.8 35.8C108.8 35.9 108.9 36 109 36C109.1 36 109.2 35.9 109.1 35.8Z" fill="#E9E9A8"/>
<path id="Vector_45" opacity="0.71" d="M104.7 35.5C104.7 35.4 104.7 35.4 104.6 35.3C104.5 35.3 104.4 35.4 104.4 35.5C104.4 35.6 104.5 35.7 104.6 35.7C104.7 35.7 104.8 35.6 104.7 35.5Z" fill="#E9E9A8"/>
<path id="Vector_46" opacity="0.71" d="M115.2 33.1C115.2 33.2 115.3 33.3 115.5 33.3C115.6 33.3 115.7 33.2 115.8 33.1C115.9 33.1 116.1 33.1 116.2 33.1C116.3 33.1 116.3 33.2 116.3 33.3V33.4C116.2 33.6 116 33.8 115.8 33.9C115.6 34 115.3 34 115.1 33.9C115 33.8 114.9 33.6 114.9 33.4C115 33.3 115.1 33.1 115.2 33.1Z" fill="#E9E9A8"/>
<path id="Vector_47" opacity="0.71" d="M98.9 13.3C98.9 13.4 99 13.5 99.2 13.5C99.3 13.5 99.4 13.4 99.5 13.3C99.6 13.3 99.8 13.3 99.9 13.3C100 13.3 100 13.4 100 13.5V13.6C99.9 13.8 99.7 14 99.5 14.1C99.3 14.2 99 14.2 98.8 14.1C98.7 14 98.6 13.8 98.6 13.6C98.6 13.4 98.7 13.3 98.9 13.3Z" fill="#E9E9A8"/>
<path id="Vector_48" opacity="0.71" d="M116.5 30.1C116.6 30 116.5 29.8 116.3 29.7C116.2 29.6 116 29.7 115.9 29.8C115.8 29.8 115.8 29.9 115.8 30L115.9 30.1C116.1 30.1 116.3 30.1 116.5 30.1Z" fill="#E9E9A8"/>
<path id="Vector_49" opacity="0.71" d="M98.7 19.5C99.1 19.4 99.4 19.1 99.6 18.8C99.6 18.7 99.7 18.7 99.6 18.6C99.6 18.5 99.3 18.5 99.2 18.5C98.9 18.5 98.7 18.3 98.5 18.3C98.3 18.3 98.1 18.4 97.9 18.6C97.7 18.8 97.4 19.1 97.6 19.3C97.7 19.4 97.9 19.5 98 19.5C98.3 19.5 98.7 19.5 99 19.5H98.7Z" fill="#E9E9A8"/>
<path id="Vector_50" opacity="0.71" d="M109.8 23.9C110 23.9 110.1 23.6 110.2 23.4C110.2 23.3 110.2 23.1 110.1 23C109.9 22.9 109.7 23 109.5 23.1C109.4 23.2 109.2 23.3 109.1 23.4C109 23.4 109 23.5 109 23.6C109 23.7 109 23.7 109.1 23.8C109.3 24.1 109.6 24.3 109.9 24.4L109.8 23.9Z" fill="#E9E9A8"/>
<path id="Vector_51" opacity="0.71" d="M107.2 31.2C109.3 31.7 109.7 29.3 108.1 28.4C106.4 27.5 105.4 30.7 107.2 31.2Z" fill="#E9E9A8"/>
<path id="Vector_52" opacity="0.71" d="M116.5 38.5C116.3 38.8 115.9 38.8 115.7 38.5C115.9 38.3 116 38.1 116.2 38C116.4 37.9 116.7 38 116.8 38.3C116.7 38.4 116.6 38.5 116.6 38.6L116.5 38.5Z" fill="#E9E9A8"/>
<path id="Vector_53" opacity="0.71" d="M110.8 42.4C110.7 42.3 110.7 42.2 110.6 42.1C110.3 42.4 109.9 42.6 109.5 42.7C109.3 42.8 109.1 42.8 108.9 42.9C108.7 43 108.6 43.2 108.6 43.4C108.6 43.8 109.1 44 109.5 43.9C110 43.9 110.5 43.7 110.7 43.3C111 42.9 111 42.3 110.7 42C110.6 42.1 110.4 42.2 110.3 42.3L110.8 42.4Z" fill="#E9E9A8"/>
<path id="Vector_54" opacity="0.71" d="M108.5 39.8C108.6 39.7 108.5 39.6 108.3 39.7C108.1 39.7 108 39.9 107.8 40C107.5 40.2 107.1 40.5 106.8 40.7C106.6 40.8 106.4 41 106.3 41.2C106.3 41.3 106.4 41.4 106.6 41.3C106.8 41.3 107 41.1 107.1 41C107.7 40.7 108.3 40.2 108.5 39.8C108.4 39.8 108.3 39.8 108.2 39.9L108.5 39.8Z" fill="#E9E9A8"/>
<path id="Vector_55" opacity="0.71" d="M107.4 37.8C107.4 37.9 107.3 37.9 107.3 37.9C107.2 37.9 107.2 37.8 107.1 37.8L107 37.7C107 37.6 107 37.5 107.1 37.4C107.2 37.3 107.3 37.4 107.4 37.4L107.5 37.5C107.5 37.6 107.5 37.6 107.4 37.6V37.8Z" fill="#E9E9A8"/>
<path id="Vector_56" opacity="0.71" d="M111.4 27.6C111.6 27.4 111.8 27.1 112 26.9C112 26.8 111.9 26.8 111.8 26.8C111.3 26.7 110.9 27.2 110.9 27.6C110.9 27.7 110.9 27.7 111 27.8C111.1 27.9 111.2 27.9 111.3 27.8C111.3 27.8 111.4 27.7 111.4 27.6Z" fill="#E9E9A8"/>
<path id="Vector_57" opacity="0.71" d="M112.7 32.5C112.7 32.4 112.6 32.4 112.6 32.3C112.5 32.3 112.4 32.4 112.4 32.5C112.4 32.6 112.4 32.7 112.5 32.7C112.5 32.7 112.6 32.7 112.6 32.6C112.7 32.5 112.8 32.4 112.9 32.4L112.7 32.5Z" fill="#E9E9A8"/>
<path id="Vector_58" opacity="0.71" d="M98.2 25.2C98.2 25 98.2 24.9 98.1 24.7C98 24.6 97.9 24.4 97.7 24.5C97.6 24.5 97.5 24.6 97.5 24.6C97.3 24.8 97.3 25.1 97.5 25.2C97.7 25.4 98 25.4 98.2 25.2Z" fill="#E9E9A8"/>
<path id="Vector_59" opacity="0.71" d="M103.7 19.1C103.9 19.3 103.7 19.6 103.5 19.6C103.4 19.5 103.3 19.4 103.2 19.3C103.3 19.2 103.4 19.1 103.6 19.1H103.7Z" fill="#E9E9A8"/>
<path id="Vector_60" opacity="0.71" d="M105.7 22.7C105.8 22.6 105.5 22.5 105.5 22.6C105.4 22.7 105.5 22.9 105.6 23C105.6 22.9 105.7 22.8 105.7 22.7Z" fill="#E9E9A8"/>
<path id="Vector_61" opacity="0.71" d="M117.5 42.8C117.4 42.7 117.4 42.6 117.3 42.5C117.2 42.5 117.2 42.6 117.1 42.6C117.1 42.9 117.3 43 117.5 42.8Z" fill="#E9E9A8"/>
<path id="Vector_62" opacity="0.71" d="M145.2 40.6C145.1 40.5 145.1 40.4 145 40.3C144.9 40.3 144.9 40.4 144.8 40.4C144.8 40.7 145 40.8 145.2 40.6Z" fill="#E9E9A8"/>
<path id="Vector_63" opacity="0.71" d="M131.1 38.4C131.4 38.6 131.5 39 131.5 39.4C131.5 39.4 131.5 39.5 131.4 39.5C131.3 39.5 131.3 39.5 131.2 39.5C130.8 39.4 130.3 39.3 130.2 38.8C130.1 38.4 130.6 38.1 130.9 38.2C130.9 38.3 131 38.4 131 38.5L131.1 38.4Z" fill="#E9E9A8"/>
<path id="Vector_64" opacity="0.71" d="M124.7 72.5C124.8 71.9 124.6 71.2 124.1 70.7C123.5 70.9 122.9 71.4 122.8 72C122.6 72.6 123 73.4 123.6 73.5C124.2 73.6 124.9 72.8 124.5 72.3L124.7 72.5Z" fill="#E9E9A8"/>
<path id="Vector_65" opacity="0.71" d="M122.8 66.7C122.7 66.5 122.6 66.3 122.5 66.1C122.5 66.1 122.5 66.1 122.4 66H122.3C122.1 66.1 122.1 66.5 121.9 66.5H121.8C121.7 66.5 121.8 66.6 121.8 66.7C122.1 67 122.6 66.9 122.8 66.7C122.8 66.7 122.8 66.6 122.8 66.7Z" fill="#E9E9A8"/>
<path id="Vector_66" opacity="0.71" d="M129.3 58.5C129.2 58.1 129 57.7 128.8 57.4L128.7 57.3C128.6 57.3 128.6 57.3 128.5 57.3C128.1 57.5 128.1 58.2 127.7 58.2C127.6 58.2 127.5 58.2 127.5 58.2C127.4 58.3 127.5 58.4 127.5 58.5C128 59 128.9 58.9 129.2 58.3C129.3 58.4 129.3 58.5 129.3 58.5Z" fill="#E9E9A8"/>
<path id="Vector_67" opacity="0.71" d="M124 63C124 62.7 123.9 62.4 123.7 62.2C123.6 62.3 123.5 62.4 123.4 62.5C123.3 62.6 123.3 62.8 123.4 62.9C123.7 63 123.9 63 124 63Z" fill="#E9E9A8"/>
<path id="Vector_68" opacity="0.71" d="M122.1 62.2C122.1 62.1 122 62 122 62C121.9 62 121.8 62 121.8 62C121.6 62 121.4 62 121.1 61.9C121.3 62.2 121.6 62.5 121.8 62.8C121.8 62.8 121.8 62.8 121.8 62.9C121.8 63 121.7 63.1 121.7 63.2C121.7 63.3 121.8 63.5 121.9 63.5C122.8 63.9 122.2 62.6 122.1 62.2Z" fill="#E9E9A8"/>
<path id="Vector_69" opacity="0.71" d="M125.1 55.7C125 55.6 125 55.5 124.9 55.4C124.7 55.5 124.6 55.8 124.7 56C124.8 56.2 125.1 56.3 125.2 56.1C125.3 56 125.3 55.8 125.4 55.8L125.1 55.7Z" fill="#E9E9A8"/>
<path id="Vector_70" opacity="0.71" d="M128.2 75.7C128.1 75.4 128 75 127.6 74.8C127.3 74.7 126.8 74.8 126.8 75.2C126.8 75.3 126.8 75.4 126.9 75.5L127 75.6C127.2 75.7 127.4 75.9 127.7 75.8C127.9 75.8 128.2 75.5 128.1 75.3L128.2 75.7Z" fill="#E9E9A8"/>
<path id="Vector_71" opacity="0.71" d="M124.2 66.6C124.3 66.7 124.3 66.7 124.3 66.8C124.1 66.8 123.9 66.6 123.7 66.4C123.6 66.3 123.5 66.2 123.6 66C123.6 65.9 123.7 65.9 123.8 65.8C123.9 65.7 124 65.4 124.2 65.5C124.3 65.5 124.4 65.6 124.4 65.7C124.4 65.8 124.4 65.9 124.3 66C124.2 66.2 124.1 66.4 124 66.6H124.2Z" fill="#E9E9A8"/>
<path id="Vector_72" opacity="0.71" d="M121.9 64.8C122.1 64.8 122.2 64.5 122 64.4C121.9 64.4 121.8 64.5 121.7 64.5C121.6 64.6 121.6 64.7 121.7 64.8C121.8 64.9 121.9 64.9 121.9 64.8Z" fill="#E9E9A8"/>
<path id="Vector_73" opacity="0.71" d="M133.7 70C133.9 69.8 133.8 69.5 133.5 69.4C133.3 69.3 133 69.5 132.9 69.7C132.9 69.8 132.8 69.9 132.9 70C133 70.1 133.2 70.2 133.3 70.2C133.5 70.2 133.7 70.1 133.7 70Z" fill="#E9E9A8"/>
<path id="Vector_74" opacity="0.71" d="M129.7 72.4C129.5 72.6 129.4 72.8 129.2 73C129.2 73.1 129.1 73.1 129.1 73.2C129.1 73.3 129.1 73.4 129.1 73.4C129.2 73.7 129.4 74 129.7 74C130 74 130.1 73.6 130.3 73.3C130.5 72.8 131.9 71.9 131.4 71.3C130.8 70.6 130 72 129.7 72.4Z" fill="#E9E9A8"/>
<path id="Vector_75" opacity="0.71" d="M132.3 68.8L132.4 68.9C132.3 69 132.1 69 132 69C131.8 69 131.7 68.9 131.6 68.8C131.6 68.6 131.7 68.5 131.9 68.5C132.1 68.6 132.2 68.7 132.3 68.8Z" fill="#E9E9A8"/>
<path id="Vector_76" opacity="0.71" d="M123.1 64.2C123.1 64.3 123.2 64.4 123.4 64.4C123.5 64.4 123.6 64.3 123.7 64.2C123.8 64.2 124 64.2 124.1 64.2C124.2 64.2 124.2 64.3 124.2 64.4V64.5C124.1 64.7 123.9 64.9 123.7 65C123.5 65.1 123.2 65.1 123 65C122.9 64.9 122.8 64.7 122.8 64.5C122.8 64.3 123 64.2 123.1 64.2Z" fill="#E9E9A8"/>
<path id="Vector_77" opacity="0.71" d="M124.3 61.2C124.4 61.1 124.3 60.9 124.1 60.8C124 60.7 123.8 60.8 123.7 60.9C123.6 60.9 123.6 61 123.6 61.1L123.7 61.2C124 61.2 124.2 61.2 124.3 61.2Z" fill="#E9E9A8"/>
<path id="Vector_78" opacity="0.71" d="M124.4 69.6C124.2 69.9 123.8 69.9 123.6 69.6C123.8 69.4 123.9 69.2 124.1 69.1C124.3 69 124.6 69.1 124.7 69.4C124.6 69.5 124.5 69.6 124.5 69.7L124.4 69.6Z" fill="#E9E9A8"/>
<path id="Vector_79" opacity="0.71" d="M125.4 73.9C125.3 73.8 125.3 73.7 125.2 73.6C125.1 73.6 125.1 73.7 125 73.7C125 73.9 125.2 74 125.4 73.9Z" fill="#E9E9A8"/>
<path id="Vector_80" opacity="0.71" d="M139 69.5C139.3 69.7 139.4 70.1 139.4 70.5C139.4 70.5 139.4 70.6 139.3 70.6C139.2 70.6 139.2 70.6 139.1 70.6C138.7 70.5 138.2 70.4 138.1 69.9C138 69.5 138.5 69.2 138.8 69.3C138.8 69.4 138.9 69.5 138.9 69.6L139 69.5Z" fill="#E9E9A8"/>
<path id="Vector_81" opacity="0.71" d="M117.1 58.6C117.4 58.8 117.5 59.2 117.5 59.6C117.5 59.6 117.5 59.7 117.4 59.7C117.3 59.7 117.3 59.7 117.2 59.7C116.8 59.6 116.3 59.5 116.2 59C116.1 58.6 116.6 58.3 116.9 58.4C116.9 58.5 117 58.6 117 58.7L117.1 58.6Z" fill="#E9E9A8"/>
</g>
<g id="Group_2" opacity="0.51">
<path id="Vector_82" opacity="0.51" d="M35.6 12.4C34.7 12 33.9 11.6 33 11.3C33.4 11 33.8 10.8 34.2 10.6C34.8 10.9 35.5 11.1 36.1 11.4L37.5 12C57 20.5 77.7 26.2 98.9 28.7C101.2 29 103.5 29.2 105.9 29.5C111.5 30.1 117.3 30.7 123 31.8C125.6 32.3 128 32.9 130.2 33.6C130.5 34.1 130.8 34.6 131.1 35.1C128.5 34.2 125.8 33.5 122.8 32.9C117.2 31.8 111.4 31.2 105.8 30.6C103.5 30.4 101.1 30.1 98.8 29.8C77.5 27.2 56.8 21.6 37.1 13L35.6 12.4Z" fill="#5FCCCC"/>
<path id="Vector_83" opacity="0.51" d="M138 52.2C132.5 51.8 127.1 49.9 121.9 48.1C120.9 47.7 119.8 47.4 118.8 47C104.8 42.1 91.2 39.9 78.4 40.3C75.6 40.4 72.8 40.6 70 40.8C65.8 41.1 61.4 41.5 57 41.4C44.1 41 31.4 36.4 21.2 28.4C19.7 27.2 18.4 26 17.2 24.8C17.4 24.5 17.7 24.2 17.9 23.9C19 25.1 20.3 26.3 21.8 27.5C31.8 35.4 44.2 39.9 56.9 40.2C61.2 40.3 65.5 40 69.7 39.6C72.5 39.4 75.3 39.2 78.1 39.1C91 38.7 104.8 40.9 118.9 45.8C119.9 46.2 121 46.5 122 46.9C127 48.7 132.1 50.5 137.4 51C137.8 51.4 137.9 51.8 138 52.2Z" fill="#5FCCCC"/>
</g>
<g id="Group_3" opacity="0.51">
<path id="Vector_84" opacity="0.51" d="M132.2 103.2C132 103.6 131.8 104 131.6 104.4C130.8 104.5 130.1 104.5 129.4 104.5C124 104.7 116.7 103.9 112.9 98.6C112.1 97.5 111.5 96.3 110.9 95.1C109.9 93 108.9 91 107 89.9C105.5 89 103.7 89 102.4 89.2C99.4 89.5 96.7 91 93.8 92.5C91.5 93.7 89.1 95 86.6 95.6C82.7 96.6 78.6 96 75 95.6L74.6 95.5C66.3 94.5 58 93.5 49.8 92.4C48.3 92.2 46.6 92 45.2 91.1C43.8 90.3 42.6 88.5 43.1 86.7C43.4 85.7 44 85 44.7 84.3C45.1 83.9 45.5 83.4 45.8 83C46.8 81.3 46.1 79 44.9 77.7C43.7 76.4 41.9 75.6 39.4 75.2C34.2 74.3 28.9 75.5 23.8 76.6C19.3 77.6 14.6 78.6 9.89999 78.3C6.79999 78.1 3.79999 77.3 0.899988 76C0.899988 75.6 0.799988 75.1 0.799988 74.7C3.69999 76.1 6.79999 77 9.89999 77.2C14.4 77.5 19 76.5 23.4 75.5C28.6 74.3 34.1 73.1 39.5 74.1C42.2 74.5 44.2 75.5 45.6 76.9C47.1 78.5 48 81.3 46.7 83.5C46.4 84.1 45.9 84.6 45.5 85C44.9 85.6 44.4 86.2 44.2 86.9C43.9 88.1 44.8 89.5 45.8 90.1C47 90.9 48.6 91.1 49.9 91.2C58.2 92.3 66.5 93.3 74.8 94.3L75.2 94.4C78.9 94.9 82.8 95.3 86.4 94.4C88.8 93.8 91.2 92.6 93.4 91.4C96.2 89.9 99.1 88.3 102.4 88C104.4 87.8 106.2 88.1 107.7 88.9C109.9 90.1 111 92.4 112 94.6C112.6 95.7 113.1 96.9 113.8 97.9C117.3 102.8 124.2 103.5 129.4 103.3C130.2 103.3 131.2 103.3 132.2 103.2Z" fill="#5FCCCC"/>
</g>
<g id="Group_4" opacity="0.51">
<path id="Vector_85" opacity="0.51" d="M92 136.8C91.6 136.9 91.2 137.1 90.8 137.2C89.7 135.8 88.8 134.3 88 132.7C87.8 132.3 87.6 131.9 87.3 131.6C83 124.1 77.5 118.6 71.3 115.7C64.2 112.4 56.1 112.1 48.4 112.4C39.3 112.7 28.9 113.8 21.2 119.7L20.5 118.8C28.5 112.8 39 111.6 48.3 111.3C56.2 111 64.5 111.3 71.7 114.7C78 117.7 83.7 123.4 88.2 131.1C88.4 131.5 88.6 131.9 88.9 132.3C89.9 133.7 90.8 135.4 92 136.8Z" fill="#5FCCCC"/>
</g>
<g id="Group_5" opacity="0.51">
<path id="Vector_86" opacity="0.51" d="M124.8 26.3C124.2 26.2 123.5 26.1 122.9 25.9C114.9 24.2 106.6 23.5 98.4 23.6C97.4 23.6 96.4 23.6 95.5 23.3C93.5 22.5 92.7 20.5 92 18.5C91.7 17.6 91.4 16.7 90.9 16C89.1 12.9 85.2 11.8 82.2 11.8C79.2 11.8 76.3 12.8 73.4 13.7L72 14.1C64.1 16.5 57.7 17.2 51.9 16.4C45.9 15.5 40.7 12.7 37.2 8.79999C37.5 8.59999 37.9 8.39999 38.2 8.29999C41.5 11.9 46.4 14.5 52 15.3C57.6 16.1 63.9 15.4 71.6 13.1L73 12.7C75.9 11.8 79 10.8 82.1 10.8C85.4 10.8 89.7 12 91.7 15.5C92.2 16.3 92.5 17.3 92.8 18.2C93.5 20 94.1 21.8 95.7 22.4C96.4 22.7 97.3 22.7 98.1 22.7C106.4 22.6 114.7 23.4 122.9 25.1C123.1 25.1 123.2 25.2 123.4 25.2C124.1 25.3 124.5 25.8 124.8 26.3Z" fill="#5FCCCC"/>
</g>
</g>
<defs>
<radialGradient id="paint0_radial_1_829" cx="0" cy="0" r="1" gradientUnits="userSpaceOnUse" gradientTransform="translate(58.1299 135.262) scale(136.663)">
<stop offset="0.5928" stop-color="#42218E"/>
<stop offset="1" stop-color="#8657E8"/>
</radialGradient>
</defs>
</svg>
