<svg width="76" height="76" viewBox="0 0 76 76" fill="none" xmlns="http://www.w3.org/2000/svg">
<g id="p3" opacity="0.2">
<path id="Vector" opacity="0.2" d="M74.9 31.1C75.7 35.1 75.8 39.3 75.1 43.6C74.9 45.2 74.5 46.8 74.1 48.3C74 48.5 74 48.8 73.9 49C72.5 53.7 70.1 58 67.1 61.7C66.2 62.8 65.2 63.9 64.2 64.9C62 67.1 59.5 69 56.8 70.5C56.6 70.6 56.4 70.7 56.2 70.8C49.2 74.7 40.9 76.4 32.4 75.1C25 74 18.4 70.8 13.1 66.1C10.2 63.5 7.7 60.5 5.7 57.2C4.1 54.6 2.9 51.8 2 48.9C1.9 48.7 1.90001 48.5 1.80001 48.2C0.400007 43.2 7.33137e-06 37.8 0.800007 32.3C0.900007 31.8 1.00001 31.3 1.10001 30.8C1.60001 28.2 2.40001 25.7 3.30001 23.3C3.80001 22.2 4.3 21 4.9 20C5 19.8 5.1 19.6 5.2 19.5C6.9 16.4 9.10001 13.6 11.6 11.2C11.8 11 12 10.9 12.1 10.7C12.6 10.2 13.1 9.8 13.6 9.3C13.8 9.2 13.9 9 14.1 8.9C22 2.4 32.6 -0.900002 43.6 0.699998C50.1 1.7 56 4.3 60.8 8C61.1 8.2 61.3 8.4 61.6 8.6C62.9 9.6 64.1 10.7 65.2 11.9C65.4 12.1 65.6 12.3 65.8 12.6C67.9 14.9 69.7 17.5 71.2 20.2C71.3 20.4 71.4 20.6 71.5 20.8C72.7 23.2 73.7 25.7 74.4 28.3C74.6 29.3 74.8 30.2 74.9 31.1Z" fill="url(#paint0_radial_1_921)"/>
<path id="Vector_2" opacity="0.1" d="M17 23.7C17 25.1 22.9 26.4 23.6 24.7C24.3 23 17 20.8 17 23.7Z" fill="#190024"/>
<path id="Vector_3" opacity="0.1" d="M19.8 27.7C20.3 28.7 21.5 28.5 21.5 28C21.5 27.4 19.3 26.7 19.8 27.7Z" fill="#190024"/>
<path id="Vector_4" opacity="0.1" d="M53.4 34.4C54.6 32.6 55.4 33.3 55.9 34C56.4 34.7 53.1 34.9 53.4 34.4Z" fill="#190024"/>
<path id="Vector_5" opacity="0.1" d="M51.4 21.9C52.6 20.1 53.4 20.8 53.9 21.5C54.4 22.2 51 22.4 51.4 21.9Z" fill="#190024"/>
<path id="Vector_6" opacity="0.1" d="M39.6 66C40.8 64.2 41.6 64.9 42.1 65.6C42.7 66.3 39.3 66.6 39.6 66Z" fill="#190024"/>
<path id="Vector_7" opacity="0.1" d="M61.6 37.8C61.9 38.5 63.3 38.4 63 37.5C62.8 36.7 61 36.6 61.6 37.8Z" fill="#190024"/>
<path id="Vector_8" opacity="0.1" d="M27.2 12.3C27.5 13 28.9 12.9 28.6 12C28.3 11.2 26.6 11.1 27.2 12.3Z" fill="#190024"/>
<path id="Vector_9" opacity="0.51" d="M63.6 56.7C64.2 56.7 66.6 57.7 66.7 58.9C66.9 60.1 61.5 60.2 61.5 59C61.5 57.9 62.8 56.6 63.6 56.7Z" fill="#5FCCCC"/>
<path id="Vector_10" opacity="0.51" d="M57.2 20.6C57.8 20.6 60.2 21.6 60.3 22.8C60.5 24 55.1 24.1 55.1 22.9C55 21.8 56.3 20.5 57.2 20.6Z" fill="#5FCCCC"/>
<path id="Vector_11" opacity="0.51" d="M39.7 8.8C40 9.4 40.3 11.9 39.3 12.6C38.3 13.4 35.6 8.69999 36.6 8.09999C37.6 7.49999 39.3 8 39.7 8.8Z" fill="#5FCCCC"/>
<g id="Group" opacity="0.2">
<path id="Vector_12" opacity="0.2" d="M49.7 16.1C49.7 15.5 49.6 14.9 49.4 14.3C49.4 14.2 49.3 14.1 49.2 14.1C49.1 14 48.8 14 48.7 14C48.3 14.1 47.9 14.6 47.9 15C47.9 15.5 48.1 15.9 48.5 16.2C48.7 16.4 49 16.5 49.2 16.4C49.5 16.4 49.7 16.2 49.7 15.9C49.6 15.8 49.5 15.9 49.5 16L49.7 16.1Z" fill="#E9E9A8"/>
<path id="Vector_13" opacity="0.2" d="M59.1 17.6C59.1 17.3 58.9 16.9 58.6 16.7C58.3 16.9 58.1 17.2 58 17.5C58 17.8 58.3 18.2 58.6 18.2C58.9 18.2 59.2 17.7 58.9 17.5L59.1 17.6Z" fill="#E9E9A8"/>
<path id="Vector_14" opacity="0.2" d="M57.4 14.8C57.3 14.7 57.3 14.6 57.2 14.5C57.1 14.6 57.1 14.8 57 14.8C57 14.8 57 14.8 56.9 14.8V14.9C57.1 15.1 57.3 15 57.4 14.8Z" fill="#E9E9A8"/>
<path id="Vector_15" opacity="0.2" d="M54.4 12.5C54.3 12.3 54.2 12.1 54 12C54 12 54 12 53.9 12H53.8C53.6 12.2 53.7 12.5 53.5 12.6H53.4C53.4 12.7 53.4 12.7 53.5 12.8C53.7 12.9 54.2 12.7 54.4 12.5C54.3 12.5 54.3 12.4 54.4 12.5Z" fill="#E9E9A8"/>
<path id="Vector_16" opacity="0.2" d="M59.9 9.8C59.8 9.6 59.7 9.4 59.5 9.3C59.5 9.3 59.5 9.3 59.4 9.3H59.3C59.1 9.5 59.2 9.8 59 9.9H58.9C58.9 10 58.9 10 59 10.1C59.3 10.2 59.7 10.1 59.9 9.8Z" fill="#E9E9A8"/>
<path id="Vector_17" opacity="0.2" d="M57.6 12.7C57.6 12.5 57.5 12.4 57.4 12.3C57.4 12.4 57.3 12.4 57.3 12.5C57.3 12.6 57.3 12.7 57.4 12.7C57.4 12.8 57.5 12.7 57.6 12.7Z" fill="#E9E9A8"/>
<path id="Vector_18" opacity="0.2" d="M56.5 12.5C56.5 12.5 56.4 12.4 56.5 12.5C56.4 12.4 56.3 12.4 56.3 12.4C56.2 12.4 56.1 12.4 55.9 12.4C56.1 12.5 56.2 12.6 56.4 12.8C56.4 12.8 56.4 12.9 56.4 13C56.4 13.1 56.5 13.1 56.6 13.2C57.1 13.3 56.6 12.7 56.5 12.5Z" fill="#E9E9A8"/>
<path id="Vector_19" opacity="0.2" d="M50.5 11.6C50.4 11.5 50.3 11.5 50.3 11.5C50.2 11.5 50.1 11.5 49.9 11.5C50.1 11.6 50.2 11.7 50.4 11.9C50.4 11.9 50.4 12 50.4 12.1C50.4 12.2 50.5 12.2 50.6 12.3C51.1 12.5 50.6 11.9 50.5 11.6Z" fill="#E9E9A8"/>
<path id="Vector_20" opacity="0.2" d="M57.4 8.8L57.3 8.7C57.2 8.8 57.2 8.9 57.3 9C57.4 9.1 57.5 9.1 57.6 9C57.6 8.9 57.6 8.8 57.7 8.8H57.4Z" fill="#E9E9A8"/>
<path id="Vector_21" opacity="0.2" d="M48.8 10.5C48.8 10.7 48.6 10.8 48.5 10.8C48.3 10.7 48.3 10.5 48.4 10.4C48.5 10.2 48.8 10.3 48.8 10.5Z" fill="#E9E9A8"/>
<path id="Vector_22" opacity="0.2" d="M51.2 11.7C51.3 11.8 51.5 11.9 51.4 12C51.4 12.1 51.2 12.1 51.1 12.1C51 12.1 51 12.1 51 12C50.9 11.9 51.2 11.9 51.2 11.7C51.2 11.8 51.2 11.7 51.2 11.7Z" fill="#E9E9A8"/>
<path id="Vector_23" opacity="0.2" d="M61.2 18.9C61.1 18.7 61 18.6 60.8 18.5C60.6 18.5 60.4 18.6 60.4 18.8C60.4 18.9 60.4 18.9 60.5 18.9C60.5 18.9 60.6 18.9 60.6 19C60.7 19.1 60.9 19.1 61 19C61.1 19 61.2 18.8 61.2 18.7V18.9Z" fill="#E9E9A8"/>
<path id="Vector_24" opacity="0.2" d="M65.6 20.2C65.5 20.2 65.5 20.3 65.5 20.3C65.5 20.3 65.5 20.4 65.5 20.5C65.5 20.6 65.3 20.7 65.3 20.8C65.2 21 65.3 21.2 65.4 21.4L65.5 21.5H65.6C65.8 21.3 66 21.6 66.3 21.5C66.5 21.4 66.7 21.2 66.7 21C66.7 20.4 66.1 20 65.6 20.2Z" fill="#E9E9A8"/>
<path id="Vector_25" opacity="0.2" d="M58.1 14.6L58.2 14.7C58.1 14.7 58 14.7 57.9 14.6C57.8 14.6 57.8 14.5 57.8 14.4L57.9 14.3C58 14.2 58 14.1 58.1 14.1C58.2 14.1 58.2 14.1 58.2 14.2C58.2 14.3 58.2 14.3 58.2 14.4C58.2 14.5 58.1 14.6 58.1 14.6Z" fill="#E9E9A8"/>
<path id="Vector_26" opacity="0.2" d="M57.1 16.2C57.1 16.1 56.9 16.1 56.9 16.2C56.9 16.3 56.9 16.4 56.9 16.5C57.1 16.5 57.2 16.4 57.1 16.2Z" fill="#E9E9A8"/>
<path id="Vector_27" opacity="0.2" d="M56.5 14.9C56.5 14.9 56.5 14.8 56.4 14.8H56.3C56.2 14.8 56.2 14.9 56.2 15C56.2 15.1 56.1 15.1 56 15.2C56 15.3 56.1 15.4 56.1 15.3C56.2 15.3 56.3 15.2 56.3 15.2C56.4 15.2 56.4 15.1 56.4 15C56.5 14.9 56.5 14.8 56.5 14.9Z" fill="#E9E9A8"/>
<path id="Vector_28" opacity="0.2" d="M56.2 14.3C56.2 14.3 56.1 14.4 56.2 14.3C56.1 14.4 56 14.4 56 14.3C56 14.3 56 14.3 56 14.2C56 14.1 56 14.1 56.1 14.1C56.1 14.1 56.1 14.2 56.2 14.3L56.1 14.4L56.2 14.3Z" fill="#E9E9A8"/>
<path id="Vector_29" opacity="0.2" d="M49.9 17C49.9 17 49.9 17.1 49.9 17C49.8 17.1 49.7 17.1 49.7 17C49.7 17 49.7 17 49.7 16.9C49.7 16.8 49.7 16.8 49.8 16.8C49.8 16.8 49.9 16.8 49.9 17L49.8 17.1L49.9 17Z" fill="#E9E9A8"/>
<path id="Vector_30" opacity="0.2" d="M56.7 13.9C56.8 13.9 56.8 13.7 56.7 13.7L56.6 13.8C56.6 13.8 56.6 13.9 56.7 13.9C56.7 14 56.7 14 56.7 13.9Z" fill="#E9E9A8"/>
<path id="Vector_31" opacity="0.2" d="M48.5 8.2C48.6 8.2 48.6 8 48.5 8L48.4 8.1C48.4 8.1 48.4 8.2 48.5 8.2Z" fill="#E9E9A8"/>
<path id="Vector_32" opacity="0.2" d="M47.4 13.2C47.4 13.1 47.4 13 47.3 12.9C47.2 13 47.2 13 47.1 13.1L47 13.2C47 13.3 47.1 13.4 47.1 13.4C47.3 13.4 47.4 13.3 47.4 13.2Z" fill="#E9E9A8"/>
<path id="Vector_33" opacity="0.2" d="M50.3 13.7C50.4 13.8 50.6 13.9 50.7 14.1C50.7 14.2 50.5 14.2 50.5 14.1C50.4 14.1 50.3 14 50.3 13.9C50.2 13.8 50.3 13.7 50.3 13.7Z" fill="#E9E9A8"/>
<path id="Vector_34" opacity="0.2" d="M63.5 15.3C63.6 15.2 63.5 15 63.3 15C63.2 15 63.1 15.1 63 15.2C63 15.3 63 15.3 63 15.4C63.1 15.5 63.2 15.5 63.2 15.4C63.4 15.4 63.5 15.4 63.5 15.3Z" fill="#E9E9A8"/>
<path id="Vector_35" opacity="0.2" d="M50.6 11.3C50.7 11.2 50.7 11.1 50.6 11C50.5 11 50.4 11.1 50.4 11.2C50.3 11.3 50.3 11.4 50.4 11.5C50.5 11.5 50.6 11.4 50.6 11.3Z" fill="#E9E9A8"/>
<path id="Vector_36" opacity="0.2" d="M50.5 12.6C50.5 12.7 50.5 12.8 50.4 12.8C50.3 12.7 50.3 12.7 50.2 12.6C50.2 12.4 50.4 12.4 50.5 12.6Z" fill="#E9E9A8"/>
<path id="Vector_37" opacity="0.2" d="M61.7 17C61.6 17.1 61.6 17.3 61.5 17.4V17.5C61.5 17.5 61.5 17.6 61.6 17.6C61.7 17.7 61.8 17.9 62 17.8C62.2 17.8 62.2 17.5 62.2 17.4C62.3 17.1 62.9 16.5 62.5 16.2C62.1 16 61.8 16.8 61.7 17Z" fill="#E9E9A8"/>
<path id="Vector_38" opacity="0.2" d="M62.6 14.8C62.7 14.8 62.7 14.9 62.6 14.8C62.6 14.9 62.6 15 62.5 15C62.4 15 62.3 15 62.3 14.9C62.3 14.8 62.3 14.7 62.4 14.7C62.5 14.7 62.6 14.8 62.6 14.8Z" fill="#E9E9A8"/>
<path id="Vector_39" opacity="0.2" d="M56 15.7C56 15.8 56 15.8 55.9 15.9C55.8 15.9 55.8 15.9 55.7 15.9C55.7 15.9 55.6 15.8 55.7 15.8C55.7 15.8 55.7 15.8 55.8 15.8C55.8 15.7 55.9 15.7 56 15.7Z" fill="#E9E9A8"/>
<path id="Vector_40" opacity="0.2" d="M54.8 16.4C54.7 16.4 54.6 16.5 54.6 16.5C54.6 16.6 54.5 16.7 54.4 16.7C54.4 16.7 54.4 16.7 54.3 16.7C54.3 16.7 54.3 16.6 54.3 16.5V16.4C54.3 16.3 54.4 16.2 54.5 16.2C54.7 16.1 54.8 16.2 54.8 16.4C54.8 16.4 54.7 16.4 54.7 16.5L54.8 16.4Z" fill="#E9E9A8"/>
<path id="Vector_41" opacity="0.2" d="M54.4 15.6C54.3 15.6 54.3 15.5 54.4 15.6C54.3 15.5 54.2 15.6 54.2 15.6C54.2 15.7 54.3 15.7 54.3 15.7C54.4 15.7 54.4 15.6 54.4 15.6Z" fill="#E9E9A8"/>
<path id="Vector_42" opacity="0.2" d="M52 15.9C52 15.9 52 15.8 52 15.9C51.9 15.8 51.8 15.9 51.8 15.9C51.8 16 51.9 16 51.9 16C52 16 52.1 15.9 52 15.9Z" fill="#E9E9A8"/>
<path id="Vector_43" opacity="0.2" d="M57.3 13.5C57.3 13.6 57.4 13.6 57.5 13.6C57.6 13.6 57.6 13.5 57.6 13.5C57.7 13.5 57.7 13.4 57.8 13.5C57.8 13.5 57.9 13.5 57.9 13.6V13.7C57.9 13.8 57.8 13.9 57.7 14C57.6 14.1 57.5 14.1 57.3 14.1C57.2 14.1 57.2 14 57.2 13.9C57.2 13.6 57.2 13.5 57.3 13.5Z" fill="#E9E9A8"/>
<path id="Vector_44" opacity="0.2" d="M46.4 4.9C46.4 5 46.5 5 46.6 5C46.7 5 46.7 4.9 46.7 4.9C46.8 4.9 46.8 4.8 46.9 4.9C46.9 4.9 47 4.9 47 5V5.1C47 5.2 46.9 5.3 46.8 5.4C46.7 5.5 46.6 5.5 46.4 5.5C46.3 5.5 46.3 5.40001 46.3 5.30001C46.3 5.00001 46.4 4.9 46.4 4.9Z" fill="#E9E9A8"/>
<path id="Vector_45" opacity="0.2" d="M57.6 11.8C57.6 11.7 57.5 11.6 57.5 11.6C57.4 11.6 57.3 11.6 57.3 11.7V11.8C57.3 11.8 57.3 11.8 57.4 11.8C57.4 11.8 57.5 11.8 57.6 11.8Z" fill="#E9E9A8"/>
<path id="Vector_46" opacity="0.2" d="M47.1 8.2C47.3 8.1 47.4 7.9 47.5 7.7V7.6C47.5 7.5 47.4 7.6 47.3 7.6C47.2 7.6 47 7.5 46.9 7.6C46.8 7.6 46.7 7.70001 46.6 7.80001C46.5 7.90001 46.4 8.1 46.5 8.2C46.6 8.3 46.7 8.30001 46.7 8.30001C46.9 8.30001 47.1 8.2 47.2 8.2H47.1Z" fill="#E9E9A8"/>
<path id="Vector_47" opacity="0.2" d="M53.4 9.2C53.5 9.2 53.5 9 53.5 8.9C53.5 8.8 53.5 8.7 53.4 8.7C53.3 8.7 53.2 8.7 53.1 8.8C53 8.9 53 8.9 52.9 9L52.8 9.1C52.8 9.1 52.8 9.2 52.9 9.2C53 9.3 53.2 9.4 53.4 9.4V9.2Z" fill="#E9E9A8"/>
<path id="Vector_48" opacity="0.2" d="M52.8 13.4C53.9 13.5 53.9 12.1 52.9 11.8C52 11.5 51.9 13.3 52.8 13.4Z" fill="#E9E9A8"/>
<path id="Vector_49" opacity="0.2" d="M58.5 16.2C58.4 16.4 58.2 16.4 58.1 16.3C58.2 16.2 58.2 16.1 58.3 16C58.4 15.9 58.6 16 58.6 16.1C58.6 16.2 58.5 16.2 58.5 16.3V16.2Z" fill="#E9E9A8"/>
<path id="Vector_50" opacity="0.2" d="M56 18.9L55.9 18.8C55.8 19 55.6 19.1 55.4 19.2C55.3 19.3 55.2 19.3 55.1 19.4C55 19.5 55 19.6 55 19.7C55 19.9 55.3 19.9 55.5 19.9C55.7 19.8 56 19.7 56.1 19.4C56.2 19.2 56.2 18.9 56 18.7C55.9 18.8 55.9 18.8 55.8 18.9H56Z" fill="#E9E9A8"/>
<path id="Vector_51" opacity="0.2" d="M54.5 17.8C54.5 17.7 54.5 17.7 54.4 17.7C54.3 17.7 54.2 17.8 54.2 17.9C54 18.1 53.9 18.2 53.7 18.4C53.6 18.5 53.5 18.6 53.5 18.7C53.5 18.8 53.6 18.8 53.7 18.7C53.8 18.7 53.9 18.6 53.9 18.5C54.2 18.3 54.5 17.9 54.5 17.8H54.4H54.5Z" fill="#E9E9A8"/>
<path id="Vector_52" opacity="0.2" d="M53.7 16.8C53.7 16.9 53.7 16.9 53.7 16.8C53.6 16.9 53.6 16.9 53.5 16.8C53.5 16.8 53.4 16.8 53.4 16.7C53.4 16.6 53.4 16.6 53.4 16.5C53.4 16.5 53.5 16.5 53.6 16.5C53.6 16.5 53.7 16.5 53.7 16.6C53.8 16.7 53.7 16.8 53.7 16.8Z" fill="#E9E9A8"/>
<path id="Vector_53" opacity="0.2" d="M54.7 11C54.8 10.9 54.9 10.7 54.9 10.5H54.8C54.6 10.5 54.4 10.8 54.4 11C54.4 11 54.4 11.1 54.5 11.1H54.6C54.6 11.1 54.6 11.1 54.7 11Z" fill="#E9E9A8"/>
<path id="Vector_54" opacity="0.2" d="M55.9 13.5C55.9 13.4 55.9 13.4 55.9 13.5C55.8 13.4 55.7 13.5 55.7 13.5C55.7 13.5 55.7 13.6 55.8 13.6C55.8 13.6 55.8 13.6 55.9 13.5C55.9 13.4 55.9 13.5 55.9 13.5Z" fill="#E9E9A8"/>
<path id="Vector_55" opacity="0.2" d="M47.4 11.3C47.4 11.2 47.4 11.1 47.3 11.1C47.2 11 47.2 11 47.1 11C47.1 11 47 11 47 11.1C46.9 11.2 47 11.4 47.1 11.4C47.2 11.4 47.4 11.4 47.4 11.3Z" fill="#E9E9A8"/>
<path id="Vector_56" opacity="0.2" d="M49.7 7.39999C49.8 7.49999 49.8 7.69999 49.7 7.69999C49.6 7.69999 49.6 7.59999 49.5 7.59999C49.5 7.59999 49.5 7.49999 49.7 7.39999Z" fill="#E9E9A8"/>
<path id="Vector_57" opacity="0.2" d="M51.1 9.09999C51.1 8.99999 51 8.99999 51 9.09999C51 9.19999 51 9.2 51.1 9.3C51.1 9.2 51.1 9.09999 51.1 9.09999Z" fill="#E9E9A8"/>
<path id="Vector_58" opacity="0.2" d="M59.6 18.3L59.5 18.2L59.4 18.3C59.4 18.4 59.5 18.4 59.6 18.3Z" fill="#E9E9A8"/>
<path id="Vector_59" opacity="0.2" d="M73.9 14L73.8 13.9L73.7 14C73.7 14.1 73.8 14.1 73.9 14Z" fill="#E9E9A8"/>
<path id="Vector_60" opacity="0.2" d="M66.2 14.4C66.4 14.5 66.5 14.7 66.5 14.9V15H66.4C66.2 15 65.9 15 65.8 14.8C65.7 14.6 65.9 14.4 66.2 14.4C66.1 14.4 66.2 14.5 66.2 14.6V14.4Z" fill="#E9E9A8"/>
<path id="Vector_61" opacity="0.2" d="M66.7 33.1C66.7 32.8 66.5 32.4 66.2 32.2C65.9 32.4 65.7 32.7 65.6 33C65.6 33.3 65.9 33.7 66.2 33.7C66.5 33.7 66.8 33.2 66.5 33L66.7 33.1Z" fill="#E9E9A8"/>
<path id="Vector_62" opacity="0.2" d="M65.1 30.3C65 30.2 65 30.1 64.9 30C64.8 30.1 64.8 30.3 64.7 30.3C64.7 30.3 64.7 30.3 64.6 30.3V30.4C64.7 30.5 65 30.4 65.1 30.3C65.1 30.3 65 30.2 65.1 30.3Z" fill="#E9E9A8"/>
<path id="Vector_63" opacity="0.2" d="M67.6 25.2C67.5 25 67.4 24.8 67.2 24.7C67.2 24.7 67.2 24.7 67.1 24.7H67C66.8 24.9 66.9 25.2 66.7 25.3H66.6C66.6 25.4 66.6 25.4 66.7 25.5C66.9 25.7 67.4 25.5 67.6 25.2C67.5 25.2 67.5 25.2 67.6 25.2Z" fill="#E9E9A8"/>
<path id="Vector_64" opacity="0.2" d="M65.3 28.2C65.3 28 65.2 27.9 65.1 27.8C65.1 27.9 65 27.9 65 28C65 28.1 65 28.2 65.1 28.2C65.1 28.2 65.2 28.2 65.3 28.2Z" fill="#E9E9A8"/>
<path id="Vector_65" opacity="0.2" d="M64.2 28C64.1 27.9 64.1 27.9 64.2 28C64.1 27.9 64 27.9 64 27.9C63.9 27.9 63.8 27.9 63.6 27.9C63.8 28 63.9 28.1 64.1 28.3C64.1 28.3 64.1 28.4 64.1 28.5C64.1 28.6 64.2 28.6 64.3 28.7C64.8 28.8 64.3 28.2 64.2 28Z" fill="#E9E9A8"/>
<path id="Vector_66" opacity="0.2" d="M65 24.2L64.9 24.1C64.8 24.2 64.8 24.3 64.9 24.4C65 24.5 65.1 24.5 65.2 24.4C65.2 24.3 65.2 24.2 65.3 24.2H65Z" fill="#E9E9A8"/>
<path id="Vector_67" opacity="0.2" d="M68.9 34.4C68.8 34.2 68.7 34.1 68.5 34C68.3 34 68.1 34.1 68.1 34.3C68.1 34.4 68.1 34.4 68.2 34.4C68.2 34.4 68.3 34.4 68.3 34.5C68.4 34.6 68.6 34.6 68.7 34.5C68.8 34.5 68.9 34.3 68.9 34.2V34.4Z" fill="#E9E9A8"/>
<path id="Vector_68" opacity="0.2" d="M65.8 30.1L65.9 30.2C65.8 30.2 65.7 30.2 65.6 30.1C65.5 30.1 65.5 30 65.5 29.9L65.6 29.8C65.7 29.7 65.7 29.6 65.8 29.6C65.9 29.6 65.9 29.6 65.9 29.7C65.9 29.8 65.9 29.8 65.9 29.9C65.8 29.9 65.8 30 65.8 30.1Z" fill="#E9E9A8"/>
<path id="Vector_69" opacity="0.2" d="M64.4 29.4C64.5 29.4 64.5 29.2 64.4 29.2L64.3 29.3C64.2 29.3 64.3 29.3 64.4 29.4C64.4 29.4 64.3 29.4 64.4 29.4Z" fill="#E9E9A8"/>
<path id="Vector_70" opacity="0.2" d="M71.2 30.7C71.3 30.6 71.2 30.4 71 30.4C70.8 30.4 70.8 30.5 70.7 30.6C70.7 30.7 70.7 30.7 70.7 30.8C70.8 30.9 70.9 30.9 70.9 30.8C71.1 30.9 71.2 30.8 71.2 30.7Z" fill="#E9E9A8"/>
<path id="Vector_71" opacity="0.2" d="M69.3 32.5C69.2 32.6 69.2 32.8 69.1 32.9V33C69.1 33 69.1 33.1 69.2 33.1C69.3 33.2 69.4 33.4 69.6 33.3C69.8 33.3 69.8 33 69.8 32.9C69.9 32.6 70.5 32 70.1 31.7C69.7 31.4 69.4 32.2 69.3 32.5Z" fill="#E9E9A8"/>
<path id="Vector_72" opacity="0.2" d="M70.3 30.3C70.3 30.3 70.4 30.3 70.3 30.3C70.3 30.4 70.3 30.5 70.2 30.5C70.1 30.5 70 30.5 70 30.4C70 30.3 70 30.2 70.1 30.2C70.2 30.2 70.2 30.2 70.3 30.3Z" fill="#E9E9A8"/>
<path id="Vector_73" opacity="0.2" d="M64.9 28.9C64.9 29 65 29 65.1 29C65.2 29 65.2 28.9 65.2 28.9C65.3 28.9 65.3 28.8 65.4 28.9C65.4 28.9 65.5 28.9 65.5 29V29.1C65.5 29.2 65.4 29.3 65.3 29.4C65.2 29.5 65.1 29.5 64.9 29.5C64.8 29.5 64.8 29.4 64.8 29.3C64.8 29 64.9 28.9 64.9 28.9Z" fill="#E9E9A8"/>
<path id="Vector_74" opacity="0.2" d="M65.3 27.2C65.3 27.1 65.2 27 65.2 27C65.1 27 65 27 65 27.1V27.2C65 27.2 65 27.2 65.1 27.2C65.1 27.2 65.2 27.2 65.3 27.2Z" fill="#E9E9A8"/>
<path id="Vector_75" opacity="0.2" d="M66.2 31.6C66.1 31.8 65.9 31.8 65.8 31.7C65.9 31.6 65.9 31.5 66 31.4C66.1 31.3 66.3 31.4 66.3 31.5C66.3 31.6 66.2 31.6 66.2 31.7V31.6Z" fill="#E9E9A8"/>
<path id="Vector_76" opacity="0.2" d="M67.3 33.8L67.2 33.7L67.1 33.8C67.1 33.8 67.2 33.8 67.3 33.8Z" fill="#E9E9A8"/>
<path id="Vector_77" opacity="0.2" d="M73.9 29.9C74.1 30 74.2 30.2 74.2 30.4V30.5H74.1C73.9 30.5 73.6 30.5 73.5 30.3C73.4 30.1 73.6 29.8 73.9 29.9C73.8 29.9 73.9 30 73.9 30.1V29.9Z" fill="#E9E9A8"/>
<path id="Vector_78" opacity="0.2" d="M61.2 26.6C61.4 26.7 61.5 26.9 61.5 27.1V27.2H61.4C61.2 27.2 60.9 27.2 60.8 27C60.7 26.8 60.9 26.6 61.2 26.6C61.1 26.6 61.2 26.7 61.2 26.8V26.6Z" fill="#E9E9A8"/>
</g>
</g>
<defs>
<radialGradient id="paint0_radial_1_921" cx="0" cy="0" r="1" gradientUnits="userSpaceOnUse" gradientTransform="translate(38.8666 73.6216) rotate(-12.1808) scale(73.459)">
<stop offset="0.5928" stop-color="#5102AE"/>
<stop offset="1" stop-color="#798DF1"/>
</radialGradient>
</defs>
</svg>
