<?xml version="1.0" encoding="utf-8"?>
<!-- Generator: Adobe Illustrator 19.0.0, SVG Export Plug-In . SVG Version: 6.00 Build 0)  -->
<svg version="1.1" xmlns="http://www.w3.org/2000/svg" xmlns:xlink="http://www.w3.org/1999/xlink" x="0px" y="0px"
	 viewBox="0 0 500 500" style="enable-background:new 0 0 500 500;" xml:space="preserve">
<style type="text/css">
	.st0{fill:#FFEE88;}
	.st1{fill:#A4B6F7;}
	.st2{fill:#A2F9D4;}
	.st3{fill:#C9E9F4;}
	.st4{fill:#FAB696;}
	.st5{fill:#ED8A72;}
	.st6{fill:#D65A56;}
	.st7{fill:#1D1830;}
	.st8{fill:#3C324D;}
	.st9{fill:#4D2812;}
	.st10{fill:#EDD19A;}
	.st11{fill:#2F3E61;}
	.st12{fill:#1F254D;}
	.st13{fill:#EDF8FF;}
	.st14{fill:#261F38;}
	.st15{fill:#9585A1;}
	.st16{fill:#C4B6CF;}
	.st17{fill:#30273D;}
	.st18{fill:none;stroke:#30273D;stroke-linecap:round;stroke-miterlimit:10;}
	.st19{fill:none;stroke:#B52A33;stroke-linecap:round;stroke-miterlimit:10;}
	.st20{fill:#B52A33;}
	.st21{fill:#2C2D47;}
	.st22{fill:#453B52;}
	.st23{fill:#141224;}
	.st24{fill:#400805;}
	.st25{fill:#FAB696;stroke:#BE4C5A;stroke-linecap:round;stroke-miterlimit:10;}
	.st26{fill:#D66D67;stroke:#BE4C5A;stroke-linecap:round;stroke-miterlimit:10;}
	.st27{fill:#A32E41;}
	.st28{fill:#091732;}
	.st29{fill:#F8FDFF;}
	.st30{fill:none;stroke:#A5C1D9;stroke-width:2;stroke-linecap:round;stroke-miterlimit:10;}
	.st31{fill:#521507;}
	.st32{fill:#753717;}
	.st33{fill:none;stroke:#521507;stroke-linecap:round;stroke-miterlimit:10;}
	.st34{fill:#99B9DE;}
	.st35{fill:#C94045;}
	.st36{fill:#9C2D45;}
</style>
<g id="BACKGROUND">
</g>
<g id="OBJECTS">
	<g>
		<g>
			<g>
				<g>
					<path class="st0" d="M300.7,203.4c-1.3-2.8-3.2-5.3-5.6-7.3c-7.1-5.9-13.3,0.4-17.8,5.8c-3.6,4.3-7.3,7.6-12.2,10.5
						c-5.4,3.2-12.1,5.2-15.4,10.9c-5.8,10.1,1.1,21.2,11.6,23.6c14.2,3.2,30-2.6,37.5-15.3C303.7,223.3,304.9,212.2,300.7,203.4z"
						/>
					<path class="st1" d="M419.8,142.6c-6-5.9-15.5-7.7-23.1-14.4c-10.1-8.9-14.1-22.3-25-30.7c-26.2-20.3-62.2-6.2-74.4,22.9
						c-10.7,25.3,1.5,70.2,36.4,63.1c7.4-1.5,14.3-4.7,21.6-6.3c7.9-1.8,15.4-1.3,22.2,3.2c6.6,4.3,10.9,10.3,19.6,10
						c15.9-0.6,29.4-18.8,28.4-34C425.1,149.8,422.9,145.7,419.8,142.6z"/>
					<path class="st2" d="M410.7,221.5c-2-2.2-4.2-4.1-6.7-5.9c-13.5-9.6-31.5-10-45.7-1.5c-19,11.4-32.5,37.5-56,41
						c-7.9,1.2-15.8-0.7-23.7-1.8c-21-3-41,8.9-51.3,25.8c-33.6,54.9,34.6,109.4,89.6,108.1c72.1-1.7,129-86.4,103.8-149.6
						C418.4,231.6,415.1,226.2,410.7,221.5z"/>
					<path class="st0" d="M274,112.4c-40.3-54.3-112.6-36.3-153.9,2.1c-32.2,29.9-54,78.8-46.2,125.2c4.7,28.2,21.1,55,43.8,70
						c31.5,20.9,71.9,16,89.9-21.9c8-16.9,11.3-36.9,21.7-53c11.6-18.1,31.9-29.4,46.1-47.1C294.2,164.3,290.7,134.9,274,112.4z"/>
				</g>
				<g>
					<path class="st0" d="M100.5,119.8c-0.7,1.8-1.8,3.3-3.9,3.9c-2.7,0.8-5.3-0.1-5.9-2c-0.5-1.9,1.2-4,3.9-4.8
						c1.6-0.5,3.2-0.3,4.4,0.3l2.1-9.7c0.1-0.4-0.2-0.7-0.5-0.7l-12.8-0.9c-0.3,0-0.6,0.2-0.6,0.5c-0.5,2.2-0.9,4.3-1.4,6.5
						c-0.8,3.7-0.9,8.8-5.4,10.1c-2.7,0.8-5.3-0.1-5.9-2c-0.5-1.9,1.2-4,3.9-4.8c1.6-0.5,3.2-0.3,4.4,0.3l3.2-14.5
						c0.1-0.3,0.3-0.5,0.6-0.5l17.1,1.2c0.4,0,0.6,0.4,0.5,0.7c-1,4.8-2,9.7-3.2,14.5C100.9,118.5,100.7,119.2,100.5,119.8z"/>
					<path class="st1" d="M434.2,297.4c-0.7,1.8-1.8,3.3-3.9,3.9c-2.7,0.8-5.3-0.1-5.9-2c-0.5-1.9,1.2-4,3.9-4.8
						c1.6-0.5,3.2-0.3,4.4,0.3l2.1-9.7c0.1-0.4-0.2-0.7-0.5-0.7l-12.8-0.9c-0.3,0-0.6,0.2-0.6,0.5c-0.5,2.2-0.9,4.3-1.4,6.5
						c-0.8,3.7-0.9,8.8-5.4,10.1c-2.7,0.8-5.3-0.1-5.9-2c-0.5-1.9,1.2-4,3.9-4.8c1.6-0.5,3.2-0.3,4.4,0.3l3.2-14.5
						c0.1-0.3,0.3-0.5,0.6-0.5l17.1,1.2c0.4,0,0.6,0.4,0.5,0.7c-1,4.8-2,9.7-3.2,14.5C434.6,296.2,434.4,296.8,434.2,297.4z"/>
					<path class="st0" d="M398.2,111.1c-0.7,1.8-1.8,3.3-3.9,3.9c-2.7,0.8-5.3-0.1-5.9-2c-0.5-1.9,1.2-4,3.9-4.8
						c1.6-0.5,3.2-0.3,4.4,0.3l2.1-9.7c0.1-0.4-0.2-0.7-0.5-0.7l-12.8-0.9c-0.3,0-0.6,0.2-0.6,0.5c-0.5,2.2-0.9,4.3-1.4,6.5
						c-0.8,3.7-0.9,8.8-5.4,10.1c-2.7,0.8-5.3-0.1-5.9-2c-0.5-1.9,1.2-4,3.9-4.8c1.6-0.5,3.2-0.3,4.4,0.3l3.2-14.5
						c0.1-0.3,0.3-0.5,0.6-0.5l17.1,1.2c0.4,0,0.6,0.4,0.5,0.7c-1,4.8-2,9.7-3.2,14.5C398.6,109.8,398.4,110.4,398.2,111.1z"/>
					<path class="st1" d="M137,159.4c0,0-3.5-7.8-10.5-8.6c0.1,0,0.5,3.9,0.5,4.2c0.3,2.4,0.7,4.7,0.9,7.1c0.2,2.1,1.1,4.6,0.7,6.8
						c-0.3,1.7-2,3.3-3.4,4.3c-3.2,2.1-6.9,2.1-8.3,0c-1.4-2.1,0-5.6,3.2-7.7c1.6-1.1,3.4-1.6,5-1.6l-2-17.1c-0.1-0.5,0.3-1,0.9-1.1
						l0.7-0.1c0,0,0.3,0,0.7,0C127.8,145.8,136.1,147.3,137,159.4z"/>
					<path class="st2" d="M440.1,214c0,0-5.1-6.9-12.1-6.1c0.1,0,1.3,3.7,1.4,4c0.8,2.3,1.7,4.5,2.4,6.7c0.7,2,2.1,4.3,2.2,6.5
						c0.1,1.7-1.3,3.7-2.4,4.9c-2.6,2.7-6.3,3.5-8.1,1.7c-1.8-1.8-1.2-5.4,1.4-8.2c1.4-1.4,3-2.3,4.5-2.6l-5.7-16.3
						c-0.2-0.5,0.1-1.1,0.6-1.3l0.7-0.2c0,0,0.2-0.1,0.7-0.1C428.2,202.7,436.7,202.3,440.1,214z"/>
					<path class="st1" d="M298.4,91.8c0,0-3.5-7.8-10.5-8.6c0.1,0,0.5,3.9,0.5,4.2c0.3,2.4,0.7,4.7,0.9,7.1c0.2,2.1,1.1,4.6,0.7,6.8
						c-0.3,1.7-2,3.3-3.4,4.3c-3.2,2.1-6.9,2.1-8.3,0c-1.4-2.1,0-5.6,3.2-7.7c1.6-1.1,3.4-1.6,5-1.6l-2-17.1c-0.1-0.5,0.3-1,0.9-1.1
						l0.7-0.1c0,0,0.3,0,0.7,0C289.2,78.3,297.5,79.7,298.4,91.8z"/>
					<path class="st0" d="M94.3,301.1c0,0-3.5-7.8-10.5-8.6c0.1,0,0.5,3.9,0.5,4.2c0.3,2.4,0.7,4.7,0.9,7.1c0.2,2.1,1.1,4.6,0.7,6.8
						c-0.3,1.7-2,3.3-3.4,4.3c-3.2,2.1-6.9,2.1-8.3,0c-1.4-2.1,0-5.6,3.2-7.7c1.6-1.1,3.4-1.6,5-1.6l-2-17.1c-0.1-0.5,0.3-1,0.9-1.1
						l0.7-0.1c0,0,0.3,0,0.7,0C85.1,287.5,93.5,289,94.3,301.1z"/>
				</g>
				<g>
					<circle class="st1" cx="121.8" cy="99.2" r="4.1"/>
					<circle class="st1" cx="65.4" cy="295.3" r="4.1"/>
					<circle class="st1" cx="142.3" cy="374.9" r="4.1"/>
					<circle class="st0" cx="429.1" cy="332.4" r="4.1"/>
					<circle class="st2" cx="422.4" cy="126" r="4.1"/>
					<ellipse class="st1" cx="133.2" cy="85.8" rx="2.2" ry="2.1"/>
					<ellipse class="st1" cx="153.8" cy="85.8" rx="2.2" ry="2.1"/>
					<ellipse class="st2" cx="411.7" cy="107.8" rx="2.2" ry="2.1"/>
					<ellipse class="st2" cx="312.4" cy="87.9" rx="2.2" ry="2.1"/>
					<ellipse class="st1" cx="263.8" cy="85.8" rx="2.2" ry="2.1"/>
					<ellipse class="st1" cx="67.6" cy="255.1" rx="2.2" ry="2.1"/>
					<ellipse class="st1" cx="72.3" cy="274.5" rx="2.2" ry="2.1"/>
					<ellipse class="st1" cx="140.1" cy="334.6" rx="2.2" ry="2.1"/>
					<ellipse class="st1" cx="179.6" cy="377.1" rx="2.2" ry="2.1"/>
					<ellipse class="st0" cx="431.3" cy="254.5" rx="2.2" ry="2.1"/>
					<ellipse class="st0" cx="440.1" cy="267.1" rx="2.2" ry="2.1"/>
					<ellipse class="st0" cx="413.9" cy="365.5" rx="2.2" ry="2.1"/>
					<ellipse class="st2" cx="433.5" cy="126" rx="2.2" ry="2.1"/>
				</g>
			</g>
			<g>
				<g>
					<ellipse class="st3" cx="170.4" cy="426.7" rx="97" ry="12.9"/>
					<g>
						<g>
							<g>
								<g>
									<g>
										<path class="st4" d="M69.2,190.2c0.9,0.9,1.8,1.9,2.7,2.8c-0.5-0.2-1-0.3-1.6-0.3c-0.4,0-0.8,0-1.1,0.3
											c-0.4,0.3-0.5,1-0.3,1.5c0.2,0.5,0.6,0.9,0.9,1.3c2.8,2.9,5.6,5.8,8.5,8.7c0.4,0.5,0.9,0.9,1.5,1.2
											c0.2,0.2,0.4,0.4,0.5,0.6c1.2,1.2,5.7,2.4,7.3,2.7c1.2,0.2,6.8,0.2,11.4-0.5c0.4-0.1,0.7-0.1,1.1-0.2
											c1.4-0.3,2.7-0.6,3.7-1c0.8-0.4,1.7-0.8,2.2-1.5c0.8-1.1,0.6-2.5,0.3-3.8c-0.6-2.3-1.6-4.9-3.1-6.7
											c-0.1-0.5-0.3-0.9-0.5-1.4c0-0.1-0.1-0.2-0.2-0.3c-0.6-1.2-1.6-2.1-2.7-2.7c-2.1-1.1-4.5-1.3-6.7-2.1
											c-2.6-1-4.8-2.9-7.3-3.9c-0.3-0.1-0.6-0.2-0.8-0.1c-0.2,0.1-0.4,0.3-0.5,0.5c-0.4,1,0,2.3,0.8,3.1
											c0.8,0.8,1.8,1.3,2.8,1.8c1.7,0.9,3.4,1.8,5.1,2.9c-4.4,1.5-8,0.4-8.4,0.1c-3.5-2.5-6.2-5.9-8.3-8c-0.5-0.5-1.1-1-1.7-0.9
											c-0.7,0.1-1.2,0.9-1.2,1.6c0,0.7,0.4,1.4,0.7,2c0.9,1.6,1.7,3.1,2.6,4.7c-1.4-1.3-2.8-2.6-4.3-3.8
											c-0.7-0.6-1.4-1.1-2.3-1.4c-0.9-0.2-2.2-0.3-2.5,0.5C67.8,189,68.7,189.6,69.2,190.2z"/>
										<polygon class="st4" points="98,206.3 99.6,207.8 100.2,208.4 108.9,216.4 112.6,198.1 102.8,194 102.7,194 101.7,193.6 
																					"/>
									</g>
									<path class="st5" d="M99.2,208.5c0.4-0.1,0.7-0.1,1.1-0.2l8.7,8.1l3.6-18.3l-9.7-4c0-0.1-0.1-0.2-0.2-0.3v0.3
										c0,3.5-0.5,9.3-3.1,13.8C99.5,208.1,99.3,208.3,99.2,208.5z"/>
								</g>
								<path class="st6" d="M73,194.2c-0.2-0.1-0.2-0.3-0.1-0.5c0.1-0.2,0.3-0.3,0.5-0.1c0.5,0.4,1,0.8,1.6,1.2
									c0.3,0.2,0.5,0.4,0.8,0.6c0.2,0.1,0.4,0.3,0.6,0.5c0.2,0,0.4,0.1,0.6,0.2c0.9,0.3,1.7,1,2.4,1.7c0.9,0.9,1.7,1.9,2.5,2.9
									c0.4,0.5,0.8,0.9,1.2,1.4c0.2,0.2,0.4,0.5,0.7,0.8c0.3,0.2,0.6,0.1,1,0.1c1.4-0.1,2.7-0.4,4-0.9c2.3-0.8,4.9-2.1,7.3-0.9
									c0.4,0.2,0.1,0.8-0.4,0.6c-2.1-0.9-4.3,0.2-6.2,0.9c-1,0.4-2.1,0.7-3.2,0.8c-0.5,0.1-1,0.1-1.4,0.2c-0.4,0-1,0.2-1.3,0
									c-0.4-0.2-0.7-0.8-1-1.2c-0.4-0.4-0.8-0.9-1.2-1.3c-0.8-0.9-1.5-1.7-2.2-2.6c-0.6-0.7-1.3-1.4-2.2-1.8
									c-0.1-0.1-0.3-0.1-0.5-0.2c-0.1,0-0.2,0-0.3,0c0,0-0.1,0-0.1-0.1c-0.2,0-0.4,0-0.6,0c-0.9,0.2-0.8,0.9-0.5,1.6
									c0.5,1,1.3,2,2,3c0.8,1.1,1.6,2.2,2.4,3.2c0.3,0.3-0.2,0.8-0.5,0.5c-1.6-1.9-3.2-4-4.5-6.1c-0.4-0.7-0.8-1.7-0.1-2.4
									c0.2-0.2,0.5-0.3,0.8-0.4c-0.2-0.2-0.4-0.3-0.6-0.5C74,195,73.5,194.6,73,194.2z"/>
								<path class="st6" d="M76.9,192.6c0.8,0.8,1.5,1.5,2.3,2.3c0.4,0.4,0.8,0.8,1.2,1.2c0.3,0.3,0.6,0.6,0.9,0.9
									c0.6,0.5,1.2,1.2,2,1.3c0,0,0.1,0,0.1,0c0.6,0.1,0.7-0.7,0.1-0.8c-0.9-0.1-1.6-1-2.2-1.5c-0.7-0.6-1.4-1.3-2-1.9
									c-1.3-1.3-2.6-2.6-3.9-4L76.9,192.6z"/>
							</g>
							<g>
								<path class="st7" d="M174.8,154.9c-5.9,1.7-12.2,3.7-16.2,8.5c-2.3,2.8-3.6,6.4-4.7,9.9c-3.7,10.8-12,29.2-14.4,31.4
									c-2.5,2.2-16.2-2.8-24.8-9c-3.3,6.5-5.8,16.2-9.7,22.3c13.7,9.9,22.4,17.5,45.3,22.9C165.1,220.7,178.1,188.6,174.8,154.9z"
									/>
								<path class="st8" d="M116,194.2c-3.4-1.2-6.9-2.4-10.5-3.3c-0.6-0.2-1.5-0.3-1.9,0.2c-0.2,0.3-0.2,0.8-0.2,1.2
									c0.4,7.2-0.8,14.4-3.6,21c-0.2,0.4-0.4,0.8-0.2,1.3c0.1,0.4,0.5,0.7,0.8,0.9c3,2.4,6,4.7,8.9,7c0.4,0.3,0.8,0.6,1.3,0.6
									c0.7-0.1,1-0.8,1.2-1.4c2-5.9,4-11.8,6-17.7c0.6-1.7,1.1-3.4,1.1-5.2C118.8,197.1,118.1,194.9,116,194.2z"/>
							</g>
						</g>
						<g>
							<g>
								<g>
									<path class="st9" d="M209.2,426c1.9,2.7,20.4,4.1,24.4,0.3c1.4-1.3,2.6-4,2.5-7.5c0-0.2,0-0.5,0-0.7
										c-0.5-11-5.5-21.3-10.5-31.3c-3,1.8-7.1,3.5-11.3,5.1c0.6,7.5-1.5,15.2-4.4,23.1c-0.5,1.2-0.8,2.4-1,3.6
										C208.2,422.2,208.6,425,209.2,426z"/>
									<path class="st10" d="M209.2,426c1.9,2.7,20.4,4.1,24.4,0.3c1.4-1.3,2.6-4,2.5-7.5c0-0.2,0-0.5,0-0.7
										c-0.4,0.8-0.8,1.5-1.5,2.1c-1.3,1.2-3.1,1.9-4.8,2.3c-4.8,1.2-10,1.2-14.8-0.1c-1.6-0.4-3.2-1.1-4.5-2.1
										c-0.6-0.5-1.1-1.1-1.5-1.8C208.2,422.2,208.6,425,209.2,426z"/>
								</g>
								<g>
									<path class="st9" d="M90.1,436.3c1.3,2,3.7,2.7,6,3c4.6,0.6,9.4,0.1,13.7-1.5c3.2-1.2,6.3-3,9.7-3.7c3-0.6,6-0.4,9.1-0.8
										c3-0.4,8.2-0.9,9-3.5c0.2-0.5,0-1.5-0.3-2.8c-1.3-5.6-6.2-17.3-9.8-24.3c-4.4,0.7-7.6,1.9-12.5,2.7
										c0.4,5.6-4.6,10.8-9.5,13.4c-2.8,1.5-6,2.1-8.7,3.5c-2.9,1.6-5.3,4.1-6.6,7.1c-0.4,0.9-0.7,1.9-0.8,2.9
										C89.2,433.7,89.4,435.1,90.1,436.3z"/>
									<path class="st10" d="M90.1,436.3c1.3,2,3.7,2.7,6,3c4.6,0.6,9.4,0.1,13.7-1.5c3.2-1.2,6.3-3,9.7-3.7c3-0.6,6-0.4,9.1-0.8
										c3-0.4,8.2-0.9,9-3.5c0.2-0.5,0-1.5-0.3-2.8c-1.1,1.1-2.6,2-4.1,2.5c-3,1-6.2,1-9.3,1c-3.1,0-6.4,0-9.3,1.1
										c-1.8,0.7-3.5,1.7-5.3,2.4c-2,0.7-4.1,0.9-6.3,1.1c-2.9,0.2-5.8,0.5-8.7-0.1c-1.9-0.4-3.7-1.3-5.1-2.6
										C89.2,433.7,89.4,435.1,90.1,436.3z"/>
								</g>
							</g>
							<g>
								<path class="st11" d="M112.4,406.2c0.1,0.3,0.1,0.5,0.2,0.8c0.4,1.4,0.7,2.9,1.1,4.4c10.2,0.9,12.9-1.6,16.3-3.6
									c0-1.4-0.1-2.8-0.1-4.3c0-0.3,0-0.7,0-1c-1-25.5-7.4-64.8-11-73.5c-1.5-3.4,37.8-44.8,43.3-46.9c0,0,0,0,0,0
									c0.3-0.1,0.6,0,0.8,0.2c4.9,4.1,8.2,58.1,12.6,62.5c14.5,14.5,25.8,29.3,37.3,50.2l0.5,0.9c0.5,0.9,1,1.9,1.6,2.9
									c0.5,1,13-2.7,13.1-4.5c0.1-2.2,0.2-4.4,0.1-6.5v0l0-0.2l-0.1-1.7v0c-1.3-18.6-10.3-34.8-12.5-38.4
									c-5-8.1-9.9-10.1-15.7-13.6c1.8-25.2,8.5-46.4,8-69.7c-0.1-4.6-0.5-9.3-1.2-14.1c-15.8-7.3-37.6-13.4-53.8-14.6
									c-1.6-0.1-3.2-0.2-4.8,0.1c-4.1,0.9-6.9,4.6-9.3,8c-1.6,2.3-3.3,4.8-5.1,7.4c-18.4,26.7-44.1,66-44.8,73.9
									C88,336.2,101,361.8,112.4,406.2z"/>
								<g>
									<path class="st12" d="M228.1,387.6l-0.1-1.7c-0.2,0.5-0.3,1-0.5,1.4c-0.1-0.6-0.1-1.1-0.2-1.7c-1.1-8-3.5-15.9-7.1-23.2
										c-3.6-7.3-8.2-14.2-13.9-20c-1.4-1.5-2.9-2.9-4.4-4.2c-0.8-0.7-1.6-1.3-2.4-2c-0.8-0.7-1.7-1.4-1.8-2.6
										c-0.1-1.2,0.3-2.5,0.5-3.8c0.2-1.3,0.4-2.5,0.6-3.8c0.4-2.5,0.8-5,1.1-7.5c1.5-10,2.8-20.1,3.5-30.2
										c0.3-4.3,0.5-8.6,0.5-12.9c0-1.7,0-3.5,0-5.2c0-0.2,0-0.5,0-0.7c0-1.4-0.1-2.8-0.1-4.1v0c0-0.7-0.1-1.4-0.1-2.1
										c0.1,0,0.2,0,0.2,0.1c1.3,0.3,2.6,0.6,3.9,0.9c-0.1-3.6-0.3-7.3-0.8-11c-0.1-1-0.3-2-0.4-3c-0.8-0.4-1.6-0.7-2.4-1.1
										c-0.3-0.1-0.6-0.2-0.8-0.4c-0.8-0.4-1.6-0.7-2.4-1c-0.5-0.2-1-0.4-1.5-0.6c-3.4-1.4-7-2.7-10.7-3.8
										c-11.8-3.9-24.4-6.7-34.9-7.6c-0.4,0-0.7-0.1-1-0.1c-1.6-0.1-3.2-0.2-4.8,0.1c-0.1,0-0.2,0-0.3,0.1c-2,0.5-3.7,1.7-5.1,3.1
										c-1.5,1.4-2.7,3.2-3.9,4.8c-0.3,0.4-0.6,0.9-0.9,1.3c-1.3,1.9-2.8,4-4.2,6.1c0.5,1,1,2,1.5,3c2.4-1.1,4.6-2.4,6.8-3.8
										c1.4-0.9,2.7-1.8,4-2.8c4.7,1.5,9.5,3,14.2,4.4c-0.7,1.9-1.4,3.8-2.1,5.7c-0.7,1.8-1.6,3.7-1.8,5.6
										c-0.4,3.2,2.1,5.8,4.5,7.6c0.1,0.1,0.3,0.1,0.4,0c-0.3,2.5-0.4,5-0.4,7.6c-0.2-0.1-0.4-0.1-0.6-0.1c-0.9,0-1.8,0.7-2.5,1.3
										c-0.9,0.9-1.8,1.8-2.8,2.7c-3.7,3.6-7.4,7.3-11,11c-3.7,3.8-7.3,7.5-10.9,11.4c-3.5,3.7-6.9,7.4-10.2,11.3
										c-1.5,1.8-3,3.8-4.3,5.8c-1.3,1.9-2.7,4-3,6.2c-0.4,2.4,0.9,4.4,1.7,6.6c0.9,2.3,1.6,4.7,2.2,7.1c1.2,4.9,1.8,9.9,2.5,14.9
										c0.8,5.3,1.5,10.6,2.2,16c1.3,10.1,2.5,20.2,3,30.3c0,0.5,0.1,0.9,0.1,1.4c-3.7,1.9-8,2.3-12.3,2.2c-0.9,0-1.8-0.1-2.7-0.1
										c0.1,0.3,0.1,0.5,0.2,0.8c0.8,0.1,1.6,0.1,2.4,0.1c4.7,0.2,9.6-0.3,13.5-2.7c0.5-0.3,0.9-0.6,1.4-0.9c0-0.3,0-0.7,0-1
										c-0.5,0.4-1.1,0.8-1.6,1.2c-0.1-1.1-0.1-2.2-0.2-3.3c-0.7-10.2-1.8-20.4-3.1-30.5c-0.7-5.1-1.4-10.1-2.2-15.2
										c-0.7-4.8-1.3-9.6-2.5-14.3c-0.6-2.3-1.3-4.6-2.2-6.8c-0.4-1.1-1-2.1-1.3-3.2c-0.3-1.2-0.3-2.3,0.1-3.5
										c0.7-2.2,2.2-4.2,3.5-6.1c1.4-1.9,2.9-3.8,4.4-5.6c3.2-3.7,6.6-7.4,10-11c3.4-3.7,6.9-7.3,10.4-11
										c3.5-3.6,7.1-7.3,10.7-10.8c0.9-0.9,1.7-1.8,2.7-2.6c0.9-0.8,2.1-1.4,2.9-0.2c0.4,0.7,0.6,1.6,0.8,2.4
										c0.3-0.1,0.6,0,0.8,0.2c-0.3-1.1-0.6-2.7-1.4-3.6c-0.2-8.6,1.4-17.2,4.7-25.2c7.4,2.1,14.8,4.1,22.3,6
										c4.8,1.2,9.7,2.4,14.6,3.5c0,0.4,0,0.8,0.1,1.2c0.1,2,0.2,4,0.2,6c0,1.7,0,3.5,0,5.2c-0.1,5.5-0.4,11-0.9,16.5
										c-0.9,10.2-2.3,20.4-3.9,30.5c-0.4,2.5-0.8,5-1.2,7.5c-0.2,1.2-0.5,2.4-0.5,3.6c0,1,0.5,1.8,1.1,2.5
										c0.7,0.7,1.5,1.3,2.2,1.9c0.8,0.7,1.6,1.4,2.3,2.1c1.5,1.4,2.9,2.8,4.3,4.3c5.6,6.1,10.1,13,13.5,20.5
										c3.4,7.5,5.6,15.5,6.5,23.7c0,0.1,0,0.1,0.1,0.2c0,0.1-0.1,0.1-0.1,0.2c-1.8,3.3-4.5,5.8-8.3,6.4c-1.3,0.2-2.7,0.2-4,0
										c-0.5-0.1-1.1-0.2-1.6-0.3l0.5,0.9c0.4,0.1,0.7,0.1,1.1,0.2c3.7,0.6,7.6-0.4,10.3-3.1c1-1,1.8-2.1,2.4-3.2
										c0.4-0.7,0.7-1.4,1-2.1v0L228.1,387.6z M161.2,270c-2.3-2.1-4.9-4.2-4-7.7c0.4-1.8,1.2-3.5,1.8-5.2
										c0.6-1.7,1.2-3.4,1.9-5.1c1.5,0.4,3,0.9,4.5,1.3C163.3,258.7,161.9,264.3,161.2,270z"/>
								</g>
							</g>
						</g>
						<path class="st13" d="M218.7,155.6c-13.3-1.1-26.9-2.2-39.7,1.5c-0.9,0.3-1.9,0.6-2.7,1.2c-0.8,0.7-1.3,1.6-1.7,2.6
							c-5.8,12-36.1,77.7-38.1,83.8c27.5,5.9,38.8,10.1,68.3,16.4C215,227.4,215.5,189.1,218.7,155.6z"/>
						<g>
							<path class="st14" d="M183,160.6c-3.6,6.4-6.6,13.1-9,20c-1.5,4.4-2.8,8.8-4.6,13.1c-2.6,6-6.1,11.5-9.4,17.2
								c-7.6,13.4-14.9,30.3-18.5,40.6c-3.8,11.2-9.3,15.1-9.9,15.6c-1.3,1.1-6.5-1.6-9.9-4c4.3-3.6,6.9-8.6,9.1-14.6
								c9-24.8,18.9-52.7,32-76.7c2.4-4.4,4.9-8.9,8.6-12.3c3.7-3.4,8.9-5.6,13.8-4.6C186.2,156.7,185.9,159,183,160.6z"/>
							<g>
								<path class="st15" d="M125,259.8c0.9,0.4,1.9,0.8,2.8,1.2c2.4,1.1,4.8,2.2,7.5,2.3c0,0,0.1,0,0.1,0c0.2,0,0.4-0.2,0.4-0.5v0
									c0-0.2-0.2-0.5-0.5-0.5c-2.5,0-4.7-1.1-6.9-2.1c0.1,0,0.3-0.1,0.3-0.3c2.2-6.6,4.9-13.1,7.8-19.4
									c5.2-11.3,11-22.3,15.9-33.8c5.1-11.9,9.3-24,13.5-36.2c0.2-0.5-0.6-0.7-0.8-0.2c-2.4,6.9-4.8,13.7-7.3,20.6
									c-2.3,6.1-4.7,12.2-7.2,18.2c-2.5,5.7-5.2,11.3-7.9,16.9c-5.4,11-10.9,22.1-14.8,33.8c0,0.1,0,0.2,0,0.3
									c-0.2-0.1-0.3-0.1-0.5-0.2c-0.6-0.3-1.2-0.6-1.9-0.8L125,259.8z"/>
								<g>
									<circle class="st16" cx="158.6" cy="198.1" r="1.2"/>
									<circle class="st16" cx="150.3" cy="216.7" r="1.2"/>
									<circle class="st16" cx="139.4" cy="239.6" r="1.2"/>
									<circle class="st16" cx="132.2" cy="257.2" r="1.2"/>
								</g>
							</g>
						</g>
						<g>
							<path class="st8" d="M163,204c0.7-5.1,0.1-10.3-1.9-15c-0.7-1.8-1.6-3.4-2.3-5.2c-0.2-0.5-0.4-1.1-0.2-1.6
								c0.2-0.5,0.7-0.8,1.2-1.1c2.8-1.6,5.6-3.2,7.9-4.9c-1.6-3.5-6.3-4.2-8.6-7.4c-1.3-1.8,1.6-4,3.1-5.6c3.5-3.8,7.5-7.1,11.7-10
								c1.1-0.7,2.2-1.5,3.5-1.7c2.4-0.5,4.7,0.6,6.9,1.7c0.5,0.2,1,0.5,1.2,1c0.3,0.7,0.7,1.9,0.3,2.5c-3,4.7-5.3,8.4-8.2,14.5
								c-5.4,11.4-5.7,25.4-14.5,34.5C163,205.1,162.9,204.6,163,204z"/>
							<g>
								<circle class="st16" cx="162.1" cy="183.2" r="1.2"/>
								<circle class="st16" cx="163.3" cy="166.7" r="1.2"/>
							</g>
						</g>
						<g>
							<path class="st4" d="M182.6,160.5c-0.3,1.3-0.8,2.5-1.5,3.6c0.5,3,2.5,4.9,6.4,6.4c8.5-1.7,18.4-10.5,22-18.1
								c-2.3-1.7-4.7-4.7-6.6-8.5c-1.6-3.3-2.9-7.2-3.4-11.5c-7.8,3.5-14,6.1-20.7,10.8c1.6,3.3,3.2,6.6,3.9,10.2
								C183.1,155.8,183.2,158.3,182.6,160.5z"/>
							<path class="st5" d="M182.7,153.5c0.5,2.3,0.5,4.8-0.1,7c12.8,0.4,18.2-10.4,20.3-16.7c-1.6-3.3-2.9-7.2-3.4-11.5
								c-7.8,3.5-14,6.1-20.7,10.8C180.4,146.6,182,149.9,182.7,153.5z"/>
						</g>
						<g>
							<path class="st5" d="M170,136.3c-1.7-1-3.5-1.9-5.6-1.9c-2,0-4.2,1.2-4.8,3.2c-0.3,1.1-0.1,2.2,0.3,3.2
								c0.9,2.4,2.6,4.5,5.1,5.3s5.5,0.2,7.3-1.8C172.2,144.3,172.1,144.3,170,136.3z"/>
							<g>
								<path class="st17" d="M155.7,118.6c0.4,3.9-0.2,5.3,1.9,10.3c0.9,2.3,1.3,3.7,2.7,6.4c2.4,4.5,3.6,4.6,6.3,7.5
									c-1-7.1-2.9-15.4-3.9-22.3C160.7,120,158.8,119.5,155.7,118.6z"/>
								<path class="st4" d="M160.8,126.4c0.1,3.6,0.9,7.4,2.5,11.1c5.6,13.5,11.6,20.3,21.7,19c9.9-1.3,21.8-21.4,16.2-34.8
									c-2-4.9-5-9-8.5-12c-1.7-1.5-3.6-2.8-5.5-3.7c-4.8-2.3-10-2.7-14.7-0.7c-3.3,1.4-6,3.7-7.9,6.6
									C161.9,115.9,160.6,121,160.8,126.4z"/>
								<g>
									<path class="st18" d="M169.8,130.7c-2.2-0.6-4.7,0.5-6.1,2.8"/>
									<path class="st18" d="M182.1,127.2c1.8-2.4,5-3.1,7.4-1.7"/>
									<path class="st19" d="M175.8,137.4c0.4,1.9,1.1,3.7,2.2,5.4"/>
									<path class="st20" d="M179.6,145.8c2.5-1.3,5.9-3.5,8.1-5.3c2,1.7,2.4,5.3,0.3,7.3C185.2,150.4,181,148.8,179.6,145.8z"/>
									
										<ellipse transform="matrix(-0.2682 -0.9634 0.9634 -0.2682 108.3002 349.3624)" class="st21" cx="186.8" cy="133.5" rx="1.7" ry="1.2"/>
									
										<ellipse transform="matrix(-0.2599 -0.9656 0.9656 -0.2599 83.4673 339.902)" class="st21" cx="172" cy="138" rx="1.7" ry="1.2"/>
								</g>
								<path class="st5" d="M160.8,126.4c2.9,1.1,6.3,0.8,9.1-0.7c2.6-1.4,4.5-3.9,7.1-5.1c2.2-1.1,4.7-1.2,7.1-1.6
									c2.4-0.4,4.9-1.2,6.4-3.2c0.9,1,2,2.1,3.1,3.1c-0.5-4.3-0.8-7-1-9.3c-1.7-1.5-3.6-2.8-5.5-3.7c-3.2,0.8-6.5,1.1-9.7,1.7
									c-4.5,0.8-8.9,2.2-12.9,4.3C161.9,115.9,160.6,121,160.8,126.4z"/>
								<path class="st17" d="M205.8,121c0,1.9-0.2,3.8-0.5,5.8c-0.9,0.3-1.9,0.6-2.8,1c-1,0.4-2,0.8-3,1.2c-0.3-1-0.6-1.9-0.9-2.9
									c-0.8-2.2-1.9-4.3-3.8-5.6c-0.6-0.4-1.2-0.7-1.6-1.2c-0.3-0.3-0.4-0.7-0.6-1.1c0-0.1-0.1-0.2-0.1-0.3
									c-0.6-1.4-1.2-2.9-1.8-4.3c-1.3,2.2-4.1,3.1-6.7,3.5c-2.6,0.5-5.4,0.6-7.8,1.7c-2.2,1-3.9,2.7-5.9,4
									c-1.7,1.1-4.4,1.8-6.8,2.1c-0.9,0.1-1.8,0.2-2.7,0.2c-0.2,0-0.5,0-0.7,0c-0.9,0-1.9-0.1-2.7-0.5c-0.8-0.5-1.3-1.4-1.1-2.3
									c-0.2,0-0.3-0.1-0.5-0.2c-1.5-0.6-2.8-1.7-3.7-3c-0.4-0.7-0.8-1.5-0.9-2.3c-0.2-1.1-0.2-2.2-0.7-3.2c-0.3-0.6-0.7-1.1-1-1.6
									c-1.4-2.5,0.5-7,2.2-7.8c1.9-0.8,3.4-0.5,3.5-1.5c0.4-2,2.2-3.6,4.2-3.9c2-0.4,4.1,0.1,6.1,0.3c3,0.3,6,0.1,8.9-0.6
									c5.5-1.5,11.8-3,16.5-1.3c2,0.7,3.5,1.9,4.5,3.3c0.8,1.1,1.3,2.3,1.4,3.4c2.1,0,3.8,1,4.9,2.5c1.1,1.4,1.7,3.2,2.2,4.9
									C205.3,114.9,205.8,117.9,205.8,121z"/>
								<path class="st22" d="M195.5,100.6c-4.1-1.1-8.6-0.6-12.9,0.1c-5.3,0.9-10.7,2.3-15.9,1.2c-1.7-0.3-3.3-0.9-5-0.9
									c-1.7,0-3.5,0.6-4.3,2.1c-0.4,0.7-0.5,1.6-1,2.3c-1.2,1.6-4.1,1.4-4.7,3.2c-0.6,1.8,1.7,3.3,1.8,5.2
									c0.1,1.1-0.5,2.1-0.9,3.2c-0.2,0.6-0.4,1.3-0.5,2c-0.4-0.7-0.8-1.5-0.9-2.3c-0.2-1.1-0.2-2.2-0.7-3.2
									c-0.3-0.6-0.7-1.1-1-1.6c-1.4-2.5,0.5-7,2.2-7.8c1.9-0.8,3.4-0.5,3.5-1.5c0.4-2,2.2-3.6,4.2-3.9c2-0.4,4.1,0.1,6.1,0.3
									c3,0.3,6,0.1,8.9-0.6c5.5-1.5,11.8-3,16.5-1.3C193,98,194.5,99.2,195.5,100.6z"/>
								<path class="st4" d="M198.1,127.1c0.9-2,2.1-4,3.9-5.3c1.8-1.2,4.4-1.4,6,0.1c0.8,0.8,1.3,2,1.5,3.2
									c0.5,2.8,0.1,5.9-1.6,8.2c-1.7,2.3-4.8,3.5-7.5,2.8C200.5,136.2,200.5,136.2,198.1,127.1z"/>
							</g>
						</g>
						<g>
							<g>
								<path class="st14" d="M221.2,271.3c-10.9,4.6-24.6,4.6-34.1,5.5c4.4-46.3-1.2-46.5-1.2-77c0-7.7,22.8-26.6,19.4-53.6
									c10.7,3.3,27.6,8.1,29.1,12.7C238.6,171,228.8,232,221.2,271.3z"/>
								<g>
									<path class="st15" d="M222.1,266.6c-9.3,3.5-19.4,3.4-29.1,4.9c-1.8,0.3-3.8,0.7-5.5,1.5l0.1-0.8c3.5-1.5,7.6-1.8,11.4-2.2
										c1.3-0.1,2.6-0.3,3.9-0.4c-0.1-0.1-0.2-0.2-0.2-0.3c1.7-14.8,0.4-29.7-0.5-44.6c-0.2-3.7-0.5-7.4-0.6-11.1
										c-0.1-3.6-0.3-7.3,0.2-10.9c0.9-6.9,4.5-13,7-19.4c2.8-7.4,4.5-15.3,5-23.2c0-0.5,0.7-0.5,0.7,0c-0.4,7-1.8,14-4,20.6
										c-1.1,3.2-2.4,6.4-3.8,9.5c-1.4,3.1-2.8,6.3-3.6,9.7c-0.9,3.6-0.9,7.2-0.8,10.8c0.1,3.7,0.3,7.4,0.6,11.1
										c0.5,7.5,1.1,15,1.4,22.4c0.3,8.3,0.3,16.7-0.7,24.9c0,0.1-0.1,0.2-0.2,0.3c3.8-0.4,7.6-0.9,11.3-1.7
										c2.6-0.5,5.2-1.2,7.6-2.2L222.1,266.6z"/>
									<g>
										<circle class="st16" cx="198.7" cy="206.9" r="1.2"/>
										<circle class="st16" cx="199.9" cy="228.9" r="1.2"/>
										<circle class="st16" cx="199.9" cy="248.2" r="1.2"/>
										<circle class="st16" cx="199.9" cy="266.5" r="1.2"/>
									</g>
								</g>
							</g>
							<g>
								<g>
									<g>
										<path class="st4" d="M241.4,301.4c0,0,1.8-5.9,1.9-9.2c5,6.9,8.1,15,14.6,20.1c0.2,0.2,0.5,0.4,0.8,0.4
											c0.9,0.1,1.2-1.3,1.1-2.3c-0.8-4.6-5.1-7.8-6.4-12.5c4.1,3,8.4,5.9,12.8,8.5c1.3,0.8,3.3,1.4,4.1,0.1c0.6-1,0-2.3-0.5-3.3
											c1.1,0.5,2.3-1.1,2.1-2.4c-0.2-1.3-1.2-2.2-2.2-3.1c-2.3-1.9-4.5-3.9-6.8-5.8c2.4,1.2,4.8,2.5,7.3,3.7
											c0.9,0.5,2.1,0.9,2.9,0.2c0.7-0.6,0.6-1.8,0.2-2.5c-0.5-0.8-1.2-1.3-2-1.7c-3.3-2.1-6.6-4.3-9.7-6.6
											c-2.6-1.9-5.2-3.9-7.7-5.9c-0.1,0-0.1,0-0.5,0.2c-4.3-2.7-8.9-4.8-14.3-6.3c0.3,5,0.3,9.9,0.1,14.9
											c-0.2,4.3-0.5,8.6-1,12.8C237.7,303.6,240.4,303.8,241.4,301.4z"/>
										<path class="st5" d="M239.1,287.8c7.5,1.6,15.6,0.6,22.5-2.9c-2.6-1.9-5.2-3.9-7.7-5.9c-0.1,0-0.1,0-0.5,0.2
											c-4.3-2.7-8.9-4.8-14.3-6.3C239.2,277.9,239.3,282.9,239.1,287.8z"/>
									</g>
									<path class="st6" d="M258.8,293.4c1.8,1.4,3.6,2.9,5.4,4.3c1.7,1.4,3.5,2.8,5,4.3c0.3,0.3-0.2,0.9-0.5,0.5
										c-1.5-1.6-3.2-2.9-4.9-4.3c-1.8-1.4-3.6-2.9-5.4-4.4C258.1,293.7,258.5,293.1,258.8,293.4z"/>
								</g>
								<g>
									<g>
										<path class="st14" d="M256.4,274.7c3.6-43.8-3.7-47.6-6.7-52.4c-2.8-12.1-1.9-26.3-2.4-38c-0.3-6.6-0.5-13.7-4.4-19.1
											c-1.9-2.7-4.6-4.7-7.3-6.6c-2.5-1.8-5.6-3.6-8.6-2.5c-1.8,0.6-3.1,2.2-4.1,3.8c-2.4,3.6-4.3,7.5-6.7,14
											c3.1,18.8,9.7,35.8,13,55.7c3,18.4,2.5,27.7,6.1,50.2C241,280.7,249.1,275.3,256.4,274.7z"/>
										<path class="st8" d="M233.8,275.9c0.6,2.6,2.2,6.8,3.4,9.2c0.3,0.6,0.7,1.3,1.3,1.6c0.5,0.2,1,0.2,1.5,0.2
											c6.2-0.1,12.9-1.1,17.6-5.1c0.4-0.3,0.7-0.6,0.9-1.1c0.3-0.5,0.3-1.1,0.3-1.6c0.2-3.2,0.9-9.1,0-9.5
											c-2.2-0.9-13.3,5.5-20.5,5.6C236.6,275.2,233.6,274.9,233.8,275.9z"/>
									</g>
									<g>
										<path class="st23" d="M223.8,182.5c0.2-4.2,0.5-8.3,0.9-12.4c0-0.4,0.7-0.4,0.6,0c-1.6,14.6-1.3,29.4,0.9,43.9
											c0.6,4.1,1.4,8.1,2.3,12.1c0.1,0.4-0.6,0.6-0.7,0.2C224.6,211.9,223.3,197.1,223.8,182.5z"/>
										<path class="st23" d="M217.7,200.7c0.7,0.9,1.2,2,1.8,3c0.6,1,1.2,1.9,1.8,2.9c1.3,1.9,2.6,3.8,3.9,5.7
											c0.3,0.4-0.4,0.7-0.6,0.4c-1.4-1.9-2.7-3.8-4-5.7c-0.6-0.9-1.2-1.9-1.8-2.9c-0.6-1-1.3-2-1.8-3
											C216.9,200.6,217.4,200.3,217.7,200.7z"/>
									</g>
								</g>
							</g>
							<g>
								<path class="st8" d="M204.2,145.6c1.4-0.4,8.8,1.7,10.4,3.5c0.9,1,1.2,2.4,1.6,3.7c0.7,2.7,1.2,5.5,1.7,8.3
									c1.1,6.5,4.2,17.9,3.1,19.5c-0.9,1.3-11.5-0.2-17.1,0.5c1.8,4.1,3,8.4,3.7,12.8c0.1,0.5,0.1,1-0.2,1.3
									c-0.3,0.4-0.9,0.5-1.4,0.5c-4.1,0.2-8.2,0.5-12,2c-3.8,1.5-7.9,8-8.1,8c-0.8,0-1.2-6.5-0.6-8.3c1-2.6,2.3-5,3.7-7.4
									c6.9-11.8,12.6-24.5,14-38C203.2,149.6,203.5,145.8,204.2,145.6z"/>
								<g>
									<circle class="st16" cx="203.6" cy="192.7" r="1.2"/>
									<circle class="st16" cx="217.6" cy="178" r="1.2"/>
								</g>
							</g>
						</g>
					</g>
				</g>
				<g>
					<ellipse class="st3" cx="354.1" cy="427" rx="97" ry="12.9"/>
					<g>
						<path class="st24" d="M330.5,123.9c-1.3-4.9-6.7-8.1-11.7-7.7c-5.1,0.4-9.5,4.1-11.8,8.6s-2.4,9.9-1.4,14.9
							c1.5,7.4,5.7,14.3,5.6,21.9c0,6-2.7,11.6-4.2,17.4c-0.7,2.6-1,5.6,0.7,7.7c1.7,2.1,6,1.6,6.1-1.1c1.2,7.1,5.3,13.7,11.3,17.8
							c5.9,4.1,13.6,5.7,20.7,4.3c5.1-1,10-3.7,12.9-8c2.9-4.3,3.4-10.3,0.5-14.6c-2.2-3.3-5.9-5.1-8.9-7.6
							c-5-4.2-8.3-10.5-8.7-17.1c-0.4-5.4,1.1-10.7,1-16.1C342.5,138.9,340.5,132.9,330.5,123.9z"/>
						<g>
							<g>
								<g>
									<path class="st4" d="M408.3,150.9c-3,35.4-7.6,58.4-12.7,58.9c-5.3,0.5-11.4,0.7-24-1c-3.1-0.4-6.6-0.9-10.6-1.5
										c0.3-7-1.5-13.3,2.1-23c4.4,1.1,7.8,2,11.5,3c2.9,0.8,6.1,1.5,10,2.2c2.5-6.9,9.1-10.8,11.6-40.3
										C400.5,149.4,403.1,149.5,408.3,150.9z"/>
									<path class="st5" d="M371.6,208.9c-3.1-0.4-6.6-0.9-10.6-1.5c0.3-7-1.5-13.3,2.1-23c4.4,1.1,7.8,2,11.5,3
										C375.4,194.6,374.3,202.1,371.6,208.9z"/>
								</g>
								<g>
									<path class="st4" d="M397.2,154.2c-2.5-4.8-7.2-10.9-8-16.3c-0.9-5.4-0.1-11.4,3.1-15.7c0.4-0.5,0.8-1,1.4-1.2
										c0.9-0.3,1.9,0.2,2.5,1c0.6,0.8,0.8,1.8,1.1,3.5c0.4-1.6,2-2.7,3.4-2.4c1.5,0.3,2.6,1.9,2.9,3.6c1-0.1,2,0.3,2.7,1.1
										c0.6,0.8,0.9,1.9,1,3.3c0.8-0.2,2.4,0.3,2.9,1c0.4,0.7,0.6,1.7,0.7,2.5c0.3,2.2,0.6,4.3,0.9,6.5c0.1,0.5,0.3,2.7-0.3,2.9
										c-1.1,0.4-1.9-0.4-2.6-2.1c-0.6-1.4-1.2-3.8-1.7-4.3c1.7,4.3,2.5,8.3,2.3,13c-0.2,3.8-3.4,4.2-4.2,4
										C401.7,154,400.7,154.2,397.2,154.2z"/>
									<path class="st25" d="M407.2,131.9c0.1,2.4,0.1,4.9,0.2,7.3c0,0.4,0,0.7-0.2,1c-0.4,0.5-1.3,0.2-1.7-0.2
										c-1-1-1.2-2.5-1.3-4"/>
									<path class="st25" d="M393.4,140.1c0.4-4.1,0.5-8.3,0.3-12.5c0-0.7-0.1-1.4,0.1-2c0.2-0.6,0.7-1.2,1.4-1.3
										c1-0.1,1.7,0.8,2.1,1.7c1.1,2.3,1.2,5,1.3,7.7c3.3,2.1,5.2,6.1,4.7,9.9"/>
									<path class="st26" d="M393.6,133.7c-0.8,0-1.6-0.2-2.3-0.6"/>
									<path class="st25" d="M403.5,128c0.3,2.1,0.7,4.1,1,6.2c0.1,0.8,0.2,1.8-0.5,2.3c-0.4,0.3-1.1,0.2-1.5,0
										c-0.5-0.3-0.8-0.7-1.1-1.1c-1.3-2-1.9-4.4-1.8-6.7"/>
								</g>
							</g>
							<path class="st13" d="M341.5,195.6c1.3-4.5-0.7-9.6,1.3-13.2c9-1.1,21.4,0.4,29.9,3.3c-0.7,7.6-2.7,15.1-5.9,22
								c-1.4,3.1-3.2,6.2-6.1,7.9c-5.7-1.8-11.4-3.7-17.1-5.5c-0.5-0.1-0.9-0.3-1.3-0.7c-0.3-0.4-0.4-0.9-0.5-1.4
								C341.1,203.6,340.6,198.9,341.5,195.6z"/>
						</g>
						<g>
							<path class="st27" d="M387,289.3c-3.4,21-4.2,42.5-2.4,63.7c0.1,1.1,0.2,2.2-0.3,3.2c-0.3,0.7-0.9,1.2-1.5,1.7
								c-3.1,2.8-6.2,5.4-9.5,8c-1.5,1.2-3.6,2.3-5.1,1.2c-1-0.8-1.1-2.2-1.1-3.5c-1.1-46.6-5.7-50.8-8-52.9c-1.7-1.5-5.8,7-7.5,8.4
								c-5.8,5-11.9-2.7-18.6,1c-4.7,2.7-5.9,9.2-6.8,14.6c-2.3,14-5.6,39.9-7.9,40.1c-5.7,0.6-31.2-17.1-30.2-19.8
								c8.9-24.9,5.9-67.6,7.6-68.8c10.2-7.1,20.5-18.3,31-24.9c4.4-2.8,9.5-5.4,14.5-4c2,0.5,3.8,1.7,5.5,2.7
								C360.3,268.2,376.9,272,387,289.3z"/>
							<g>
								<g>
									<path class="st28" d="M408,428.1c-2.5,0-6.3-3.8-7.9-5.6c-6.7-7.3-13.4-14.5-20.1-21.8c-1.2-1.3-2.5-3-1.8-4.8
										c0.4-1.1,1.5-1.9,2.6-2.6c0.1-0.1,0.2-0.1,0.3-0.2c4.3-2.8,9.2-5.6,13.6-8.4c1.5-0.9,3.5-0.4,4.3,1.2
										c4.9,10,3.5,16.9,12.3,28c3.4,4.3,2.6,9.3,0.5,12.1C410.6,427.3,409.3,428.1,408,428.1z"/>
									<path class="st29" d="M408,428.1c-2.5,0-6.3-3.8-7.9-5.6c-6.7-7.3-13.4-14.5-20.1-21.8c-1.2-1.3-2.5-3-1.8-4.8
										c0.4-1.1,1.5-1.9,2.6-2.6c0.1-0.1,0.2-0.1,0.3-0.2c6.4,14,18.6,27.4,30.6,32.9C410.6,427.3,409.3,428.1,408,428.1z"/>
									<g>
										<path class="st30" d="M405.6,404.7c-1.7-0.5-3.6-0.4-5.4,0.2"/>
										<path class="st30" d="M404.6,402c-1.9-0.6-4-0.7-6-0.1"/>
										<path class="st30" d="M407.1,407.3c-1.9-0.4-4-0.2-5.9,0.5"/>
										<path class="st30" d="M403.8,399.2c-2-0.7-4.3-0.9-6.5-0.5"/>
									</g>
								</g>
								<g>
									<path class="st28" d="M325.3,430.7c-2.1,1.4-7.3,0.2-9.7-0.4c-9.6-2.4-19.2-4.8-28.7-7.2c-1.7-0.4-3.7-1.1-4.1-3
										c-0.3-1.2,0.2-2.4,0.7-3.6c0-0.1,0.1-0.2,0.1-0.3c2-4.7,4.6-9.7,6.8-14.5c0.7-1.6,2.7-2.2,4.3-1.3
										c9.6,5.7,12.3,12.2,25.6,16.7c5.2,1.7,7.3,6.4,7,9.9C327.1,428.6,326.4,430,325.3,430.7z"/>
									<path class="st29" d="M325.3,430.7c-2.1,1.4-7.3,0.2-9.7-0.4c-9.6-2.4-19.2-4.8-28.7-7.2c-1.7-0.4-3.7-1.1-4.1-3
										c-0.3-1.2,0.2-2.4,0.7-3.6c0-0.1,0.1-0.2,0.1-0.3c13,8.2,30.6,12.7,43.7,10.7C327.1,428.6,326.4,430,325.3,430.7z"/>
									<g>
										<path class="st30" d="M310.4,412.5c-1.7,0.5-3.3,1.7-4.4,3.1"/>
										<path class="st30" d="M308.1,410.7c-1.9,0.5-3.7,1.6-5.1,3.2"/>
										<path class="st30" d="M313.1,413.9c-1.8,0.7-3.5,2-4.7,3.7"/>
										<path class="st30" d="M305.9,408.9c-2.1,0.5-4,1.6-5.6,3.2"/>
									</g>
								</g>
								<g>
									<path class="st4" d="M400.8,387.4c0,0.3-0.2,2.5-0.3,3.6c-4.5,1-7.7,1.3-12.7-1.2c-0.1-1-6.6-28.2-5.3-42.7
										c1.1-13.1,6.3-18.9,5.3-21.8c-1.4-3.9-9.1-9.8-18.7-15.6c-2.4-1.4-4.8-2.8-7.4-4.2c-1.6-0.9-3.3-1.8-5-2.6
										c-0.1-0.1-0.2-0.1-0.3-0.1c-1.4-0.7-2.7-1.4-4-2c-3.6-1.7-7.1-3.3-10.3-4.7c-0.3-0.1-0.6-0.2-0.9-0.4
										c-0.1,0.1-0.2,0.1-0.3,0.2l0,0c-0.8,0.4-1.5,0.8-2.3,1.3c-3.1,2.1-5.8,5.5-8,9.3c-0.3,0.5-0.6,1-0.8,1.5
										c-0.3,0.5-0.7,1.4-1.4,2.7c-25,51.1-26.4,94.5-26.4,95.7c-4.2,0.6-9-0.4-12.9-1.8c-0.2-1.9-7.4-29-2.9-48.7
										c1.7-7.5,6.6-13.9,8.3-21.4c1.7-7.7,0.1-16.5,0.5-24.3c0.1-1.2,0.1-2.4,0.2-3.6c0.2-2.8,0.4-5.6,0.6-8.3
										c0-0.1,0-0.4,0.1-0.7c0.1-1.1,0.2-2.3,0.3-3.4c0.5-4.7,1.1-9.4,2-14.1c0.1-0.5,0.2-1,0.3-1.6c0.1-0.5,0.2-1,0.3-1.5
										c0.1-0.6,0.2-1.1,0.3-1.7c1.6-7.9,3.8-15.8,6.8-23.5c0.7-1.9,1.5-3.8,2.4-5.6c0.4-0.8,0.7-1.6,1.1-2.4
										c3.5,0.4,7.1,0.7,10.6,1c8.9,0.8,18.1,1.5,27.8,2.6c4.3,0.5,8.6,1.1,13.2,1.9c0.1,0,0.1,0,0.2,0c2.7,4.8,6.9,13.7,8.5,16.5
										c0.3,0.5,0.5,0.8,0.6,0.9c0,0,0.1,0.1,0.1,0.1c1.1,1.1,2.4,2.4,3.9,3.8c0.2,0.2,0.4,0.4,0.6,0.6c0.5,0.5,1.1,1.1,1.7,1.7
										c2.1,2.2,4.5,4.6,7,7.2c0.8,0.8,1.6,1.7,2.4,2.6c0.3,0.3,0.5,0.5,0.6,0.6c1.7,1.8,3.4,3.7,5.1,5.6
										c12.3,13.6,24.5,28.7,25.1,34.1C417.8,330.8,404.1,349.5,400.8,387.4z"/>
									<g>
										<path class="st5" d="M391.9,289.7c-3.5-0.9-7-1.5-10.5-1.2c-4.9,2-8.9,6-10.9,10.8c-1.4,3.2-1.8,6.8-1.4,10.3
											c-2.4-1.4-4.8-2.8-7.4-4.2c-1.6-0.9-3.3-1.8-5-2.6c-0.1-0.1-0.2-0.1-0.3-0.1c-1.4-0.7-2.7-1.4-4-2
											c8-9.3,16.1-18.6,24.1-27.9c2.1,2.2,4.5,4.6,7,7.2c0.8,0.8,1.6,1.7,2.4,2.6c0.3,0.3,0.5,0.5,0.6,0.6
											c1.7,1.8,3.4,3.7,5.1,5.6L391.9,289.7z"/>
										<path class="st5" d="M341.9,285.4c-1,3.7-1.9,7.5-3.3,11.7c-3.1,2.1-5.8,5.5-8,9.3c-0.3,0.5-0.6,1-0.8,1.5
											c-0.3,0.5-0.7,1.4-1.4,2.7c-11.2,1.2-22.7-0.3-33.2-4.2c0.2-2.8,0.4-5.6,0.6-8.3c0-0.1,0-0.4,0.1-0.7
											c0.1-1.1,0.2-2.3,0.3-3.4c0.5-4.7,1.1-9.4,2-14.1C312.3,284.1,327.2,285,341.9,285.4z"/>
									</g>
								</g>
							</g>
						</g>
						<g>
							<path class="st14" d="M388.8,283.9c-14.1-1.5-22.6,10.8-22.6,24.5c-2.2-1.2-24-11.4-24.3-11.5c-0.1,0.1-5.4,6.1-9.9,12
								c-0.9,1.2-27.7-7.3-36.2-10.8c0-0.1,0-0.4,0.1-0.7c0.3-2.9,1.4-12.9,2.9-20.6c0.1-0.6,0.2-1.1,0.3-1.7
								c1.6-7.9,3.8-15.8,6.8-23.5c5.4-0.2,49.5-3.2,55.1-2.6c0.1,0,0.1,0,0.2,0c2.7,4.8,6.9,13.7,8.5,16.5c0.3,0.5,0.5,0.8,0.6,0.9
								c0,0,0.1,0.1,0.1,0.1c1.7,1.7,12.7,13,15.5,15.9C386.3,282.8,388.7,283.8,388.8,283.9z"/>
							<path class="st8" d="M347.7,279c-0.4-3.9-1-7.8-1.8-11.7c-0.1-0.4-0.7-0.2-0.6,0.2c0.8,3.6,1.4,7.3,1.7,11
								c0.1,1.4,0.5,3.2-0.2,4.4c-0.6,1-1.9,0.9-2.9,1.3c0-0.8,0-1.7-0.1-2.5c-0.2-4.7-0.8-9.5-1.8-14.1c-0.1-0.4-0.7-0.2-0.6,0.2
								c1,4.5,1.6,9.1,1.8,13.7c0.1,1.1,0.1,2.1,0.1,3.2c0,0.1,0,0.2,0,0.3c0,1.1,0,2.2-0.1,3.3c-0.1,2.2-0.1,4.5-1.2,6.5
								c-0.2,0.4,0.4,0.7,0.6,0.3c1-1.9,1.1-4,1.2-6.1c0.1-1.3,0.1-2.6,0.1-4c0.6-0.5,1.4-0.4,2.1-0.6c0.6-0.2,1-0.6,1.3-1.1
								C348.1,282,347.9,280.4,347.7,279z"/>
							<path class="st8" d="M335.5,305.3c-2.3-1.4-25.1-7.6-37.9-12.2c-1.3,3-2.2,6.2-2.5,9.4c11.3,4.8,23.5,7.6,35.8,8.2
								c0.6,0,1.2,0,1.7-0.2c0.4-0.2,0.8-0.6,1.1-0.9C334.7,308.3,336.6,305.9,335.5,305.3z"/>
							<path class="st8" d="M367,309.3c-0.3-6.4,1.3-13.1,5.5-18c4.2-4.9,11.2-7.6,17.3-5.6c-2-1.9-4.1-3.7-6.3-5.3
								c-0.8-0.6-1.6-1.1-2.5-1.4c-1.5-0.3-3,0.3-4.4,0.9c-3.2,1.4-6.3,3-8.9,5.3c-5.5,4.9-7.6,12.8-7.3,20.2c0,0.5,0.1,0.9,0.3,1.4
								c0.2,0.4,0.6,0.7,1,0.9c1,0.6,2,1.3,3,1.9C365.4,310,366.4,310.4,367,309.3z"/>
						</g>
						<g>
							<g>
								<path class="st4" d="M343.8,183.7c-4.4,3.2-8.8,6.2-13.3,9.3c-0.2,0.2-0.5,0.3-0.8,0.3c-0.4,0-0.7-0.2-1-0.5
									c-6.7-5.7-13.3-11.6-19.8-17.6c2.8-1.2,6.1-4,7.8-7.4c0.2-0.4,0.3-0.7,0.5-1.1c1.3-3.2,1.6-6.7,2-10.1
									c0.5,1.3,1.9,2,3.1,2.5c4.9,2,9.8,3.8,14.8,5.5c-1.3,3.9-2.6,8.1-1.5,12.1c0.2,0.7,0.5,1.5,0.9,2.1
									C338,181.5,340.8,183.4,343.8,183.7z"/>
								<path class="st5" d="M335.6,176.7c0.2,0.7,0.5,1.5,0.9,2.1c-11.5-0.2-16.9-7.1-19.3-12c1.3-3.2,1.6-6.7,2-10.1
									c0.5,1.3,1.9,2,3.1,2.5c4.9,2,9.8,3.8,14.8,5.5C335.8,168.5,334.5,172.7,335.6,176.7z"/>
							</g>
							<g>
								<g>
									
										<ellipse transform="matrix(-0.9402 -0.3405 0.3405 -0.9402 554.7397 399.2518)" class="st5" cx="312.4" cy="150.9" rx="5.7" ry="4.6"/>
									<path class="st5" d="M354,164.8c-1.2,0.1-2.4,0-3.4-0.5c-1.5-0.6-2.6-1.9-2.8-3.4c-0.3-2.4,1.9-4.7,4.8-5.2c0,0,0,0,0,0
										c0.1,0,0.2,0,0.2,0c0.2,0,0.5,0,0.7,0c0.1,0,0.2,0,0.3,0c0.3,0,0.5,0,0.8,0.1c0.3,0,0.6,0.1,0.9,0.2c0.1,0,0.1,0,0.2,0.1
										c1.8,0.6,3.1,1.9,3.2,3.6C359.4,162,357.1,164.4,354,164.8z"/>
									<g>
										<path class="st4" d="M354,149.1c1.6-12.8-5.8-24.3-16.7-25.7c-10.8-1.4-20.9,7.9-22.5,20.7c-1.6,12.8,3,27.1,15.7,28.7
											C343.5,174.5,352.4,162,354,149.1z"/>
										<path class="st5" d="M352.8,154.8c-0.5-1.8-0.9-3.6-1.8-5.4c-4-1.5-7.2-4.8-8.8-8.6c-6.8,2.7-14.6,2.8-21.7,0.2
											c-2.3,2.1-4.2,4.6-5.5,7.4c0.5-4.7,1.4-9.3,2.9-13.7c8.9-1.6,17.8-3.2,26.5-5.1c3.5,4.7,6.9,9.3,10.7,13.8
											C354.2,147.3,353.2,151.2,352.8,154.8z"/>
									</g>
									<g>
										<g>
											<path class="st31" d="M355.9,147c-0.4,1.9-1,3.8-1.7,5.6c-0.6,1.7-1.3,3.2-2,4.6c0-0.2,0-0.3,0-0.5c0-1.1,0-2.6,0-4
												c0,0,0,0,0,0c0-1.7-0.1-3.4-0.2-4.3c-3.9-2.7-7-6.6-8.7-11.1c-0.6-1.5-1.1-3.1-1.4-4.8c0.4-1,0.7-1.8,1.1-2.5
												c0.4-0.8,0.9-1.4,1.4-1.9c0.4-0.5,0.9-0.8,1.4-1.1c1.1-0.6,2.2-0.7,3.2-0.5c0.3,0.1,0.6,0.1,0.9,0.2
												c2.6,0.9,4.6,3.1,5.7,5.6c1.1,2.5,1.4,5.3,1.4,8C356.8,142.2,356.5,144.6,355.9,147z"/>
											<g>
												<path class="st31" d="M349.2,130.4c0,0.1-0.1,0.2-0.1,0.3c-0.4,1-1,2-1.7,2.9c-1,1.1-2.2,2.2-3.5,3.2
													c-0.2,0.2-0.4,0.3-0.6,0.4c-5.3,3.4-17.3,3.9-24,1.8c-1.5,2.2-2.3,4.5-3,7.1c-0.2,0.6-0.3,1.2-0.5,1.8
													c-0.3,1.3-0.6,2.6-1,4.1c-0.1-0.2-0.1-0.4-0.1-0.5c-0.4-1.3-0.6-2.7-0.7-4.1c-0.1-0.4-0.1-0.7-0.1-1.1
													c-0.4-5.3,0.4-10.8,2.6-14.9c1.7-3.2,4.5-5.9,7.7-7.8c2.4-1.4,5.1-2.4,7.8-3c4.8-0.9,9.9,0.1,14.1,3.1
													c1,0.7,2,1.6,2.9,2.6c0.2,0.3,0.5,0.5,0.7,0.8C349.7,128.4,349.5,129.4,349.2,130.4z"/>
											</g>
										</g>
										<path class="st32" d="M356.9,140.2c0,2-0.4,4.4-1,6.8c0.1-2.1,0-4.2-0.3-6.3c-0.4-2.6-1-5.3-2.7-7.4
											c-0.9-1.1-2.1-2-3.4-2.5c-0.2-0.1-0.3-0.1-0.5-0.2c-1-0.3-2.1-0.4-3.1-0.1c-0.4-1-1-1.8-1.6-2.6c-1.8-2.2-4.3-3.7-6.9-4.5
											c0,0,0,0,0,0c-1.3-0.4-2.7-0.7-4.1-0.8c-3.1-0.2-6.1,0.3-9.2,1c2.4-1.4,5.1-2.4,7.8-3c4.8-0.9,9.9,0.1,14.1,3.1
											c1,0.7,2,1.6,2.9,2.6c0.3,0.1,0.6,0.1,0.9,0.2c2.6,0.9,4.6,3.1,5.7,5.6C356.6,134.7,356.9,137.5,356.9,140.2z"/>
									</g>
								</g>
								<g>
									<path class="st33" d="M342.7,147.7c2.2-0.7,4.7,0.3,6.3,2.5"/>
									<path class="st33" d="M331.5,145.4c-1.9-2.3-5.1-2.9-7.5-1.4"/>
									<path class="st19" d="M337.2,153.6c-0.3,1.9-1,3.8-2,5.5"/>
									<path class="st20" d="M336.7,162.4c-2.7-0.8-6.5-2.2-9-3.5c-1.6,2.1-1.2,5.7,1.2,7.2C332.2,168.1,335.9,165.7,336.7,162.4z
										"/>
									
										<ellipse transform="matrix(-0.9732 -0.2298 0.2298 -0.9732 611.0314 374.4099)" class="st21" cx="327.3" cy="151.6" rx="1.2" ry="1.7"/>
									
										<ellipse transform="matrix(-0.9752 -0.2214 0.2214 -0.9752 641.2603 382.7405)" class="st21" cx="342.1" cy="155.4" rx="1.2" ry="1.7"/>
								</g>
							</g>
						</g>
						<g>
							<g>
								<path class="st13" d="M370,264.4c-18.8,0.7-50.5,14.3-71.5,4.5c5.2-15.1,4.6-26.9,2.9-35.1c-0.5-2.4-1.2-5.1-1.9-7.9
									c-3.4-13.6-8.3-30.5-8.2-41.5c0-2.5,0.2-5.1,1.7-7.3c1.7-2.5,4.9-3.9,8.1-4.3c3.2-0.4,6.4,0.2,9.6,0.8
									c4.1,2.5,8.1,5.7,12,8.9c2.8,2.3,6.1,4.8,9.9,4.7c3.6-0.1,6.9-2.9,8.7-5.1c3.7-0.2,7.9-0.1,10.5,2.5
									c0.6,0.7,1.1,1.5,1.6,2.2c7.8,13.6,10.6,31,7.8,47c-0.6,3.3,0,7.4,1.1,11.7C364,252.8,368.1,259.3,370,264.4z"/>
							</g>
							<path class="st34" d="M360,207.5c1.4-4.5,2-9.3,1.9-14.1c0-0.4-0.6-0.4-0.6,0c0.1,4.4-0.5,8.7-1.7,12.9
								c-1.2-5.6-2.8-11.1-5-16.4c-0.2-0.4-0.8-0.2-0.7,0.2c3,7.7,5.1,15.7,6.2,23.8c0.1,0.4,0.8,0.5,0.7,0c-0.3-2.1-0.6-4.2-1-6.2
								C360,207.6,360,207.5,360,207.5z"/>
						</g>
						<g>
							<g>
								<g>
									<path class="st35" d="M337,261.3c-0.4-1.2-0.7-2.4-0.5-3.7c0.2-1.2,1.1-2.5,2.4-2.5c1.7-0.1,2.8,1.7,3.2,3.3
										c0.4,1.3,0.5,2.6,0.5,4c0,1-0.1,2-0.6,2.8s-1.5,1.4-2.4,1.3C338.2,266.2,338,264.7,337,261.3z"/>
									<path class="st35" d="M341.7,261.9c-0.1-1.2-0.3-2.4-0.1-3.7c0.1-1.2,0.5-2.4,1.3-3.2c0.7-0.7,1.8-0.8,2.6-0.2
										c1.1,0.8,1.6,2.5,1.8,4.2c0.2,1.2,0.2,2.5-0.1,3.7c-0.3,1.2-1,2.3-1.9,2.6C344.3,265.7,342.1,265.7,341.7,261.9z"/>
									<path class="st36" d="M342.5,258c0-0.2-0.2-0.3-0.4-0.2c-0.2,0.1-0.2,0.2-0.2,0.4c0.2,1.7,0.3,3.5,0.1,5.2
										c0,0.4,0.6,0.4,0.6,0C342.8,261.6,342.8,259.8,342.5,258z"/>
								</g>
								<path class="st35" d="M295.1,297.4C295.1,297.4,295,297.4,295.1,297.4c0.2-4.6,0.2-9.2,0.2-13.7c0-2.5,0-5,1-7.3
									c0.5-1.2,1.3-2.3,1.3-3.6c0-1.1-0.7-2.2-1-3.3c-0.7-2.3,0.5-5,2.7-6c-1.3-3-0.4-6.5,1.3-6.8c0.8-0.2,7.6-0.7,20.1,1.4
									c6.2,1.1,12.7,1.2,19.1-0.7c0.3,1.5,0.7,2.9,1,4.4c0.1,0.4,0.2,0.8,0.1,1.2c-0.1,0.6-0.5,1.1-1,1.5
									c-12,12.1-25.4,22.9-38.7,33.5c-2.3,1.8-4.7,3.7-7.5,4.4C292.9,300.8,293.5,298.5,295.1,297.4z"/>
								<path class="st35" d="M369.4,260.8c1-2.1,0.9-4.8-0.3-6.8c-0.7-1.1-1.8-2.1-3.1-2.2c-1.1-0.1-2.1,0.5-3,1
									c-5.5,2.9-11.9,4.3-18,5c0.1,1.7,0.3,3.4,0.4,5.1c1.9,0.3,3.3,1.7,4.7,3c4.8,4.4,10.5,7.6,16.1,10.7
									c7.6,4.3,15.3,8.5,22.9,12.8c1.1,0.6,2.3,1.3,3.6,1.3c1.3,0.1,2.7-0.7,3-1.9c0.3-1.3-0.8-2.6-2-3.3c-1.2-0.7-2.6-1-3.7-1.8
									c-2.2-1.7-2.6-5-4.4-7.1c-2-2.4-5.6-3.2-6.9-6c-0.6-1.2-0.6-2.6-1.2-3.9C376.3,263.7,372.7,262.3,369.4,260.8z"/>
							</g>
							<path class="st36" d="M377.5,273.9c-8-2-15.8-5-23.2-8.8c-2.1-1.1-4.1-2.2-6.1-3.4c-0.1,0-0.1-0.1-0.2,0c0-0.3,0.1-0.7,0.1-1
								c0,0,0,0,0,0c6.2,1,12.6,2,18.8,0.8c0.4-0.1,0.2-0.7-0.2-0.6c-6.1,1.1-12.4,0.1-18.5-0.9c-0.1,0-0.2,0-0.3,0.1
								c-0.1-0.5-0.1-1-0.3-1.5c-0.1-0.4-0.8-0.2-0.6,0.2c0.5,1.3,0.5,2.8,0,4.1c-0.1,0.4,0.5,0.6,0.6,0.2c0.1-0.2,0.1-0.4,0.2-0.6
								c7.1,4.2,14.8,7.6,22.7,10.2c2.2,0.7,4.5,1.4,6.8,1.9C377.7,274.6,377.9,274,377.5,273.9z"/>
							<path class="st36" d="M338.4,265.1c-0.5-2-1-4.1-1.4-6.2c-0.1-0.4-0.7-0.2-0.6,0.2c0.1,0.5,0.2,1,0.3,1.4
								c-0.1,0-0.2-0.1-0.3-0.1c-8.3,1.7-16.6,3.3-25,3.4c-2.4,0-4.7-0.1-7.1-0.4c-0.4,0-0.4,0.6,0,0.7c8.4,1,16.9-0.1,25.2-1.6
								c2.4-0.4,4.8-0.9,7.2-1.4c0.1,0,0.2-0.1,0.2-0.1c0.1,0.6,0.3,1.3,0.5,1.9c-3.5,3.4-7.8,5.7-12.1,8c-4.4,2.3-9,4.3-13.6,6.1
								c-2.6,1-5.3,1.9-8,2.8c-0.4,0.1-0.2,0.7,0.2,0.6c9.6-3,19-7.1,27.6-12.2c2.2-1.3,4.2-2.7,6.1-4.5c0.1,0.5,0.2,1,0.4,1.5
								C337.9,265.7,338.5,265.5,338.4,265.1z"/>
						</g>
						<g>
							<g>
								<g>
									<path class="st4" d="M352.5,245c-6,2.2-52.2,11.9-59.3,8.2c-1.9-1-3.9-14.9-4.7-26.1c-0.4-4.9-0.5-9.3-0.3-11.9
										c5.9,0.2,15.7-4.1,21.6-4c0.1,2.3-0.7,8-1.3,13.3c-0.5,3.9-0.9,7.6-0.8,9.4c6.3,0.2,11.1,0.2,15.6,1.1
										c9.3,1.7,18.9,1.7,28.2-0.1C351.4,237.1,351.9,243,352.5,245z"/>
									<path class="st5" d="M308.6,224.6c-4.2,2.1-11,4.2-20.1,2.6c-0.4-4.9-0.5-9.3-0.3-11.9c5.9,0.2,15.7-4.1,21.6-4
										C309.9,213.6,309.2,219.4,308.6,224.6z"/>
								</g>
								<path class="st4" d="M349.9,234c2.3-6.3,4.6-9.3,8.6-14.5c0.5-0.6,1.4-1.5,1.9-1c1.8,1.9,0,4.4-2.5,9.7
									c7.1-0.1,13.3-0.6,21.7-0.7c0.8,0,1.9,0.2,2.2,1c0.2,0.6-0.1,1.4-0.7,1.7c-0.6,0.4-1.3,0.4-1.9,0.5c-4,0.4-7.9,0.8-12,1.8
									c4.6,1,9.2,1.9,13.9,2.9c0.6,0.1,1.4,0.3,1.7,0.9c0.4,0.7-0.2,1.6-0.9,2c-0.7,0.3-1.6,0.2-2.4,0.1c-4.2-0.5-8.5-1-12.7-1.4
									c4.3,0.7,8.5,1.4,12.8,2c0.8,0.1,1.9,0.4,2,1.3c0.1,0.6-0.4,1.2-0.9,1.4c-0.6,0.2-1.2,0.2-1.8,0.2
									c-4.2-0.1-8.4-0.3-12.9-0.8c2.5,3.1,4.4,2.9,8.4,2.7c0.9-0.1,2.1,0,2.4,0.8c0.2,0.5-0.2,1.1-0.6,1.4c-0.5,0.3-1,0.4-1.6,0.5
									c-2.4,0.3-4.8,0.7-7.1,0c-1.8-0.5-3.3-1.6-5-2.3c-1.1-0.5-7.4,0.6-12.2,1.3C350.1,241.6,348.7,237.4,349.9,234z"/>
							</g>
							<g>
								<path class="st13" d="M313,189.5c-0.9-5.6,1-14.8-6.2-16.4c-4.6-1-10.5-0.5-13.7,3c-9.6,10.1-5.1,30-9.7,40.1
									c6.6,4.4,19.8,6.9,29.3,4.4C313.3,220.3,315.1,202.1,313,189.5z"/>
								<path class="st34" d="M315.7,203.7c-0.6,1.5-1.1,2.9-1.7,4.4c-0.6,1.3-1.3,2.6-2,3.9c0.1-5.3,1-10.7,1-16
									c0-2.2-0.2-4.4-0.6-6.6c-0.1-0.4-0.7-0.2-0.6,0.2c1.6,7.9-0.6,15.8-0.5,23.8c0,2.1,0.2,4.2,0.6,6.2
									c-0.9,0.4-1.8,0.9-2.7,1.4c-0.5,0.2-0.1,0.9,0.4,0.7c1-0.5,2-1,2.9-1.5c0.2-0.1,0.2-0.3,0.2-0.4c-0.6-2.3-0.8-4.7-0.8-7
									c0.1,0.1,0.4,0.1,0.5-0.1c0.8-1.4,1.5-2.8,2.2-4.3c0.6-1.4,1.3-2.9,1.7-4.4C316.5,203.4,315.9,203.3,315.7,203.7z"/>
							</g>
						</g>
					</g>
				</g>
			</g>
		</g>
	</g>
</g>
</svg>
