<?xml version="1.0" encoding="utf-8"?>
<!-- Generator: Adobe Illustrator 19.0.0, SVG Export Plug-In . SVG Version: 6.00 Build 0)  -->
<svg version="1.1" id="Слой_1" xmlns="http://www.w3.org/2000/svg" xmlns:xlink="http://www.w3.org/1999/xlink" x="0px" y="0px"
	 viewBox="0 0 3300 2000" style="enable-background:new 0 0 3300 2000;" xml:space="preserve">
<style type="text/css">
	.st0{fill:#95A6DB;}
	.st1{fill:#062440;}
	.st2{fill:#14314D;}
	.st3{fill:#DE623C;}
	.st4{fill:#F37A50;}
	.st5{fill:#494C7F;}
	.st6{fill:#2C2858;}
	.st7{fill:#FFFFFF;}
	.st8{fill:#3F964F;}
	.st9{fill:#201D40;}
	.st10{fill:#E3EAFF;}
	.st11{fill:#47A859;}
	.st12{fill:#AA2B2B;}
	.st13{fill:#0E6A41;}
	.st14{fill:#E62552;}
	.st15{fill:#C4204A;}
	.st16{fill:#181B47;}
	.st17{fill:#070635;}
	.st18{fill:#131538;}
</style>
<g>
	<path class="st0" d="M3051.5,1380.3c79.6,342.4-143,377.5-337.5,381.2c-63.8,1.2-124.5-1-170.6,3.1c-10,0.9-19.3,2.1-27.8,3.7
		c-13.2,2.5-26.2,4.8-39,7c-49.1,8.3-95,14.3-138.3,18.5c-18.8,1.8-37.2,3.3-55,4.5c-130.7,8.5-236.5,0.1-333.3-11.4
		c-10.9-1.3-21.6-2.6-32.3-4c-154.8-19.6-290.2-43.4-474.7-12.2c-1.3,0.2-2.6,0.4-3.9,0.7c-8.7,1.5-17.1,2.8-25.2,3.9
		c-168.9,22.8-233.4-35.8-336-43.4c-31-2.3-65.4,0-107.3,10.7c-4,1.2-8,2.5-12.2,3.8c-19.2,6.2-40.3,13.4-62.8,21.1
		c-20.2,7-41.5,14.4-63.4,21.9c-65.8,22.5-137.1,45.5-201.9,58.8c-39.7,8.2-77,12.7-109,11.2c-235.1-11-410.8-116.1-391.2-421.2
		c16.1-91.9,75.4-230.5,74.4-323.8c-1.1-104.7-32.5-139.2-65.2-238.7C89.3,637.1,253.9,506.2,457.8,451.8
		c29.2-7.8,59.1-14,89.4-18.7h0c24.6-3.9,49.4-6.7,74.1-8.7c32.1-2.5,64.1-3.5,95.4-3c9.4,0.1,18.8,0.4,28.1,0.8
		c164.2,7.2,169.9-188.1,317.6-239.7c272-95.1,444,25.7,638.8,68.7c29.3,6.5,59.1,11.2,89.9,13.2h0c29,1.9,58.7,1.3,89.7-2.6
		c181.9-65.2,317.2-145.6,523.6-114.4c97.8,12.1,205.7,57.2,234.4,151.4c2.9,9.6,4.9,19.5,6.5,29.4c1.8,11.8,3.1,23.8,4.5,35.7
		c0.5,4.1,1,8.3,1.6,12.4c2.4,16.5,5.8,32.7,12.4,48c14.9,34.1,64,61,120.2,82.9h0c9.5,3.7,19.3,7.3,29.1,10.7
		c10.8,3.8,21.6,7.4,32.4,10.9c48.6,15.6,95.5,28.3,124.6,39.5C3503.2,771.9,2999.7,1157.2,3051.5,1380.3z"/>
	<g>
		<g>
			<g id="c_8_">
				<path class="st1" d="M2476.7,1775.2c-9.7-51.1-19.6-102-28.9-148.7c-10.4-52.8-20-100.3-27.5-136.9c-0.1-0.6-0.2-1.2-0.4-1.8
					c-9.2-45-15-73-15-73l33.7-3.9l98.6-11.5l55.3-6.4h0l108.5-12.6c0,0,2,42.8,4.6,107.1c2.9,73.9,6.5,176.1,8.4,274.1
					c-63.8,1.2-124.5-1-170.6,3.1c-10,0.9-19.3,2.1-27.8,3.7C2502.5,1770.7,2489.5,1773,2476.7,1775.2z"/>
				<path class="st2" d="M2601.1,1393c0,0-6.8,46.9-17.5,117.2c-1.7,11.4-3.5,23.3-5.5,35.8c-5.2,33.7-11,71-17.2,110.2
					c-5.6,35.2-11.5,71.8-17.5,108.4c-10,0.9-19.3,2.1-27.8,3.7c-13.2,2.5-26.2,4.8-39,7c-49.1,8.3-95,14.3-138.3,18.5
					c-18.8,1.8-37.2,3.3-55,4.5c-1.1-138.1-3.8-278.4-5.3-353.1v0c-0.7-34.5-1.2-55-1.2-55l41,0.4l16.4,0.2l44,0.4l39.1,0.4
					l118.3,1.1l57.2,0.5h0L2601.1,1393z"/>
				<g id="c_9_">
					<path d="M2487.7,717.6c-120.7-21.5-72-168.7-72-168.7c-16.3-9.4-40-34.7-24.8-66.4c12.9-26.8,40.3-19.1,51.5-51.4
						c9-25.9-1.9-74.3,84.1-59.8c0,0,13.5-48.9,67.1-48.9c65.8-0.1,79.4,19.9,105.2,33c28.8,14.6,101.1,1.6,93.3,74.4
						c0,0,43.4,11.1,56.1,47.5c11.9,33.9-7.8,69.2-23.6,80.2c0,0,32.2,20,32.6,55c0.3,23.5-15,50.2-40.4,59
						c-16.1,5.6-29.7,3.4-29.7,3.4c-14.8-1-4.1,32.8-38.9,41.6c-23.3,5.9-46.8,10.5-70.7,12L2487.7,717.6z"/>
					<g>
						<g>
							<g>
								<g>
									<g>
										<g>
											<path class="st3" d="M2782.8,740.3c-9,14.6-25,31.4-19.7,53.3l-55.2,7.1c0.9-53.2,4.9-115.3,17.2-133.1
												c10.3-15,12.5-23.7,15.3-23.5c2.8,0.2,18.6,5.9,6,29.3c-15.8,29.3,18.4,26.6,36.6-42.7c4.5-17.4,29.5-38.5,32.9-22.1
												C2819.7,626.8,2823.8,674,2782.8,740.3z"/>
										</g>
									</g>
								</g>
							</g>
						</g>
					</g>
					<polygon id="v-2_4_" class="st3" points="2575.4,696.2 2575.5,696.2 2615.8,724.9 2636.9,863.5 2554.3,894.5 2476.8,843.5 
						2487,653.6 					"/>
					<g>
						<path class="st4" d="M2475.5,544.2c-21.8,108.6,50.5,220.9,135.8,238c85.3,17.1,151.3-67.4,173-176
							c21.8-108.6-29.7-210.5-115-227.6C2584,361.5,2497.2,435.6,2475.5,544.2z"/>
						<circle cx="2725.3" cy="607.2" r="15.1"/>
						<circle cx="2612" cy="592.3" r="16.4"/>
						<path class="st3" d="M2673.4,604.3c10.4,23.9,23.7,53.1,23.7,53.1s-11.4,21.8-41.9,17.6c13.7-3.4,27.7-10.1,25-28.1
							C2677.6,629,2673.4,604.3,2673.4,604.3z"/>
						<g>
							<path d="M2758.1,578.4c0.2,0.5,0.2,1.1,0.3,1.6c0.2,3.9-2.8,7.2-6.7,7.4c-10.7,0.5-32.5-4-38.6-24.8c-1.1-3.8,1-7.7,4.8-8.8
								c3.8-1.1,7.7,1,8.8,4.8c4.5,15.4,24.2,14.6,24.3,14.6C2754.3,573.2,2757.2,575.4,2758.1,578.4z"/>
						</g>
						<g>
							<path d="M2571.2,548.3c-0.3,0.5-0.6,1-0.8,1.6c-1.6,3.9,0.3,8.3,4.2,9.8c10.6,4.3,34.1,7.4,47.5-11.3
								c2.4-3.4,1.7-8.1-1.7-10.5c-3.4-2.4-8.1-1.7-10.5,1.7c-10,13.8-29.4,6.2-29.6,6.1C2576.8,544.4,2573.1,545.6,2571.2,548.3z"
								/>
						</g>
						<path d="M2826.8,551.6l-45-111.9l-115.3-81.1l-201.2,63.4l23.4,149.8c17.3-66.3,47.7-48.2,72.6-64c25.2-16,40.2-45.4,86-8.8
							c0,0,46.3-20.9,60.2,22.9c10.8,33.9,40.1,26.2,61.9,31.8c25.7,6.6,11.2,39.4,27.3,41.5L2826.8,551.6z"/>
						<g>
							
								<ellipse transform="matrix(0.8868 -0.4622 0.4622 0.8868 20.8687 1203.6719)" class="st4" cx="2467.1" cy="559.2" rx="38.6" ry="47.2"/>
							<g>
								<path class="st3" d="M2468,586.1c0.9,0,1.7-0.3,2.5-0.7c11.5-6.3,17.1-16.7,14.9-27.9c-2.2-11.5-11.9-20.7-23-21.9
									c-3.1-0.3-5.9,1.9-6.3,5c-0.3,3.1,1.9,5.9,5,6.3c6.1,0.7,11.8,6.3,13.1,12.8c1.2,6.2-2,11.8-9.2,15.7
									c-2.8,1.5-3.8,5-2.3,7.7C2463.8,585.1,2465.9,586.2,2468,586.1z"/>
							</g>
						</g>
						<g>
							<path class="st3" d="M2690.5,734.6c-0.9-0.1-1.8-0.5-2.7-1.1c-45.5-34.2-86.2-11.7-86.6-11.4c-2.7,1.5-6.1,0.6-7.6-2.1
								c-1.5-2.7-0.6-6.1,2.1-7.6c1.9-1.1,47.6-26.4,98.9,12.2c2.5,1.9,3,5.4,1.1,7.8C2694.4,734.1,2692.4,734.8,2690.5,734.6z"/>
						</g>
					</g>
					<g id="v_4_">
						<path class="st5" d="M2268,1440c58.5,31.8,177,54.8,242.1,63.1c95.1,12.1,146.9,11.6,195.2-12.6
							c18.4-148.9,50.6-486.6,11.7-653.9c0,0-39.6-25.1-89.3-33.1c0,0-25.1,115.5-138.4-26c-52.6-28.1-158.9-7.5-158.9-7.5
							C2235.4,852.3,2246.8,1264.2,2268,1440z"/>
					</g>
					<path class="st6" d="M2768.3,785.5c0,0,167.9,415.4-2,503.5c-59.8-18.2-80.9-93.4-78.5-183.2c4.6-170.1,12.4-314.5,12.4-314.5
						L2768.3,785.5z"/>
					<g>
						<g>
							<path class="st6" d="M2415.1,1122.6c-19.6,23.3-46.8,163.8-36.3,165.7c127,49.7,395.9-198.4,395.9-198.4l-26.1-67.7
								C2748.6,1022.1,2589,1052,2415.1,1122.6z"/>
							<path class="st6" d="M2279.7,895.3c10.7,88.3,29.8,314.2,99.1,392.9l90.5-121.5c0,0,8.1-256.3-35-359.1
								C2401.1,728.3,2262,751.2,2279.7,895.3z"/>
						</g>
						<g>
							<g>
								<path class="st5" d="M3119,818.5c0,0-6.3-13.5-81.6-29.4c13.9,28.1,44.4,43.2,44.4,43.2L3119,818.5z"/>
								<path class="st7" d="M3021.4,959.1c-76.2,65-146.9,86.8-193.2,47.8c-41.7-35.1-68.5-129.7-4.7-224.6
									c31.6-47,75.3-96.4,103.3-120.5c14.4-3.5,46.8,73.2,97.8,116.8c47.7,40.7,73.7,44.1,94.5,40
									C3106.6,849.8,3064.6,922.1,3021.4,959.1z"/>
								<circle class="st5" cx="3002.9" cy="895.3" r="14.6"/>
								<circle class="st5" cx="2909.2" cy="810.9" r="14.6"/>
								<path class="st5" d="M2955.6,866.9c-3.2,21.7-6.6,48.6-6.6,48.6s-17.9,10.6-37.9-6c11.3,3.6,24.4,5,30.4-9
									C2947.5,886.5,2955.6,866.9,2955.6,866.9z"/>
								<path class="st5" d="M2915.1,958.5c4.4-1.4,6.4-7.2,3.3-9.3c-7.9-5.3-20.6-14.3-31.5-24.4c-10.8-10.1-20.8-22.1-26.6-29.6
									c-2.3-2.9-7.9-0.5-9,4c-3.4,13.7-5.9,37,10.6,52.4C2878.6,967.1,2901.7,963,2915.1,958.5z"/>
								<g>
									<path class="st5" d="M3044.6,897.4c-0.1,0-0.2,0-0.2,0c-3.3-0.5-5.5-3.5-5-6.8c2.3-15.8-12.3-23.5-12.4-23.5
										c-2.9-1.5-4.1-5.1-2.6-8c1.5-2.9,5.1-4.1,8-2.6c0.9,0.5,22.3,11.7,18.8,35.9C3050.7,895.5,3047.8,897.7,3044.6,897.4z"/>
								</g>
								<g>
									<path class="st5" d="M2897.1,777.3c0,0.1,0.1,0.2,0.1,0.2c1.3,3,4.8,4.4,7.8,3.2c14.7-6.2,25.8,6,25.9,6.2
										c2.2,2.5,5.9,2.7,8.4,0.5c2.5-2.2,2.7-5.9,0.5-8.4c-0.7-0.8-17-18.7-39.4-9.2C2897.4,771,2896,774.4,2897.1,777.3z"/>
								</g>
							</g>
							<g>
								<path class="st4" d="M2775.5,1085.2c-12.4-29.8-33-48.4-18-88c5.5-14.4,12.5-28.9,20-46c11.7-26.4,25.7-46.9,31.8-45.8
									c13.7,2.4,15.1,11,11,27.7c-3.2,12.9-16.5,26.5-10.6,36.9c5.3,9.2,14.8,17.5,53.6-3.2c49.6-26.5,62.5-44.4,72.9-29.2
									c6.9,10-16.8,25.2-63,51.2c28.7-4.1,80.9-53.8,92.1-31.1c8.1,16.5-69.3,51.5-90.4,56.3c40.5-0.1,85.1-41.9,92.9-32.9
									c15.3,19.7-46.3,52.7-82.5,55c35.3,7.1,58.3-19.5,64.4-9.8c11.4,18.1-56.8,50.2-100,53.4
									C2837.1,1080.6,2775.5,1085.2,2775.5,1085.2z"/>
							</g>
						</g>
					</g>
				</g>
			</g>
			<polygon class="st6" points="2253.5,1040.7 2097.1,1215.9 2178.8,1325.3 2267.4,1272.8 			"/>
			<g>
				<path class="st8" d="M1943.5,790.4c0,0,428.6,338.5,328.4,585c-46.4,34.9-294.7-308.2-294.7-308.2L1943.5,790.4z"/>
				<path class="st9" d="M1950.1,1786.8c-10.9-1.3-21.6-2.6-32.3-4c-154.8-19.6-290.2-43.4-474.7-12.2c-1.3,0.2-2.6,0.4-3.9,0.7
					c-8.7,1.5-17.1,2.8-25.2,3.9l3.8-82.4v0l0.5-11.5l0.5-10v0l9.6-207.8c28.9,3.3,57.7,6.1,86.5,8.2c0.7,0.1,1.4,0.1,2.1,0.2
					c7.2,0.5,14.3,1,21.5,1.5c1.2,0.1,2.4,0.2,3.6,0.2c8.4,0.5,16.8,1,25.2,1.4c50.6,2.6,100.9,3.3,151.1,2.3
					c14.7-0.3,29.4-0.8,44-1.4c14.8-0.6,29.5-1.4,44.3-2.3c0.8,0,1.7-0.1,2.5-0.2c10.5-0.7,21-1.4,31.5-2.2c1.8-0.1,3.7-0.3,5.5-0.4
					c10.8-0.9,21.5-1.8,32.3-2.9c7.1-0.7,14.3-1.4,21.4-2.2c7.1-0.8,14.3-1.6,21.4-2.4c2.6-0.3,5.3-0.6,7.9-0.9l11,218.4
					L1950.1,1786.8z"/>
				<polygon class="st10" points="1766.3,781 1743.7,779.8 1574.1,779.8 1557.7,958.3 1514.5,1504.8 1846.6,1495.4 1839,890.6 				
					"/>
				<g>
					<path class="st8" d="M1398.4,764.7c0,0-93.9,545.5-55.6,861.7c81.8,104.2,189.1,99.8,189.1,99.8s14.5-882.7,73.1-946.4
						C1548.7,773.4,1398.4,764.7,1398.4,764.7z"/>
				</g>
				<g>
					<path class="st8" d="M1996.8,1626.4c-81.8,104.2-189.1,99.8-189.1,99.8s18.2-921.5-64.1-946.4c50.8,1.7,199.8,10.6,199.8,10.6
						S2078.7,1522.2,1996.8,1626.4z"/>
				</g>
				<path class="st11" d="M1597.6,779c0,0-148.2-92-65.6,947.2C1580.8,1612.6,1597.6,779,1597.6,779z"/>
				<g>
					<path class="st6" d="M1541.3,460.4c26.8-30.8,48-0.9,86.3-39.1c38.3-38.2,69-65.7,101.7-25.4c32.8,40.3,49.6,45.9,73.5,43.6
						c23.8-2.3,23.7,95.7,23.7,95.7s93.8-23.5,81.2-91.9c-13.9-75.9-48.5-54.2-67.8-115.7c-19.3-61.5-93.9-96.2-128-81.4
						c-36,15.6-54.9,32.7-107.2,20c-52.4-12.7-97.5,2.7-97.4,70.6c0.1,67.9-79.8,47.7-54.2,132.5c9.9,32.9,37.7,63.2,50.6,60.5
						C1521,526.4,1524,480.3,1541.3,460.4z"/>
					<path class="st3" d="M1601.8,795.1c0,0,21.8,31.2,66.3,33.3c57.3,2.7,73.5-29.5,73.5-29.5l9-129.6h-153.1L1601.8,795.1z"/>
					<path class="st4" d="M1674.1,330.6C1476.5,326,1521.6,592.2,1536,634c7.9,22.8,58,110.3,138.6,111.5
						c80.6-1.2,129.7-88.7,137.5-111.5C1826.6,592.2,1878.6,333.7,1674.1,330.6z"/>
					<g>
						<path class="st6" d="M1716.8,500.2c-2.5,0-5-0.9-6.9-2.8c-4-3.8-4.2-10.2-0.3-14.2c1.2-1.2,28.7-29.5,70.6-24
							c5.5,0.7,9.4,5.8,8.6,11.3c-0.7,5.5-5.8,9.4-11.3,8.6c-31.8-4.2-53.2,17.7-53.4,18C1722.1,499.2,1719.4,500.2,1716.8,500.2z"
							/>
					</g>
					<g>
						<path class="st6" d="M1632.5,500.2c2.5,0,5-0.9,6.9-2.8c4-3.8,4.2-10.2,0.3-14.2c-1.2-1.2-28.7-29.5-70.6-24
							c-5.5,0.7-9.4,5.8-8.6,11.3c0.7,5.5,5.8,9.4,11.3,8.6c31.8-4.2,53.2,17.7,53.4,18C1627.2,499.2,1629.9,500.2,1632.5,500.2z"/>
					</g>
					<circle cx="1745" cy="516.3" r="16.1"/>
					<circle cx="1606.7" cy="516.3" r="16.1"/>
					<path d="M1723,661.7c0,2.6-0.4,4.6-1,6.1c-4.7,11.1-25.6-1.6-48.8-1.6c-24.3,0-42.8,13.9-45.6-0.2c-0.3-1.3-0.4-2.7-0.4-4.4
						c0-21.1,21.4-38.1,47.9-38.1C1701.5,623.6,1723,640.7,1723,661.7z"/>
					<path class="st3" d="M1683.3,534.3c13,20.6,29.4,45.7,29.4,45.7s-7.5,21.8-36.2,22.2c12.1-5.1,24.1-13.3,19.1-29.5
						C1690.6,556.5,1683.3,534.3,1683.3,534.3z"/>
					
						<ellipse transform="matrix(0.8909 -0.4542 0.4542 0.8909 -86.6603 751.5564)" class="st4" cx="1521.3" cy="556.2" rx="42.6" ry="48.6"/>
					
						<ellipse transform="matrix(-0.8909 -0.4542 0.4542 -0.8909 3217.7651 1885.2069)" class="st4" cx="1835.3" cy="556.2" rx="42.6" ry="48.6"/>
					<path class="st6" d="M1521.4,510.1c4.2-45.6,18.8-107.8,65.2-93.2c46.4,14.6,125,26.3,108-11.1c-17-37.4,32.3-24.1,43,0
						c10.7,24.1,106,63.3,102.9,22.2c-3.1-41.1-64.6-132.2-179.8-123.5C1545.4,313.1,1494.4,448.9,1521.4,510.1z"/>
					<path class="st3" d="M1651.2,686.2l13.6,3.2c4.2,0.9,8.1,1.6,11.9,1.9c3.8,0.3,7.5-0.1,11.4-0.9c4-0.7,7.9-2.5,12.9-4.2
						c-1.6,4.8-4.7,9.4-9.3,12.2c-4.5,2.9-10.2,4.5-15.6,4c-5.4-0.4-10.5-2.2-14.8-5C1657,694.6,1653.4,690.9,1651.2,686.2z"/>
					<path class="st12" d="M1721.9,667.9c-4.7,11.1-25.6-1.6-48.8-1.6c-24.3,0-42.8,13.9-45.6-0.2c8.1-10.1,25.9-17.2,46.6-17.2
						C1695.9,649,1714.5,656.8,1721.9,667.9z"/>
				</g>
				<g>
					<path class="st4" d="M1463.1,922.9c0,0,4.6-24.1,7.2-41.5c30.7,5.3,90.7,30.7,90.7,30.7l-8.8,38.9L1463.1,922.9z"/>
					<path class="st13" d="M1568.4,941.2L1459,913.2c0,0-134.9,178.8-151.7,353c-16.9,174.2,131.7,89.2,131.7,89.2
						C1520.8,1301.6,1548.9,1081.7,1568.4,941.2z"/>
					<g>
						<g>
							<path class="st7" d="M1617.5,583.2c25.6,107-14,214.9-77.4,239.6c-57,22.2-164.7-2.3-223.7-116.3
								c-29.3-56.5-54.4-126.1-63.1-166.6c4.3-16,93.8-12.1,164.2-38.9c65.8-25.1,105.9-87.3,128.1-82
								C1569.6,448,1602.6,521.1,1617.5,583.2z"/>
							<g>
								<path class="st5" d="M1402.1,601.1c1.5-1.7,2.4-4,2.3-6.5c-0.2-5.1-4.6-9.1-9.7-8.8c-1.5,0.1-37.9,2.1-59.3,34.5
									c-2.8,4.3-1.6,10,2.6,12.8c4.3,2.8,10,1.7,12.8-2.6c16.3-24.7,44.5-26.2,44.7-26.2C1398.2,604.1,1400.5,602.9,1402.1,601.1z
									"/>
							</g>
							<g>
								<path class="st5" d="M1492,565.3c-2.3-0.3-4.5-1.4-6-3.3c-3.2-4-2.6-9.8,1.4-13c1.2-1,29.7-23.6,67.3-13.7
									c4.9,1.3,7.9,6.4,6.6,11.3c-1.3,4.9-6.4,7.9-11.3,6.6c-28.6-7.6-50.6,10-50.9,10.2C1497,565,1494.4,565.6,1492,565.3z"/>
							</g>
							<circle class="st5" cx="1524.4" cy="590.6" r="16.3"/>
							<circle class="st5" cx="1390.7" cy="637.4" r="16.3"/>
							<path class="st5" d="M1470.8,621.9c19.7,14.8,44.3,32.7,44.3,32.7s0.8,23.3-26.3,34.1c9.7-9.2,18.1-21.3,7.5-34.8
								C1485.8,640.3,1470.8,621.9,1470.8,621.9z"/>
							<path class="st5" d="M1546.2,712c0.9-5.1-3.6-10.2-7.3-8.3c-9.4,4.9-25.2,12.6-40.9,17.8c-15.7,5.2-33,8.5-43.5,10.3
								c-4.1,0.7-4.7,7.5-0.9,11c11.6,10.8,33.2,25.8,57.4,17.8C1535,752.6,1543.3,727.6,1546.2,712z"/>
						</g>
						<g>
							<path class="st4" d="M1561,913.7c-35.9-5.4-62.9,1.1-94.9-34c-5.9-6.5-10.9-18.5-30.7-36.8c-18.9-6.1-24.1-24.6-19-33.1
								c15.4,7.6,41,11.2,54.4,11.5c11.9,0.3,24.9-11.7,27.6-61c3.4-63-6.2-85.8,14.5-87c13.6-0.8,14.4,30.7,12.4,90.3
								c12.8-29.9-4.5-109,23.8-106.6c20.5,1.8,9.1,96.5,1.4,119.6c23.4-38.9,9.3-106.1,22.5-108.3c27.8-3.2,23.6,75.1,4.8,111.2
								c27.3-29.7,15.3-67.3,28.1-67.5c24-0.4,1.8,85.8-20.3,129.1C1579.1,854,1561,913.7,1561,913.7z"/>
						</g>
					</g>
				</g>
				<path class="st11" d="M1807.7,1726.2c0,0,18.2-921.5-64.1-946.4c0,0,81,8.9,102.9,142C1868.5,1055,1868,1339.8,1807.7,1726.2z"
					/>
				<path class="st13" d="M1393.3,796c0,0-248.8,239.2-81.4,539.4C1334.9,1298.8,1448.5,946.7,1393.3,796z"/>
			</g>
			<g>
				<path class="st14" d="M490.7,903.4c0,0-108.3,158.6-83,267.8c25.2,109.2,208.8,87.3,208.8,87.3L490.7,903.4z"/>
				<path class="st9" d="M1034.5,1626.2c0,0-25.2,47.5-63.7,116.2c-4,0.3-8.1,1.7-12.2,3.8c-19.2,6.2-40.3,13.4-62.8,21.1
					c-20.2,7-41.5,14.4-63.4,21.9c-65.8,22.5-137.1,45.5-201.9,58.8c21.9-63.2,43.3-219.2,61.7-259.2v0
					c31.4-68.4,53.8-114.3,53.8-114.3l109.4,57.5l86.1,45.3l64.9,34.1L1034.5,1626.2z"/>
				<path class="st6" d="M1157.4,1721c-21.3,3.2-48.3,7-79.3,10.7c-31-2.3-65.4,0-107.3,10.7c-4,0.3-8.1,1.7-12.2,3.8
					c-19.2,6.2-40.3,13.4-62.8,21.1c-20.2,7-41.5,14.4-63.4,21.9c-5.3-66.6-10-151.1-13.5-176.2v0c-6-43.2-9.3-70-9.3-70l45.7-11.1
					l90-21.8l61.1-14.8l23.6-5.7l125-30.3c0,0,0.6,22.4,1.2,59.6c0.1,7.9,0.3,16.5,0.4,25.7c0,0,0,0,0,0c0.2,15.6,0.4,33,0.6,51.8
					C1157.5,1633.6,1157.7,1675.9,1157.4,1721z"/>
				<g id="v_2_">
					<path id="h-5_1_" class="st15" d="M853.5,779l-271.1,75.3l-91.8,49.1c10.8,152.5,185.8,681.7,185.8,681.7
						s176.4,45.1,276.9,35.3c137.9-13.4,235.3-99.5,235.3-99.5c-12.1-161.2-72.4-355.8-161.8-550.4C992.7,896.2,927,799.2,853.5,779
						z"/>
				</g>
				<path class="st14" d="M582.4,854.2c0,0-4.3,95.6,89.3,82.6c93.6-13,104.5-96.9,99.1-133.3C758.4,805.4,582.4,854.2,582.4,854.2z
					"/>
				<g>
					<path id="v-2_1_" class="st3" d="M650.6,717.9L650.6,717.9L587.8,730l13.7,150.9c0,0,4.7,35.6,70.1,33.8
						c56.2-1.6,84-81.1,84-81.1l-33.5-128.8L650.6,717.9z"/>
					<g>
						<path class="st4" d="M744.7,618.5c2.8,110.3-52.7,200.8-139.3,203c-86.6,2.2-159.1-85.4-161.9-195.7
							c-2.8-110.3,65.1-201.4,151.7-203.6C681.8,420,741.8,508.2,744.7,618.5z"/>
						<path class="st3" d="M549.6,647.8c-12.4,22.8-28.1,50.7-28.1,50.7s9.5,22.7,40,21.1c-13.3-4.5-26.6-12.5-22.4-30
							C543.3,672,549.6,647.8,549.6,647.8z"/>
						<path class="st16" d="M778.2,525.5c-7.1-104.3-107.1-123.1-107.1-123.1s20-10.8,9.9-41.1C667.6,372.8,650,380,632.2,381
							c-119.5,7-190.5,38.1-171.4,82.4c6.8,15.7-68.2,36.3-16.9,139.7c5.2-14,4.1-63.3,25.3-77.6c21.3-14.3,13.6,25.5,64.6,11.4
							c51.5-14.2,82.2-41.4,123.6-26.8c33.5,13.9,91.6,133.1,91.2,142C749.5,631.9,781.4,571.3,778.2,525.5z"/>
						<path class="st16" d="M452,684.9c0,0,19.3,57.1,34.6,70.7c-1.2-25.7,56.7-18.6,81.1-20.3c44.2-3.1,82.3-48.8,106.1,6.1
							c74.5-4.2,56.8-131.1,56.8-131.1c26.5,95.1,13.8,226.4-129.8,249.9C521.5,873.3,450.1,776.6,452,684.9z"/>
						<g>
							
								<ellipse transform="matrix(-0.7943 -0.6075 0.6075 -0.7943 983.4192 1600.9773)" class="st4" cx="762.7" cy="634" rx="38.4" ry="47"/>
							<g>
								<path class="st3" d="M757.3,660.2c-0.8-0.2-1.6-0.5-2.4-1.1c-10.3-8.1-14-19.3-9.9-29.9c4.2-10.9,15.2-18.2,26.3-17.5
									c3.1,0.2,5.5,2.9,5.3,6c-0.2,3.1-2.9,5.5-6,5.3c-6.1-0.4-12.7,4.1-15.1,10.3c-2.3,5.9,0,11.9,6.3,16.9
									c2.5,1.9,2.9,5.5,0.9,8C761.5,659.9,759.3,660.7,757.3,660.2z"/>
							</g>
						</g>
						<circle cx="601" cy="632.7" r="16.5"/>
						<circle cx="485.6" cy="645.8" r="15.1"/>
						<g>
							<path class="st16" d="M566.9,614.4c-1.7,0-3.3-0.5-4.8-1.7c-3.3-2.6-3.9-7.5-1.3-10.8c0.9-1.2,23.4-29,62-20.6
								c4.1,0.9,6.8,5,5.9,9.1c-0.9,4.1-5,6.8-9.1,5.9c-29.4-6.4-46.5,14.9-46.7,15.1C571.4,613.4,569.1,614.4,566.9,614.4z"/>
						</g>
						<g>
							<path class="st16" d="M505.2,622.1c-0.9,0-1.9-0.2-2.8-0.5c-0.3-0.1-23.3-9-40.9-0.3c-3.8,1.9-8.4,0.3-10.3-3.5
								c-1.9-3.8-0.3-8.4,3.5-10.3c23.9-11.9,52.3-0.7,53.5-0.3c3.9,1.6,5.9,6.1,4.3,10C511.1,620.3,508.3,622.1,505.2,622.1z"/>
						</g>
						<g>
							<path class="st3" d="M541.5,775.6c-1.5,0-3-0.6-4.1-1.8c-2.1-2.3-2-5.8,0.3-7.9c1.2-1.1,29.1-26.5,92.4-13.7
								c3.1,0.6,5,3.6,4.4,6.6c-0.6,3.1-3.6,5-6.6,4.4c-57.1-11.5-82.2,10.7-82.5,10.9C544.2,775.1,542.9,775.6,541.5,775.6z"/>
						</g>
					</g>
				</g>
				<g id="c_26_">
					<g>
						<path class="st5" d="M215.5,1249.8c0,0,8.3-14.8,94.9-26.7c-18,30.7-53.8,45.3-53.8,45.3L215.5,1249.8z"/>
						<path class="st7" d="M314.7,1417c81.1,79.9,159.4,110.3,215.1,69.8c50.1-36.4,88.2-141.4,23.6-254.1
							c-32-55.8-77.5-115.4-107.2-144.9c-16-5.2-58.9,79.2-120.3,124.4c-57.4,42.3-87.1,44-110.4,37.6
							C226.9,1286.4,268.6,1371.7,314.7,1417z"/>
						<circle class="st5" cx="340.8" cy="1346.3" r="16.5"/>
						<circle class="st5" cx="453.8" cy="1258.2" r="16.5"/>
						<path class="st5" d="M396.7,1317.9c1.8,24.9,3.5,55.6,3.5,55.6s19.4,13.4,43.4-3.7c-13.1,3.2-28,3.7-33.7-12.7
							C404.2,1340.8,396.7,1317.9,396.7,1317.9z"/>
						<g>
							<path class="st5" d="M293.3,1345.3c0.1,0,0.2,0,0.3,0c3.7-0.3,6.5-3.5,6.2-7.3c-1.4-18.1,15.8-25.6,16-25.7
								c3.4-1.5,5-5.4,3.6-8.9c-1.5-3.4-5.4-5-8.9-3.6c-1.1,0.5-26.3,11.5-24.2,39.1C286.6,1342.7,289.7,1345.4,293.3,1345.3z"/>
						</g>
						<g>
							<path class="st5" d="M470.2,1221.2c0,0.1-0.1,0.2-0.1,0.3c-1.7,3.3-5.8,4.7-9.1,3c-16.2-8.2-29.7,4.7-29.8,4.9
								c-2.7,2.6-6.9,2.6-9.6-0.1c-2.6-2.7-2.6-6.9,0.1-9.6c0.8-0.8,20.7-19.8,45.4-7.3C470.4,1214,471.7,1217.9,470.2,1221.2z"/>
						</g>
						<g>
							<path class="st5" d="M426.2,1432.6c-5.8,0-9.5-0.5-9.8-0.5c-3.8-0.5-6.6-4.1-6-7.9c0.5-3.8,4-6.6,7.9-6
								c2.7,0.3,63,7.4,74.4-50c0.8-3.8,4.5-6.3,8.3-5.5c3.8,0.8,6.3,4.5,5.5,8.3c-7.3,36.9-31.6,51.7-50.8,57.5
								C444.3,1431.8,433.5,1432.6,426.2,1432.6z"/>
						</g>
					</g>
					<path id="c_28_" class="st4" d="M386.7,1449.1c-1.4-0.2-2.8-0.1-4.1,0.2c0-0.2,0.1-0.5,0.1-0.7c1.8-14.1-5-26.6-15.1-27.8
						c-1.7-0.2-3.3-0.1-4.9,0.3c-1.9-8.8-7.4-15.5-14.6-16.4c-2.9-0.4-5.7,0.2-8.3,1.6c-1.3-9-7.3-16.1-15.4-17.1
						c-10.1-1.3-19.5,7.4-21.1,19.5c-1.5,12,5.4,22.8,15.5,24.1c2.6,0.3,5.1,0,7.4-0.8c-0.2,12.4,6.2,22.7,15.3,23.8
						c1.7,0.2,3.3,0.1,4.9-0.3c1.9,8.8,7.4,15.5,14.6,16.4c2.7,0.3,5.3-0.2,7.7-1.3c0.8,8,6,14.5,13.1,15.4
						c8.5,1.1,16.5-6.3,17.8-16.4C401.1,1459.3,395.2,1450.2,386.7,1449.1z"/>
				</g>
				<g>
					<path class="st4" d="M679.3,1331.1c-48.9,46.4-90,11.4-101.9,2.3c-13-9.9-33.2-17.6-44.8-10.5c-12,7.3-20.7,17.3-29.7,9.5
						c-12.5-10.8,16.6-42.7,47-32.4c0,0-23.7-8.5-36.1,0.2c-13.6,9.6-23.7,16.7-32.1,11.8c-4.5-2.6-6.6-9.7-2.5-15.6
						c-7.4,2.5-21.7,1.4-19.3-7.8c7.7-29.4,41.5-57.9,85.2-50.3c-45.2-26.5-65.7,14.9-81,9.7c-9.2-3.1-5.6-14.6-0.8-21.1
						c15.2-20.7,41.3-30.6,66.7-26.8c25.4,3.8,58.5,24.6,64,49.7c0,0,35.8,18.4,57.9,9.2L679.3,1331.1z"/>
				</g>
				<path class="st14" d="M940.5,789.9c29.7,29.6,234.7,285.2,157.2,438c-75.6-17.3-127.8-77.5-127.8-77.5s-163.3-254-147.2-323.8
					C837.3,763.3,905.3,754.8,940.5,789.9z"/>
				<path class="st14" d="M651.8,1259.2l318.1-108.8c0,0,69.6-9.3,127.8,77.5c-27.6,45.4-218,120.9-412.2,117.3
					C661.5,1319.8,651.8,1259.2,651.8,1259.2z"/>
			</g>
			<g>
				<g>
					<path d="M1347.3,685.2c-0.5-92.1-33.3-170.9-109.6-206.4c-77.3-35.9-166.8,12.3-166.8,12.3l0,0c0,0-80.7-21.7-145.6,62.2
						c-64.9,83.9-5.7,148.6-30.3,208.1c-14.6,35.2-101.6,49.1-70.3,157.5c9,31.3,48.9,49.6,81.5,49.2c57.2-0.7,108.4-26.9,133.2-6.7
						c81.7,66.5,268.1,40.8,286.4-27.3c5.7-21.1,140.2-7.1,114.1-145.9C1426.6,717.9,1347.7,767.5,1347.3,685.2z"/>
					<path class="st5" d="M758,1286.9c0,0,93.3-141,134.6-169.6c41.3-28.6,10.6,151.2,10.6,151.2L758,1286.9z"/>
					<g>
						<g>
							<g>
								<path class="st3" d="M1091.2,882.5l115-38.3l-24,115.2c0,0-50.1,90.2-97.6,74.7c-47.5-15.5-24.3-55.4-24.3-55.4
									L1091.2,882.5z"/>
							</g>
						</g>
					</g>
					<g>
						<path class="st4" d="M1247.8,717.8c5.1,109.5-81.6,199.5-146.4,205.6c-71.4,6.7-159.9-81.4-165-190.9
							c-5.1-109.5,60.4-201.5,146.4-205.6C1168.7,522.8,1242.6,608.3,1247.8,717.8z"/>
						<g>
							<path d="M1137.7,692.3c-1.2-0.4-2.5-0.4-3.7,0c-18.2,6.5-36-6.7-36.2-6.9c-2.5-1.9-6-1.4-7.9,1.1c-1.9,2.5-1.4,6,1.1,7.9
								c0.9,0.7,22.8,17.1,46.8,8.5c2.9-1.1,4.5-4.3,3.4-7.2C1140.5,694.1,1139.2,692.8,1137.7,692.3z"/>
						</g>
						<g>
							<path d="M943.1,734.1c-0.2,0.6-0.4,1.2-0.4,1.8c-0.2,3.1,2.1,5.8,5.2,6c24.1,1.8,35.7-17.3,36.2-18.1c1.6-2.7,0.7-6.1-2-7.7
								c-2.7-1.6-6.1-0.7-7.7,2c-0.4,0.6-8.7,13.9-25.6,12.6C946.3,730.6,944.1,732,943.1,734.1z"/>
						</g>
						<path class="st3" d="M1033.9,772.8c-5.3,9.9-9.6,19.8-15.4,26.4c-2,2.2-1.8,5.7,0.3,7.8c8.8,8.6,28.2,12.2,39.8,13.6
							c1.7,0.2,2.4-2.1,0.8-2.9c-13.1-6.2-19.6-11.6-22.6-14.8c-1.5-1.6-2.1-3.8-1.7-5.9c0.9-4.9,2.7-14.8,3.5-22.8
							C1038.9,771.4,1035.2,770.3,1033.9,772.8z"/>
						<path d="M1279.9,701.4c-99.7,14.9-247.6-50.7-273.2-97.7c1.1-65.7,43.8-111,107.7-99.3
							C1178.4,516.1,1298.6,613.7,1279.9,701.4z"/>
						<path d="M1034.2,624.6c0,0-47.1,71.3-103.9,96.7c7.1-73.8,11.6-129.6,44-153.8c32.4-24.1,71.2-34.9,71.2-34.9L1034.2,624.6z"
							/>
						<g>
							
								<ellipse transform="matrix(-0.8094 -0.5872 0.5872 -0.8094 1838.353 2053.1382)" class="st4" cx="1252.3" cy="728.3" rx="38.2" ry="46.7"/>
							<g>
								<path class="st3" d="M1247.6,754.4c-0.8-0.2-1.6-0.5-2.4-1c-10.4-7.8-14.4-18.8-10.6-29.5c3.9-10.9,14.7-18.5,25.7-18.1
									c3.1,0.1,5.5,2.7,5.4,5.8c-0.1,3.1-2.7,5.5-5.8,5.4c-6.1-0.2-12.5,4.4-14.7,10.6c-2.1,5.9,0.3,11.8,6.7,16.7
									c2.5,1.9,3,5.4,1.1,7.9C1251.8,754.1,1249.6,754.8,1247.6,754.4z"/>
							</g>
						</g>
						<circle cx="1110.4" cy="731" r="17.3"/>
						<circle cx="986.7" cy="755.4" r="17.3"/>
						<path class="st4" d="M1264.9,766.8c0,0,6.3-3,8.6-5.6c-4.8-2.8-17.9-4.1-17.9-4.1s4.4,3.8-0.4,9.6
							C1257.9,767,1264.9,766.8,1264.9,766.8z"/>
						<path class="st7" d="M1107.1,863c2.2,13-13.9,16.3-29.1,18.9c-15.1,2.6-33.9,5.3-36.1-7.7c-2.2-13,14.6-26.9,29.7-29.5
							C1086.8,842.2,1104.9,850,1107.1,863z"/>
					</g>
					<g>
						<g>
							<g>
								<g>
									<path class="st17" d="M1443.2,1770.6c-1.3,0.2-2.6,0.4-3.9,0.7c-8.7,1.5-17.1,2.8-25.2,3.9
										c-168.9,22.8-233.4-35.8-336-43.4c-31-2.3-65.4,0-107.3,10.7c-4,1.2-8,2.5-12.2,3.8c-19.2,6.2-40.3,13.4-62.8,21.1
										c5.8-49.8,14.2-99.1,29-145.6c4.8-15.1,10.3-30,16.6-44.4c1.1-2.5,2.2-5,3.3-7.4c7.8-16.9,16.8-33.3,27.2-49l11.2-0.1
										l173.1-1.6l32.2-0.3l139.4-1.3c2.4,2.3,4.8,4.7,7.2,7.1l0,0c7.3,7.4,14.1,15.2,20.4,23.2c28.4,35.8,48.4,77.4,63.4,123.5v0
										c2.8,8.7,5.5,17.5,7.9,26.5C1433.2,1721.1,1438.5,1745.5,1443.2,1770.6z"/>
								</g>
							</g>
						</g>
					</g>
					<g>
						<g>
							<g>
								<path class="st6" d="M943.7,1469.1c-5-77.3-79.6-188.9-52.5-269.1c19.3-64.3,56.1-209,105.6-221.8
									c20.1-5.2,39.3-9.3,66.9-10c0,0-7.7,61.2,25.6,61.7c64,1,95-80.2,95-80.2c34.1-5.5,161.5,23.3,168.9,52.6
									c6.2,101.3-29,227-48.8,338.3c-1.4,56.1,14.4,100.4,22.1,131.6c12.3,32.2,31.4,67.5,31.9,74.6c0,0-258,101.3-413.6,28.3
									C944.6,1575.1,947.1,1521.3,943.7,1469.1z"/>
							</g>
						</g>
					</g>
					<path class="st5" d="M1435.2,1331.8c0,0,3.6-275.8-87.3-337.8c-24.6-15.3-56.7,38.4-43,101.7
						C1318.6,1159,1435.2,1331.8,1435.2,1331.8z"/>
					<g>
						<path class="st4" d="M1267,971.9c0,0,249.3,339.3,152,415.1c-110.3,85.9-198.7-229-209-415.1
							C1244.6,971.9,1267,971.9,1267,971.9z"/>
					</g>
					<g>
						<path class="st4" d="M1210.1,973.8c-33-58,6-84.3,17.6-93.5c12.6-10.1,24.7-27.7,20.7-40.6c-4.2-13.2-11.7-24-2.1-30.8
							c13.4-9.5,37.1,26.1,20,52.8c0,0,13.8-20.7,8.3-34.7c-6-15.4-10.5-26.7-3.8-33.6c3.6-3.7,10.9-4.1,15.5,1.3
							c-0.6-7.7,3.7-21.2,12.1-16.6c26.4,14.3,45.8,53.5,28.1,93.7c36.2-37.1,1.3-66.6,9.9-80.1c5.2-8.1,15.3-1.9,20.4,4.2
							c16.3,19.5,19.6,46.9,10,70.4c-9.7,23.5-37.5,50.3-62.9,49.6c0,0-31.8,34.7-35.4,57.8H1210.1z"/>
					</g>
					<g>
						<g>
							<g>
								<path class="st5" d="M952.4,887.3c0,0,33.1,1.3,48.4,46.3C967.6,939.8,952.4,887.3,952.4,887.3z"/>
								<path class="st7" d="M1163.9,1145.1c-49,92.5-148.3,118.9-202.9,103.8c-39.4-10.9-99.3-83.4-75.8-192.1
									c12.8-59.2,47.9-135.1,67.2-169.5c5.4,16.1,40.7,50,107.8,75.1c62.8,23.5,143,2.4,155.5,20.1
									C1214.8,1018.5,1192.3,1091.4,1163.9,1145.1z"/>
								<circle class="st5" cx="1086.1" cy="1082.5" r="15.6"/>
								<circle class="st5" cx="963.8" cy="1041.3" r="15.6"/>
								<path class="st5" d="M1018.5,1064.4c-19.3,13.4-43.4,29.5-43.4,29.5s-1.6,22.2,23.7,33.4c-8.9-9.1-16.4-20.9-5.8-33.4
									C1003.6,1081.4,1018.5,1064.4,1018.5,1064.4z"/>
								<path class="st5" d="M1040.7,1177.8c3.8-3,2.8-9.3-1.6-10.1c-11.3-2.1-29.9-6-47-11.6c-17.1-5.6-34.4-13.4-44.7-18.4
									c-4.1-2-8.6,2.5-7.3,7.2c4,14.4,14.4,37.7,40.6,46.3C1006.9,1199.7,1029,1187.1,1040.7,1177.8z"/>
								<g>
									<path class="st5" d="M1124.2,1082.5c-3.3,0-6-2.6-6.2-5.9c-1.3-23.2-24.6-23-27.3-22.9c-3.4,0.1-6.3-2.5-6.5-5.9
										c-0.1-3.4,2.5-6.3,5.9-6.5c13.2-0.6,38.6,5.8,40.2,34.6c0.2,3.4-2.4,6.4-5.8,6.5
										C1124.4,1082.5,1124.3,1082.5,1124.2,1082.5z"/>
								</g>
								<g>
									<path class="st5" d="M990.6,1014.1c-1.2,0-2.4-0.3-3.5-1.1l0,0c-0.8-0.6-20.9-13.7-36.8-0.4c-2.6,2.2-6.5,1.9-8.7-0.8
										c-2.2-2.6-1.9-6.5,0.8-8.7c18.5-15.5,41.9-7,51.7-0.4c2.8,1.9,3.6,5.8,1.7,8.6C994.5,1013.1,992.6,1014.1,990.6,1014.1z"/>
								</g>
							</g>
							<g>
								<path class="st4" d="M1062.4,1262.6c-16.3-25.3-38.1-39.1-30.8-77.8c2.7-14.1,6.7-28.5,10.9-45.4
									c6.4-26.1,16-47.2,21.7-47.2c13,0,15.7,7.6,14.6,23.6c-0.8,12.3-10.9,27-3.7,35.5c6.4,7.6,16.4,13.6,48.6-11.7
									c41.2-32.4,50.1-50.9,62.2-38.6c7.9,8-11.3,25.8-49.5,57.2c25.7-8.4,65.5-62.5,79.4-43.5c10.1,13.8-55.2,58.5-73.8,66.4
									c37.1-6.7,71.3-52.3,79.8-45.3c17.2,15.6-33.9,55.9-66.7,63.9c33.5,0.8,50.3-27.3,57.5-19.4c13.4,14.7-43.9,55.3-83,65.2
									C1118,1248.3,1062.4,1262.6,1062.4,1262.6z"/>
							</g>
							<path class="st4" d="M1030.6,1207.4c0,0-122.3,40.6-223.5,55.2c-101.2,14.6-80.7,155.9,7.2,138.9
								c67.3-13,248.1-138.9,248.1-138.9L1030.6,1207.4z"/>
						</g>
					</g>
				</g>
			</g>
			<g>
				<path class="st15" d="M2346.6,1077.2c0,0,224.4,207.2,208.3,489.3c1,35.8-221.7-145.1-221.7-145.1l2.5-84.5L2346.6,1077.2z"/>
				<path class="st15" d="M1927.1,1077.2c0,0-227.5,207.2-211.4,489.3c-1,35.8,221.7-145.1,221.7-145.1L1927.1,1077.2z"/>
				<path class="st14" d="M2382.5,1333.3c-0.2,7.6-0.7,16.1-1.4,25.4c-0.8,9.9-1.8,20.7-2.9,32.2c-1.9,18.6-4.3,39.1-7,60.7
					c-1,7.9-2,15.9-3,24c-0.8,6.2-1.6,12.4-2.4,18.7c-13.8,107.9-30.6,232.3-27.3,299.3c-18.8,1.8-37.2,3.3-55,4.5
					c-130.7,8.5-236.5,0.1-333.3-11.4c-10.9-1.3-21.6-2.6-32.3-4c1.3-24,0.9-54.1-0.6-87.4c-2.6-60-8.7-130.4-14.3-195.1
					c0,0,0,0,0,0c-1-11.7-2-23.3-3-34.6c-0.4-4.6-0.8-9.1-1.2-13.6v0c-3-35.6-5.6-67.8-6.8-93.3c-0.5-11.1-0.8-20.9-0.8-29.2
					c0-87.5,35.9-252.4,35.9-252.4l49.8-12.8l10-2.6l32.2-8.3l25.8-6.7l59.6-0.7l71-0.9l11.7-0.1l3,0l50.2,10.3l10.1,2.1l4.1,0.8
					l1.7,0.3l46.2,9.5h0l44.2,9.1c0,0,0,0,0,0c0.3,1.7,20.9,107.4,30.8,187.1c0,0,0,0,0,0c1,7.8,1.8,15.3,2.5,22.4
					c0.1,0.6,0.1,1.3,0.2,1.9v0C2381.9,1306.7,2382.8,1322.2,2382.5,1333.3z"/>
				<g>
					<path class="st18" d="M2052.2,683.7c-89.4-44.8-77.2-127.8,23.7-133.5c9.6-7.2,6.4-21.9,6.3-33.9c-0.4-32.2,32.1-59,64.3-57.5
						c68.8,6.4,57.5,61.1,90,83.8c25.8-4.5,50.6-22.5,65.9,13.5c7.7,26.3-7,48.7-0.8,75.4c76.5-22.6,91.6,68,7.3,76
						c-13.5,3.3-28,11.7-29.5,25.5L2052.2,683.7z"/>
				</g>
				<g>
					<path class="st4" d="M2307.4,888c-6.7,131.5-82.5,237.3-176.3,232.6c-93.8-4.8-170-118.4-163.3-249.8
						c6.7-131.5,88.1-234.2,181.9-229.4C2243.5,646.1,2314.1,756.5,2307.4,888z"/>
					<path class="st3" d="M2037.2,933.1c0,0,2.8,26,35.2,28.2c27.4,1.8,29.2-31.6,29.2-31.6S2079.5,946.5,2037.2,933.1z"/>
					<path class="st3" d="M2180.8,931.3c0,0,3.1,26,34.2,25.7c29.6-0.3,29.8-30.8,29.8-30.8S2223.2,944.7,2180.8,931.3z"/>
					<path class="st7" d="M2141,1032.9c-26.8-0.3-47.9,20.5-47.8,30c0.2,14.5,23.6,4.9,50.4,5.2c26.8,0.3,46.7,10.4,46.6-4.1
						C2190.1,1055.3,2167.7,1033.2,2141,1032.9z"/>
					<g>
						<path d="M2213.4,944.1c-14.6,0-28.7-7.2-32.5-12.4c-1.9-2.6-1-6.1,2-7.7c3-1.7,7-0.9,8.9,1.7c1.6,2,11.9,7.5,22.6,7.2
							c8.4-0.3,15.2-4.1,20.1-11.4c1.8-2.7,5.8-3.6,8.9-2c3.1,1.6,4.1,5,2.3,7.7c-9.4,13.8-22.4,16.8-31.7,17
							C2213.8,944.1,2213.6,944.1,2213.4,944.1z"/>
					</g>
					<g>
						<path d="M2068.8,947.2c-14.5-0.7-28.2-8.6-31.7-14c-1.7-2.7-0.6-6.1,2.5-7.6c3.1-1.5,7.1-0.5,8.8,2.2
							c1.5,2.1,11.3,8.1,22.1,8.3c8.4,0.1,15.4-3.4,20.8-10.4c2-2.6,6-3.3,9-1.5c3,1.7,3.8,5.2,1.8,7.8
							c-10.3,13.3-23.5,15.7-32.8,15.4C2069.3,947.2,2069.1,947.2,2068.8,947.2z"/>
					</g>
					<g>
						<path class="st16" d="M2249.2,906.3c-49.5,0-67-31.8-67.7-33.2c-2.2-4.1-0.6-9.1,3.5-11.3c4.1-2.2,9.1-0.6,11.3,3.4
							c0.6,1.1,14.4,24.9,54.3,24.3c4.6-0.1,8.4,3.6,8.5,8.2c0.1,4.6-3.6,8.4-8.2,8.5C2250.3,906.2,2249.7,906.3,2249.2,906.3z"/>
					</g>
					<g>
						<path class="st16" d="M2038.6,906.3c-0.5,0-1,0-1.6,0c-4.6-0.1-8.3-3.9-8.2-8.5c0.1-4.6,3.9-8.3,8.5-8.2
							c40.1,0.5,53.8-23.3,54.4-24.3c2.2-4.1,7.2-5.6,11.3-3.4c4.1,2.2,5.6,7.3,3.4,11.3C2105.6,874.5,2088.1,906.3,2038.6,906.3z"
							/>
					</g>
					<path class="st3" d="M2150.9,939.2l9.8,59.1c0.7,4.1-2.6,7.8-6.7,7.6l-38-1.7c0,0,22.7-3.3,27.6-17.9
						C2148.5,971.7,2150.9,939.2,2150.9,939.2z"/>
					<path class="st16" d="M1967.3,856.1c3.4,16.1,36.6,3.8,47-9c22.6-28,26.8-73.8,72.8-59.1c55.8,17.9,51.8-1.6,92.6-29.7
						c36.8-25.3,52.6,14.5,65.4,51.5c8.2,23.6,47.7,51.4,57.3,67c4.9,8.1,18.6,11.4,23.5,3.3c23.4-76.8-4.2-158.7-65.3-204.7
						c-31-23.4-70.6-37.4-116.6-36.9C2013.3,640.2,1942.9,739.7,1967.3,856.1z"/>
					<path class="st16" d="M2129.8,772.7c22.6-9.3,55.4-22.8,75.7-1.9c10.8,13.9,8.8,32.8,11.3,48.9c0.3,32.1,37.6,15.3,45.8-3.4
						c-5.8,15.1-21.8,27.8-38.5,25.8c-17.3-6-14.8-30-19.8-44.2c-2.2-13.1-9.8-26-25-23.3c-14.2,1.3-28.4,8-41.1,14.9
						C2127.2,795.9,2118.1,777.8,2129.8,772.7z"/>
					<path class="st16" d="M2107.2,793.1c-18.1-4.1-44,2.5-43.6,24.9c0.1,6.8,1.9,14.3-2.3,20.3c-14,19.4-44.3,19.5-63.7,8.9
						c18.6,8.5,47.3,6.9,59.1-11.5c4.3-9.1-2.8-18.5,0-28.1c4.2-23.5,31.4-32.3,52.5-31.2C2120.7,776.9,2118.6,795.3,2107.2,793.1z"
						/>
					<path class="st3" d="M2126.3,1084.2c8.9-7.8,24.1-7.9,33,0C2147.9,1083.6,2137.6,1083.7,2126.3,1084.2z"/>
				</g>
				<g>
					<path class="st7" d="M2305,1254.7c-16.9,114.4-92.6,183.5-157.7,183.4c-53.9-0.1-155.5-40.9-176.2-174.1
						c-10.3-66.1-8.5-143.6-1.1-186.5c10.4-14,96.2,24.9,175.4,26.3c74.1,1.3,137.5-43.7,157-29.9
						C2314.7,1111.8,2314.8,1188.3,2305,1254.7z"/>
					<path class="st5" d="M2151,1247.6c13.4,22.2,24.8,55.3,24.8,55.3s-19,6.3-49.6,6.2c13-5.2,27-11,27.1-20.3
						C2153.5,1270.7,2151,1247.6,2151,1247.6z"/>
					<g>
						<path class="st5" d="M2251.4,1200c-1.7,0-3.4-0.8-4.5-2.2c-19.4-25.6-45.3-10.4-46.4-9.7c-2.7,1.6-6.2,0.8-7.8-1.9
							c-1.6-2.7-0.8-6.2,1.9-7.8c12.2-7.5,40.8-14.6,61.3,12.6c1.9,2.5,1.4,6.1-1.1,8C2253.8,1199.6,2252.6,1200,2251.4,1200z"/>
					</g>
					<g>
						<path class="st5" d="M2029.7,1200c1.7,0,3.4-0.8,4.5-2.2c19.4-25.6,45.3-10.4,46.4-9.7c2.7,1.6,6.2,0.8,7.8-1.9
							c1.6-2.7,0.8-6.2-1.9-7.8c-12.2-7.5-40.8-14.6-61.3,12.6c-1.9,2.5-1.4,6.1,1.1,8C2027.2,1199.6,2028.5,1200,2029.7,1200z"/>
					</g>
					<g>
						<path class="st5" d="M2217,1245c-13.6,0-25.3-5.4-31.6-10.2c-3.5-2.6-4.2-7.6-1.6-11.1c2.6-3.5,7.6-4.2,11.1-1.6
							c1,0.7,23.7,17,46.5-2.7c3.3-2.9,8.4-2.5,11.2,0.8s2.5,8.4-0.8,11.2C2240.1,1241.5,2227.9,1245,2217,1245z"/>
					</g>
					<g>
						<path class="st5" d="M2066.1,1244.9c-13.6-0.6-25-6.4-31.2-11.5c-3.4-2.8-3.9-7.8-1.1-11.2c2.8-3.4,7.8-3.9,11.2-1.1
							c1,0.8,22.9,18,46.6-0.8c3.4-2.7,8.5-2.1,11.2,1.3c2.7,3.4,2.2,8.5-1.3,11.2C2089.3,1242.4,2077,1245.4,2066.1,1244.9z"/>
					</g>
					<g>
						<path class="st5" d="M2150.1,1369.1c-5.8,0-11.7-0.5-17.7-1.6c-20.3-3.6-34.5-12-35.1-12.4c-3.8-2.3-5-7.1-2.7-10.9
							c2.3-3.8,7.1-5,10.9-2.7c0.3,0.2,12.8,7.5,30.2,10.4c22.7,3.9,42.9-1.1,59.9-14.8c3.4-2.8,8.4-2.2,11.2,1.2
							c2.8,3.4,2.2,8.4-1.2,11.2C2189.5,1362.5,2170.6,1369.1,2150.1,1369.1z"/>
					</g>
				</g>
				<g>
					<path class="st4" d="M1918.3,1335.5c0,0-168.6,149.4-211.8,193.8c-81.2,83.5,30.2,202.3,108.9,107.3
						c78.8-95.2,129.4-227.1,148.1-266.8L1918.3,1335.5z"/>
				</g>
				<g>
					<path class="st4" d="M2353.2,1333.7c0,0,168,150,211,194.6c80.9,83.8-31.1,202.2-109.4,106.9
						c-78.5-95.5-128.5-227.6-147.1-267.4L2353.2,1333.7z"/>
				</g>
				<g>
					<path class="st4" d="M1938.8,1378.8c57.8-10.7,55.9-45,55.5-58c-0.3-14.2,4.6-32.4,15.6-37c11.3-4.7,22.8-5.7,22-16
						c-1.2-14.4-38.7-10.2-47,16.5c0,0,6.1-21.1,18.7-25.3c13.8-4.7,24-8.1,24.8-16.5c0.4-4.5-3.4-9.7-9.7-9.7
						c5.6-4,12.1-14.5,4.4-17.6c-24.7-9.7-62.1-0.5-79.2,34.2c4.5-45.5,44.2-38.7,48.5-52.2c2.5-8.1-7.4-11.4-14.4-11.4
						c-22.4,0.1-42.8,13.4-53.2,33.3s-12.7,53.9,2.2,70.6c0,0-3.2,41-16.8,56.6L1938.8,1378.8z"/>
				</g>
				<g>
					<path class="st4" d="M2337.3,1378.1c-57.8-10.7-55.9-45-55.5-58c0.3-14.2-4.7-32.4-15.6-37c-11.3-4.7-22.8-5.7-22-16
						c1.2-14.4,38.7-10.2,47,16.5c0,0-6.1-21.1-18.7-25.3c-13.8-4.7-24-8.1-24.8-16.5c-0.4-4.5,3.4-9.7,9.7-9.7
						c-5.6-4-12.1-14.5-4.4-17.6c24.7-9.7,62.1-0.5,79.2,34.2c-4.5-45.5-44.2-38.7-48.5-52.2c-2.5-8.1,7.4-11.4,14.4-11.4
						c22.4,0.1,42.8,13.4,53.2,33.3c10.4,19.9,12.7,53.9-2.2,70.6c0,0,3.2,41,16.8,56.6L2337.3,1378.1z"/>
				</g>
			</g>
		</g>
	</g>
</g>
</svg>
