<?xml version="1.0" encoding="utf-8"?>
<!-- Generator: Adobe Illustrator 19.0.0, SVG Export Plug-In . SVG Version: 6.00 Build 0)  -->
<svg version="1.1" id="_x2018_лой_x5F_1" xmlns="http://www.w3.org/2000/svg" xmlns:xlink="http://www.w3.org/1999/xlink"
	 x="0px" y="0px" viewBox="0 0 3000 2000" style="enable-background:new 0 0 3000 2000;" xml:space="preserve">
<style type="text/css">
	.st0{fill:#EBF3FA;}
	.st1{fill:#C8DBF4;}
	.st2{fill:#D4E4F8;}
	.st3{fill:#9FC1F4;}
	.st4{fill:#A4C4E0;}
	.st5{fill:#B7CFEA;}
	.st6{fill:#C0D8FB;}
	.st7{fill:#DFEBFD;}
	.st8{fill:#B7D3F3;}
	.st9{fill:#9ABFE2;}
	.st10{fill:#BAD4F4;}
	.st11{fill:#87A6D8;}
	.st12{fill:#91B2E2;}
	.st13{fill:#FFB27D;}
	.st14{fill:#163560;}
	.st15{fill:#739AF0;}
	.st16{fill:#5D81DB;}
	.st17{fill:#294A7F;}
	.st18{fill:#ED7D2B;}
	.st19{fill:#F99746;}
	.st20{fill:#E8945B;}
	.st21{fill:#FFFFFF;}
	.st22{fill:#FFE3CA;}
	.st23{fill:#233862;}
	.st24{fill:#F78248;}
	.st25{fill:#916140;}
	.st26{fill:#D8A27D;}
	.st27{fill:#E5BD9E;}
	.st28{fill:#C6916D;}
	.st29{fill:#2E3552;}
</style>
<g>
	<path class="st0" d="M550,1690.4c0,0-287.7-358.2-27.7-638.1c316-340.1-21.9-534.1,224.7-761.1c201.8-185.7,442.8-152.1,906.7,8.9
		c358.7,124.5,500.6-212.1,863.1-40.3c237,112.3,63.9,457,199.6,683.8c158.1,264.2,158.1,607.3-45.3,746.6H550z"/>
	<g>
		<g>
			<path class="st1" d="M2395.3,1081.3c0,0-28.8-33.6-1.8-54.9c0,0,19.7-12,35.8-11c0,0-22.8,38.2-15.4,42
				c7.4,3.8,22.3-44.4,22.3-44.4s44.9-4.4,59.4,2.6c0,0-38.4,31.4-30.3,33.3c8.1,1.9,49.6-29,49.6-29s41.8,7.1,39.6,32.6
				c-2.2,25.5-16.6,33.4-23,32.7c-6.3-0.7-43.4-14.8-44.2-9.6c-0.8,5.2,21.5,22.1,37.1,22.9c0,0-29.5,32.5-49.1,23.1
				c-19.6-9.4-21.3-24.3-33.5-29.8c-12.2-5.6-22.6-5.6-17.6,0.1c5,5.7,27.1,11.2,34.1,23.6c7,12.4,13.2,20.7-7,17.6
				s-53.2-17.9-54.7-34.9C2395.3,1081.3,2395.3,1081.3,2395.3,1081.3z"/>
			<g>
				<path class="st1" d="M2533.9,1053.2c0,0-113.6-4.4-138.6,28.1c0,0-5.5,16.6-22.6,31.7l-2.7,7.3c0,0,19.7-20.7,26.7-22
					C2396.7,1098.3,2385.7,1058.1,2533.9,1053.2z"/>
				<path class="st1" d="M2372.7,1113.1c0,0-24.4,18-26.1,50.2l4.4,0.4c0,0,7.8-33.3,21.9-46.3
					C2386.9,1104.3,2372.7,1113.1,2372.7,1113.1z"/>
			</g>
		</g>
		<g>
			<path class="st1" d="M2294.6,1039.1c0,0,45.8-25.7,24.4-60.5c0,0-17.1-21.4-35.4-26.9c0,0,9.8,51.9,0,53.1
				c-9.8,1.2-6.7-58.6-6.7-58.6s-48.3-23.2-67.2-21.4c0,0,29.9,50.7,20.2,49.5c-9.8-1.2-43.4-52.5-43.4-52.5s-49.5-9.2-57.4,20.2
				c-7.9,29.3,4.9,44,12.2,45.8s54.4,1.2,53.1,7.3c-1.2,6.1-33,15.9-50.7,10.4c0,0,19.5,48.3,45.2,45.8
				c25.7-2.4,33.6-18.3,49.5-19.5c15.9-1.2,27.5,3.1,19.5,7.3c-7.9,4.3-34.8,1.4-47.6,12.3c-12.8,10.9-23.2,17.6,0.6,22.5
				s66.6,1.8,75.1-16.5C2294.6,1039.1,2294.6,1039.1,2294.6,1039.1z"/>
			<g>
				<path class="st1" d="M2151.6,951.1c0,0,128.3,41.5,142.9,88c0,0-0.6,20.8,12.2,44.6v9.2c0,0-13.4-31.2-20.8-35.4
					C2286,1057.4,2314.7,1017.1,2151.6,951.1z"/>
				<path class="st1" d="M2306.8,1083.7c0,0,19.8,30,8.5,66.6l-5.1-1.4c0,0,4.9-40.3-5.4-60.5
					C2294.5,1068.1,2306.8,1083.7,2306.8,1083.7z"/>
			</g>
		</g>
		<g>
			<path class="st2" d="M2367.5,1003.7c0,0-60.4-33.8-32.2-79.7c0,0,22.5-28.2,46.7-35.4c0,0-12.9,68.4,0,70.1
				c12.9,1.6,8.9-77.3,8.9-77.3s63.6-30.6,88.6-28.2c0,0-39.5,66.8-26.6,65.2c12.9-1.6,57.2-69.2,57.2-69.2s65.2-12.1,75.7,26.6
				c10.5,38.6-6.4,58-16.1,60.4c-9.7,2.4-71.7,1.6-70.1,9.7c1.6,8.1,43.5,20.9,66.8,13.7c0,0-25.8,63.6-59.6,60.4
				c-33.8-3.2-44.3-24.2-65.2-25.8c-20.9-1.6-36.2,4-25.8,9.7c10.5,5.6,45.9,1.8,62.8,16.2c16.9,14.4,30.6,23.2-0.8,29.7
				s-87.8,2.4-99-21.7C2367.5,1003.7,2367.5,1003.7,2367.5,1003.7z"/>
			<g>
				<path class="st2" d="M2555.9,887.8c0,0-169.1,54.8-188.4,115.9c0,0,0.8,27.4-16.1,58.8v12.1c0,0,17.7-41.1,27.4-46.7
					C2378.7,1027.9,2340.9,974.7,2555.9,887.8z"/>
				<path class="st2" d="M2351.4,1062.5c0,0-26.1,39.6-11.2,87.8l6.7-1.8c0,0-6.5-53.1,7.1-79.8
					C2367.6,1042,2351.4,1062.5,2351.4,1062.5z"/>
			</g>
		</g>
		<path class="st2" d="M2365.4,1254.8c65.3,0,118.3-53,118.3-118.3h-236.6C2247.1,1201.8,2300.1,1254.8,2365.4,1254.8z"/>
		<path class="st2" d="M2485.4,1260.8h-239.9l0,0c0-8.1,6.5-14.6,14.6-14.6h210.7C2478.8,1246.2,2485.4,1252.8,2485.4,1260.8
			L2485.4,1260.8z"/>
		<rect x="2243.2" y="1136.5" class="st3" width="243.2" height="3.6"/>
	</g>
	<g>
		<polygon class="st4" points="649.9,1687.3 1065.4,1687.3 1000.2,1156.4 584.7,1156.4 		"/>
		<polygon class="st1" points="667.9,1687.3 1083.4,1687.3 1018.2,1156.4 602.7,1156.4 		"/>
		<polygon class="st2" points="688.9,1659.8 1055.7,1659.8 996.9,1181.6 630.2,1181.6 		"/>
		<polygon class="st1" points="654.6,1435.3 1034.5,1435.3 1031.2,1408.5 651.3,1408.5 		"/>
		<polygon class="st5" points="1027.9,1235.5 1018.2,1156.4 939.1,1156.4 		"/>
		<polygon class="st5" points="612.5,1235.5 602.7,1156.4 681.9,1156.4 		"/>
		<polygon class="st5" points="1004.3,1687.4 1083.4,1687.4 1073.7,1608.2 		"/>
		<polygon class="st5" points="747,1687.4 667.9,1687.4 658.2,1608.2 		"/>
	</g>
	<g>
		<polygon class="st4" points="843.7,1687.3 1140.1,1687.3 1093.6,1308.6 797.2,1308.6 		"/>
		<polygon class="st1" points="856.6,1687.3 1152.9,1687.3 1106.4,1308.6 810.1,1308.6 		"/>
		<polygon class="st2" points="871.5,1667.7 1133.1,1667.7 1091.3,1326.6 829.7,1326.6 		"/>
		<polygon class="st1" points="847.1,1507.5 1118,1507.5 1115.7,1488.4 844.7,1488.4 		"/>
		<polygon class="st5" points="1113.4,1365.1 1106.4,1308.6 1050,1308.6 		"/>
		<polygon class="st5" points="817,1365.1 810.1,1308.6 866.5,1308.6 		"/>
		<polygon class="st5" points="1096.5,1687.4 1152.9,1687.4 1146,1630.9 		"/>
		<polygon class="st5" points="913,1687.4 856.6,1687.4 849.6,1630.9 		"/>
	</g>
	<g>
		<path class="st6" d="M1032.5,541H858.5c-8,0-14.5-6.5-14.5-14.5V358.6c0-8,6.5-14.5,14.5-14.5h173.9c8,0,14.5,6.5,14.5,14.5v167.9
			C1047,534.5,1040.5,541,1032.5,541z"/>
		<path class="st7" d="M1024.9,532.5H866.1c-7.3,0-13.3-6-13.3-13.3V365.9c0-7.3,6-13.3,13.3-13.3h158.9c7.3,0,13.3,6,13.3,13.3
			v153.3C1038.2,526.5,1032.2,532.5,1024.9,532.5z"/>
		<g>
			<g>
				<circle class="st8" cx="945.5" cy="370.6" r="4.2"/>
				<circle class="st8" cx="978.9" cy="378.6" r="4.2"/>
				<circle class="st8" cx="1006.6" cy="403.1" r="4.2"/>
				<circle class="st8" cx="1018.7" cy="439.6" r="4.2"/>
				<circle class="st8" cx="1008.4" cy="479.8" r="4.2"/>
				<circle class="st8" cx="982" cy="506.3" r="4.2"/>
				<circle class="st8" cx="945.5" cy="516.9" r="4.2"/>
			</g>
			<g>
				<circle class="st8" cx="912" cy="378.6" r="4.2"/>
				<circle class="st8" cx="884.3" cy="403.1" r="4.2"/>
				<circle class="st8" cx="872.2" cy="439.6" r="4.2"/>
				<circle class="st8" cx="882.5" cy="479.8" r="4.2"/>
				<circle class="st8" cx="908.9" cy="506.3" r="4.2"/>
			</g>
		</g>
		<g>
			<circle class="st8" cx="948.6" cy="439.6" r="4.2"/>
			<g>
				<rect x="948" y="387" class="st8" width="1.1" height="52.5"/>
			</g>
			<g>
				
					<rect x="960.3" y="410.9" transform="matrix(0.6175 0.7866 -0.7866 0.6175 705.0911 -592.7523)" class="st8" width="3.4" height="35.4"/>
			</g>
		</g>
	</g>
	<g>
		<path class="st9" d="M2203.6,1267.6v10.6c0,3.7,1.2,6.8,2.7,6.8h388.4c1.5,0,2.7-3,2.7-6.8v-10.6c0-3.7-1.2-6.8-2.7-6.8h-388.4
			C2204.8,1260.8,2203.6,1263.9,2203.6,1267.6z"/>
		<path class="st10" d="M2203.6,1267.6v10.6c0,3.7,1.1,6.8,2.5,6.8h308.4c1.4,0,2.5-3,2.5-6.8v-10.6c0-3.7-1.1-6.8-2.5-6.8h-308.4
			C2204.7,1260.8,2203.6,1263.9,2203.6,1267.6z"/>
		<rect x="2301.9" y="1285" class="st1" width="275.8" height="401.9"/>
		<rect x="2224.6" y="1285" class="st7" width="275.8" height="401.9"/>
		<g>
			<g>
				<path class="st8" d="M2239.4,1296.4h246.1v368.4h-246.1V1296.4z M2482.9,1299h-240.8v363.1h240.8V1299z"/>
			</g>
			<g>
				<rect x="2240.8" y="1418.2" class="st8" width="243.5" height="2.7"/>
			</g>
			<g>
				<rect x="2240.8" y="1542.5" class="st8" width="243.5" height="2.7"/>
			</g>
			<path class="st8" d="M2337.6,1320.1h45.2c2.2,0,4-1.8,4-4l0,0c0-2.2-1.8-4-4-4h-45.2c-2.2,0-4,1.8-4,4l0,0
				C2333.6,1318.3,2335.4,1320.1,2337.6,1320.1z"/>
			<path class="st8" d="M2337.6,1441.6h45.2c2.2,0,4-1.8,4-4l0,0c0-2.2-1.8-4-4-4h-45.2c-2.2,0-4,1.8-4,4l0,0
				C2333.6,1439.8,2335.4,1441.6,2337.6,1441.6z"/>
			<path class="st8" d="M2337.6,1568.3h45.2c2.2,0,4-1.8,4-4l0,0c0-2.2-1.8-4-4-4h-45.2c-2.2,0-4,1.8-4,4l0,0
				C2333.6,1566.5,2335.4,1568.3,2337.6,1568.3z"/>
		</g>
	</g>
	<g>
		<g>
			
				<rect x="2477.7" y="1109.4" transform="matrix(0.9874 -0.1585 0.1585 0.9874 -153.1877 408.2847)" class="st9" width="9.3" height="109.8"/>
			<polygon class="st5" points="2470.6,1091 2469.1,1110.8 2478.3,1109.3 			"/>
		</g>
		<g>
			
				<rect x="2522.3" y="1109.3" transform="matrix(0.9833 0.1822 -0.1822 0.9833 254.4976 -441.0336)" class="st9" width="9.3" height="109.8"/>
			<polygon class="st5" points="2540.5,1091.3 2532.4,1109.4 2541.5,1111.1 			"/>
		</g>
		<g>
			
				<rect x="2554.6" y="1093.2" transform="matrix(0.9833 0.1822 -0.1822 0.9833 252.0929 -447.1841)" class="st11" width="9.3" height="109.8"/>
			<polygon class="st5" points="2572.8,1075.1 2564.7,1093.3 2573.8,1095 			"/>
		</g>
		<g>
			<rect x="2503.6" y="1155.1" class="st12" width="73.4" height="105.7"/>
			<rect x="2466.9" y="1155.1" class="st5" width="73.4" height="105.7"/>
		</g>
	</g>
	<g>
		<path class="st13" d="M1492.4,809.8c0,0,23.9-13.9,37.1-9.1c13.2,4.8,35.3,20.3,25.7,26.9c-9.6,6.6-21.3,0.5-25.1,0
			c-3.9-0.5-11.2,15.8-33.7,10.6C1473.9,833,1492.4,809.8,1492.4,809.8z"/>
		<g>
			<path class="st14" d="M1311.7,484.7c0,0-41.6-32.5-86.4-19.7c0,0-17.4-27-48.5-12.5c-43.5,20.3-12.4,66,10,56.4
				c0,0-0.6,11.4-11.8,34.5c-11.2,23.1,11.9,72.2,58.5,55.9c46.6-16.2,86.7-34.5,86.7-34.5S1357.3,510.9,1311.7,484.7z"/>
			<path class="st15" d="M1308.6,822.4c0,0,6.8,13.6,19.3,29.1c15,18.7,38,40.4,67,44.7c13.8,2,27.4-0.9,39.8-6.5c0,0,0,0,0,0
				c35.2-15.6,61.6-51.5,61.6-51.5c6.2-16.9-3.9-28.4-3.9-28.4s-71.1,16-77.8,12.6s-46.5-99.3-54.4-114.5
				c-15.6-29.9-42.6-38.6-42.6-38.6L1308.6,822.4z"/>
			<path class="st16" d="M1327.9,851.6c12.9,24.8,38,40.4,67,44.7c13.8,2,27.4-0.9,39.8-6.5c-1.4,0.2-36.5,4.5-50.5-20.5
				c-14.3-25.6-29.7-66.2-51-52.6C1324,822.5,1324.4,837,1327.9,851.6z"/>
			<path class="st17" d="M1043.5,1589.4c0,0-21.7,19.8-17.4,33.8c4.2,14.1,23.8,23.4,26.4,40.6c2.6,17.2,13.2,26.6,22.7,26.6
				c9.5,0,45.4,0,45.4,0s7-12.1-9.9-15.7c-16.9-3.6-23.3-23.8-22.2-42.6c1.1-18.7-1.6-43.7-1.6-43.7l-36-8.3L1043.5,1589.4z"/>
			<path class="st17" d="M1227,1599.8c0,0-7.8,83.8,1.7,88.5l121.8-0.3c0,0,0-14.1-19.6-17.2c-19.6-3.1-53.9-14.6-59.8-40.1
				C1265.4,1605.3,1227,1599.8,1227,1599.8z"/>
			<path class="st15" d="M1329.3,925.7l-100-6.6l-56.4-3.7c0,0-6.3-40-9.2-58.2c-3.2-20.6-7.2-34.9-9.8-48.3
				c-1.3-6.6-2.3-13-2.7-19.8c-1.8-30.7-18-23.1-18-23.1l51-101.4c75.6-18,133.2,4.8,133.2,4.8s19.8,35.2,32.8,86
				C1363.3,806.1,1329.3,925.7,1329.3,925.7z"/>
			<path class="st16" d="M1244.8,916l-71.9-0.7c0,0-6.3-40-9.2-58.2c-3.2-20.6-7.2-34.9-9.8-48.3l-0.1-2.5c0,0,18.7-26.4,29-23.2
				c10.4,3.2-8.3,51.7,7.3,69C1201.5,864.7,1241.4,875.5,1244.8,916z"/>
			<path class="st18" d="M1326.5,909.9c0,0,35.1,109.3,37.4,146.5c2.3,37.2-67.1,528.7-69.9,545.8c-2.6,16.2-22.7,26.5-22.7,26.5
				s-9.2,5.4-22.4,1.7c-18.3-5.2-24.1-11.3-24.1-11.3s-27.3-350.5-10.4-475.7c16.9-125.2,17.1-233.5,17.1-233.5H1326.5z"/>
			<path class="st19" d="M1177.7,906.7c0,0-53.6,71.9-58.6,120.5c-5,48.6-7.8,219.3-18.5,266.6c-10.6,47.4-49.7,138.5-49.7,286.3
				c0,0,4.1,8.5,16.6,13c4,1.4,9.4,2.8,14.6,4c10.3,2.4,21-2.7,25.7-12.2c26.4-53.2,110.6-224.8,114.9-260.5
				c3.1-25.2,29.6-192.1,87.6-290c13.9-23.5-13.8-81-13.8-81L1177.7,906.7z"/>
			<path class="st13" d="M1220.7,658.8c4.3-11,9.7-39.8,9.6-60.1l3.2,0.6l54,9.8c0,0-1.2,15.6-1.3,30.4c0,0.1,0,0.2,0,0.4
				c-0.1,12.8,0.1,23.1-1.4,26.6C1279.7,678.6,1217.2,667.9,1220.7,658.8z"/>
			<path class="st20" d="M1287.6,609.1c0,0-1.2,15.6-1.3,30.4c-30.2-0.8-46.2-26.1-52.7-40.2L1287.6,609.1z"/>
			<path class="st13" d="M1297.6,625.1c0,0-71.5,1.2-71.5-43.3c0-44.5-9.3-74.4,36.3-77c45.6-2.6,54.5,14.3,58.2,29.2
				C1324.2,548.9,1316.2,623.7,1297.6,625.1z"/>
			<path class="st14" d="M1295,503.7c0,0-19.6,52.2-49.6,60c-30,7.7-43.1-0.3-43.1-0.3s23-18.3,27.8-50.3
				C1230.1,513.1,1280.2,478.8,1295,503.7z"/>
			<path class="st14" d="M1290.1,507.9c0,0,14.5,5.4,20.5,16c5.8,10.4,10.8,24.1,9.7,40.9c0,0,14.7-35.5-1.8-55.6
				C1300.9,487.9,1290.1,507.9,1290.1,507.9z"/>
			<path class="st21" d="M1283.7,598.7c0,0,1.2,5.2,14.3,4.4c0,0,11-0.7,10.6-6.4C1308.6,596.7,1298,592.6,1283.7,598.7z"/>
			<path class="st13" d="M1197,913.2c0,0,59.1-19.7,82.8,15.6c5,7.5-32,11.2-51.8,8.6c-4.7-0.6-38.2-7.4-38.2-7.4L1197,913.2z"/>
			<path class="st15" d="M1184.3,664.5c0,0-40.5,7.3-68.2,60.2c-23.7,45.3-58.3,117.3-58.3,130.7c0,13.4,20.6,54.5,131.3,78.2
				c0,0,11.5-12,10.8-21.6c0,0-69.1-59.4-68.9-66.3c0.4-13.1,11.3-30.4,72-91.1C1219.4,738.1,1184.3,664.5,1184.3,664.5z"/>
			<g>
				<g>
					<path class="st22" d="M1397.5,910.8c-38.8-68.6-187.3-61-191.6-43.2c-4.3,17.8,33.7,35.8,24.4,51.9
						c-16.5,28.4-60.7,8.7-73,32.6c-12.3,23.9,73.9,125,153.7,119C1390.7,1065.4,1436.3,979.5,1397.5,910.8z M1263.2,925.9
						c2.7,5.6-0.9,12.9-8,16.3c-7.1,3.3-15,1.5-17.6-4.2c-2.7-5.7,0.9-12.9,8-16.3C1252.6,918.3,1260.5,920.2,1263.2,925.9z"/>
					<path class="st23" d="M1223.5,1013.8c-3-3.5-6-7.6-5.4-12.2c0.5-4.4,4.4-7.8,8.6-9.1c4.2-1.3,8.8-1,13.2-0.7
						c2.7,0.2,5.4,0.4,8.1,0.6c1.7,0.1,3.5,0.3,5,1.2c1.4,0.8,2.4,2.2,3.3,3.6c0.9,1.3,1.7,2.7,2.1,4.2
						C1263.1,1017.5,1231.6,1023.2,1223.5,1013.8z"/>
					<path class="st5" d="M1382.4,982.5c-4.4,1.4-9.4,2.5-13.3,0.2c-3.8-2.2-5.4-7.1-5-11.5c0.4-4.4,2.5-8.5,4.6-12.4
						c1.3-2.4,2.5-4.8,3.8-7.2c0.8-1.5,1.7-3.1,3.1-4.1c1.3-1,3-1.3,4.6-1.6c1.5-0.3,3.1-0.5,4.7-0.3
						C1401.3,947.5,1394.1,978.7,1382.4,982.5z"/>
					<path class="st24" d="M1277.2,1021.7c3.5-2.6,8-4.1,12.3-3.2c2.2,0.5,4.2,1.6,6.4,2.3c3.6,1.2,7.7,1.4,10.7,3.8
						c3.5,2.8,4.2,7.9,3.9,12.4c-0.2,2.8-0.7,5.6-2,8.1c-3.8,7.6-13.8,10.5-21.9,8.1c-7.3-2.2-13-8-15.7-15.1
						C1268.3,1031.4,1271.6,1026,1277.2,1021.7z"/>
					<path class="st15" d="M1346.5,907c2.7-2.1,6.3-3.2,9.7-2.5c1.7,0.4,3.3,1.3,5,1.8c2.8,0.9,6.1,1.1,8.4,3
						c2.8,2.2,3.3,6.2,3.1,9.8c-0.2,2.2-0.6,4.4-1.6,6.4c-3,6-10.9,8.3-17.3,6.3c-5.8-1.7-10.3-6.3-12.4-11.9
						C1339.4,914.6,1342.1,910.4,1346.5,907z"/>
					<path class="st0" d="M1297.2,884.9c2.7-2.1,6.3-3.2,9.7-2.5c1.7,0.4,3.3,1.3,5,1.8c2.8,0.9,6.1,1.1,8.4,3
						c2.8,2.2,3.3,6.2,3.1,9.8c-0.2,2.2-0.6,4.4-1.6,6.4c-3,6-10.9,8.3-17.3,6.3c-5.8-1.7-10.3-6.3-12.4-11.9
						C1290.2,892.5,1292.8,888.3,1297.2,884.9z"/>
					<path class="st19" d="M1335.1,1030.8c-2.9-3.5-3-8.7-1.3-13c1.7-4.2,5-7.6,8.4-10.7c2.4-2.1,4.8-4.2,7.8-5.5
						c2.9-1.3,6.4-1.6,9.3-0.2c2.9,1.4,4.9,4.7,4.1,7.8c-1,4.2-5.7,7.4-7.7,11.2c-1.9,3.7-1.9,8-3.7,11.6c-1.6,3.2-3.3,5.3-7.2,5.8
						C1339,1038.6,1338.4,1034.7,1335.1,1030.8z"/>
				</g>
			</g>
			<path class="st13" d="M1214.5,909.1c0,0,20.6-4.3,24.5-3.8c6.3,0.9,19.7,3.6,21.3,4.7c1.5,1.1-7.9,7-15.5,6
				c-5.1-0.7-15.9,6.7-19.7,9.1C1221.4,927.6,1214.5,909.1,1214.5,909.1z"/>
		</g>
		<g>
			<path class="st19" d="M1569.8,846l-10.9,11.8l-148.8-139.6c-1.4-1.3-1.5-3.5-0.2-5l0,0c1.1-1.2,3-1.3,4.3-0.3L1569.8,846z"/>
			<polygon class="st15" points="1558.9,857.8 1569.8,846 1556,834.2 1546.3,846 			"/>
			<path class="st14" d="M1569.8,846c0,0,8.5-5,23.2,5.2c14.8,10.2,25.3,6.7,25.3,6.7s-12.6,11.9-27.8,13
				c-15.1,1.1-26.4-0.3-31.7-13L1569.8,846z"/>
		</g>
		<path class="st13" d="M1507.4,819.5c0,0,0.7-0.1,1.9-0.2c6.9-0.9,30.3-3.7,34.1-4.6c4.6-1-2.7,6.9-10.6,9.2
			c-7.8,2.2-2.8,8.6-11.5,7.8C1512.7,830.8,1507.4,819.5,1507.4,819.5z"/>
	</g>
	<g>
		<polygon class="st25" points="2045.7,1183.9 1544.9,1183.9 1623.4,543.9 2124.3,543.9 		"/>
		<polygon class="st26" points="2068.3,1183.9 1567.4,1183.9 1646,543.9 2146.8,543.9 		"/>
		<polygon class="st27" points="2042.9,1150.8 1600.8,1150.8 1671.6,574.3 2113.7,574.3 		"/>
		<polygon class="st26" points="2084.3,880.1 1626.4,880.1 1630.4,847.8 2088.2,847.8 		"/>
		<polygon class="st28" points="1634.3,639.3 1646,543.9 1741.3,543.9 		"/>
		<polygon class="st28" points="2135.1,639.3 2146.8,543.9 2051.5,543.9 		"/>
		<polygon class="st28" points="1662.7,1184 1567.4,1184 1579.1,1088.7 		"/>
		<polygon class="st28" points="1972.9,1184 2068.2,1184 2080,1088.7 		"/>
	</g>
	<g>
		<g>
			<g>
				<path class="st14" d="M1628.2,1686.9L1628.2,1686.9c-3.7,0-6.4-3.4-5.6-7l199-922.3c1-4.8,5.3-8.3,10.2-8.3h6.2
					c5,0,8.6,4.6,7.5,9.4L1635,1681.5C1634.3,1684.7,1631.5,1686.9,1628.2,1686.9z"/>
			</g>
			<g>
				<path class="st14" d="M1923.3,1688.4L1923.3,1688.4c-3.5-0.1-6.3-2.9-6.3-6.4l3.3-922.9c0-4.4,3.6-7.8,8-7.8l5.4,0.1
					c4.5,0,8.1,3.7,8,8.2l-13.1,923.8C1928.6,1686.1,1926.2,1688.4,1923.3,1688.4z"/>
			</g>
			<g>
				<rect x="1704.8" y="1329" class="st14" width="220.3" height="16.8"/>
			</g>
			<g>
				
					<rect x="1859.6" y="469.9" transform="matrix(0.9924 0.1231 -0.1231 0.9924 125.6111 -222.9996)" class="st14" width="16.8" height="870.8"/>
			</g>
			<g>
				<polygon class="st14" points="1930.6,822.1 1809.2,822 1817.6,805.3 1930.6,805.3 				"/>
			</g>
		</g>
		<g>
			<path class="st14" d="M2099.8,1682.8l-231.3-784.1c-0.4-1.2-0.3-2.6,0.2-3.8l4.7-11.9c2-5.2,9.5-4.9,11.1,0.5l226.6,796
				c1.1,3.7-1.7,7.4-5.6,7.4l0,0C2102.9,1686.9,2100.6,1685.2,2099.8,1682.8z"/>
		</g>
		<path class="st14" d="M2037.8,1197.1h-484.6c-2.4,0-4.4-2-4.4-4.4l0,0c0-7.1,5.7-12.8,12.8-12.8h481.1c3.3,0,6,2.7,6,6v0.3
			C2048.7,1192.2,2043.8,1197.1,2037.8,1197.1z"/>
		<g>
			<rect x="1869.9" y="531.2" class="st14" width="90.2" height="12.7"/>
		</g>
	</g>
	<path class="st29" d="M2871.7,1693.9H355.9c-1.6,0-2.9-1.3-2.9-2.9v-1.1c0-1.6,1.3-2.9,2.9-2.9h2515.7c1.6,0,2.9,1.3,2.9,2.9v1.1
		C2874.6,1692.6,2873.3,1693.9,2871.7,1693.9z"/>
</g>
</svg>
