<?xml version="1.0" encoding="utf-8"?>
<!-- Generator: Adobe Illustrator 19.0.0, SVG Export Plug-In . SVG Version: 6.00 Build 0)  -->
<svg version="1.1" id="_x3C_Layer_x3E_" xmlns="http://www.w3.org/2000/svg" xmlns:xlink="http://www.w3.org/1999/xlink" x="0px"
	 y="0px" viewBox="0 0 2760 1840" style="enable-background:new 0 0 2760 1840;" xml:space="preserve">
<style type="text/css">
	.st0{fill:#D2E0FF;}
	.st1{fill:#8C9DF4;}
	.st2{fill:#BBD0FF;}
	.st3{fill:#1C468A;}
	.st4{fill:#EBF3FA;}
	.st5{fill:#7C9AF2;}
	.st6{fill:#D66741;}
	.st7{fill:#F77D48;}
	.st8{fill:#FFA561;}
	.st9{fill:#E9F3FF;}
	.st10{fill:#243F66;}
	.st11{fill:#E28140;}
	.st12{fill:#FFB27D;}
	.st13{fill:#ED975D;}
	.st14{fill:#163560;}
	.st15{fill:#FFFFFF;}
	.st16{fill:#6980E2;}
	.st17{fill:#4C62BF;}
	.st18{fill:#ED985F;}
	.st19{fill:#233862;}
	.st20{fill:#2B478B;}
	.st21{opacity:0.5;fill:#E28140;}
	.st22{fill:#ED8D4C;}
	.st23{fill:#A8D29F;}
</style>
<g>
	<path class="st0" d="M292.1,1607.5l-0.2-0.4c0,0-0.2-0.4-0.2-0.6c-0.8-1.7-324-476.9,178.4-807.7c196.6-129.4-12.3-214.9,144-359
		c179.7-165.6,375.7,17.6,575.5-57.5c35.3-13.3,70.7-34.6,106.2-67.3c35.1-32.3,75.6-57.2,119.7-75.8c60.1-25.3,125.4-38.5,191.9-43
		c223.2-15,474.4,69.4,604.1,192.6c26.1,24.8,144.8,153.3,51.2,329.8c-59.1,111.5,188.4,217.9,276.3,345.2
		c149,215.7,101,384.7,51.7,474.8c-6.3,11.5-12.5,21.6-18.4,30.4c-17.3,25.9-31.4,40.3-31.9,41.3
		C2540.4,1610.5,292.7,1609.2,292.1,1607.5z"/>
	<path class="st1" d="M1840.6,838.2c0,0,53.6-227.1,234.3-252c0,0,35.2-4.3,46.9,34.4c11.7,38.7-58.2,39-101.4,54.6
		C1977.1,690.7,1876.4,756.7,1840.6,838.2z"/>
	<path class="st1" d="M1836.5,795.7c0,0-18.8-188.1,113.1-254.8c0,0,25.8-12.6,45,14c19.2,26.6-34.3,45.2-63.3,68.5
		C1902.2,646.7,1842.4,723.9,1836.5,795.7z"/>
	<path class="st2" d="M1687.8,816.8c0,0,128-36.3,95.8-134.7c0,0-29.6-62.8-71.5-87.1c0,0-6.4,133.7-31.3,131
		c-24.8-2.7,17.9-148.5,17.9-148.5s-105.3-85.6-153-92.2c0,0,44,142.6,20.6,133.8c-23.4-8.8-76-155-76-155s-116.6-51.7-153.4,15.9
		c-36.8,67.6-13.8,111.3,3.2,120.1c17,8.8,133.3,35,126.7,49.3c-6.6,14.3-90.6,19.7-131.1-4.2c0,0,19.8,130.4,84.5,139.5
		c64.7,9.1,93.6-25.4,133.4-19.1c39.9,6.3,66,23.7,43.9,29.6c-22.1,5.9-86.6-17-124.7,2.3c-38,19.3-67.6,29.8-11.7,55.8
		c55.8,26.1,163,43.7,194.9,3.5C1687.8,816.8,1687.8,816.8,1687.8,816.8z"/>
	<g>
		<path class="st2" d="M1387.3,516c0,0,291.7,177.8,300.5,300.9c0,0-13.7,50.8,3.9,117.1l-5.4,22.6c0,0-14.8-84.7-30.3-99.5
			C1656,856.9,1750.4,774.5,1387.3,516z"/>
		<path class="st2" d="M1691.7,933.9c0,0,31.1,85.7-18.2,169.2l-11.7-6.4c0,0,35.9-96.4,22.3-152.4
			C1670.4,888.3,1691.7,933.9,1691.7,933.9z"/>
	</g>
	<path class="st1" d="M708.2,1190.8c0,0,42.9-115.8-46.8-138.4c0,0-62.1-7.5-102.7,13c0,0,94.6,69.3,79.2,87
		c-15.5,17.7-99.2-85.2-99.2-85.2s-120,39.7-150.8,73.2c0,0,128.5,34.8,109.4,48.6c-19.1,13.7-155-16.2-155-16.2
		s-101.2,64.7-71.6,125.5c29.6,60.8,74.2,64.1,89.9,55.3c15.7-8.8,98-85.5,105-73.6c6.9,12-34.7,79.1-74.3,98.6
		c0,0,106.5,47.5,148.3,2.2c41.8-45.3,32.2-84.1,58.5-111.7s53.2-39.3,45.5-19.5c-7.7,19.8-59.5,58.4-66,96.9
		c-6.5,38.5-14.8,66.2,34.6,35.9c49.4-30.4,120.6-104.2,108.4-148C708.2,1190.8,708.2,1190.8,708.2,1190.8z"/>
	<g>
		<path class="st1" d="M324.2,1276.9c0,0,288.9-138.5,384-86.1c0,0,31.5,39,12.2,43.8C720.4,1234.6,711.2,1122.3,324.2,1276.9z"/>
	</g>
	<rect x="599.7" y="716.4" class="st3" width="1524.8" height="890.7"/>
	<path class="st4" d="M1373.1,1610.3V743.6c0,0-188.3-90.4-437.1-25.3c-248.8,65.1-293.8,25.3-293.8,25.3v863.5L1373.1,1610.3z"/>
	<path class="st4" d="M1370.8,1610.3V743.6c0,0,188.3-90.4,437.1-25.3c248.8,65.1,293.8,25.3,293.8,25.3v863.5L1370.8,1610.3z"/>
	<polygon class="st5" points="1633.7,898.3 1649,900.3 1638.1,911.3 1640.9,926.4 1627.2,919.5 1613.6,926.9 1616,911.6 1604.8,901 
		1620,898.5 1626.6,884.6 	"/>
	<polygon class="st5" points="1693.1,898.3 1708.4,900.3 1697.5,911.3 1700.4,926.4 1686.6,919.5 1673,926.9 1675.4,911.6 
		1664.2,901 1679.4,898.5 1686.1,884.6 	"/>
	<polygon class="st5" points="1752.6,898.3 1767.9,900.3 1757,911.3 1759.8,926.4 1746,919.5 1732.5,926.9 1734.9,911.6 1723.6,901 
		1738.9,898.5 1745.5,884.6 	"/>
	<polygon class="st5" points="1812,898.3 1827.3,900.3 1816.4,911.3 1819.3,926.4 1805.5,919.5 1791.9,926.9 1794.3,911.6 
		1783.1,901 1798.3,898.5 1805,884.6 	"/>
	<polygon class="st5" points="1871.4,898.3 1886.8,900.3 1875.9,911.3 1878.7,926.4 1864.9,919.5 1851.3,926.9 1853.7,911.6 
		1842.5,901 1857.8,898.5 1864.4,884.6 	"/>
	<polygon class="st5" points="1633.7,1234.5 1649,1236.5 1638.1,1247.4 1640.9,1262.6 1627.2,1255.6 1613.6,1263 1616,1247.7 
		1604.8,1237.1 1620,1234.7 1626.6,1220.7 	"/>
	<polygon class="st5" points="1693.1,1234.5 1708.4,1236.5 1697.5,1247.4 1700.4,1262.6 1686.6,1255.6 1673,1263 1675.4,1247.7 
		1664.2,1237.1 1679.4,1234.7 1686.1,1220.7 	"/>
	<polygon class="st5" points="1752.6,1234.5 1767.9,1236.5 1757,1247.4 1759.8,1262.6 1746,1255.6 1732.5,1263 1734.9,1247.7 
		1723.6,1237.1 1738.9,1234.7 1745.5,1220.7 	"/>
	<polygon class="st5" points="1812,1234.5 1827.3,1236.5 1816.4,1247.4 1819.3,1262.6 1805.5,1255.6 1791.9,1263 1794.3,1247.7 
		1783.1,1237.1 1798.3,1234.7 1805,1220.7 	"/>
	<polygon class="st5" points="1871.4,1234.5 1886.8,1236.5 1875.9,1247.4 1878.7,1262.6 1864.9,1255.6 1851.3,1263 1853.7,1247.7 
		1842.5,1237.1 1857.8,1234.7 1864.4,1220.7 	"/>
	<rect x="1599.5" y="980.3" class="st5" width="292.6" height="10"/>
	<g>
		<rect x="1558.4" y="1060.7" class="st5" width="119.9" height="10"/>
		<rect x="1704.7" y="1060.7" class="st5" width="95.3" height="10"/>
		<rect x="1816.8" y="1060.7" class="st5" width="116.3" height="10"/>
	</g>
	<g>
		<rect x="1539.5" y="1020.5" class="st5" width="187.9" height="10"/>
		<rect x="1764.1" y="1020.5" class="st5" width="187.9" height="10"/>
	</g>
	<rect x="1599.5" y="1098" class="st5" width="292.6" height="10"/>
	<g>
		<rect x="1558.4" y="1312.5" class="st5" width="119.9" height="10"/>
		<rect x="1704.7" y="1312.5" class="st5" width="95.3" height="10"/>
		<rect x="1816.8" y="1312.5" class="st5" width="116.3" height="10"/>
	</g>
	<rect x="1599.5" y="1349.8" class="st5" width="292.6" height="10"/>
	<g>
		<rect x="1558.4" y="1427.3" class="st5" width="119.9" height="10"/>
		<rect x="1704.7" y="1427.3" class="st5" width="95.3" height="10"/>
		<rect x="1816.8" y="1427.3" class="st5" width="116.3" height="10"/>
	</g>
	<g>
		<rect x="1539.5" y="1387.2" class="st5" width="187.9" height="10"/>
		<rect x="1764.1" y="1387.2" class="st5" width="187.9" height="10"/>
	</g>
	<polygon class="st5" points="895.6,1182.3 910.9,1184.3 900,1195.2 902.8,1210.4 889,1203.4 875.5,1210.8 877.9,1195.6 866.6,1185 
		881.9,1182.5 888.5,1168.6 	"/>
	<polygon class="st5" points="955,1182.3 970.3,1184.3 959.4,1195.2 962.3,1210.4 948.5,1203.4 934.9,1210.8 937.3,1195.6 
		926.1,1185 941.3,1182.5 948,1168.6 	"/>
	<polygon class="st5" points="1014.4,1182.3 1029.8,1184.3 1018.9,1195.2 1021.7,1210.4 1007.9,1203.4 994.4,1210.8 996.7,1195.6 
		985.5,1185 1000.8,1182.5 1007.4,1168.6 	"/>
	<polygon class="st5" points="1073.9,1182.3 1089.2,1184.3 1078.3,1195.2 1081.1,1210.4 1067.4,1203.4 1053.8,1210.8 1056.2,1195.6 
		1045,1185 1060.2,1182.5 1066.8,1168.6 	"/>
	<polygon class="st5" points="1133.3,1182.3 1148.6,1184.3 1137.7,1195.2 1140.6,1210.4 1126.8,1203.4 1113.2,1210.8 1115.6,1195.6 
		1104.4,1185 1119.6,1182.5 1126.3,1168.6 	"/>
	<path class="st6" d="M840.4,665.3c0,0,40.1,2.3,42.9,51.1h-90.9l11.5-41.1L840.4,665.3z"/>
	<g>
		<rect x="869.2" y="1275" class="st5" width="88.6" height="10"/>
		<rect x="977.3" y="1275" class="st5" width="70.4" height="10"/>
		<rect x="1060.1" y="1275" class="st5" width="86" height="10"/>
	</g>
	<rect x="899.5" y="1312.3" class="st5" width="216.2" height="10"/>
	<g>
		<rect x="869.2" y="1389.8" class="st5" width="88.6" height="10"/>
		<rect x="977.3" y="1389.8" class="st5" width="70.4" height="10"/>
		<rect x="1060.1" y="1389.8" class="st5" width="86" height="10"/>
	</g>
	<g>
		<rect x="855.2" y="1349.6" class="st5" width="138.8" height="10"/>
		<rect x="1021.2" y="1349.6" class="st5" width="138.8" height="10"/>
	</g>
	<g>
		<rect x="843.6" y="1436.2" class="st5" width="105" height="10"/>
		<rect x="971.7" y="1436.2" class="st5" width="83.4" height="10"/>
		<rect x="1069.8" y="1436.2" class="st5" width="101.8" height="10"/>
	</g>
	<rect x="879.6" y="1473.6" class="st5" width="256.2" height="10"/>
	<path class="st7" d="M840.4,665.3c0,0-74.6-11.4-97.6,29.5c-23,40.9,15.8,159.3-17.2,232.1c0,0,27.9-0.6,37.2-7.6l3.5,27.4
		c0,0,31.3-13.4,40.2-49.8c8.9-36.4-3.8-183.7,4.5-204.8C819.3,671.1,840.4,665.3,840.4,665.3z"/>
	<g>
		<path class="st8" d="M1392.4,1035.7c0,0-64.7-120-176.1-147.1c-111.4-27.1-135.7,62.9-240.4,23.5
			c-104.7-39.4-179.8,33-139.6,118.8c40.2,85.8,115.9,125.6,228,73.9c112.1-51.7,94.1,39.4,181.8,8.7
			C1333.8,1082.9,1322.5,996,1392.4,1035.7z"/>
		<path class="st9" d="M1102.8,963.7c-4.3-15.8,4.1-32.1,21.2-36.7c10.5-2.9,17.5-0.5,24,3.2l-5,10.4c-5.4-2.7-9.6-4-16-2.3
			c-9.4,2.6-14,12.2-11.4,21.9c2.6,9.6,11.4,15.7,20.9,13.1c6.4-1.7,9.6-5.3,12.9-10.5l10.1,6.2c-4.1,7.7-9.5,12.8-20.3,15.7
			C1122.8,989.2,1107.2,979.9,1102.8,963.7z"/>
		<path class="st9" d="M898.6,1033.2c-5.5,2.3-11.7,3-18.2,1.8c-17.9-3.3-28.4-19-25.3-35.7c3-16.5,18.5-27.7,36.5-24.4
			c17.9,3.3,28.4,19,25.3,35.7c-1.1,6.1-4,11.5-8.2,15.8l5.1,6.2l-9.8,7.6L898.6,1033.2z M890.7,1023.1l-8-9.8l9.8-7.7l8,10.4
			c1.5-2.2,2.5-4.8,3.1-7.9c1.8-10-4-19.6-14.3-21.5c-10.3-1.9-18.9,5-20.8,15.1c-1.8,10,4,19.6,14.3,21.5
			C885.6,1023.8,888.3,1023.7,890.7,1023.1z"/>
		<path class="st9" d="M934.5,1027.9l26.3-2c7.3-0.6,13.1,1.1,17.2,4.6c3.5,3,5.5,7.4,5.9,12.9c0.7,9.3-3.9,15.5-11,18.8l15.6,19.5
			l-14.8,1.1l-13.9-17.5l-9.8,0.7l1.4,18.4l-12.7,1L934.5,1027.9z M962.1,1054c6.2-0.5,9.5-4,9.1-9c-0.4-5.4-4.4-7.9-10.6-7.5
			l-12.6,1l1.3,16.5L962.1,1054z"/>
		<path class="st3" d="M935.1,948.3l9.8,2.9l0.2,30.6l17.6-25.4l7.8,2.3l0.9,30.9l16.9-25.5l9.5,2.8l-26.5,37.5l-7.9-2.4l-1.3-29.8
			l-17.4,24.3l-7.9-2.4L935.1,948.3z"/>
		<path class="st9" d="M1207.5,1035.3l9.3-4.2l20.2,23l-3.3-30.7l7.4-3.4l20.9,22.8l-3.9-30.3l9-4.1l4.5,45.7l-7.5,3.4l-20.5-21.7
			l2.7,29.8l-7.5,3.4L1207.5,1035.3z"/>
		<path class="st3" d="M1094.2,1024.4c-4-10,0.7-21.4,11.5-25.7c10.9-4.3,21.9,0.7,25.9,10.8c4,10-0.7,21.4-11.5,25.7
			C1109.3,1039.6,1098.2,1034.5,1094.2,1024.4z M1123.6,1012.8c-2.4-6-8.8-9.3-15.1-6.8c-6.2,2.5-8.6,9.1-6.2,15.3
			c2.4,6,8.8,9.3,15.1,6.8C1123.6,1025.6,1126,1018.9,1123.6,1012.8z"/>
		<path class="st9" d="M1155,995.7l12.4,3.3l-5.9,22.2l22.8,6.1l5.9-22.2l12.4,3.3l-14.9,56.2l-12.4-3.3l6-22.6l-22.8-6.1l-6,22.6
			l-12.4-3.3L1155,995.7z"/>
		<path class="st9" d="M1013.8,1008.4l-17.6,0.5l-0.4-11.7l47.8-1.5l0.4,11.7l-17.6,0.5l1.4,46l-12.7,0.4L1013.8,1008.4z"/>
		<path class="st9" d="M1025.2,947.4l10.7-4.9l25.7,25.8l-2.7-36.3l10.5-4.8l2.5,52.6l-8.6,3.9L1025.2,947.4z"/>
		<path class="st9" d="M1171.3,958.3l18.5-10.9l2.8,4.8l-13.2,7.7l2.9,5l11.6-6.8l2.8,4.8l-11.6,6.8l3,5.2l13.3-7.9l2.8,4.8
			l-18.7,11L1171.3,958.3z"/>
		<path class="st3" d="M1051.3,1064.6l-5.1-40l13.1,6.1l2.5,26.1l21.9-14.6l12.7,6l-33.9,21.4l-9.5,20.3l-11.2-5.3L1051.3,1064.6z"
			/>
		<path class="st3" d="M1240.2,935.6l40.6,18.9l-5,10.7l-28.9-13.4l-5.3,11.3l25.4,11.8l-5,10.7l-25.4-11.8l-9.6,20.6l-11.7-5.5
			L1240.2,935.6z"/>
	</g>
	<g>
		<path class="st10" d="M1376.3,1609.8h70.5c5-3.4-1.4-36.9-1.4-36.9s-19.2-7.3-22.5,7.5c-3.3,14.8-24.5,19.5-35.7,21.3
			C1379.5,1603.1,1377.1,1607.3,1376.3,1609.8z"/>
		<path class="st8" d="M1388,1238.3l32.9,341.6c0,0,6.9,10.6,28.8,3.5c0,0,16.9-55.2,21.9-118.2c0.1-1,0.2-2.1,0.2-3.1
			c1.7-22.7,3.7-54.4,5.5-85.8c3.4-57.1,6.5-113.3,6.5-113.3L1388,1238.3z"/>
		<path class="st11" d="M1430.4,1303.6c0,0,11.3,76.1,15.2,99.2c8.3,49.2,26,62.3,26,62.3c0.1-1,0.2-2.1,0.2-3.1
			c1.7-22.7,3.7-54.4,5.5-85.8L1430.4,1303.6z"/>
		<path class="st12" d="M1271.4,1147.3c0,0-6.5-7.9-10-9c-3.5-1.1-10.3-6.4-11.2-4.2c-0.9,2.2,4.6,5.5,4.3,8c-0.1,1.1-4.3,1.1-9,1.1
			c-5.9-0.1-13.1-3.3-13.4-1.8c-1,5.3,6.8,14.9,14.9,15.8c6.5,0.7,15.6-0.7,26.4,0.5C1277,1157.9,1271.4,1147.3,1271.4,1147.3z"/>
		<path class="st1" d="M1266.9,1158.9c0.2,0.6,23.6,4.6,43.9,7.4c11.9,1.7,22.8,3,27.2,3c9.5,0.1,27.8-3.1,49.4-12.2
			c12-5.1,25.1-12,38.3-21.1c11.6-8,11.9-14.4,21.6-27.3c29.9-40.1-9.4-57.1-31-49.4c-14.9,5.3-24,14.4-32.1,26.7
			c-9.6,14.5-17.4,30.7-41.3,44.7c-18,10.5-71.6,13.4-71.6,13.4s-3.2,2.3-3.9,6.2C1266.5,1154.6,1266.9,1158.9,1266.9,1158.9z"/>
		<path class="st10" d="M1480.8,1609.8h70.5c5-3.4-1.4-36.9-1.4-36.9s-19.2-7.3-22.5,7.5c-3.3,14.8-24.5,19.5-35.7,21.3
			C1484,1603.1,1481.6,1607.3,1480.8,1609.8z"/>
		<path class="st8" d="M1414.4,1254.8l106.7,326.5c0,0,22.7,6.1,34.3-6.3c0,0-2.7-115.1-17.3-154.4c-11.8-31.8-6.1-203.5-58.3-205
			C1427.7,1214.1,1414.4,1254.8,1414.4,1254.8z"/>
		<path class="st1" d="M1390,1256.8c16.5,8.5,37.8,14.4,73.1,12.1c33.9-2.2,54.6-11.5,53.5-19.6c-0.5-4-1-8.2-1.5-12.5
			c-1.9-18.7-2.7-40.8,1.2-72.7c1-8.3,2.3-17,3.4-24.7v0h0c1.3-9.3,2.3-16.9,2.2-19.8c0,0-10.7-48.2-18.8-55.9
			c-2.9-2.8-7.1-5.1-12.2-6.9c0,0,0,0,0,0c-24.2-8.7-68.7-6.8-88.4,10.3c-2.7,2.3-12.2,18.4-12.4,35.7
			C1389.7,1127.1,1379.3,1251.3,1390,1256.8z"/>
		<path class="st12" d="M1473.8,1055.1c2.4-3.1-4.4-8.8-1.4-31.2c0-0.3-2.2,0.1-5.5,0.9c-10,2.4-30.1,8.1-30.9,8.3c0,0,0,0,0,0
			s-0.2,4.7-1.1,13.2c-0.1,0.7-0.1,1.5-0.2,2.3c-0.1,1-0.2,2-0.3,3.1C1431.9,1068.6,1462.4,1069.4,1473.8,1055.1z"/>
		<path class="st13" d="M1434.8,1046.3c14.9,3.4,37.1-18.6,37.1-18.6c-1.6-1.2-3.3-2.2-5.1-2.9c-10,2.4-30.1,8.1-30.9,8.3
			c0,0,0,0,0,0S1435.7,1037.8,1434.8,1046.3z"/>
		<path class="st12" d="M1429.8,1031.9c0,0,6.1,2.2,13.9,3.3c11.4,1.5,26.4,0.6,31.2-13.2c7.9-23.3,18.1-37.2-5.3-46.7
			c-12.5-5.1-20.5-5.4-26-3.4c-4.7,1.7-7.5,5-9.6,8.3C1429.4,987.3,1420.3,1027.8,1429.8,1031.9z"/>
		<path class="st14" d="M1434.9,960.8c-8.5,7.7-3.7,21.9,7.8,22.7c4.6,0.3,8.4,0.1,11,1.3c5.8,2.6,6.9,12.3,7,15.4
			c0.1,3.1,0.5,5.7,8.4,3.9c1.3-0.3,2.2-0.2,2.9,0.2c3.3,1.9-0.9,11.4-2.2,13.4c0,0-1.8,6.8,2.2,10c0.5,0.4,8.4,3.9,27.5-25.4
			c3-4.6,5.9-14.9,1.2-24.9c-4.6-10-23.6-20.9-40.4-24.7C1450,950.4,1441.3,955,1434.9,960.8z"/>
		<path class="st15" d="M1429.6,1016.9c0,0-0.5,3,6.5,5.4c0,0,5.9,2,7-1.1C1443,1021.2,1438.4,1016.8,1429.6,1016.9z"/>
		<path class="st16" d="M1310.8,1166.3c11.9,1.7,22.8,3,27.2,3c9.5,0.1,27.8-3.1,49.4-12.2c0.9-3.1,1.8-22.3-0.1-23.6
			c-5.7-3.9-17.1,18.3-36.2,24C1334.8,1162.4,1316,1165.5,1310.8,1166.3z"/>
		<path class="st16" d="M1508.9,1238.5c2.7,0.8,4.7,0,6.2-1.6c-1.9-18.7-2.7-40.8,1.2-72.7c1-8.3,2.3-17,3.4-24.7v0
			c0,0-16-13.7-21.5-2.4c-5.5,11.4,10.2,41.5,1.6,59.5C1491.2,1214.6,1499.3,1235.8,1508.9,1238.5z"/>
		<path class="st12" d="M1532.8,1227.9c0,0-8.6,6.3-10.9,5.9c-6.5-1.1-9.8-6.4-15.9-5.9s-18.8,7.2-17.3,8.8c5.4,5.6,13.6,2.6,17.5,6
			c2.7,2.4,4.3,7.3,14.1,6.3c9.8-1,18.4-9,18.4-9L1532.8,1227.9z"/>
		<path class="st1" d="M1490.9,1056.8c0,0,37.7,10.5,64.6,47.5c26.8,37,35.5,62,25,80.5c-10.6,18.5-31.1,51.2-51.1,65
			c0,0-10-2.1-9.2-17.4c0,0,24.5-52.2,23.6-59.3c-1.6-13.2-36.5-46.5-44.2-53.4C1492,1112.8,1490.9,1056.8,1490.9,1056.8z"/>
		<path class="st12" d="M1517.8,1233c0,0-4.3-6.7-4.9-8.7c-0.6-2-1.6,1-1.2,3c0.4,2-0.1,3.6-0.1,3.6L1517.8,1233z"/>
	</g>
	<g>
		<g>
			<path class="st8" d="M1833.5,461.7l-6-2.6c-6.4-2.8-9.4-10.3-6.6-16.8l22-50.7c2.8-6.4,10.3-9.4,16.8-6.6l8.6,3.8
				c1.3,0.5,1.8,2,1.3,3.3c-0.5,1.3-2,1.8-3.3,1.3l-8.6-3.8c-3.9-1.7-8.5,0.1-10.2,4l-22,50.6c-1.7,3.9,0.1,8.5,4,10.2l6,2.6
				c3.9,1.7,8.5-0.1,10.2-4l14.6-33.6c0.5-1.3,2-1.8,3.3-1.3c1.3,0.5,1.8,2,1.3,3.3l-14.6,33.6
				C1847.5,461.5,1840,464.5,1833.5,461.7z"/>
		</g>
		<g>
			<path class="st8" d="M1813.6,514.6l-10.8-4.7c-10-4.4-14.4-16.7-9.7-27.4l33.1-76.1c0.5-1.3,2-1.8,3.3-1.3c1.3,0.5,1.8,2,1.3,3.3
				l-33.1,76.1c-3.6,8.2-0.4,17.6,7.1,20.9l10.8,4.7c7.5,3.3,16.6-0.8,20.1-9l37.7-86.7c3.6-8.2,0.4-17.6-7.1-20.9
				c-1.3-0.5-1.8-2-1.3-3.3c0.5-1.3,2-1.8,3.3-1.3c10,4.4,14.4,16.7,9.7,27.4l-37.7,86.7C1835.6,513.7,1823.7,518.9,1813.6,514.6z"
				/>
		</g>
	</g>
	<g>
		<path class="st1" d="M460.4,982.1l3.2-5.7c3.4-6.1,11.2-8.3,17.4-4.9l48.2,27c6.1,3.4,8.3,11.2,4.9,17.3l-4.6,8.2
			c-0.7,1.2-2.2,1.6-3.4,1c-1.2-0.7-1.6-2.2-1-3.4l4.6-8.2c2.1-3.7,0.8-8.5-3-10.6l-48.2-27c-3.7-2.1-8.5-0.8-10.6,3l-3.2,5.7
			c-2.1,3.7-0.8,8.5,3,10.6l32,17.9c1.2,0.7,1.6,2.2,1,3.4c-0.7,1.2-2.2,1.6-3.4,1l-32-17.9C459.2,996,457,988.2,460.4,982.1z"/>
	</g>
	<g>
		<path class="st1" d="M409.8,956.9l5.8-10.3c5.4-9.6,18.1-12.7,28.3-6.9l72.4,40.6c1.2,0.7,1.6,2.2,1,3.4c-0.7,1.2-2.2,1.6-3.4,1
			l-72.4-40.6c-7.8-4.4-17.5-2.2-21.5,5l-5.8,10.3c-4,7.2-0.9,16.6,6.9,21l82.5,46.3c7.8,4.4,17.5,2.2,21.5-5c0.7-1.2,2.2-1.6,3.4-1
			c1.2,0.7,1.6,2.2,1,3.4c-5.4,9.6-18.1,12.7-28.3,6.9l-82.5-46.3C408.4,978.9,404.4,966.5,409.8,956.9z"/>
	</g>
	<g id="girl_2_1_">
		<path class="st17" d="M624.4,1238.6c0,0-25.5-5.1-53.9,26.5c-19.7,21.9,10.9,34-19.5,64.2c-35.7,35.5-26.6,82.5,3.3,87.2
			c26,4.1,70-31.8,86.6-32.8c34.1-1.9,51.2-23.8,19.1-58.1c-9.6-10.3,5.7-27.3,2.6-51.5C660.3,1257.5,648.7,1239.3,624.4,1238.6z"/>
		<path class="st18" d="M646.9,1355.9c0,0,65,28.3,77.9,27.8c13-0.6,92.9-24.3,92.9-24.3l-2,13.7c0,0-61.7,35.5-83.2,37.5
			c-21.2,2-93.8-19-100.8-23.5C624.6,1382.6,626.5,1360.4,646.9,1355.9z"/>
		<path class="st12" d="M649.1,1387.1c-6.3,4.4-14.1,7.9-24,10.2c-37,8.6-51.2-22.7-56.5-44.2c5-2.9,9.8-3.5,12.5-3.9
			c2.7-0.3,5.5-0.5,7.8-0.6c4.2-3.2,10.4-16.2,11.7-36.4l1.7,0.5l29.2,8c0,0-1.3,9.3-2,18c-0.5,6.9-0.6,13.4,0.7,15
			c2.3,0.5,3.6,0.8,3.6,0.8s0,0,0,0C634.3,1355.2,642.8,1369.1,649.1,1387.1z"/>
		<path class="st18" d="M631.5,1320.6c0,0-1.3,9.3-2,18c-16.5-1.7-24.2-17.4-27.2-26L631.5,1320.6z"/>
		<path class="st12" d="M636.5,1329.3c0,0-39.2-2.2-37.5-26.6c1.7-24.4-2.2-41.1,22.9-40.8c25.1,0.4,29.3,10,30.7,18.3
			C654,1288.6,646.7,1329.3,636.5,1329.3z"/>
		<path class="st17" d="M652.4,1266.6c-5.5-7.8-10.2-6.5-12.9-4.5c-20.6-13.3-35.6,3.1-35.6,3.1c-3.9,17.3-17.2,26.5-17.2,26.5
			s6.8,4.9,23.6,1.9c5.1-0.9,9.9-4.2,14-8.2c-7.5,10.7-17.1,18.1-17.1,18.1c20.3-7.7,30.2-34.5,31.2-37.3c2.2,2.3,6.6,7.3,7.7,12
			c1.5,6.4,8,16.3,11.8,16.1C657.8,1294.3,660.7,1278.3,652.4,1266.6z"/>
		<path class="st1" d="M557.4,1466.9c-3.5-18.1-15.1-90.5-3.5-113.8c4.1-8.4,20.4-9.1,38.3-8.4c5.6,3.6,26.7,17.1,35.4,15.5
			c0.1,0,0.3-0.1,0.5-0.1c4.1-1,5.6-3.9,2.2-6.4c0,0,8.8-0.9,19.8,1.2c6.2,1.2,22.9,9.8,22.9,9.8s-8.4,15.2-20.9,20.5
			c2.1,18.9-1,27.2-20.6,70.9c-16.6,36.9,2.2,70.1,2.2,70.1s-97.6,78.4-98.1,38.5C535.3,1534.7,561.9,1490,557.4,1466.9z"/>
		<path class="st11" d="M638.6,1611.6c5.3-0.6,10.1-3.5,13-7.9c0.5-0.7,1-1.5,1.5-2.3c11.1-16.8,15.4-68.3,40.4-123.1
			c6.1-13.4,27.9-15.8,33.9-30.8c0,0,14.7-48.9-28.1-50.4c-42.7-1.4-114.4,136.1-115.5,150.6
			C582.8,1561.5,555.6,1620.9,638.6,1611.6z"/>
		<path class="st19" d="M808.4,1610.4h-60.8c0,0-2.3-9.7,1.7-16.3c3.5-5.8,2.2-9.2-0.4-14c2.8,1.1,6.3,2.2,10.2,1.9
			c3-0.2,6.2-1.5,9-3.2c2.6,3,13.8,15.7,17.3,18.2C789.4,1600,807.1,1598.9,808.4,1610.4z"/>
		<path class="st16" d="M563.8,1372.1c0,0-7.9,72,43.4,87.1c51.3,15.1,65.9-66.2,24.5-72.1C590.2,1381.2,563.8,1372.1,563.8,1372.1z
			"/>
		<path class="st11" d="M728.8,1411.1c3.7,27.4,18,114.1,43.2,156.3c8.1,13.6-20.5,21.3-20.6,21.2c-3.8-1-10.2-7.1-13.2-9.8
			c-20.5-18.5-62-70.7-62-112.6c0-20.4-0.4-59.4,14.5-69.3C699.8,1390.9,727.4,1400.2,728.8,1411.1z"/>
		<path class="st8" d="M602.4,1610.4c0,0,2.3-3.1,6.2-9.1c4.7-7.1,9.8-21,16.1-38.9c6.6-18.8,14.4-41.8,24.2-65.8
			c3-7.4,6.2-14.9,9.6-22.4c6.1-13.4,22.8-11.5,28.8-26.6c0,0,23.2-52.3-19.5-53.8c-42.7-1.4-123.9,140-128.5,153.7
			C534.1,1562.5,509.2,1624.8,602.4,1610.4z"/>
		<path class="st20" d="M763.7,1610.4H703c0,0-2.3-9.7,1.7-16.3c3.5-5.8,2.2-9.2-0.4-14c2.8,1.1,6.3,2.2,10.2,1.9
			c3-0.2,6.2-1.5,9-3.2c2.6,3,13.8,15.7,17.3,18.2C744.8,1600,762.5,1598.9,763.7,1610.4z"/>
		<path class="st21" d="M624.7,1562.5c6.6-18.8,14.4-41.8,24.2-65.8c-2.6-18.2-8.1-34.1-17.3-40.5
			C631.5,1456.1,609.1,1525.7,624.7,1562.5z"/>
		<path class="st8" d="M693.4,1409.2c3.7,27.4,8.8,116,34,158.3c8.1,13.6-20.5,21.3-20.6,21.2c-3.8-1-10.2-7.1-13.2-9.8
			c-20.5-18.5-62-70.7-62-112.6c0-20.4,24-57.8,38.8-67.7C679.5,1392.5,691.9,1398.3,693.4,1409.2z"/>
		<path class="st15" d="M643.8,1315.3c0,0-3.7-1.5-14.1-0.6c0,0,0.6,4.1,8.3,4.5C642.3,1319.4,643.8,1315.3,643.8,1315.3z"/>
		<polygon class="st14" points="825.3,1330.6 812.7,1307.8 785.4,1383.9 801.5,1401.2 		"/>
		<polygon class="st3" points="759.5,1343.9 734.2,1416.3 801.5,1401.2 825.3,1330.6 		"/>
		<polygon class="st15" points="765.6,1342.7 822.1,1328.1 823.7,1330.9 765.6,1342.7 		"/>
		<polygon class="st15" points="823,1329.9 811.7,1309 801.4,1334.4 822.2,1329.6 		"/>
		<path class="st12" d="M779,1354.4c-2.2-0.4-6.9-2.2-11.7-3.5c1.4-1.1,3-2.5,3.4-3.8c0.8-2.7,1.4-3.5-1.4-2.7
			c-2.8,0.8-12.7,5.4-12.7,5.4s0,0,0,0c-5.6,1.6-10.8,9.6-10.8,9.6s-69.7,24.5-78,24.9c-13,0.7-99.3-31.1-99.3-31.1
			c-20.4,4.5-15.8,29.5-8.8,34c7,4.4,69.1,27,105.9,27.5c18.6,0.2,86.4-43.4,86.4-43.4s7.9-3.6,14.2-2.5c6.2,1.1,20.7,0,23.8-5.1
			C793.1,1358.5,782.6,1355.1,779,1354.4z"/>
		<path class="st1" d="M613,1368.8c0,0-7.7,24.4-34.2,30c0,0-43.8-13.5-22-43.3C556.8,1355.5,578.3,1339.5,613,1368.8z"/>
		<path class="st12" d="M824.2,1356.2L824.2,1356.2c0-0.7-0.1-1.3-0.2-2c0,0-6.2-9.9-8.3-10.3c-6.2-1.2-6.2,7-4.9,12.3
			c0.9,3.7,3.3,7.2,5.2,9.1l0,0l-0.2,7.7C826.2,1367.3,824.2,1356.2,824.2,1356.2z"/>
	</g>
	<g>
		<path class="st8" d="M2151.7,1152.5c22.1-56.3,35.4-97.4,37.9-150.4l-59.1,46.9c0,0,52.2-68.2,64-92.7
			c18.2-37.8,21-75.9,25.4-118.1l-52.1,55.6l42.6-63.1c7.8-11.5,12.2-24.9,12.8-38.7c0.4-10.2,0.6-20.4,0.6-30.3
			c0,0-85.1,76.1-155.3,182.5l20.2,55.6l-29.9-40.5c-20.4,32.6-39.1,67.6-53.4,104c-0.8,1.9-1.4,3.8-2.1,5.7
			c15.3,37.8,41.1,103.2,32.7,95.1c-7.2-6.9-28.2-36.6-44.1-60.3c-37.4,135.2,29.9,195,29.9,195s37.7-4.9,68.4-30.7
			c15.4-13,61.7-66.2,61.7-66.2h-36.4C2115.4,1201.8,2140.9,1180.1,2151.7,1152.5z"/>
		<path class="st3" d="M1985.1,1466.5l-40.2,63.7c1-4,120-421.8,187.6-587.1l23.4-39C2088.6,1068.5,1986.1,1462.5,1985.1,1466.5
			L1985.1,1466.5z"/>
	</g>
	<path class="st2" d="M2411.9,1221.2c-25.9-25.9-45.4-43.3-74.2-57.5l11.6,44.2c0,0-25.1-45.5-35.9-58c-16.5-19.3-37-30.1-59.3-42.7
		l18.2,42.4l-24.6-39c-4.5-7.1-10.8-12.8-18.4-16.5c-5.6-2.7-11.1-5.3-16.7-7.7c0,0,21.6,65.7,63.6,130.4l35.8,2.3l-29.7,6.8
		c13.1,19.2,28,38.1,44.7,54.9c0.9,0.9,1.8,1.7,2.6,2.6c24.7,0.7,67.2,2.2,60.7,5c-5.6,2.3-27.2,6.8-44.2,9.8
		c65.9,53.6,115.4,30.8,115.4,30.8s6.4-22.1-0.4-45.4c-3.5-11.7-21.7-50.3-21.7-50.3l-8.8,20.2
		C2430.5,1253.3,2424.6,1233.9,2411.9,1221.2z"/>
	<path class="st1" d="M2545.6,1389.8l25.6,37.7c-2-1.5-204.9-168.9-280.1-246.6l-16-22.4C2350,1235.8,2543.7,1388.3,2545.6,1389.8
		L2545.6,1389.8z"/>
	<g>
		<path class="st16" d="M2026.3,1609.8h-127.7c-20.8,0-37.8-17-37.8-37.8v-68.9c0-5.9,4.8-10.7,10.7-10.7h181.9
			c5.9,0,10.7,4.8,10.7,10.7v68.9C2064.2,1592.8,2047.1,1609.8,2026.3,1609.8z"/>
		<path class="st19" d="M2045.3,1560v8.1c0,16.9-13.9,30.8-30.8,30.8h-104.1c-17,0-30.8-13.9-30.8-30.8v-9c11.3-1.3,42.6-4,81.5,0.6
			C1993.9,1563.5,2027,1561.7,2045.3,1560z"/>
		<rect x="1908.8" y="1476.4" class="st16" width="108.4" height="20.1"/>
		<path class="st16" d="M2022.6,1476.4h-122.8c-2.7,0-4.9-2.2-4.9-4.9l0,0c0-2.7,2.2-4.9,4.9-4.9h122.8c2.7,0,4.9,2.2,4.9,4.9l0,0
			C2027.5,1474.2,2025.3,1476.4,2022.6,1476.4z"/>
	</g>
	<g>
		<g>
			<path class="st12" d="M1207.8,849.5c1.5-0.7-1.6-5.9-5-11.6c-0.2-0.3-0.3-0.6-0.5-0.8c-0.5-0.8-0.9-1.5-1.4-2.3
				c-4.1-6.9-3-10.2-2.1-20.5c0.8-8.4,13-46.8,13-46.8l-17.8-3.1c0,0-5.4,30.6-11.3,35.3c-3.2,2.5-6.7,2.5-9.7,4.4
				c-0.2,0.1-0.4,0.3-0.6,0.4c-0.8,0.5,3.6,9.6,11.3,19.4C1193.3,836.3,1206.8,850,1207.8,849.5z"/>
			<path class="st19" d="M1167.6,808.4c-1.4,1.6-1.6,3.4-0.9,5.2c0,0,0,0,0,0c1.5,3.5,5.6,7.4,10.3,11.3c0.6,0.5,1.2,1,1.6,1.4
				c0.1,0.1,0.3,0.2,0.4,0.3c0.1,0.1,0.2,0.2,0.3,0.3c4.5,4.2,2.8,5.1,11,13.6c9.3,9.7,15.7,9.8,17.5,8.9c1.5-0.7-1.6-5.9-5-11.6
				c-1.8-0.7-10.2-4.1-16.5-12.2c-5.6-7.1-9.3-16.3-13.1-21.6c-0.2,0.1-0.4,0.3-0.6,0.4C1170.7,805.6,1169,806.8,1167.6,808.4z"/>
			<path class="st12" d="M1364.4,790.9c0.3-1.6-5.8-2.2-12.4-3c-0.8-0.1-1.7-0.2-2.5-0.3c-7.4-0.9-12.9-5.7-19.7-9.7
				c-6.4-3.7-16-19-16-19l-17.1,1.4c0,0,9,13.6,12.4,19.5c2,3.5,1.9,8.1,1.7,11.6c-0.1,0.8,9.5,3.2,20.8,3.2
				C1346.5,794.6,1364.1,791.9,1364.4,790.9z"/>
			<path class="st19" d="M1328.7,799.7c8.7-2.1,6.7,0.4,19.1-1c12.4-1.4,16.2-6,16.6-7.9c0.3-1.6-5.8-2.2-12.4-3l-0.1,0.1
				c0,0-7.5,5.3-17.8,5.5c-8.4,0.2-17.4-2.2-23.2-2.1c-0.1,1.9-0.3,3.9,0.1,5.8C1312.1,802.8,1319.9,801.9,1328.7,799.7z"/>
			<path class="st19" d="M1245.6,688.2l-16,42.9l-20.8,56c0,0-5.7,0.5-11.1-1c-5-1.4-10.7-5.2-10.7-5.2s5.8-60.2,16.6-94.7
				c2.8-8.9,5.9-16,9.3-20.1C1229.6,646.4,1245.6,688.2,1245.6,688.2z"/>
			<path class="st20" d="M1229.4,620c-10.5-3.4-40.3,1-70.2,6.8l-6.3-10.3l-64.7-5c0,0-21.3,47.3-9.7,77.5c1.7,4.4,5.1,7.3,10.9,7.4
				c0,0,0.9,0,0.9,0c0,0,38.5,0,51,0c32.2,0,68.1-22.1,72.7-23c7.6-1.5,10.6,13.7,18.2,29.6c7.6,16,71.5,70.7,71.5,70.7
				s9.8,0.1,13.9-1.4c4.4-1.6,6-3.8,6-3.8S1253,627.6,1229.4,620z"/>
			<path class="st19" d="M1150.4,428.2c-8.3-4.4-20.9-4.9-22.9-5.2c-24.5-3.3-39.3,32.3-40.1,43.1c-1.6,19.9-12.1,22.9-26.9,35.4
				c-29.7,25-21,54-4.7,64.8c9.7,6.5,26.9,0,26.9,0c0.2,0.2,47-26.1,70-38.8C1187.1,522.5,1171.5,439.3,1150.4,428.2z"/>
			<path class="st12" d="M1133.2,516.7c0.1,0.1-11.3,4-19,0.6c-7.2-3.2-12.6-15-12.5-15c3.3-0.2,6.9-3,9.6-21.8l1.4,0.5l23.4,8.4
				c0,0-1.7,7.5-2.8,14.7C1132.5,510,1132,515.8,1133.2,516.7z"/>
			<path class="st13" d="M1136.2,489.4c0,0,0,2.7-2,10.2c-13.5-2.4-19.5-11.3-21.4-18.6L1136.2,489.4z"/>
			<path class="st12" d="M1139.7,496.8c0,0-32-4.3-29.1-24.2c3-19.9,0.9-33.9,21.4-32c20.6,1.9,23.4,10.1,24,17
				C1156.7,464.5,1148.1,497.4,1139.7,496.8z"/>
			<path class="st19" d="M1154.9,446.7c0,0-20.5,17.7-34.5,19.1c-14,1.4-19.2-3.1-19.2-3.1s8.2-6.8,13.2-17.8
				c1.5-3.2,4.5-5.5,8.1-5.8C1132.4,438.3,1151.3,437.9,1154.9,446.7z"/>
			<path class="st19" d="M1142.1,445.1c0,0,6.9,6.6,9,11.6c2.1,4.8,2.7,16.1,1,20.6c0,0,10.7-20.8,4.6-30.9
				C1150.4,435.7,1142.1,445.1,1142.1,445.1z"/>
			<path class="st1" d="M1160.2,563.9c-1,64.9-0.3,51.3-7.4,57.5c-1.7,1.5-6.5,2.4-12.8,2.8c-19.9,1.3-54.9-2-56.2-5.6
				c-4.6-12.7-1.3-16.7-5.2-36.1c-0.4-2.1-0.9-4.3-1.5-6.8c-3.2-13.4-6.3-17.9,5-39.4c10.3-19.5,20.9-35.3,21.9-34.7
				c27.1,16.1,29.3,2.6,29.3,2.6S1160.7,532.2,1160.2,563.9z"/>
			<path class="st20" d="M1229.7,731.1l-20.8,56c0,0-5.7,0.5-11.1-1c-5-1.4-10.7-5.2-10.7-5.2s5.8-60.2,16.6-94.7L1229.7,731.1z"/>
			<path class="st1" d="M1133.4,504c0,0,27.9,4.7,31.1,16.7c3.3,12,22.5,82.6,22.5,82.6s-14.2,2.5-20.7-4
				c-6.5-6.5-22.8-60.7-22.8-60.7L1133.4,504z"/>
			<path class="st16" d="M1164,587.8c0,0-2.8-27.1-3.7-27.1c-1,0-2.9,27.1-2.9,27.1H1164z"/>
			<path class="st16" d="M1140,624.1c-19.9,1.3-54.9-2-56.2-5.6c-4.6-12.7-1.3-16.7-5.2-36.1l9.6-27c0,0-1.6,30.1,7.3,38
				c8.9,7.9,36.3,15.3,40.6,21.9C1138.3,618.4,1139.6,621.5,1140,624.1z"/>
			<polygon class="st8" points="1128.1,580 1122.2,639 1170.9,645.6 1202,628 1211.1,574.7 1180.6,591.4 			"/>
			<polygon class="st22" points="1180.6,591.4 1170.9,645.6 1202,628 1211.1,574.7 			"/>
			<path class="st12" d="M1112.7,611.3c0,0,14.6,0.8,17.4,2.6c2.8,1.8,9.7,5.6,7.7,6.6c-2,1-6.3-2.6-6.4-1.1
				c-0.1,1.4,8.9,6.9,12.3,7.9c3.5,1-7.5,4.4-12.9,1.5c-5.1-2.7-6.5-6.1-8.6-7.5s-9.6-2.2-9.6-2.2V611.3z"/>
			<path class="st1" d="M1104.1,501.5c0,0-26.3,1.6-35.5,14.3c-12.8,17.9-38.3,94.2-23.7,104.4c16.4,11.5,74.8,3,74.8,3
				s1.9-9.1-0.8-13.5c-2.7-4.4-46.6-11.5-48.7-13.5c-2-2,25.3-39.5,25.3-45.6C1095.7,544.5,1104.1,501.5,1104.1,501.5z"/>
			<path class="st15" d="M1131.3,580.7l2.1-5c0,0,11.3,4.1,20.5,3.7c9.2-0.5,23.9,3.3,25.4,7.7c0,0,3.3-5.3,10-6.9
				c6.7-1.6,17.5-5.9,17.5-5.9l2.9,1.1l-29.1,16L1131.3,580.7z"/>
		</g>
	</g>
	<path class="st23" d="M324.3,1607.9H386c3.3-3.1-2.3-10.3-8.1-10.7c-2.5-0.2-5.7,0.4-9.4,1.2c-0.8-12.6-5.7-69.3-24-67
		c-20.5,2.6,0,25,5.8,38.2c4.3,9.8,8.8,23.9,10.9,30.6c-1.7,0.4-3.4,0.8-5.2,1.2c-2.7-9.4-12.8-40.8-25.7-39
		c-15.1,2.1-9,14.8,1.7,22.2c7.9,5.5,17.5,13.3,22.1,17.1c-3.9,0.7-7.9,1.2-12.1,1.1C331.5,1602.6,326.3,1606.1,324.3,1607.9z"/>
	<path class="st23" d="M2510.9,1607.9h-62.4c-3.3-3.2,2.3-10.4,8.2-10.9c2.6-0.2,5.8,0.4,9.5,1.3c0.9-12.8,5.8-70.2,24.3-67.9
		c20.8,2.6,0,25.3-5.9,38.7c-4.4,10-8.9,24.2-11,31c1.7,0.4,3.4,0.8,5.2,1.2c2.8-9.5,13-41.3,26-39.5c15.3,2.2,9.2,14.9-1.7,22.5
		c-8,5.6-17.7,13.5-22.4,17.3c3.9,0.7,8,1.2,12.2,1.1C2503.7,1602.5,2508.9,1606,2510.9,1607.9z"/>
	<g>
		<g>
			<path class="st23" d="M2220.9,1530.3c5.1,2.2,23.5,0.4,24.1-1.1s-11.4-16.2-16.6-18.4s-11,0.4-13.1,5.8
				S2215.8,1528.1,2220.9,1530.3z"/>
			<path class="st23" d="M2267.3,1539.4c-2.9,5-4.2,24.2-2.8,25.1c1.4,0.9,17.1-9.2,20-14.1s1.4-11.4-3.4-14.4
				S2270.2,1534.5,2267.3,1539.4z"/>
			<path class="st23" d="M2242.5,1577.1c5.3,1.8,23.5-1.5,24-3c0.5-1.6-12.6-15.2-17.9-17c-5.3-1.8-10.9,1.3-12.6,6.8
				S2237.2,1575.3,2242.5,1577.1z"/>
			<g>
				<path class="st23" d="M2269.3,1595.7c0-0.4-2.1-44-24.9-66.5l0.5-0.5c23,22.7,25.1,66.6,25.1,67L2269.3,1595.7z"/>
			</g>
		</g>
		<g>
			<path class="st23" d="M2345.4,1531.2c-3.2,2.2-15.9,3.7-16.5,2.7c-0.6-1,5.6-12.6,8.8-14.9c3.2-2.2,7.5-1.3,9.7,2
				C2349.5,1524.5,2348.6,1529,2345.4,1531.2z"/>
			<path class="st23" d="M2315.2,1544.1c2.6,2.9,6.1,15.8,5.2,16.6c-0.8,0.8-12.8-3.8-15.5-6.7c-2.6-2.9-2.5-7.6,0.4-10.3
				C2308.1,1541,2312.5,1541.2,2315.2,1544.1z"/>
			<path class="st23" d="M2337,1566.1c-3.4,2-16.1,2.4-16.7,1.4c-0.5-1,6.5-12.2,9.9-14.1c3.4-2,7.6-0.7,9.5,2.8
				S2340.3,1564.2,2337,1566.1z"/>
			<g>
				<path class="st23" d="M2321.3,1582.7c0-0.3-4.4-30.2,8.1-48.7l-0.4-0.3c-12.6,18.7-8.2,48.8-8.2,49.1L2321.3,1582.7z"/>
			</g>
		</g>
		<g>
			<g>
				<path class="st23" d="M2298.7,1593.2l-1.5-0.2c-5.7-77.3-28.3-132.8-28.6-133.6l1.3-0.6
					C2270.2,1459.5,2293,1515.4,2298.7,1593.2z"/>
			</g>
			<path class="st15" d="M2253.3,1451.6c2.8,3.3,15.8,8.6,16.7,7.8c0.9-0.8-2.5-15-5.3-18.3c-2.8-3.3-7.6-3.6-10.8-0.7
				C2250.8,1443.2,2250.5,1448.3,2253.3,1451.6z"/>
			<path class="st15" d="M2273.3,1440.1c-2.5,3.5-4.8,18-3.8,18.7c1,0.8,13.5-5.7,16.1-9.2c2.5-3.5,1.8-8.5-1.6-11.2
				C2280.5,1435.8,2275.8,1436.6,2273.3,1440.1z"/>
			<path class="st15" d="M2288.3,1455.4c-4.1-1.2-17.8,1.9-18.1,3.1c-0.3,1.2,10,11.1,14.1,12.3c4.1,1.2,8.3-1.3,9.4-5.6
				C2294.7,1461,2292.3,1456.6,2288.3,1455.4z"/>
			<path class="st15" d="M2279,1474.6c-0.4-4.4-8-16.7-9.2-16.6c-1.2,0.1-6.4,13.7-6,18.1c0.4,4.4,4.1,7.6,8.3,7.2
				C2276.3,1482.8,2279.4,1479,2279,1474.6z"/>
			<path class="st15" d="M2258.2,1473.6c3.7-2,11.8-14,11.2-15.1c-0.6-1.1-14.6-1-18.3,1s-5.2,6.9-3.2,10.8
				C2249.9,1474.2,2254.5,1475.7,2258.2,1473.6z"/>
			<path class="st7" d="M2267,1458.1c0.2-1.4,1.5-2.4,2.9-2.2s2.3,1.6,2.1,3c-0.2,1.4-1.5,2.4-2.9,2.2
				C2267.7,1460.8,2266.7,1459.5,2267,1458.1z"/>
			<path class="st23" d="M2298.2,1514.1c-4.1,5.3-8.6,27.7-7.2,28.9c1.5,1.2,21.5-7.9,25.6-13.2c4.1-5.3,3.4-13.2-1.7-17.5
				C2309.9,1508,2302.4,1508.8,2298.2,1514.1z"/>
		</g>
		<g>
			<path class="st23" d="M2181.8,1528.9c0.3,0.5,13.5,23.9,26,61.5c-0.5-0.2-1-0.2-1.5-0.4c-12.3-37-25.2-60-25.5-60.4
				L2181.8,1528.9z"/>
		</g>
		<path class="st15" d="M2166.6,1524.6c2.8,2.5,14.7,5.6,15.4,4.8c0.7-0.8-3.8-12.8-6.6-15.3s-7-2.2-9.4,0.7
			C2163.5,1517.6,2163.8,1522.1,2166.6,1524.6z"/>
		<path class="st15" d="M2182.7,1512.2c-1.8,3.4-2.2,16.2-1.3,16.8c0.9,0.5,11.2-6.6,13-9.9c1.8-3.4,0.6-7.6-2.6-9.5
			S2184.5,1508.8,2182.7,1512.2z"/>
		<path class="st15" d="M2197.5,1523.7c-3.7-0.5-15.2,3.8-15.4,4.9c-0.1,1.1,9.9,8.5,13.6,9s7-2.2,7.5-6
			C2203.7,1527.8,2201.1,1524.3,2197.5,1523.7z"/>
		<path class="st15" d="M2191.5,1541.5c-0.8-3.8-8.8-13.6-9.8-13.3c-1,0.2-4.1,12.7-3.2,16.5c0.8,3.8,4.4,6.1,8,5.2
			C2190.1,1549,2192.4,1545.3,2191.5,1541.5z"/>
		<path class="st15" d="M2173.3,1543.2c3-2.2,8.7-13.6,8.1-14.5s-12.8,0.9-15.8,3.1c-3,2.2-3.7,6.6-1.6,9.8
			C2166.2,1544.7,2170.3,1545.4,2173.3,1543.2z"/>
		<path class="st7" d="M2179.2,1528.6c0-1.3,1-2.3,2.3-2.2c1.2,0,2.2,1.1,2.1,2.4c0,1.3-1,2.3-2.3,2.2
			C2180.2,1530.9,2179.2,1529.9,2179.2,1528.6z"/>
		<path class="st23" d="M2204,1554.1c-2.3,4-3.4,19.3-2.3,20c1.1,0.7,13.7-7.3,16-11.2c2.3-4,1.1-9.1-2.6-11.6
			C2211.3,1548.9,2206.3,1550.1,2204,1554.1z"/>
		<g>
			<path class="st23" d="M2378.2,1594.4l1.6-0.3c6.2-84.5,30.9-145.2,31.3-146l-1.4-0.7C2409.2,1448.3,2384.4,1509.4,2378.2,1594.4z
				"/>
		</g>
		<path class="st15" d="M2427.8,1439.6c-3,3.6-17.3,9.4-18.3,8.5c-1-0.9,2.8-16.4,5.8-20s8.3-3.9,11.8-0.8
			S2430.8,1436,2427.8,1439.6z"/>
		<path class="st15" d="M2405.9,1427c2.7,3.9,5.2,19.6,4.2,20.5s-14.8-6.2-17.6-10c-2.7-3.9-2-9.3,1.7-12.2
			C2398,1422.4,2403.2,1423.2,2405.9,1427z"/>
		<path class="st15" d="M2389.5,1443.8c4.4-1.3,19.4,2.1,19.7,3.4c0.3,1.3-10.9,12.1-15.4,13.4c-4.4,1.3-9-1.5-10.2-6.1
			C2382.5,1449.9,2385.1,1445.1,2389.5,1443.8z"/>
		<path class="st15" d="M2399.6,1464.7c0.4-4.8,8.7-18.2,10-18.1c1.3,0.1,7,15,6.5,19.8c-0.4,4.8-4.5,8.3-9.1,7.8
			S2399.2,1469.5,2399.6,1464.7z"/>
		<path class="st15" d="M2422.3,1463.7c-4.1-2.2-12.8-15.3-12.2-16.6c0.6-1.2,15.9-1.1,20,1.1s5.6,7.5,3.5,11.8
			S2426.4,1465.9,2422.3,1463.7z"/>
		<path class="st7" d="M2412.8,1446.7c-0.2-1.6-1.6-2.6-3.1-2.4s-2.5,1.7-2.3,3.3c0.2,1.6,1.6,2.6,3.1,2.4
			C2412,1449.7,2413,1448.3,2412.8,1446.7z"/>
		<path class="st23" d="M2374.5,1530.6c4.5,5.8,9.4,30.2,7.8,31.6c-1.6,1.3-23.5-8.6-28-14.4c-4.5-5.8-3.7-14.4,1.9-19.1
			C2361.8,1523.9,2369.9,1524.8,2374.5,1530.6z"/>
		<path class="st23" d="M2400.8,1536.1c-6.4,3.4-20.2,23.7-19.3,25.7c0.9,1.9,24.8,1.9,31.2-1.5c6.4-3.4,8.9-11.6,5.6-18.3
			C2415.1,1535.3,2407.2,1532.7,2400.8,1536.1z"/>
		<path class="st23" d="M2164.2,1606.4c0,0,7.3-20.1,33.8-21.3c26.5-1.3,44.8,15.1,66.7,7.6c21.9-7.6,58.2-24.7,92.5-13.3
			c34.3,11.4,40.1,27.1,40.1,27.1H2164.2z"/>
	</g>
	<path class="st19" d="M2684.5,1613.8H164.7c-1.6,0-2.9-1.3-2.9-2.9v-1c0-1.6,1.3-2.9,2.9-2.9h2519.8c1.6,0,2.9,1.3,2.9,2.9v1
		C2687.3,1612.5,2686,1613.8,2684.5,1613.8z"/>
</g>
</svg>
