<?xml version="1.0" encoding="utf-8"?>
<!-- Generator: Adobe Illustrator 19.0.0, SVG Export Plug-In . SVG Version: 6.00 Build 0)  -->
<svg version="1.1" id="Layer_1" xmlns="http://www.w3.org/2000/svg" xmlns:xlink="http://www.w3.org/1999/xlink" x="0px" y="0px"
	 viewBox="0 0 4000 4000" style="enable-background:new 0 0 4000 4000;" xml:space="preserve">
<style type="text/css">
	.st0{opacity:0.2;}
	.st1{fill:#000072;}
	.st2{fill:#FFFFFF;}
	.st3{fill:#FFC891;}
	.st4{opacity:0.6;}
	.st5{fill:#FF1A1A;}
	.st6{fill:#325BAD;}
	.st7{fill:#BA6445;}
	.st8{fill:#19ADF7;}
	.st9{fill:#FF4881;}
	.st10{fill:#C4502C;}
	.st11{fill:none;}
</style>
<g>
	<g>
		<g class="st0">
			<g>
				<g>
					<ellipse class="st1" cx="2042.5" cy="3343.1" rx="697.5" ry="79.9"/>
				</g>
			</g>
		</g>
		<g>
			<g>
				<g>
					<g>
						<g>
							<g>
								<path class="st2" d="M2003.9,3192c0,0,4.8,104.4-24,124.3c-28.8,19.9-274,49.7-288.5-39.8
									C1677,3187,1912.5,3162.2,2003.9,3192z"/>
							</g>
						</g>
					</g>
					<g class="st0">
						<g>
							<g>
								<path class="st1" d="M1979.9,3316.3c-28.9,19.9-274.1,49.7-288.5-39.8c-0.8-4.9-0.8-9.6-0.1-14.2
									c61.2,35.3,227.3,14,254.8-1.2c18.5-10.2,34.3-43.7,45-72.7c4.5,1.1,8.8,2.3,12.8,3.6
									C2003.9,3192,2008.7,3296.4,1979.9,3316.3z"/>
							</g>
						</g>
					</g>
					<g>
						<g>
							<g>
								<path class="st1" d="M1840.1,3357.3c-42.2,0-84.6-5-115.4-18.1c-38.5-16.5-50.1-41.4-53-59.5c-2.8-17.3-0.3-42.8,27.1-66.3
									c66.3-56.7,235.7-64.9,311.2-40.3c7.9,2.6,13.3,9.7,13.7,18c1.2,27.1,2.6,117.3-32.6,141.5
									C1973.6,3344.7,1907.2,3357.3,1840.1,3357.3z M1908.4,3199.7c-70.2,0-150.3,15.3-183.7,43.9c-14.6,12.5-14.8,22.9-13.7,29.7
									c0.7,4.3,2.8,17.3,27.4,28.4c68,30.7,212.7,9.1,230.2-1.9c9.2-6.4,16.1-48.5,15.8-92.6
									C1963.1,3202.2,1936.5,3199.7,1908.4,3199.7z"/>
							</g>
						</g>
					</g>
					<g>
						<g>
							<g>
								<path class="st2" d="M2108.6,3192c0,0-4.8,104.4,24,124.3c28.8,19.9,274,49.7,288.5-39.8
									C2435.5,3187,2199.9,3162.2,2108.6,3192z"/>
							</g>
						</g>
					</g>
					<g class="st0">
						<g>
							<g>
								<path class="st1" d="M2421.7,3269.3c0,2.2-0.2,4.4-0.6,6.7c-14.4,89.5-259.6,59.6-288.5,39.8
									c-28.8-19.9-24.1-124.3-24.1-124.3c2.8-0.9,5.8-1.8,8.9-2.6c12,30.8,30,67.9,49.7,78.9
									C2195.2,3283.6,2361.8,3305.7,2421.7,3269.3z"/>
							</g>
						</g>
					</g>
					<g>
						<g>
							<g>
								<path class="st1" d="M2272.3,3357.3c-67.1,0-133.5-12.6-151-24.6c-35.2-24.3-33.9-114.5-32.6-141.5
									c0.4-8.3,5.8-15.4,13.7-18c75.5-24.6,244.9-16.4,311.2,40.3c27.5,23.5,29.9,49,27.1,66.3c-2.9,18.1-14.5,43-53,59.5
									C2356.9,3352.3,2314.5,3357.3,2272.3,3357.3z M2128,3207.2c-0.4,44.1,6.5,86.3,15.8,92.7c17.4,11,162.1,32.6,230.1,1.9
									c24.6-11.1,26.7-24.1,27.4-28.4c1.1-6.8,0.9-17.2-13.7-29.7C2340.9,3203.6,2202.7,3189.6,2128,3207.2z"/>
							</g>
						</g>
					</g>
					<g>
						<g>
							<g>
								<path class="st3" d="M2548.1,2107.2c0,0,144.1-229.2,253.5-195.1c109.3,34.1,24.9,195.1-59.6,209.7
									c0,0-143.8,227.1-206.1,252.5L2548.1,2107.2z"/>
							</g>
						</g>
					</g>
					<g>
						<g>
							<g>
								<path class="st1" d="M2806.4,2075.9c-8.6,0-17.3-2.2-25.5-6.7c-36.9-19.8-47.1-68.4-48.1-73.9c-2.1-10.8,5-21.2,15.8-23.2
									c10.8-2.1,21.2,5,23.2,15.8c1.9,9.8,10.7,37.1,27.9,46.4c5.4,2.9,8.8,2,11.4,0.8c8.4-3.9,15-15.4,16.4-21.8
									c2.3-10.7,12.8-17.6,23.6-15.3c10.7,2.3,17.6,12.8,15.3,23.6c-3.6,17-17.2,39.7-38.5,49.6
									C2821,2074.3,2813.7,2075.9,2806.4,2075.9z"/>
							</g>
						</g>
					</g>
					<g>
						<g>
							<g>
								<g>
									<path class="st3" d="M2683.9,1986.2c0,0,64-25,71.9,14.7c7.8,39.7-46.1,35.7-46.1,35.7s3.2,42.1-36,45.8"/>
								</g>
							</g>
						</g>
						<g class="st4">
							<g>
								<g>
									<path class="st2" d="M2853.3,1987c-8.2-13.3-21.8-24-42.1-30.3c-109.3-34.1-253.5,195.1-253.5,195.1l-9.9,216
										c-4.2,2.9-8.3,5.1-11.9,6.6l12.3-267.2c0,0,144.1-229.2,253.5-195.1C2841.5,1924.6,2855.6,1954,2853.3,1987z"/>
								</g>
							</g>
						</g>
						<g>
							<g>
								<g>
									<path class="st1" d="M2683.9,1986.2c5-5,10.6-9.1,16.8-12.5c6.2-3.4,12.8-6.1,20.2-7.7c3.7-0.8,7.6-1.3,11.8-1.3
										c4.1-0.1,8.6,0.4,13.3,1.8c9.3,2.2,19.5,10.1,24.3,19.9c2.3,4.7,4.2,9.7,4.7,14.3c0.4,2.4,0.7,4.7,1,7.1
										c-0.1,2.7-0.2,5.4-0.4,8c-0.1,2.6-1.2,5.6-2,8.4c-0.7,2.8-2.3,5.5-3.9,8.1c-1.5,2.7-3.4,4.9-5.4,7c-2,2.2-4.1,3.9-6.3,5.4
										c-8.8,6.1-17.6,8.4-25.6,9.5c-4.1,0.6-8,0.7-11.9,0.7c-1.9,0.1-3.9-0.1-5.8-0.3c-2-0.2-3.7-0.4-6.2-0.7l18.4-18.4
										c0,2.7-0.2,4-0.5,5.9c-0.3,1.7-0.6,3.5-1,5.1c-0.7,3.4-1.8,6.7-3.1,9.9c-2.6,6.4-6.5,12.7-11.7,17.7
										c-5.1,5.1-11.8,8.5-18.3,9.8c-6.5,1.5-12.9,0.4-18.5-1.3c5.1-3.3,9.6-6.3,12.6-10.1c1.7-1.6,2.7-3.8,3.9-5.5
										c0.9-2,1.7-3.8,2.2-5.8c1.1-3.9,1.5-7.8,1.5-11.8c-0.1-2-0.1-4.1-0.3-6.1c-0.1-1-0.3-2-0.4-3c-0.2-0.8-0.3-2.2-0.5-2.2
										c-3.8-0.9-6.2-4.8-5.3-8.7c0.7-2.7,2.7-4.7,5.3-5.3l18.4-4.5c0.6-0.2,2.2-0.3,3.3-0.5l3.8-0.7c2.5-0.4,4.9-1,7.1-1.7
										c4.4-1.2,8.1-3,9.6-4.3c1.6-1.5,1.3-1.1,2-2.6c0-0.5,0.2-1,0.4-1.5c0-0.8-0.1-1.6-0.1-2.4c0.2-1.8-0.1-3-0.2-4.1
										c-0.4-1.9-0.3-3.2-3-5.5c-2.5-2.1-7.2-4-12.5-5.3C2710.6,1988.3,2697.7,1987.5,2683.9,1986.2z"/>
								</g>
							</g>
						</g>
					</g>
					<g class="st0">
						<g>
							<g>
								<path class="st1" d="M2741.9,2126.2c0,0-143.9,227.1-206.1,252.5l3-64.6c69.3-67.1,169.6-225.3,169.6-225.3
									c64-11.1,128-106.2,107.8-166.4C2902.7,1965.9,2822.4,2112.3,2741.9,2126.2z"/>
							</g>
						</g>
					</g>
					<g>
						<g>
							<g>
								<path class="st1" d="M2535.8,2394.2c-4,0-8.1-1.2-11.5-3.6c-5.5-3.9-8.7-10.4-8.4-17.2l12.3-267.2c0.2-3.4,1.2-6.8,3-9.7
									c15.6-24.8,155.8-241,276.2-203.4c44.7,14,68.7,48.4,65.6,94.6c-4.3,65-60.7,135.8-118.8,151.6
									c-27.9,43.5-149.1,228.1-211,253.3C2540.9,2393.7,2538.4,2394.2,2535.8,2394.2z M2567.7,2113.4l-10.1,220.6
									c48.7-46.9,123.6-153.4,167.6-222.8c3-4.7,7.9-8,13.4-9c42.9-7.4,91.7-67.6,94.9-117.1c1.8-27.9-10.5-45.5-37.8-54
									C2719.9,1907.5,2608.2,2050.7,2567.7,2113.4z"/>
							</g>
						</g>
					</g>
					<g>
						<g>
							<g>
								<path class="st5" d="M1874.6,3072.7c-238.6-183.9-333,44.7-601.4,0c-143.9-24-223.5-99.4-266.4-164.2
									c-12.6-19-22.1-37.2-29-52.9c-13.6-30.4-17.7-51.3-17.7-51.3c387.7,29.8,417.5-452.3,546.7-551.7
									c129.2-99.4,338-84.5,338-84.5c4.2,2.5,8.4,5.1,12.3,7.9c26.4,18.2,47.6,42,64.2,70.1
									C2069,2493.6,1874.6,3072.7,1874.6,3072.7z"/>
							</g>
						</g>
					</g>
					<g class="st0">
						<g>
							<g>
								<path class="st1" d="M1874.6,3072.7c-238.6-183.9-333,44.7-601.4,0c-143.9-24-223.5-99.4-266.4-164.2
									c9.5,3.5,19.1,6.6,28.6,9.3c66,18.6,141.1,15.2,198.1-23c55.2-37,88.2-102.1,146.5-134c22.7,21.1,35.2,52.5,33.4,83.3
									c-0.9,14.3-4.7,28.6-2.5,42.7c2.2,14.2,13,28.6,27.3,28.1c13.9-0.4,23.3-14,29.9-26.2c67.9-125.7,89.8-270.2,122.7-409.3
									c8.6-36.7,18.5-73.9,38.8-105.7c22.6-35.3,56.9-61.7,93.6-81.8c60.3-32.9,129.7-50.1,198.1-45.9
									C2069,2493.6,1874.6,3072.7,1874.6,3072.7z"/>
							</g>
						</g>
					</g>
					<g class="st4">
						<g>
							<g>
								<path class="st2" d="M1857.1,2176.1c-76.5,11.6-271.8,22.1-349.9,137.8c-96,142.1-189.7,583.7-539.3,516.9
									c-13.6-30.4-7.8-26.5-7.8-26.5c387.7,29.8,417.5-452.3,546.7-551.7c129.2-99.4,338-84.5,338-84.5
									C1849,2170.7,1853.2,2173.3,1857.1,2176.1z"/>
							</g>
						</g>
					</g>
					<g>
						<g>
							<g>
								<path class="st1" d="M1343.6,3098.5c-23.1,0-47.6-1.9-73.6-6.2c-145.3-24.2-227-99.8-270-158.9
									c-46.8-64.3-58.8-122.8-59.3-125.2c-1.2-6.1,0.5-12.4,4.6-17.1c4.1-4.7,10.2-7.1,16.4-6.6c251.4,19.3,345-190.9,420.1-359.8
									c36.6-82.3,68.2-153.4,113-187.8c133.7-102.8,342.7-89.2,351.5-88.6c3.1,0.2,6,1.1,8.7,2.7c288.9,170.2,48.9,897.2,38.6,928
									c-2,6.1-6.9,10.8-13.1,12.7c-6.2,1.9-12.8,0.6-17.9-3.3c-129.8-100.1-210.7-71.1-313-34.5
									C1490.4,3075.2,1425.2,3098.5,1343.6,3098.5z M986.9,2825.5c20,57.2,88.3,194.1,289.6,227.6
									c107.5,17.9,184.8-9.8,259.5-36.5c99.2-35.5,193.3-69.2,328,23.8c39.8-130.5,201.6-711-25.2-852.6
									c-30.9-1.3-208.6-4.9-319.8,80.7c-36.7,28.3-66.5,95.1-100.9,172.4c-72.7,163.4-171.1,384.7-424.2,384.7
									C991.6,2825.5,989.3,2825.5,986.9,2825.5z"/>
							</g>
						</g>
					</g>
					<g>
						<g>
							<g>
								<g>
									<path class="st3" d="M1646,2550.9c0,0,178.9,182.7,87,280.2c-91.9,97.5-201.3,37.9-156.6-81.4c0,0-144.1-104.4-139.2-223.7
										s144.1-169,144.1-169l113.6,143.3L1646,2550.9z"/>
								</g>
							</g>
						</g>
						<g>
							<g>
								<g>
									<path class="st1" d="M1638,2900.1c-17.5,0-34.2-4.5-49.1-13.8c-38.6-24.1-52-73.9-35.8-129.5
										c-35.8-28.9-140.3-122.7-135.7-231.6c5.5-131.2,151.1-184.7,157.3-186.9c8-2.9,17-0.3,22.3,6.4l113.6,143.3
										c6.2,7.8,5.6,19-1.3,26.2l-35.9,37.1c42,47.3,162.8,199.4,74.1,293.5C1713.4,2880.9,1674,2900.1,1638,2900.1z
										 M1575.2,2381.2c-32.3,15.1-114.6,61.5-118.1,145.6c-4.5,107.1,129.6,205.8,131,206.7c7.2,5.3,10.1,14.7,6.9,23.1
										c-16.2,43.3-10.5,80,14.9,95.9c23.7,14.8,66.4,9.6,108.5-35.1c76.7-81.3-85.1-251-86.7-252.7c-7.5-7.7-7.6-20-0.1-27.8
										l36.9-38L1575.2,2381.2z"/>
								</g>
							</g>
						</g>
						<g class="st0">
							<g>
								<g>
									<path class="st1" d="M1718.1,2843.6c-88.9,79.4-186.4,19.9-143.7-93.9c0,0-144.1-104.4-139.2-223.7
										c1.5-37.1,16.1-67.5,35.4-91.8c-5,15.9-7.4,33.5-6.2,53c7.8,120.6,163.1,226.1,163.1,226.1
										C1604.8,2799.1,1656.8,2854.4,1718.1,2843.6z"/>
								</g>
							</g>
						</g>
						<g>
							<g>
								<g>
									<path class="st1" d="M1611.4,2859.7c0.3,0.3,1.5-0.2,2.4-0.5c1-0.3,1.9-0.7,2.9-1.1c2-0.8,3.9-1.8,5.9-2.9
										c3.9-2.2,7.6-4.7,11-7.7c3.5-3,6.5-6.5,9.2-10.5c2.8-4,4.6-8.7,6.1-13.8c1.8,4.9,3.4,10.3,3.6,16c0.3,5.7,0,11.7-1.2,17.5
										c-1.2,5.8-3,11.7-5.4,17.3c-1.2,2.8-2.5,5.6-4.1,8.4c-0.7,1.4-1.5,2.8-2.4,4.1c-1,1.5-1.6,2.6-3.2,4.5
										c-8.6,6.8-21.1,5.4-27.9-3.2C1601.3,2879,1602.8,2866.5,1611.4,2859.7z"/>
								</g>
							</g>
						</g>
						<g>
							<g>
								<g>
									<path class="st1" d="M1667,2856.2c0.1,0.3,0.5-0.2,0.8-0.5c0.3-0.3,0.7-0.6,1-1c0.7-0.7,1.4-1.5,2-2.3
										c1.3-1.6,2.6-3.4,3.9-5.2c2.5-3.7,4.8-7.6,6.9-11.8c4.1-8.3,7.3-17.5,9.2-27.4c4.6,8.9,8.3,18.8,10.6,29.3
										c1.2,5.3,2,10.7,2.5,16.3c0.2,2.8,0.4,5.6,0.4,8.6c0,1.5,0,2.9-0.1,4.5c0,0.8-0.1,1.5-0.2,2.4c-0.1,0.9-0.1,1.5-0.4,2.9
										c-4.3,10.1-16,14.7-26.1,10.4C1667.3,2878,1662.7,2866.3,1667,2856.2z"/>
								</g>
							</g>
						</g>
						<g>
							<g>
								<g>
									<path class="st1" d="M1707.4,2829.2c0,0.3,0.1,0.2,0.3,0.2c0.1,0,0.3-0.1,0.4-0.3c0.3-0.2,0.6-0.5,0.9-0.8
										c0.6-0.6,1.3-1.2,1.9-1.9c1.3-1.4,2.4-2.9,3.5-4.6c2.2-3.3,4.1-6.9,5.5-10.9c1.4-4,2.4-8.3,2.7-12.8
										c0.4-4.6,0-9.2-0.9-14.2c3.7,3.2,7.4,6.8,10.4,11.2c3.1,4.3,5.7,9.2,7.6,14.5c2,5.3,3.4,11,4.1,16.9c0.3,2.9,0.5,5.9,0.5,9
										c0,1.5,0,3.1-0.2,4.7c0,0.8-0.1,1.6-0.2,2.5c0,0.4-0.1,0.9-0.2,1.4c-0.1,0.5-0.1,0.9-0.4,1.8c-4.7,9.9-16.5,14.2-26.4,9.6
										C1707,2851,1702.8,2839.2,1707.4,2829.2z"/>
								</g>
							</g>
						</g>
						<g>
							<g>
								<g>
									<path class="st1" d="M1549.3,2806.4c1.9-4.6,3.8-8.1,6-12c2.1-3.8,4.4-7.6,7-11.4c2.6-3.8,5.4-7.6,9.2-11.4
										c2-1.9,4.1-3.9,7.3-5.7c2.8-1.8,7.5-3.4,12.2-2.9c2.4,0.2,4.3,1,6.2,2c1.6,1,3,2.1,4.1,3.2c0.9,1.1,2,2.2,2.7,3.3l1.9,3.3
										c2,4.3,3.3,8.3,4.1,12.4c1.8,8,2.6,15.9,3.3,23.7c-3.8-6.8-7.8-13.6-12.3-19.5c-2.2-3-4.7-5.6-7.1-7.7l-1.8-1.2
										c-0.6-0.4-1.1-0.4-1.5-0.6c-0.4,0-0.7,0.1-0.8,0.2c0,0.3,0.2,0.5,0.6,0.8c0.8,0.5,1.7,0.3,1.6,0.9c0,0.4-0.3,1.5-0.7,2.5
										c-0.7,2.4-1.4,5.4-1.9,8.7c-1,6.3-1.6,13.9-1.4,20.2c0.3,11.3-8.6,20.8-19.9,21.1s-20.8-8.6-21.1-19.9
										c-0.1-3,0.5-5.9,1.6-8.5L1549.3,2806.4z"/>
								</g>
							</g>
						</g>
					</g>
					<g>
						<g>
							<g>
								<path class="st6" d="M2600.3,2332.2l-134.5,106.7l-2,1.6c3.8,82.9-6.3,171.7-23.4,258.1c-3.3,16.7-6.9,33.2-10.6,49.6
									c-53.5,233.4-150.1,436.4-150.1,436.4h-174l-48.2-279.6l-56.2,279.6h-193.8c-48.8-134.7-71.5-297.8-81.9-433.1
									c-1.1-14.5-2.1-28.6-2.9-42.4c-8.2-133.1-4.7-230.3-4.7-230.3l-74.6,69.6l-154.1-129.2c59.6-104.4,422.5-358.9,581.5-357.9
									c136.2,0.9,229.4,39.5,290.7,101.8c0.2,0.2,0.5,0.5,0.7,0.7l183.3-50.4C2545.6,2113.5,2620.2,2178.1,2600.3,2332.2z"/>
							</g>
						</g>
					</g>
					<g>
						<g>
							<g>
								<path class="st7" d="M2466.1,2441.5c0,0-14.9-114.3-39.8-188.9"/>
							</g>
						</g>
					</g>
					<g>
						<g>
							<g>
								<path class="st7" d="M1718.1,2478.8c0,0,9.9-94.4,14.9-149.1"/>
							</g>
						</g>
					</g>
					<g class="st0">
						<g>
							<g>
								<path class="st1" d="M2429.8,2748.2c-53.5,233.4-150.1,436.4-150.1,436.4h-174l-48.2-279.6l-56.2,279.6h-193.8
									c-48.8-134.7-71.5-297.8-81.9-433.1c28.1,116.9,87.3,333.8,143.1,346.3c76.7,17,122.1-168.3,122.1-168.3
									s-45.1-20.4-85.2-57.4c-12.6-11.6-3.2-32.6,13.8-30.7c66.9,7.2,194.6,17.2,304.1,4.6c14.1-1.6,24.2,13.3,17.6,25.9
									c-14.8,28-48.4,66.7-123,74.6c0,0,14.8,166.2,78.7,164C2238.5,3109.1,2354.2,2896.4,2429.8,2748.2z"/>
							</g>
						</g>
					</g>
					<g>
						<g>
							<g>
								<path class="st8" d="M2600.3,2332.2l-134.5,106.7l-2,1.6c3.8,82.9-6.3,171.7-23.4,258.1c-324,172.7-717.6,10.4-717.6,10.4
									c-8.2-133.1-4.7-230.3-4.7-230.3l-74.6,69.6l-81-67.9l-52.1-43.7l-21-17.6c29.8-52.2,135.5-141.9,253.6-218.5
									c118-76.5,248.4-139.9,327.9-139.4c136.2,0.9,229.4,39.5,290.7,101.8c0.2,0.2,0.5,0.5,0.7,0.7l28.3-7.8l155-42.6
									c0,0,11.5,10,24.3,31.4c11.7,19.7,24.5,49.1,30.4,89.3C2604.4,2261.7,2605.2,2294.2,2600.3,2332.2z"/>
							</g>
						</g>
					</g>
					<g class="st4">
						<g>
							<g>
								<path class="st2" d="M2569.9,2144.9L2056,2296.8l-296.8-50.3c0,0-128.8,96.3-248.9,190.3l-21-17.6
									c29.8-52.2,135.5-141.9,253.6-218.5c118-76.5,248.4-139.9,327.9-139.4c136.2,0.9,229.4,39.5,290.7,101.8
									c0.2,0.2,0.5,0.5,0.7,0.7l28.3-7.8l155-42.6C2545.6,2113.5,2557.1,2123.5,2569.9,2144.9z"/>
							</g>
						</g>
					</g>
					<g class="st0">
						<g>
							<g>
								<path class="st1" d="M2600.3,2332.2l-134.5,106.7l-2,1.6c3.8,82.9-6.3,171.7-23.4,258.1c-324,172.7-717.6,10.4-717.6,10.4
									c-8.2-133.1-4.7-230.3-4.7-230.3l-74.6,69.6l-81-67.9c106.8-20.8,163-123.5,163-123.5c71.9,211.4,278.7,283.8,278.7,283.8
									c-106.4-3.2-203.6-79.9-203.6-79.9c6.9,27.6,6.8,53.4,5.3,71.2c-1.3,14.5,8.5,27.7,22.6,31
									c534.1,125.7,544.3-86.4,544.3-86.4c-188.2,66.9-291.5-6.2-291.5-6.2c328.7,54.3,358.9-263.7,358.9-263.7
									c56.5,5.2,116.3-34.4,159.9-72.6C2604.4,2261.7,2605.2,2294.2,2600.3,2332.2z"/>
							</g>
						</g>
					</g>
					<g>
						<g>
							<g>
								<g>
									<path class="st1" d="M2279.7,3204.4h-174c-9.6,0-17.9-6.9-19.6-16.4l-31.7-177.1l-33.6,177.3c-1.8,9.4-10,16.2-19.5,16.2
										h-193.8c-8.4,0-15.8-5.2-18.7-13.1c-56.3-155.5-77.8-347.4-85.9-481.1c-4.8-77.5-5.6-143.5-5.4-185.1l-40.4,37.7
										c-7.3,6.9-18.6,7.2-26.3,0.7l-154.1-129.2c-7.4-6.2-9.3-16.7-4.5-25.1c30.8-53.9,135.3-144.4,259.9-225.3
										c66.2-43,231.4-142.6,337.9-142.6c0.4,0,0.7,0,1.1,0c128,0.8,227.8,34.6,297,100.2l172.2-47.4c6.4-1.8,13.3-0.2,18.3,4.1
										c3.4,2.9,82.4,73.5,61.4,236.3c-0.7,5.1-3.3,9.8-7.4,13L2484,2449.8c2.4,74.7-5.7,159.7-24.1,252.7
										c-50,252.9-161.1,488.3-162.2,490.6C2294.4,3200,2287.4,3204.4,2279.7,3204.4z M2122.4,3164.7H2267
										c22.4-49.5,111-253.2,153.9-469.9c18.6-94.1,26.4-179.4,23-253.3c-0.3-6.3,2.5-12.4,7.4-16.4l2-1.6l128.2-101.7
										c11.9-108.9-25.9-166.6-42.1-185.9l-171.8,47.2c-7.3,2-15.1-0.3-20.2-6c-61.9-62.9-154.9-95.1-276.6-95.9
										c-0.3,0-0.6,0-0.8,0c-66.5,0-184.6,50.8-316.2,136.2c-107.5,69.7-201.3,148.1-238,197.9l127.1,106.6l61.7-57.6
										c5.9-5.5,14.5-6.9,21.8-3.6c7.3,3.3,11.9,10.8,11.6,18.8c0,1-3.3,97.9,4.6,228.3c7.8,127.3,27.8,308.2,79,456.8h163.3
										l50.7-267.2c1.8-9.4,9.9-16.3,19.6-16.2c9.6,0.1,17.8,6.9,19.5,16.4L2122.4,3164.7z M2600.3,2332.2L2600.3,2332.2
										L2600.3,2332.2z M2347,2176.5L2347,2176.5L2347,2176.5z M2346.8,2176.3c0,0.1,0.1,0.1,0.1,0.2
										C2346.9,2176.4,2346.9,2176.4,2346.8,2176.3z"/>
								</g>
							</g>
						</g>
						<g>
							<g>
								<g>
									<path class="st1" d="M2441.6,2440c0.8-14.9,0.8-30.9,0.6-46.4c-0.3-15.7-1-31.4-2.2-47c-1.1-15.7-2.9-31.4-5.1-47
										c-2.1-15.7-5.2-31.2-8.6-46.8c6.6,14.5,12.8,29.3,18.2,44.4c5.5,15.1,10.5,30.4,15,45.9c4.5,15.5,8.6,31.1,12.3,46.9
										c3.6,15.9,6.9,31.5,9.5,48.2c1.7,10.9-5.7,21.2-16.6,22.9c-10.9,1.7-21.2-5.7-22.9-16.6c-0.2-1.4-0.3-2.7-0.2-4.1
										L2441.6,2440z"/>
								</g>
							</g>
						</g>
						<g>
							<g>
								<g>
									<path class="st1" d="M1698.3,2476.7l34.7-147l4.9,151.2c0.4,11.1-8.3,20.3-19.4,20.7s-20.3-8.3-20.7-19.4
										c-0.1-1.8,0.1-3.5,0.5-5.2L1698.3,2476.7z"/>
								</g>
							</g>
						</g>
					</g>
					<g>
						<g>
							<g>
								<path class="st1" d="M2095.7,2797.9c-50.5,0-97.4-4-138.3-9.6c-139.8-19.1-238.1-59.2-242.2-60.8c-7-2.9-11.8-9.6-12.3-17.2
									c-4.8-77.5-5.6-143.5-5.4-185.1l-40.4,37.7c-7.3,6.9-18.6,7.2-26.3,0.7l-154.1-129.2c-7.4-6.2-9.3-16.7-4.5-25.1
									c30.8-53.9,135.3-144.5,260-225.3c66.2-42.9,231.3-142.6,337.8-142.6c0.4,0,0.7,0,1.1,0c128,0.8,227.8,34.6,297.1,100.3
									l172.2-47.4c6.4-1.8,13.3-0.2,18.3,4.1c3.4,2.9,82.4,73.5,61.4,236.3c-0.7,5.1-3.3,9.8-7.4,13L2484,2449.8
									c2.4,74.7-5.7,159.7-24.1,252.7c-1.2,5.9-4.9,10.9-10.2,13.7C2331.9,2779,2205.4,2797.9,2095.7,2797.9z M1741.9,2695
									c65.9,24.1,401.1,133.8,680.8-9.6c17.3-90.4,24.4-172.5,21.2-244c-0.3-6.3,2.5-12.4,7.4-16.4l2-1.6l128.2-101.7
									c11.9-108.9-25.8-166.6-42.1-185.9l-171.9,47.3c-7.3,2-15.1-0.3-20.1-6c-61.9-62.9-154.9-95.1-276.6-95.9
									c-0.3,0-0.5,0-0.8,0c-66.6,0-184.6,50.8-316.2,136.2c-107.5,69.7-201.4,148.1-238.1,197.9l127.1,106.6l61.7-57.6
									c5.9-5.5,14.5-6.9,21.8-3.6c7.3,3.3,11.9,10.8,11.6,18.8C1737.9,2480.4,1734.8,2571.1,1741.9,2695z M2600.3,2332.2
									L2600.3,2332.2L2600.3,2332.2z M2347,2176.5C2347,2176.5,2347,2176.5,2347,2176.5C2347,2176.5,2347,2176.5,2347,2176.5z
									 M2346.8,2176.3c0,0.1,0.1,0.1,0.1,0.2C2346.9,2176.4,2346.9,2176.4,2346.8,2176.3z"/>
							</g>
						</g>
					</g>
					<g>
						<g>
							<g>
								<path class="st5" d="M2391.6,2173.1c0,120.8-145.8,218.7-325.5,218.7c-165.9,0-302.8-83.4-323-191.2
									c118-76.5,248.4-139.9,327.9-139.4c136.2,0.9,229.4,39.5,290.7,101.8c0.2,0.2,0.5,0.5,0.7,0.7l28.3-7.8
									C2391.2,2161.7,2391.6,2167.4,2391.6,2173.1z"/>
							</g>
						</g>
					</g>
					<g>
						<g>
							<g>
								<path class="st1" d="M2066,2409.3c-172.1,0-318.3-88.3-340.2-205.4c-1.3-7,1.7-14,7.7-17.9c66-42.8,230.6-142.2,336.5-142.2
									c0.4,0,0.7,0,1.1,0c128,0.8,227.6,34.7,296.4,100.5l18.5-5.1c4.9-1.4,10.2-0.5,14.5,2.4c4.2,2.9,7,7.5,7.5,12.6
									c0.7,6.6,1,12.8,1,18.9C2409.1,2303.4,2255.2,2409.3,2066,2409.3z M1762.8,2208.7c26.2,95.2,153.5,165.6,303.2,165.6
									c166.9,0,303.3-87.2,307.9-195.5l-7,1.9c-6.5,1.8-13.4-0.3-17.8-5.3c-62.4-63.4-156-95.8-278.3-96.6c-0.3,0-0.5,0-0.8,0
									C2004.8,2078.8,1890.6,2127.1,1762.8,2208.7z M2348.7,2174.8c0,0,0.1,0.1,0.1,0.1
									C2348.8,2174.9,2348.7,2174.9,2348.7,2174.8z"/>
							</g>
						</g>
					</g>
					<g>
						<g>
							<g>
								<path class="st1" d="M1924.4,2863.9c0.1,0.4,1.3,0.5,1.9,0.7l2.3,0.5c1.5,0.3,3.1,0.6,4.6,0.8c3,0.6,6.1,1.1,9.1,1.5
									l18.2,2.5c12.1,1.6,24,3,36,4.1c23.9,2.4,47.6,3.9,71.3,4.5c23.7,0.6,47.5,0.4,71.5-0.7c24-0.9,48.2-2.9,73.5-4
									c-21.7,13.1-45.7,21.7-70.3,27.3c-24.7,5.6-50.1,8-75.4,7.3c-25.3-0.7-50.6-4.4-75-11.4c-12.2-3.5-24.1-7.8-35.6-13.1
									c-5.7-2.7-11.4-5.5-16.9-8.8c-2.7-1.6-5.4-3.3-8.1-5.1c-1.3-0.9-2.6-1.9-3.8-2.9l-1.9-1.5l-0.9-0.8
									C1924.7,2864.6,1924,2864.2,1924.4,2863.9z"/>
							</g>
						</g>
					</g>
					<g>
						<g>
							<g>
								<g>
									<path class="st3" d="M2479.3,1729.6c-22.3,88.9,20.6,165.8,95.8,171.7s154.4-61.4,176.7-150.3
										c22.3-88.9-20.6-165.8-95.8-171.7C2580.7,1573.5,2501.6,1640.7,2479.3,1729.6z"/>
								</g>
							</g>
						</g>
						<g class="st0">
							<g>
								<g>
									<path class="st1" d="M2751.8,1752.3c-22.3,88.9-101.4,156.2-176.7,150.3c-75.2-5.9-118.1-82.8-95.8-171.7
										c1.7-6.7,3.7-13.2,6-19.6c5.5,60.3,44,105.6,101,110c69.6,5.5,142.5-51.7,170.7-130.7
										C2758.8,1709.9,2757.2,1730.7,2751.8,1752.3z"/>
								</g>
							</g>
						</g>
						<g>
							<g>
								<g>
									<path class="st1" d="M2584.1,1921.6c-3.5,0-7-0.1-10.6-0.4c-37.5-2.9-70.1-21.3-91.9-51.7c-27.3-38-35.2-90.7-21.6-144.7
										l0,0c24.5-97.8,113.1-171.9,197.5-165.3c37.5,2.9,70.1,21.3,91.9,51.7c27.3,38,35.2,90.7,21.6,144.7
										C2747.6,1849.6,2665.2,1921.6,2584.1,1921.6z M2498.6,1734.5c-10.7,42.6-5.1,83.4,15.3,111.8c15.1,21,36.8,33.2,62.8,35.2
										c65.9,5.1,135.8-55.5,155.8-135.3c10.7-42.6,5.1-83.4-15.3-111.8c-15.1-21-36.8-33.2-62.8-35.2
										C2588.6,1594.1,2518.6,1654.7,2498.6,1734.5L2498.6,1734.5z"/>
								</g>
							</g>
						</g>
					</g>
					<g>
						<g>
							<g>
								<path class="st3" d="M1643.5,1888.7c22.3,88.9-20.6,165.8-95.8,171.7s-154.4-61.4-176.7-150.3
									c-22.3-88.9,20.6-165.8,95.8-171.7C1542,1732.5,1621.1,1799.8,1643.5,1888.7z"/>
							</g>
						</g>
					</g>
					<g class="st0">
						<g>
							<g>
								<path class="st1" d="M1547.7,2068.3c-75.2,5.9-154.4-61.3-176.7-150.2c-4.7-18.7-6.5-36.9-5.8-54
									c31.6,71.1,99.6,120.8,164.7,115.7c59.4-4.7,98.7-53.6,101.6-117.7c4.9,11,9,22.6,12,34.6
									C1665.8,1985.5,1622.9,2062.4,1547.7,2068.3z"/>
							</g>
						</g>
					</g>
					<g>
						<g>
							<g>
								<path class="st1" d="M1538.6,2080.6c-81.1,0-163.4-72-187-165.7c-13.6-54-5.7-106.7,21.6-144.7
									c21.8-30.4,54.5-48.7,91.9-51.7c84.4-6.6,173,67.5,197.5,165.3l0,0c13.6,54,5.7,106.7-21.6,144.7
									c-21.8,30.4-54.5,48.7-91.9,51.7C1545.7,2080.5,1542.2,2080.6,1538.6,2080.6z M1476.2,1757.9c-2.6,0-5.3,0.1-7.9,0.3
									c-26,2-47.7,14.2-62.8,35.2c-20.4,28.4-26,69.2-15.3,111.8c20,79.8,89.9,140.5,155.8,135.3c26-2,47.7-14.2,62.8-35.2
									c20.4-28.4,26-69.2,15.3-111.8l0,0C1605,1816.9,1539.7,1757.9,1476.2,1757.9z"/>
							</g>
						</g>
					</g>
					<g>
						<g>
							<g>
								<path class="st1" d="M1538.6,2080.6c-81.1,0-163.4-72-187-165.7c-13.6-54-5.7-106.7,21.6-144.7
									c21.8-30.4,54.5-48.7,91.9-51.7c84.4-6.6,173,67.5,197.5,165.3l0,0c13.6,54,5.7,106.7-21.6,144.7
									c-21.8,30.4-54.5,48.7-91.9,51.7C1545.7,2080.5,1542.2,2080.6,1538.6,2080.6z M1476.2,1757.9c-2.6,0-5.3,0.1-7.9,0.3
									c-26,2-47.7,14.2-62.8,35.2c-20.4,28.4-26,69.2-15.3,111.8c20,79.8,89.9,140.5,155.8,135.3c26-2,47.7-14.2,62.8-35.2
									c20.4-28.4,26-69.2,15.3-111.8l0,0C1605,1816.9,1539.7,1757.9,1476.2,1757.9z"/>
							</g>
						</g>
					</g>
					<g>
						<g>
							<g>
								<path class="st1" d="M1538.6,2080.6c-81.1,0-163.4-72-187-165.7c-13.6-54-5.7-106.7,21.6-144.7
									c21.8-30.4,54.5-48.7,91.9-51.7c84.4-6.6,173,67.5,197.5,165.3l0,0c13.6,54,5.7,106.7-21.6,144.7
									c-21.8,30.4-54.5,48.7-91.9,51.7C1545.7,2080.5,1542.2,2080.6,1538.6,2080.6z M1476.2,1757.9c-2.6,0-5.3,0.1-7.9,0.3
									c-26,2-47.7,14.2-62.8,35.2c-20.4,28.4-26,69.2-15.3,111.8c20,79.8,89.9,140.5,155.8,135.3c26-2,47.7-14.2,62.8-35.2
									c20.4-28.4,26-69.2,15.3-111.8l0,0C1605,1816.9,1539.7,1757.9,1476.2,1757.9z"/>
							</g>
						</g>
					</g>
					<g>
						<g>
							<g>
								<path class="st3" d="M2635.1,1601.6c0,52.5-5.4,103.6-15.5,152.5c-60.3,291.6-289.7,508.5-563.5,508.5
									c-209.1,0-392.4-126.6-494.1-316.4c-53.9-100.3-84.9-218.4-84.9-344.7c0-365.1,259.2-661,579-661
									C2375.8,940.5,2635.1,1236.5,2635.1,1601.6z"/>
							</g>
						</g>
					</g>
					<g class="st0">
						<g>
							<g>
								<path class="st1" d="M2635.1,1601.6c0,52.5-5.4,103.6-15.5,152.5c-60.3,291.6-289.7,508.5-563.5,508.5
									c-209.1,0-392.4-126.6-494.1-316.4c-53.9-100.3-84.9-218.4-84.9-344.7c0-15.8,0.5-31.5,1.5-47
									c6.7,108.4,36.3,209.5,83.4,297.2c101.7,189.8,285,316.4,494.1,316.4c273.8,0,503.2-216.9,563.5-508.5
									c7.1-34,11.8-69.1,14-105C2634.6,1570.2,2635.1,1585.8,2635.1,1601.6z"/>
							</g>
						</g>
					</g>
					<g>
						<g>
							<g>
								<path class="st1" d="M2056.1,2282.5c-330.2,0-598.9-305.5-598.9-680.9s268.7-680.9,598.9-680.9s598.9,305.5,598.9,680.9
									S2386.3,2282.5,2056.1,2282.5z M2056.1,960.4c-308.3,0-559.1,287.6-559.1,641.2c0,353.5,250.8,641.2,559.1,641.2
									s559.1-287.6,559.1-641.2C2615.2,1248,2364.4,960.4,2056.1,960.4z"/>
							</g>
						</g>
					</g>
					<g>
						<g>
							<g>
								<g>
									<path class="st1" d="M2208,1895.8c0,0,0.2,0.6,0.6,1.8c4.7,13.6,31.6,98.8-10.1,138.6c-8.2,7.8-19.2,14-33.5,17.3
										c-70.2,16.6-101.5-39.8-115.1-87.1c-9-30.9-10.5-57.9-10.5-57.9c73.2,22.6,130.6,8.4,169.1-10.9c36.7-18.3,56.2-41,56.2-41
										"/>
								</g>
							</g>
						</g>
						<g>
							<g>
								<g>
									<path class="st9" d="M2198.5,2033.6c0.1,0.9,0.1,1.7,0.1,2.6c-8.2,7.8-19.2,14-33.5,17.3c-70.2,16.6-101.5-39.8-115.1-87.1
										c12.7-6.6,27.2-10.9,42.8-12.1C2147.6,1950.2,2194.9,1985.7,2198.5,2033.6z"/>
								</g>
							</g>
						</g>
						<g>
							<g>
								<g>
									<path class="st1" d="M2206.4,1879.1c3.4-4,7.4-6.4,11.7-8.6c4.3-2.2,9-3.9,13.8-5.6c4.8-1.7,9.7-3.4,14.8-5.1
										c5.2-1.6,10.5-3.3,16.3-4.8l0.3-0.1c1.5-0.4,3.1,0.5,3.5,2.1c0.1,0.4,0.1,0.9,0,1.3c-1.2,6.4-3.6,11.9-6.3,17.2
										c-2.8,5.2-6,10.2-9.7,14.8c-3.7,4.5-7.6,8.9-12.2,12.3c-4.6,3.4-9.7,6.2-15.5,7.4c-9.9,1.9-19.5-4.6-21.4-14.5
										c-1.1-5.6,0.5-11.2,4-15.3L2206.4,1879.1z"/>
								</g>
							</g>
						</g>
						<g>
							<g>
								<g>
									<path class="st1" d="M2141.4,2076.3c-51.5,0-91-36.7-110.6-104.4c-9.5-32.7-11.1-61.2-11.2-62.4
										c-0.4-6.5,2.5-12.8,7.6-16.8c5.1-4,11.9-5.2,18.1-3.3c55.3,17.1,107.2,13.9,154.1-9.5c0.2-0.1,0.3-0.2,0.5-0.2l1.9-0.9
										c9.8-5,21.8-1.1,26.8,8.6c2.1,4.1,2.6,8.6,1.8,12.9c8.9,30.1,26.3,108-18.1,150.3c-11.3,10.8-25.7,18.3-42.6,22.3
										C2159.9,2075.2,2150.5,2076.3,2141.4,2076.3z M2063,1934.9c1.4,7.8,3.4,16.7,6.1,26c25.7,88.8,75.2,77.1,91.5,73.3
										c10-2.4,18.2-6.5,24.3-12.4c21.9-20.9,18.7-64.3,11-96.9C2162.6,1937.4,2117.6,1945.7,2063,1934.9z"/>
								</g>
							</g>
						</g>
					</g>
					<g>
						<g>
							<g>
								<path class="st1" d="M2431.3,1636.4c-4.1,0.2-7.8-1-11.3-1.7l-10.2-2.4c-6.6-1.5-12.8-2.9-18.8-3.8
									c-11.9-2-22.6-2.3-33.1-1.1c-10.5,1.2-21.1,4.1-32.6,8.5c-11.6,4.2-23.6,10.1-38.1,15.4c3.5-15.1,11.8-28,23.2-38.6
									c11.3-10.5,26.7-18.3,43.5-20.1c16.7-2,33.8,2.1,47.2,10.3c6.7,4.1,12.7,9.1,17.7,14.8c2.5,2.9,4.8,5.9,6.8,9
									c1,1.6,2,3.2,2.9,4.8C2429.4,1633.2,2430.1,1634.9,2431.3,1636.4z"/>
							</g>
						</g>
					</g>
					<g>
						<g>
							<g>
								<path class="st1" d="M1959.1,1691c-4.1,0.2-7.8-1-11.3-1.7l-10.2-2.4c-6.6-1.5-12.8-2.9-18.8-3.8c-11.9-2-22.6-2.3-33.1-1.1
									c-10.5,1.2-21.1,4.1-32.6,8.5c-11.6,4.2-23.6,10.1-38.1,15.4c3.5-15.1,11.8-28,23.2-38.6c11.3-10.5,26.7-18.3,43.5-20.1
									c16.7-2,33.8,2.1,47.2,10.3c6.7,4.1,12.7,9.1,17.7,14.8c2.5,2.9,4.8,5.9,6.8,9c1,1.6,2,3.2,2.9,4.8
									C1957.3,1687.9,1958,1689.6,1959.1,1691z"/>
							</g>
						</g>
					</g>
					<g>
						<g>
							<g>
								<path class="st1" d="M2590.2,1401.1c1.1-0.9,2.9-2.7,4.4-4.2c1.5-1.5,3.1-3.2,4.6-4.8c3.1-3.3,6-6.7,8.9-10.2
									c5.8-7,11.2-14.4,16.3-22.1c10-15.3,18.6-31.9,24.6-49.4c6.1-17.5,9.6-36,9.9-54.9c0.5-18.9-2.9-38-8.9-56.5
									c9,17.2,15.9,36,18.8,55.8c3.2,19.8,2.8,40.3-0.5,60.4c-3.2,20.2-9.4,39.8-17.6,58.7c-4.1,9.4-8.7,18.6-13.8,27.6
									c-2.6,4.5-5.2,8.9-8.1,13.3c-1.4,2.2-2.9,4.4-4.4,6.6c-1.6,2.3-2.9,4.2-5.1,6.8l-0.8,0.9c-7,8.6-19.6,9.9-28.2,2.9
									c-8.6-7-9.9-19.6-2.9-28.2C2588.2,1402.9,2589.2,1401.9,2590.2,1401.1z"/>
							</g>
						</g>
					</g>
					<g>
						<g>
							<g>
								<path class="st10" d="M2617.6,1763.5l-7.7-355.5c0,0-114,163.7-407.2,153.8c0,0,79.5-89.5,44.7-213.7
									c0,0,9.9,208.7-432.4,293.2c0,0,34.8-79.5,14.9-203.8c0,0-54.7,223.7-248.5,188.9l-31,297.3c0,0-164.4-174.9-198.8-382.3
									c-13.4-80.5-7.1-166,36-248c0,0-144.1,54.7-149.1,0c-5-54.7,169-69.6,169-69.6s-49.7-164,0-193.8s69.6,149.1,69.6,149.1
									s21.9-42.7,67.4-100.4c0,0,0,0,0.2-0.2c93.4-118.5,286.2-300.2,593.4-306.9c237.9-5.2,427.3,135.1,518.2,337.7
									c8.2,18.1,15.5,36.7,22,55.8C2739,1342.6,2728.4,1558.1,2617.6,1763.5z"/>
							</g>
						</g>
					</g>
					<g class="st0">
						<g>
							<g>
								<path class="st1" d="M2617.6,1763.5l-7.7-355.5c0,0-114,163.7-407.2,153.8c0,0,79.5-89.5,44.7-213.7
									c0,0,9.9,208.7-432.4,293.2c0,0,34.8-79.5,14.9-203.8c0,0-54.7,223.7-248.5,188.9l-31,297.3c0,0-164.4-174.9-198.8-382.3
									c88.6,106.8,155.7,60.2,155.7,60.2c-25-16.8-30.2-85.4-30.2-85.4c225.9,73.5,338-258.8,338-258.8
									c65.5,57.5,77,258.8,77,258.8c228.8-19.1,352.7-324.3,352.7-324.3c113.1,88.6,95.5,276.9,95.5,276.9
									c238.1-40.9,308-195.6,338-303.6C2739,1342.6,2728.4,1558.1,2617.6,1763.5z"/>
							</g>
						</g>
					</g>
					<g class="st4">
						<g>
							<g>
								<path class="st2" d="M2656.2,1109.3c-471.9-586.2-1098.9-42-1111.6-30.8c93.4-118.5,286.2-300.2,593.4-306.9
									C2375.9,766.4,2565.3,906.7,2656.2,1109.3z"/>
							</g>
						</g>
					</g>
					<g>
						<g>
							<g>
								<path class="st1" d="M1550.4,1943.6c-5.4,0-10.7-2.2-14.5-6.3c-3.3-3.5-81.9-87.8-142.5-210
									c-72.6-146.3-86.9-284-42.3-401.3c-36.8,10-86.1,18.5-112.3,2.1c-11.8-7.4-18.8-18.8-20.1-32.9
									c-1.1-12.3,2.9-24.3,11.6-34.7c28.5-34,109.1-48.5,151.9-53.9c-4.2-16.6-9.5-40.5-13-65.7c-9.6-69-0.4-110.8,28.1-127.9
									c12.4-7.4,25.9-8.2,38-2.2c27.9,13.8,44.1,67,53,111.3c26.1-39.4,70.3-98.1,134.3-157.6c101.2-94.2,272.6-207.6,515.1-212.8
									c206.4-4.5,388.1,96.4,498.4,276.8c62.5,102.2,96.6,222.8,98.8,348.8c2.3,133.7-32.3,270.5-99.8,395.7
									c-4.3,7.9-13.4,12-22.2,9.9c-8.8-2.1-15-9.9-15.2-18.9l-6.6-306.2c-52.3,48.2-166.2,124.3-362.6,124.3
									c-8.7,0-17.5-0.1-26.4-0.5c-7.7-0.3-14.6-4.9-17.6-12c-3-7.1-1.7-15.3,3.4-21c2-2.3,34.9-40.6,45.4-100.4
									c-46.5,71.6-156.3,163.3-414.5,212.7c-7.2,1.4-14.7-1.4-19.3-7.1c-4.6-5.8-5.6-13.6-2.7-20.4c0.2-0.5,17.8-42.3,19.2-111.3
									c-32.8,58.6-93,127.9-194.5,127.9c-7.3,0-14.8-0.4-22.5-1.1l-28.9,276.8c-0.8,7.7-6,14.3-13.4,16.8
									C1554.6,1943.2,1552.5,1943.6,1550.4,1943.6z M1387.6,1273.5c5.6,0,11,2.4,14.9,6.7c5.5,6.2,6.6,15.1,2.7,22.4
									c-117.7,224.1,57.3,480.8,130.3,572.6l26.2-250.9c0.6-5.5,3.4-10.5,7.8-13.8c4.4-3.3,10-4.7,15.5-3.7
									c172.9,31,223.6-165.7,225.7-174c2.3-9.2,10.7-15.4,20.1-15.1c9.4,0.4,17.3,7.4,18.8,16.7c13,81.4,3.6,144.5-5.4,180.7
									c197.1-42.7,290.9-110.8,335.1-161.8c49.1-56.6,48.4-102.6,48.3-104.5c-0.3-10,7-18.8,16.9-20.3c9.9-1.5,19.4,4.5,22.1,14.2
									c24.8,88.5-3.5,160.2-26.2,199.5c250.7-4.5,352.2-144.1,353.3-145.6c4.9-7,13.9-10.1,22.1-7.6c8.2,2.5,13.9,10,14.1,18.6
									l5.9,271.7c88.4-213.7,77.4-448.9-33.5-630.1c-102.7-168-271.6-261.9-463.6-257.8c-229.9,5-392.8,112.7-488.9,202.2
									c-104.3,97.1-154.4,193.6-154.9,194.6c-4,7.8-12.6,12.1-21.3,10.5c-8.6-1.6-15.2-8.6-16.2-17.4
									c-7.1-63.9-25.5-127.1-39-134.6c-0.2,0.1-0.3,0.2-0.6,0.3c-21.5,12.9-12.6,100.5,8.8,171c1.7,5.7,0.8,12-2.6,16.9
									c-3.4,5-8.8,8.1-14.8,8.7c-50.5,4.4-130,20.4-148.5,42.4c-2.7,3.2-2.5,4.9-2.4,5.6c0.2,1.9,0.6,2.2,1.6,2.8
									c15.5,9.7,75-2.3,120.7-19.6C1382.8,1273.9,1385.2,1273.5,1387.6,1273.5z M1418.8,1046.5L1418.8,1046.5L1418.8,1046.5z"/>
							</g>
						</g>
					</g>
					<g>
						<g>
							<g>
								<path class="st5" d="M1983,2503.5c-70.9,31-127.9-6-159.6-36.4c-9.2-8.8-16.3-17-20.9-22.9c-4.2-5.3-6.5-8.7-6.5-8.7
									c116.6,29.3,83.6-69.9,133.5-108.8c21.5-16.8,41.6-21.7,59.2-19.5c2.2,0.2,4.3,0.6,6.4,1.1c19.4,4.3,35.4,16.9,46.5,30.5
									c0.5,0.6,0.9,1.1,1.4,1.7c3.6,4.6,8.5,13.1,12.6,24.1C2068.9,2400.9,2072.3,2464.4,1983,2503.5z"/>
							</g>
						</g>
					</g>
					<g class="st4">
						<g>
							<g>
								<path class="st2" d="M2007.8,2407.3c0.5,10.3-6,19.7-13.4,27c-18.2,17.8-54.1,33.5-79.6,23.9c16.9-5.7,32.9-9.9,48.6-19.2
									C1979.1,2429.7,1993.5,2418.5,2007.8,2407.3z"/>
							</g>
						</g>
					</g>
					<g class="st4">
						<g>
							<g>
								<path class="st2" d="M1995.1,2308.3c-13.2,10.8-34.8,30.4-45,48.8c-13,23.5-44.2,129.6-126.6,110
									c-9.2-8.8-16.3-17-20.9-22.9c-4.2-5.3-6.5-8.7-6.5-8.7c116.6,29.3,83.6-69.9,133.5-108.8c21.5-16.8,41.6-21.7,59.2-19.5
									C1990.9,2307.4,1993,2307.8,1995.1,2308.3z"/>
							</g>
						</g>
					</g>
					<g class="st0">
						<g>
							<g>
								<path class="st1" d="M1907.6,2450.3c12.7-14.1,24.3-29.1,34.7-44.9c18.5-28.1,33.4-58.6,44.1-90.5c0.8-2.3,1.5-4.9,2.2-7.8
									c22.3,2.7,40.6,16.6,52.9,31.7C2006.6,2387.1,1963.4,2431,1907.6,2450.3z"/>
							</g>
						</g>
					</g>
					<g class="st0">
						<g>
							<g>
								<path class="st1" d="M1983,2503.5c-91.4,40-159.8-33.2-180.5-59.2c18.7,12.1,37.8,23.9,59.1,30
									c39.7,11.3,83.2,1.3,118.7-19.5c31.1-18.2,57.7-45.2,71.3-78.5c1.5-3.7,2.8-7.6,3.9-11.5
									C2068.9,2400.9,2072.3,2464.4,1983,2503.5z"/>
							</g>
						</g>
					</g>
					<g>
						<g>
							<g>
								<path class="st1" d="M1929.7,2530.1c-87.9,0-145.5-85.3-146.2-86.3c-3.4-5.2-3.3-11.9,0.3-16.9c3.6-5.1,9.9-7.4,15.9-5.9
									c62.7,15.8,70.7-7,83.9-44.7c7.4-21.2,15.9-45.2,36.7-61.5c32.7-25.6,61.7-25.4,80.2-20.8c20.2,5.1,39.5,18.3,54.3,37.2l0,0
									c9.3,11.9,31.1,52.9,19.6,98.4c-9.5,37.4-38.2,66.9-85.4,87.5C1968.1,2526.3,1948.2,2530.1,1929.7,2530.1z M1833,2455.8
									c28.6,27.8,80.1,61.8,144,33.9c38.2-16.7,61.2-39.4,68.3-67.4c8.6-34.2-8.9-65.9-14.1-72.6c-6.2-7.9-19.4-22-38-26.6
									c-17.5-4.4-35.8,0.8-54.4,15.3c-13.9,10.9-20.2,28.8-26.8,47.8c-11.1,31.6-24.4,69.6-78.5,69.6
									C1833.3,2455.8,1833.1,2455.8,1833,2455.8z"/>
							</g>
						</g>
					</g>
					<g>
						<g>
							<g>
								<path class="st1" d="M2056.5,2345c-2.6,3.8-4.7,6.5-7.1,9.5c-2.3,2.9-4.7,5.7-7.1,8.5c-4.8,5.5-9.8,10.8-15,15.9
									c-10.3,10.2-21.3,19.6-32.8,28.1c-5.6,4.4-11.7,8.2-17.6,12.1c-6.2,3.6-12.1,7.4-18.5,10.5c-12.4,6.7-25.6,11.6-38.6,16
									c11.7-7.4,23-15.1,33-24.3c5.2-4.3,9.9-9.3,14.7-13.9c4.5-5,9.2-9.8,13.3-15c8.5-10.3,16.3-21,23.1-32.2
									c3.4-5.6,6.6-11.3,9.6-17c1.5-2.9,2.9-5.8,4.2-8.6c1.3-2.8,2.7-6,3.5-8.2c3.6-10.5,15.1-16.1,25.6-12.4
									c10.5,3.6,16.1,15.1,12.4,25.6c-0.6,1.7-1.4,3.2-2.3,4.6L2056.5,2345z"/>
							</g>
						</g>
					</g>
					<g>
						<g>
							<g>
								<path class="st5" d="M2430.1,2334.4c0,0-36.4,134.4-156.1,123.4c-116.9-10.7-117.3-97.6-110.1-129.1
									c0.6-2.6,1.2-4.8,1.9-6.6c1.5-4.3,3.4-8.5,5.6-12.8c6.7-12.9,16.6-25.2,30.1-33.2c6.8-4,14.5-6.9,23.2-8.3
									c12.7-2,27.4-0.7,44.5,5.4c21.5,7.7,35.2,26.1,48.8,43.6c3.7,4.7,7.4,9.4,11.1,13.8
									C2350,2354.8,2375.2,2369.4,2430.1,2334.4z"/>
							</g>
						</g>
					</g>
					<g class="st4">
						<g>
							<g>
								<path class="st2" d="M2302.4,2385.1c-12,7.4-26.7,10.4-40.7,8.4c-12.1-1.8-28.1-8.2-35.2-18.7c3-1.3,13.5,4.8,17.2,6
									c6.3,2,12.7,3.5,19.3,4.6C2276,2387.3,2289.4,2387.3,2302.4,2385.1z"/>
							</g>
						</g>
					</g>
					<g class="st4">
						<g>
							<g>
								<path class="st2" d="M2317.9,2316.8c-50.4,7.9-78.8-23.6-93.2-49c12.7-2,27.4-0.7,44.5,5.4
									C2290.6,2280.8,2304.4,2299.3,2317.9,2316.8z"/>
							</g>
						</g>
					</g>
					<g class="st0">
						<g>
							<g>
								<path class="st1" d="M2430.1,2334.4c0,0-36.4,134.4-156.1,123.4c-116.9-10.7-117.3-97.6-110.1-129.1
									c11.6,25.1,29.8,47.3,53.9,61.2c35.5,20.6,83.2,20.8,116.3-3.5c-36-1.4-72.5-7.4-104.6-23.9c-23.7-12.1-44.8-30.5-58.2-53.3
									c6.7-12.9,16.6-25.2,30.1-33.2c6.9,3.6,13.3,8.4,19,13.5c14.5,12.9,27.1,28.5,44.4,37.2c19.6,9.7,42.9,9.1,64.1,3.8
									C2350,2354.8,2375.2,2369.4,2430.1,2334.4z"/>
							</g>
						</g>
					</g>
					<g>
						<g>
							<g>
								<path class="st1" d="M2287.8,2473.4c-4.9,0-10-0.2-15.2-0.7c-51.3-4.7-87.8-23.6-108.6-56.2c-25.2-39.5-17.5-85.3-12.4-99.6
									c8.1-22.6,22.2-41.3,39.8-52.5c16.1-10.2,43.5-19.5,82.7-5.5c24.9,8.9,40.4,29,54.2,46.8c24.4,31.6,39.1,50.7,93.7,15.9
									c5.2-3.3,11.9-3.1,16.9,0.6c5,3.7,7.2,10,5.6,16C2444.2,2339.8,2406.6,2473.4,2287.8,2473.4z M2236,2281.9
									c-10.5,0-20,2.7-28.4,8c-16.2,10.3-24.3,27.8-27.7,37.2c0,0,0,0,0,0c-2.8,7.9-9.5,43.6,9.4,73.3
									c15.5,24.3,44.5,38.6,86,42.4c69.4,6.4,107.6-42.2,126-77.5c-51.6,17.4-76.3-14.6-96.8-41.2c-12.3-15.9-23.9-30.9-40.5-36.9
									C2254,2283.7,2244.7,2281.9,2236,2281.9z M2165.8,2322.1L2165.8,2322.1L2165.8,2322.1z"/>
							</g>
						</g>
					</g>
					<g>
						<g>
							<g>
								<path class="st1" d="M2181.8,2301.9c1.4,1.9,3.8,4.5,5.9,6.7c2.2,2.3,4.4,4.6,6.7,6.9c4.6,4.5,9.5,8.9,14.5,13.1
									c10,8.5,20.8,16.3,32.1,23.3c5.6,3.7,11.5,6.7,17.4,10c6,2.8,12,6.1,18.3,8.5c12.4,5.5,25.5,9.3,39,12.6
									c-13.8-0.1-27.8-0.6-41.7-3.1c-7-0.9-13.8-2.7-20.8-4.1c-6.8-1.9-13.8-3.6-20.5-6c-13.6-4.5-27-9.9-39.9-16.3
									c-6.5-3.2-12.9-6.7-19.2-10.4c-3.2-1.9-6.3-3.8-9.4-5.8c-3.2-2.1-6.1-4-9.7-6.8l-0.7-0.6c-8.8-6.8-10.5-19.4-3.7-28.2
									c6.8-8.8,19.4-10.5,28.2-3.7C2179.5,2299.2,2180.8,2300.5,2181.8,2301.9z"/>
							</g>
						</g>
					</g>
					<g>
						<g>
							<g>
								<ellipse class="st5" cx="2107.9" cy="2337.4" rx="89.5" ry="77"/>
							</g>
						</g>
					</g>
					<g class="st4">
						<g>
							<g>
								<ellipse class="st2" cx="2105.3" cy="2299.7" rx="29.3" ry="14.2"/>
							</g>
						</g>
					</g>
					<g class="st0">
						<g>
							<g>
								<path class="st1" d="M2197.4,2336.3c0,42.5-40.1,77-89.5,77c-49.4,0-89.5-34.5-89.5-77c0-10.3,2.3-20.1,6.6-29.1
									c13.4,28.1,45.4,47.9,82.9,47.9c37.4,0,69.5-19.8,82.9-47.9C2195.1,2316.1,2197.4,2325.9,2197.4,2336.3z"/>
							</g>
						</g>
					</g>
					<g>
						<g>
							<g>
								<path class="st1" d="M2107.9,2429.4c-57.6,0-104.5-41.3-104.5-92s46.9-92,104.5-92s104.5,41.3,104.5,92
									S2165.5,2429.4,2107.9,2429.4z M2107.9,2275.4c-41.1,0-74.5,27.8-74.5,62s33.4,62,74.5,62s74.5-27.8,74.5-62
									S2149,2275.4,2107.9,2275.4z"/>
							</g>
						</g>
					</g>
					<g>
						<g>
							<g>
								<path class="st11" d="M2004.3,2406.8c-0.3,0-0.5,0-0.8,0"/>
							</g>
						</g>
					</g>
					<g>
						<g>
							<g>
								<path class="st1" d="M2757.6,1980.3c-0.2,0.4,0.8,0.7,1.4,1c0.7,0.3,1.5,0.5,2.3,0.7c1.6,0.4,3.2,0.7,4.9,0.9
									c3.4,0.4,6.8,0.5,10.3,0c3.6-0.4,7-1.5,10.4-3.2c3.5-1.7,6.5-4.4,9.5-7.7c0.2,4.2,0.1,9.1-1.5,13.7
									c-1.4,4.6-3.7,9.3-6.8,13.5c-3.1,4.2-6.7,8-10.8,11.5c-2.1,1.7-4.2,3.3-6.5,4.8c-1.1,0.8-2.3,1.5-3.6,2.2
									c-1.4,0.7-2.3,1.4-4.5,2.1c-10.9,1.4-20.9-6.3-22.3-17.2S2746.7,1981.7,2757.6,1980.3z"/>
							</g>
						</g>
					</g>
					<g>
						<g>
							<g>
								<g>
									<path class="st1" d="M2422.3,1714.8c-10.2,4.7-20.5,9.9-29.9,15.6c-9.5,5.7-18.3,12.1-26.4,19c-4.1,3.4-7.8,7.2-11.6,10.8
										c-3.4,4-7.1,7.6-10.1,11.9c-6.6,8.1-11.4,17.3-16.1,26.7l-21.7-18.3c3-1.8,5.1-2.8,7.6-3.9c2.4-1.1,4.8-2,7.2-3
										c4.8-1.8,9.8-3.2,14.8-4.4c10-2.3,20.2-3.4,30.4-3c10.1,0.5,20.3,1.8,29.7,5.2c9.6,2.8,18.4,7.6,26.5,12.9
										c2.4,1.5,3,4.7,1.5,7.1c-1.1,1.8-3.2,2.6-5.1,2.3l-0.6-0.1c-4.5-0.8-8.7-2-13-2.6c-4.4-0.5-8.6-1.3-12.8-1.5
										c-8.5-0.6-16.9-0.4-25.1,0.8c-8.2,1-16.2,3-24,5.6c-3.9,1.3-7.6,2.9-11.3,4.5c-1.8,0.9-3.6,1.7-5.3,2.7
										c-1.6,0.9-3.6,2-4.5,2.6l-0.3,0.2c-6.9,4.3-16.1,2.3-20.4-4.7c-2.7-4.3-2.9-9.5-1-13.8c5.2-11.9,11.2-23.8,19.7-33.9
										c3.8-5.4,8.7-9.8,13.3-14.5c5-4.2,9.9-8.5,15.4-12c10.7-7.2,22.3-12.9,34.3-16.7c12.1-3.7,24.3-6,37.3-5.6
										c2.8,0.1,5.1,2.5,5,5.3c-0.1,2-1.3,3.7-3,4.5L2422.3,1714.8z"/>
								</g>
							</g>
						</g>
						<g>
							<g>
								<g>
									<g>
										
											<ellipse transform="matrix(-0.9985 -5.538772e-002 5.538772e-002 -0.9985 3714.3801 3742.9128)" class="st1" cx="1909.1" cy="1820" rx="73.1" ry="96"/>
									</g>
								</g>
							</g>
							<g>
								<g>
									<g>
										
											<ellipse transform="matrix(-0.9985 -5.538791e-002 5.538791e-002 -0.9985 3752.9458 3710.6675)" class="st2" cx="1927.9" cy="1803.3" rx="21.3" ry="28"/>
									</g>
								</g>
							</g>
						</g>
					</g>
				</g>
				<g>
					<g>
						<g>
							<path class="st1" d="M2775.4,2022.9c-0.2,0.2,0,0.2,0.2,0.2c0.1,0,0.3,0,0.5,0c0.4,0,0.8-0.1,1.3-0.2
								c0.9-0.1,1.8-0.4,2.8-0.6c1.9-0.5,3.8-1.2,5.7-2c3.8-1.6,7.6-3.6,11.2-6.1c3.6-2.5,7.1-5.4,10.2-8.8c3.3-3.4,6-7.3,8.6-11.6
								c0.7,4.9,1.1,10.1,0.6,15.3c-0.3,5.3-1.3,10.7-2.8,16c-1.5,5.4-3.6,10.7-6.3,15.9c-1.4,2.6-2.8,5.1-4.5,7.7
								c-0.9,1.3-1.7,2.5-2.7,3.8c-0.5,0.6-1,1.3-1.5,1.9c-0.3,0.3-0.5,0.6-0.9,1c-0.3,0.3-0.6,0.7-1.3,1.2
								c-9.3,5.8-21.6,3-27.4-6.4C2763.3,2040.9,2766.1,2028.7,2775.4,2022.9z"/>
						</g>
					</g>
				</g>
			</g>
		</g>
	</g>
</g>
</svg>
