<?xml version="1.0" encoding="utf-8"?>
<!-- Generator: Adobe Illustrator 19.0.0, SVG Export Plug-In . SVG Version: 6.00 Build 0)  -->
<svg version="1.1" xmlns="http://www.w3.org/2000/svg" xmlns:xlink="http://www.w3.org/1999/xlink" x="0px" y="0px"
	 viewBox="0 0 500 500" style="enable-background:new 0 0 500 500;" xml:space="preserve">
<style type="text/css">
	.st0{fill:#FAFAFA;}
	.st1{fill:#F0F0F0;}
	.st2{fill:#EBEBEB;}
	.st3{fill:#BA68C8;}
	.st4{opacity:0.3;fill:#FFFFFF;}
	.st5{opacity:0.6;fill:#FFFFFF;}
	.st6{fill:#FFFFFF;}
	.st7{fill:#E0E0E0;}
	.st8{fill:#E6E6E6;}
	.st9{opacity:0.15;}
	.st10{fill:#F5F5F5;}
	.st11{fill:#37474F;}
	.st12{fill:#455A64;}
	.st13{fill:#263238;}
	.st14{fill:#455A64;stroke:#263238;stroke-width:0.4473;stroke-miterlimit:10;}
	.st15{opacity:0.2;}
	.st16{opacity:0.4;fill:#FFFFFF;}
	.st17{opacity:0.1;}
	.st18{opacity:0.85;fill:#FFFFFF;}
	.st19{opacity:0.25;fill:#BA68C8;}
	.st20{opacity:0.5;}
	.st21{opacity:0.4;}
	.st22{opacity:0.1;fill:#FAFAFA;}
	.st23{opacity:0.2;fill:#FAFAFA;}
	.st24{opacity:0.7;fill:#FFFFFF;}
	.st25{opacity:5.000000e-002;}
	.st26{opacity:0.15;fill:#FFFFFF;}
	.st27{opacity:0.2;fill:#BA68C8;}
	.st28{opacity:0.35;fill:#FFFFFF;}
	.st29{opacity:3.000000e-002;}
	.st30{opacity:0.1;fill:#BA68C8;}
	.st31{opacity:0.5;fill:#FFFFFF;}
	.st32{fill:#FFA8A7;}
	.st33{fill:#F28F8F;}
	.st34{fill:#B16668;}
	.st35{fill:#C8856A;}
	.st36{fill:#AF6152;}
	.st37{opacity:0.5;fill:#AF6152;}
</style>
<g id="Floor">
	<path id="Floor_00000036967958287041764530000013391732036499759013_" class="st0" d="M414,455c-93.2,53.8-244.3,53.8-337.5,0
		c-25.5-14.7-44.1-32-55.6-50.4L326.8,228c31.8,6.7,61.7,17.4,87.2,32.1C507.2,314,507.2,401.2,414,455z"/>
</g>
<g id="Wall_00000025410966073034665730000011928859115210821032_">
	<g id="Wall_00000046331171163517167880000003826987712927019417_">
		<g id="Bricks">
			<path class="st1" d="M222.9,66.1v5.2c0,1.6,1.2,2.3,2.6,1.5L249.3,59c1.4-0.8,2.6-2.8,2.6-4.5v-5.2c0-1.6-1.2-2.3-2.6-1.5
				l-23.8,13.7C224.1,62.4,222.9,64.4,222.9,66.1z"/>
			<path class="st2" d="M268.6,153.1v5.2c0,1.6,1.2,2.3,2.6,1.5l23.8-13.7c1.4-0.8,2.6-2.8,2.6-4.5v-5.2c0-1.6-1.2-2.3-2.6-1.5
				l-23.8,13.7C269.7,149.4,268.6,151.4,268.6,153.1z"/>
			<path class="st1" d="M257,72.3l-23.8,13.7c-1.4,0.8-2.6,2.8-2.6,4.5v5.2c0,1.6,1.2,2.3,2.6,1.5L257,83.5c1.4-0.8,2.6-2.8,2.6-4.5
				v-5.2C259.5,72.2,258.4,71.5,257,72.3z"/>
			<path class="st1" d="M222.9,241.8v5.2c0,1.6,1.2,2.3,2.6,1.5l23.8-13.7c1.4-0.8,2.6-2.8,2.6-4.5v-5.2c0-1.6-1.2-2.3-2.6-1.5
				l-23.8,13.7C224.1,238.1,222.9,240.1,222.9,241.8z"/>
			<path class="st1" d="M257,248l-23.8,13.7c-1.4,0.8-2.6,2.8-2.6,4.5v5.2c0,1.6,1.2,2.3,2.6,1.5l23.8-13.7c1.4-0.8,2.6-2.8,2.6-4.5
				v-5.2C259.5,247.9,258.4,247.2,257,248z"/>
			<path class="st1" d="M71.6,221.6l-23.8,13.7c-1.4,0.8-2.6,2.8-2.6,4.5v5.2c0,1.6,1.2,2.3,2.6,1.5l23.8-13.7
				c1.4-0.8,2.6-2.8,2.6-4.5v-5.2C74.2,221.4,73,220.8,71.6,221.6z"/>
			<path class="st1" d="M71.6,254.3L47.8,268c-1.4,0.8-2.6,2.8-2.6,4.5v5.2c0,1.6,1.2,2.3,2.6,1.5l23.8-13.7
				c1.4-0.8,2.6-2.8,2.6-4.5v-5.2C74.2,254.1,73,253.5,71.6,254.3z"/>
			<path class="st1" d="M40.3,87.8l-23.8,13.7c-0.3,0.2-0.6,0.4-0.9,0.7V113c0.3,0,0.6-0.1,0.9-0.3L40.3,99c1.4-0.8,2.6-2.8,2.6-4.5
				v-5.2C42.9,87.7,41.7,87,40.3,87.8z"/>
			<path class="st1" d="M29.9,110.5v5.2c0,1.6,1.2,2.3,2.6,1.5l23.8-13.7c1.4-0.8,2.6-2.8,2.6-4.5v-5.2c0-1.6-1.2-2.3-2.6-1.5
				L32.4,106C31,106.8,29.9,108.8,29.9,110.5z"/>
			<path class="st1" d="M25.3,164.8l-9.7,5.6v11.1l9.7-5.6c1.4-0.8,2.6-2.8,2.6-4.5v-5.2C27.8,164.7,26.7,164,25.3,164.8z"/>
			<path class="st2" d="M71.2,124.7l-23.8,13.7c-1.4,0.8-2.6,2.8-2.6,4.5l0,5.2c0,1.6,1.2,2.3,2.6,1.5l23.8-13.7
				c1.4-0.8,2.6-2.8,2.6-4.5v-5.2C73.8,124.5,72.7,123.9,71.2,124.7z"/>
			<path class="st1" d="M133.1,61.7l-23.8,13.7c-1.4,0.8-2.6,2.8-2.6,4.5v5.2c0,1.6,1.2,2.3,2.6,1.5l23.8-13.7
				c1.4-0.8,2.6-2.8,2.6-4.5v-5.2C135.7,61.5,134.6,60.8,133.1,61.7z"/>
			<path class="st2" d="M165.7,42l-23.8,13.7c-1.4,0.8-2.6,2.8-2.6,4.5v5.2c0,1.6,1.2,2.3,2.6,1.5l23.8-13.7
				c1.4-0.8,2.6-2.8,2.6-4.5v-5.2C168.3,41.8,167.2,41.2,165.7,42z"/>
			<path class="st2" d="M69.7,48.9L45.9,62.6c-1.4,0.8-2.6,2.8-2.6,4.5v5.2c0,1.6,1.2,2.3,2.6,1.5L69.7,60c1.4-0.8,2.6-2.8,2.6-4.5
				v-5.2C72.3,48.7,71.1,48.1,69.7,48.9z"/>
			<path class="st2" d="M71.6,194.2L47.8,208c-1.4,0.8-2.6,2.8-2.6,4.5v5.2c0,1.6,1.2,2.3,2.6,1.5l23.8-13.7
				c1.4-0.8,2.6-2.8,2.6-4.5v-5.2C74.2,194.1,73,193.4,71.6,194.2z"/>
			<path class="st2" d="M246.5,149.7v5.2c0,1.6,1.2,2.3,2.6,1.5l23.8-13.7c1.4-0.8,2.6-2.8,2.6-4.5V133c0-1.6-1.2-2.3-2.6-1.5
				l-23.8,13.7C247.7,146,246.5,148,246.5,149.7z"/>
			<path class="st1" d="M290.5,170.6v-5.2c0-1.6-1.2-2.3-2.6-1.5l-23.8,13.7c-1.4,0.8-2.6,2.8-2.6,4.5v5.2c0,1.6,1.2,2.3,2.6,1.5
				l23.8-13.7C289.3,174.2,290.5,172.2,290.5,170.6z"/>
			<path class="st1" d="M290.5,104.1v-5.2c0-1.6-1.2-2.3-2.6-1.5l-23.8,13.7c-1.4,0.8-2.6,2.8-2.6,4.5v5.2c0,1.6,1.2,2.3,2.6,1.5
				l23.8-13.7C289.3,107.7,290.5,105.7,290.5,104.1z"/>
			<path class="st1" d="M306.3,56.9v-5.2c0-1.6-1.2-2.3-2.6-1.5L279.9,64c-1.4,0.8-2.6,2.8-2.6,4.5v5.2c0,1.6,1.2,2.3,2.6,1.5
				l23.8-13.7C305.1,60.6,306.3,58.6,306.3,56.9z"/>
			<path class="st1" d="M290.5,49.4v-5.2c0-1.6-1.2-2.3-2.6-1.5l-23.8,13.7c-1.4,0.8-2.6,2.8-2.6,4.5v5.2c0,1.6,1.2,2.3,2.6,1.5
				l23.8-13.7C289.3,53,290.5,51.1,290.5,49.4z"/>
			<path class="st1" d="M91.8,74.8l0,5.2c0,1.6,1.2,2.3,2.6,1.5l23.8-13.7c1.4-0.8,2.6-2.8,2.6-4.5v-5.2c0-1.6-1.2-2.3-2.6-1.5
				L94.3,70.3C92.9,71.2,91.8,73.1,91.8,74.8z"/>
			<path class="st1" d="M40.3,169.9l-23.8,13.7c-0.3,0.2-0.6,0.4-0.9,0.7v10.7c0.3,0,0.6-0.1,0.9-0.3L40.3,181
				c1.4-0.8,2.6-2.8,2.6-4.5v-5.2C42.9,169.7,41.7,169.1,40.3,169.9z"/>
			<path class="st1" d="M40.3,288.3l-23.8,13.7c-0.3,0.2-0.6,0.4-0.9,0.7v10.7c0.3,0,0.6-0.1,0.9-0.3l23.8-13.7
				c1.4-0.8,2.6-2.8,2.6-4.5v-5.2C42.9,288.2,41.7,287.5,40.3,288.3z"/>
			<path class="st1" d="M29.9,310.9v5.2c0,1.6,1.2,2.3,2.6,1.5l23.8-13.7c1.4-0.8,2.6-2.8,2.6-4.5v-5.2c0-1.6-1.2-2.3-2.6-1.5
				l-23.8,13.7C31,307.3,29.9,309.3,29.9,310.9z"/>
			<path class="st1" d="M25.3,365.3l-9.7,5.6V382l9.7-5.6c1.4-0.8,2.6-2.8,2.6-4.5v-5.2C27.8,365.1,26.7,364.5,25.3,365.3z"/>
			<path class="st1" d="M40.3,370.4l-23.8,13.7c-0.3,0.2-0.6,0.4-0.9,0.7v10.7c0.3,0,0.6-0.1,0.9-0.3l23.8-13.7
				c1.4-0.8,2.6-2.8,2.6-4.5v-5.2C42.9,370.2,41.7,369.5,40.3,370.4z"/>
			<path class="st1" d="M40.6,253.3L16.8,267c-1.4,0.8-2.6,2.8-2.6,4.5v5.2c0,1.6,1.2,2.3,2.6,1.5l23.8-13.7
				c1.4-0.8,2.6-2.8,2.6-4.5v-5.2C43.2,253.1,42,252.4,40.6,253.3z"/>
			<path class="st1" d="M60.8,147.3v5.2c0,1.6,1.1,2.3,2.6,1.5l23.8-13.7c1.4-0.8,2.6-2.8,2.6-4.5v-5.2c0-1.6-1.2-2.3-2.6-1.5
				l-23.8,13.7C62,143.7,60.8,145.7,60.8,147.3z"/>
		</g>
		<g id="Wall">
			<polygon class="st3" points="111.4,367.4 99.2,360.3 99.2,97.7 111.4,104.7 			"/>
			<polygon class="st4" points="111.4,367.4 99.2,360.3 99.2,97.7 111.4,104.7 			"/>
			<g>
				<polygon class="st3" points="111.4,104.7 229.2,36.7 229.2,299.2 111.4,367.4 				"/>
				<polygon class="st5" points="111.4,104.7 229.2,36.7 229.2,299.2 111.4,367.4 				"/>
			</g>
			<polygon class="st3" points="99.2,97.7 217,29.6 229.2,36.7 111.4,104.7 			"/>
		</g>
	</g>
</g>
<g id="Frame">
	<g id="Disc">
		<g id="Frame_6_">
			<polygon id="XMLID_8884_" class="st0" points="23.7,235.5 25.1,236.4 67.6,211.8 66.2,211 			"/>
			<g id="XMLID_8853_">
				<g id="XMLID_8854_">
					<g id="XMLID_8855_">
						<polygon id="XMLID_8856_" class="st6" points="66.2,211 25.1,234.7 25.1,163.5 66.2,139.8 						"/>
					</g>
				</g>
			</g>
			<path id="XMLID_8850_" class="st1" d="M70.2,134.5L22.5,162l0,78.9l47.7-27.6L70.2,134.5z M67.6,211.8l-42.5,24.5l0-72.8
				L67.6,139L67.6,211.8z"/>
			<polygon id="XMLID_8849_" class="st7" points="67.6,211.8 66.2,211 66.2,139.8 67.6,139 			"/>
			<polygon id="XMLID_8848_" class="st0" points="70.2,134.5 68.8,133.6 21.1,161.2 22.5,162 			"/>
			<polygon id="XMLID_8847_" class="st7" points="21.1,161.2 22.5,162 22.5,240.9 21.1,240.1 			"/>
		</g>
		<g>
			<path class="st8" d="M44.9,199.4c8.9-5.2,16.2-17.7,16.2-28c0-10.3-7.2-14.5-16.2-9.3c-8.9,5.2-16.2,17.7-16.2,28
				C28.8,200.4,36,204.5,44.9,199.4z"/>
			<path class="st1" d="M44.9,186.3c2.6-1.5,4.8-5.3,4.8-8.3c0-3.1-2.1-4.3-4.8-2.8c-2.6,1.5-4.8,5.3-4.8,8.3
				C40.1,186.6,42.3,187.8,44.9,186.3z"/>
			<path class="st0" d="M44.9,184.9c2-1.1,3.6-3.9,3.6-6.2c0-2.3-1.6-3.2-3.6-2.1c-2,1.1-3.6,3.9-3.6,6.2
				C41.3,185.1,42.9,186,44.9,184.9z"/>
		</g>
		<path class="st8" d="M33.5,214.9l22.9-13.2c0.9-0.5,1.7-0.1,1.7,1v0c0,1.1-0.8,2.4-1.7,3l-22.9,13.2c-0.9,0.5-1.7,0.1-1.7-1v0
			C31.8,216.7,32.5,215.4,33.5,214.9z"/>
	</g>
</g>
<g id="Window">
	<g id="Window_00000007408611045077004790000013278636454157436052_">
		<polygon id="XMLID_8871_" class="st0" points="466.2,196.6 463.7,198.9 369.3,144 371.8,141.8 		"/>
		<g id="XMLID_8867_">
			<g id="XMLID_8868_">
				<g id="XMLID_8869_">
					<polygon id="XMLID_8870_" class="st6" points="371.8,141.8 463.7,195.2 463.7,98.1 371.8,44.7 					"/>
				</g>
			</g>
		</g>
		<polygon id="XMLID_8866_" class="st1" points="417.7,68 417.7,168.8 412.9,166.1 412.9,65.3 		"/>
		<polygon id="XMLID_8865_" class="st7" points="420,66 417.7,68 417.7,168.8 420,166.8 		"/>
		<path id="XMLID_8862_" class="st1" d="M364.5,148.1l103.9,60.3l0-114.5L364.5,33.6L364.5,148.1z M369.3,43.2l94.4,54.8l0,100.8
			L369.3,144V43.2z"/>
		<polygon id="XMLID_8861_" class="st7" points="369.3,144 371.8,141.8 371.8,44.7 369.3,43.2 		"/>
		<polygon id="XMLID_8860_" class="st0" points="364.5,33.6 367.1,31.5 471,91.8 468.4,94 		"/>
		<polygon id="XMLID_8859_" class="st7" points="471,91.8 468.4,94 468.4,208.5 471,206.3 		"/>
		<polygon id="XMLID_8858_" class="st7" points="417.7,71.5 412.9,68.7 412.9,72.1 417.7,74.9 		"/>
		<polygon id="XMLID_8857_" class="st9" points="417.7,74.9 420,72.8 417.7,71.5 		"/>
	</g>
</g>
<g id="Shadows">
	<path id="Shadow_00000023279339685252380270000007544980289825336500_" class="st7" d="M358.9,247.1c9.9,5.7,9.9,15,0,20.7
		c-9.9,5.7-25.9,5.7-35.8,0c-9.9-5.7-9.9-15,0-20.7C332.9,241.3,349,241.3,358.9,247.1z"/>
	<path id="Shadow_00000163058514205594727040000010614330009588259769_" class="st7" d="M450.1,368.1c23.5,13.6,23.5,35.6,0,49.2
		c-23.5,13.6-61.6,13.6-85.2,0c-23.5-13.6-23.5-35.6,0-49.2C388.5,354.5,426.6,354.5,450.1,368.1z"/>
	<path id="Shadow_00000061466613447488632310000012631195098240521381_" class="st7" d="M295,405.2c23.5,13.6,23.5,35.6,0,49.2
		c-23.5,13.6-61.6,13.6-85.2,0c-23.5-13.6-23.5-35.6,0-49.2C233.3,391.6,271.5,391.6,295,405.2z"/>
	<path id="Shadow_00000100369208922857811150000014613278459020339380_" class="st7" d="M311.7,265.8l-17.2-9.9
		c-1-0.6-2.7-0.6-3.7,0l-24.2,14c-0.5,0.3-0.8,0.7-0.8,1.1c0,0.4,0.3,0.8,0.8,1.1l17.2,9.9c1,0.6,2.7,0.6,3.7,0l24.2-14
		c0.5-0.3,0.8-0.7,0.8-1.1C312.5,266.5,312.2,266.1,311.7,265.8z"/>
	<path id="Shadow_29_" class="st7" d="M97.3,437c-17-9.8-17-25.7,0-35.6c17-9.8,44.6-9.8,61.6,0c17,9.8,17,25.7,0,35.6
		C141.9,446.8,114.3,446.8,97.3,437z"/>
	<path id="Shadow_00000125580193601307713790000012833228515051228297_" class="st7" d="M71.1,399.9l-17.2-9.9c-1-0.6-2.7-0.6-3.7,0
		l-24.2,14c-0.5,0.3-0.8,0.7-0.8,1.1c0,0.4,0.3,0.8,0.8,1.1l17.2,9.9c1,0.6,2.7,0.6,3.7,0l24.2-14c0.5-0.3,0.8-0.7,0.8-1.1
		C71.8,400.5,71.6,400.2,71.1,399.9z"/>
</g>
<g id="Plant">
	<g id="Plant_00000000196525765314170530000014269330406982748602_">
		<g id="Pot_8_">
			<g id="Pot_10_">
				<g id="XMLID_8873_">
					<g id="XMLID_8874_">
						<g id="XMLID_8875_">
							<g id="XMLID_8882_">
								<path id="XMLID_8883_" class="st2" d="M355.8,259.5c7.9-8.2,12.6-29.3,4.9-35.8h-39.4c-7.7,6.5-3.1,27.6,4.9,35.8
									c0.1,0.1,0.1,0.1,0.2,0.2c0.1,0.1,0.2,0.2,0.3,0.3c0.2,0.2,0.5,0.4,0.7,0.6c0.1,0.1,0.1,0.1,0.2,0.2
									c0.2,0.2,0.4,0.3,0.6,0.5c0.3,0.2,0.7,0.5,1,0.7c6.5,3.8,17.1,3.8,23.7,0l0,0l0,0c0.3-0.2,0.7-0.4,1-0.7
									c0.2-0.1,0.4-0.3,0.6-0.4c0.1-0.1,0.2-0.1,0.2-0.2c0.2-0.2,0.5-0.4,0.7-0.6c0.1-0.1,0.2-0.2,0.3-0.3
									C355.7,259.6,355.7,259.5,355.8,259.5z"/>
							</g>
							<g id="XMLID_8880_">
								<path id="XMLID_8881_" class="st10" d="M324.7,221c-9,5.3-9,13.8,0,19c9,5.3,23.6,5.3,32.6,0c9-5.3,9-13.8,0-19
									C348.2,215.8,333.7,215.8,324.7,221z"/>
							</g>
							<g id="XMLID_8878_">
								<path id="XMLID_8879_" class="st7" d="M329,223.6c-6.6,3.9-6.6,10.1,0,14c6.6,3.9,17.3,3.9,23.9,0c6.6-3.9,6.6-10.1,0-14
									C346.3,219.7,335.6,219.7,329,223.6z"/>
							</g>
							<g id="XMLID_8876_">
								<path id="XMLID_8877_" class="st0" d="M352.9,230.2c-6.6-3.9-17.3-3.9-23.9,0c-1.8,1.1-3.1,2.3-4,3.7c0.8,1.3,2.1,2.6,4,3.7
									c6.6,3.9,17.3,3.9,23.9,0c1.8-1.1,3.1-2.3,4-3.7C356.1,232.5,354.7,231.3,352.9,230.2z"/>
							</g>
						</g>
					</g>
				</g>
			</g>
			<g id="Plants_1_">
				<g id="XMLID_8872_">
					<path class="st1" d="M323.3,162.1l15,11.9l-14.5-6.7c0,0-0.1,7.3,2.5,13.7c0,0,7.1,4.3,11.3,8l-11.1-4.4c0,0-0.8,7.3,2.3,18.5
						c0.8,2.9,4.1,8.5,6.2,12.7c0.9,1.9,2,3.8,3.2,5.6c0.1,0.1,0.1,0.2,0.2,0.3c2.5-1.5,5.2-2.9,7.9-4.2c1.8-3.8,4.1-13,4.9-20.6
						c3.2-29-18.8-45.7-36.4-51.3C314.8,145.6,320.8,153.2,323.3,162.1z"/>
					<path class="st6" d="M335.8,163.4c3.1,3.1,4.8,7.1,6.2,11.2c1.4,4.1,2.2,8.3,2.7,12.6c0.9,8.5-0.1,17.3-3.2,25.2l0,0
						c-0.1,0.2,0,0.5,0.2,0.5c0.2,0.1,0.5,0,0.5-0.2c0,0,0,0,0,0c3-8.2,3.8-17,2.8-25.6c-0.5-4.3-1.4-8.5-2.9-12.6
						C340.8,170.4,338.9,166.4,335.8,163.4z"/>
				</g>
				<g>
					<path class="st10" d="M388,177.4C388,177.4,388,177.4,388,177.4c-0.4,0.5-6.5,7.8-15.7,22l-15.2,2.4l11.2,2l-6,9.5l-14.9,3.1
						l11.7,1.9c0,0-3.2,11.4-11.6,16.1c-4.6,2.6-6.9,3-8.2,1.7c-1-0.9-1.2-6.4-2-11.3c-0.8-4.9-0.9-12.8,3.7-22.4
						c1.2-2.5,2.9-4.9,4.8-7C356.8,183.2,377.7,177.2,388,177.4z"/>
					<path class="st6" d="M372.2,182.3c-7.9,3.4-15.3,8.2-21.1,14.6c-2.9,3.2-5.4,6.8-7.2,10.7c-1.8,4-2.9,8.2-3.3,12.5c0,0,0,0,0,0
						c0,0,0,0,0,0c0.9-4.2,2.1-8.3,4-12.1c1.8-3.8,4.2-7.4,7-10.6C357.2,191,364.5,186.1,372.2,182.3
						C372.2,182.4,372.2,182.4,372.2,182.3C372.2,182.3,372.2,182.3,372.2,182.3z"/>
				</g>
				<path class="st1" d="M297.6,183.6L297.6,183.6c1.1,0,2.4,0,3.8,0.2c4.2,0.4,9.4,1.6,14.6,3.6c1.7,0.7,3.5,1.4,5.2,2.2
					c0.9,0.4,1.7,0.8,2.6,1.3c4.2,2.3,8.1,5.1,11.2,8.5c1.5,1.7,2.8,3.5,3.9,5.4c0.1,0.3,0.3,0.5,0.4,0.8c0,0,0,0,0,0
					c0.3,0.7,0.6,1.3,0.9,2c3.2,7.3,3.5,12.4,3.3,18c-0.2,4.4-1.6,9.3-2.5,10.2c-0.1,0.1-0.2,0.2-0.4,0.3c-1.2,0.8-3.2,0.3-6.9-1.7
					c-7.4-4.1-10.3-14.6-10.3-14.6l10.3-1.7l-13.2-2.6l-5.4-8.4l9.9-1.8l-13.4-2.1C303.4,190.5,297.9,184.1,297.6,183.6
					C297.6,183.7,297.6,183.6,297.6,183.6L297.6,183.6z"/>
				<path class="st8" d="M301.4,183.8c4.2,0.4,9.4,1.6,14.6,3.6c1.7,0.7,3.5,1.4,5.2,2.2c0.9,0.4,1.7,0.8,2.6,1.3
					c4.2,2.3,8.1,5.1,11.2,8.5c1.5,1.7,2.8,3.5,3.9,5.4c0.1,0.3,0.3,0.5,0.4,0.8c0,0,0,0,0,0c0.3,0.7,0.6,1.3,0.9,2
					c3.2,7.3,3.5,12.4,3.3,18c-0.2,4.4-1.6,9.3-2.5,10.2c-0.1,0.1-0.2,0.2-0.4,0.3c-0.2,0.2-0.5,0.2-0.8,0.3
					c0.9-6.8-2.4-23.9-7.4-30.9c-5.2-7.3-17.7-18-34.7-21.6l0,0C298.7,183.6,300,183.7,301.4,183.8z"/>
				<path class="st6" d="M339.8,236.2c0.4-5,0-10-1-14.9c-1-4.9-2.5-9.8-5-14.2c-2.5-4.4-6.2-8-10-11.2c-3.9-3.1-8.3-5.8-12.9-7.7
					c0,0,0,0-0.1,0c0,0,0,0,0,0.1c4.4,2.4,8.6,5.1,12.4,8.3c1.9,1.6,3.8,3.2,5.4,5.1c1.7,1.8,3.3,3.7,4.5,5.8
					c2.5,4.3,4.1,9.1,5.1,13.9C339.5,226.2,340,231.2,339.8,236.2C339.7,236.2,339.7,236.3,339.8,236.2
					C339.8,236.3,339.8,236.2,339.8,236.2z"/>
			</g>
		</g>
	</g>
</g>
<g id="Device_2">
	<g id="Speaker_2_">
		<g>
			<g>
				<path class="st11" d="M304.1,264.7l-11.6-6.7c-0.7-0.4-1.8-0.4-2.5,0l-16.4,9.5c-0.3,0.2-0.5,0.5-0.5,0.7c0,0.3,0,1.6,0,1.9
					c0,0.3,0.2,0.5,0.5,0.7l11.7,6.7c0.7,0.4,1.8,0.4,2.5,0l16.4-9.5c0.3-0.2,0.5-0.5,0.5-0.7c0-0.3,0-1.6,0-1.9
					C304.6,265.2,304.5,264.9,304.1,264.7z"/>
				<path class="st12" d="M304.1,264.7l-11.6-6.7c-0.7-0.4-1.8-0.4-2.5,0l-16.4,9.5c-0.3,0.2-0.5,0.5-0.5,0.7c0,0.3,0.2,0.5,0.5,0.7
					l11.7,6.7c0.7,0.4,1.8,0.4,2.5,0l16.4-9.5c0.3-0.2,0.5-0.5,0.5-0.7C304.7,265.2,304.5,264.9,304.1,264.7z"/>
			</g>
			<g>
				<path class="st11" d="M291.4,235.2c0-0.4-0.3-0.8-0.8-1c-1-0.6-2.6-0.6-3.6,0c-0.5,0.3-0.8,0.7-0.8,1c0,0.4,0,30.8,0,31.2
					c0,0.4,0.3,0.8,0.8,1c1,0.6,2.6,0.6,3.6,0c0.5-0.3,0.8-0.7,0.8-1C291.4,266,291.4,235.5,291.4,235.2z"/>
				<path class="st12" d="M287,234.1c-0.5,0.3-0.8,0.7-0.8,1c0,0.4,0.3,0.8,0.8,1c1,0.6,2.6,0.6,3.6,0c0.5-0.3,0.8-0.7,0.8-1
					s-0.3-0.8-0.8-1C289.6,233.6,288,233.6,287,234.1z"/>
			</g>
		</g>
		<g>
			<path class="st11" d="M290.6,149l-16.4,9.5c-0.9,0.5-1.6,1.8-1.6,2.8v71.2c0,1,0.7,2.3,1.6,2.8l11.9,6.9c0.9,0.5,2.3,0.5,3.2,0
				l16.4-9.5c0.9-0.5,1.6-1.8,1.6-2.8v-71.2c0-1-0.7-2.3-1.6-2.8l-11.9-6.9C292.9,148.5,291.5,148.5,290.6,149z"/>
			<path class="st12" d="M289.3,167.2l16.4-9.5c0.9-0.5,1.6-0.1,1.6,0.9v71.2c0,1-0.7,2.3-1.6,2.8l-16.4,9.5
				c-0.9,0.5-1.6,0.1-1.6-0.9l0-71.2C287.7,168.9,288.4,167.7,289.3,167.2z"/>
			<path class="st13" d="M286,167.2l-11.9-6.9c-0.9-0.5-1.6-0.1-1.6,0.9v71.2c0,1,0.7,2.3,1.6,2.8l11.9,6.9c0.9,0.5,1.6,0.1,1.6-0.9
				l0-71.2C287.7,168.9,286.9,167.7,286,167.2z"/>
			<path class="st11" d="M293.8,149l11.9,6.9c0.9,0.5,0.9,1.3,0,1.9l-16.4,9.5c-0.9,0.5-2.3,0.5-3.2,0l-11.9-6.9
				c-0.9-0.5-0.9-1.3,0-1.9l16.4-9.5C291.5,148.5,292.9,148.5,293.8,149z"/>
			<g>
				<path class="st13" d="M297.5,198.9c3.7-2.2,6.8-7.4,6.8-11.7c0-4.3-3-6.1-6.8-3.9c-3.7,2.2-6.8,7.4-6.8,11.7
					S293.7,201.1,297.5,198.9z"/>
				<path class="st11" d="M297.5,198.1c3.4-1.9,6.1-6.7,6.1-10.5c0-3.9-2.7-5.5-6.1-3.5c-3.4,1.9-6.1,6.7-6.1,10.5
					C291.4,198.5,294.1,200.1,297.5,198.1z"/>
				<path class="st3" d="M297.5,195.2c2-1.1,3.6-3.9,3.6-6.2c0-2.3-1.6-3.2-3.6-2.1c-2,1.1-3.6,3.9-3.6,6.2
					C293.9,195.4,295.5,196.4,297.5,195.2z"/>
				<path class="st3" d="M297.5,192.3c0.6-0.3,1.1-1.2,1.1-1.8c0-0.7-0.5-0.9-1.1-0.6c-0.6,0.3-1.1,1.2-1.1,1.8
					C296.4,192.4,296.9,192.7,297.5,192.3z"/>
				<path class="st4" d="M297.5,192.3c0.6-0.3,1.1-1.2,1.1-1.8c0-0.7-0.5-0.9-1.1-0.6c-0.6,0.3-1.1,1.2-1.1,1.8
					C296.4,192.4,296.9,192.7,297.5,192.3z"/>
			</g>
			<g>
				<path class="st13" d="M297.5,180.8c2.8-1.6,5-5.5,5-8.6c0-3.2-2.2-4.5-5-2.9c-2.8,1.6-5,5.5-5,8.6
					C292.5,181.1,294.7,182.4,297.5,180.8z"/>
				<path class="st11" d="M297.5,180.2c2.5-1.4,4.5-4.9,4.5-7.8s-2-4-4.5-2.6c-2.5,1.4-4.5,4.9-4.5,7.8S295,181.6,297.5,180.2z"/>
				<path class="st3" d="M297.5,178.1c1.4-0.8,2.6-2.9,2.6-4.5c0-1.7-1.2-2.3-2.6-1.5c-1.4,0.8-2.6,2.9-2.6,4.5
					C294.9,178.2,296,178.9,297.5,178.1z"/>
				<path class="st3" d="M297.5,175.9c0.4-0.2,0.8-0.9,0.8-1.3c0-0.5-0.3-0.7-0.8-0.4c-0.4,0.2-0.8,0.9-0.8,1.3
					C296.7,176,297.1,176.2,297.5,175.9z"/>
				<path class="st4" d="M297.5,175.9c0.4-0.2,0.8-0.9,0.8-1.3c0-0.5-0.3-0.7-0.8-0.4c-0.4,0.2-0.8,0.9-0.8,1.3
					C296.7,176,297.1,176.2,297.5,175.9z"/>
			</g>
			<g>
				<path class="st13" d="M297.5,202.3c-3.7,2.2-6.8,7.4-6.8,11.7c0,4.3,3,6.1,6.8,3.9c3.7-2.2,6.8-7.4,6.8-11.7
					C304.3,201.9,301.2,200.1,297.5,202.3z"/>
				<path class="st11" d="M297.5,203c-3.4,1.9-6.1,6.7-6.1,10.5c0,3.9,2.7,5.5,6.1,3.5c3.4-1.9,6.1-6.7,6.1-10.5
					C303.6,202.7,300.8,201.1,297.5,203z"/>
				<path class="st3" d="M297.5,206c-2,1.1-3.6,3.9-3.6,6.2c0,2.3,1.6,3.2,3.6,2.1c2-1.1,3.6-3.9,3.6-6.2
					C301,205.8,299.4,204.8,297.5,206z"/>
				<path class="st3" d="M297.5,208.9c-0.6,0.3-1.1,1.2-1.1,1.8c0,0.7,0.5,0.9,1.1,0.6c0.6-0.3,1.1-1.2,1.1-1.8
					C298.5,208.8,298.1,208.5,297.5,208.9z"/>
				<path class="st4" d="M297.5,208.9c-0.6,0.3-1.1,1.2-1.1,1.8c0,0.7,0.5,0.9,1.1,0.6c0.6-0.3,1.1-1.2,1.1-1.8
					C298.5,208.8,298.1,208.5,297.5,208.9z"/>
			</g>
			<g>
				<path class="st13" d="M297.5,220.4c-2.8,1.6-5,5.5-5,8.6c0,3.2,2.2,4.5,5,2.9c2.8-1.6,5-5.5,5-8.6
					C302.5,220.1,300.2,218.8,297.5,220.4z"/>
				<path class="st11" d="M297.5,221c-2.5,1.4-4.5,4.9-4.5,7.8c0,2.9,2,4,4.5,2.6c2.5-1.4,4.5-4.9,4.5-7.8
					C302,220.7,300,219.5,297.5,221z"/>
				<path class="st3" d="M297.5,223.1c-1.4,0.8-2.6,2.9-2.6,4.5s1.2,2.3,2.6,1.5c1.4-0.8,2.6-2.9,2.6-4.5
					C300.1,223,298.9,222.3,297.5,223.1z"/>
				<path class="st3" d="M297.5,225.3c-0.4,0.2-0.8,0.9-0.8,1.3c0,0.5,0.3,0.7,0.8,0.4c0.4-0.2,0.8-0.9,0.8-1.3
					C298.3,225.2,297.9,225,297.5,225.3z"/>
				<path class="st4" d="M297.5,225.3c-0.4,0.2-0.8,0.9-0.8,1.3c0,0.5,0.3,0.7,0.8,0.4c0.4-0.2,0.8-0.9,0.8-1.3
					C298.3,225.2,297.9,225,297.5,225.3z"/>
			</g>
			<path class="st13" d="M305.6,159.5c-0.3,0.2-0.6,0.6-0.6,1c0,0.4,0.3,0.5,0.6,0.3c0.3-0.2,0.6-0.6,0.6-1
				C306.1,159.5,305.9,159.3,305.6,159.5z"/>
			<path class="st13" d="M289.7,168.7c-0.3,0.2-0.6,0.6-0.6,1c0,0.4,0.3,0.5,0.6,0.3c0.3-0.2,0.6-0.6,0.6-1S290.1,168.5,289.7,168.7
				z"/>
			<path class="st13" d="M305.6,229.6c-0.3,0.2-0.6,0.6-0.6,1c0,0.4,0.3,0.5,0.6,0.3c0.3-0.2,0.6-0.6,0.6-1
				C306.1,229.6,305.9,229.4,305.6,229.6z"/>
			<path class="st13" d="M289.7,238.8c-0.3,0.2-0.6,0.6-0.6,1c0,0.4,0.3,0.5,0.6,0.3c0.3-0.2,0.6-0.6,0.6-1S290.1,238.6,289.7,238.8
				z"/>
			<g>
				<path class="st11" d="M278.7,187.4l2.8,1.6c0.9,0.5,1.6,0.1,1.6-0.9v-8.5c0-1-0.7-2.3-1.6-2.8l-2.8-1.6
					c-0.9-0.5-1.6-0.1-1.6,0.9v8.5C277.1,185.6,277.8,186.9,278.7,187.4z"/>
				<path class="st13" d="M277.8,176.7c0-0.6,0.4-0.9,1-0.6l2.6,1.5c0.5,0.3,1,1.1,1,1.7v1.5l-4.5-2.6L277.8,176.7z"/>
				<path class="st13" d="M282.4,187.5c0,0.6-0.4,0.9-1,0.6l-2.6-1.5c-0.5-0.3-1-1.1-1-1.7l0-1.5l4.5,2.6V187.5z"/>
			</g>
		</g>
	</g>
	<g id="Speaker_00000056395696585438978150000002581631543251531690_">
		<g>
			<g>
				<path class="st11" d="M63.5,398.8L51.8,392c-0.7-0.4-1.8-0.4-2.5,0l-16.4,9.5c-0.3,0.2-0.5,0.5-0.5,0.7c0,0.3,0,1.6,0,1.9
					c0,0.3,0.2,0.5,0.5,0.7l11.7,6.7c0.7,0.4,1.8,0.4,2.5,0l16.4-9.5c0.3-0.2,0.5-0.5,0.5-0.7c0-0.3,0-1.6,0-1.9
					C64,399.3,63.8,399,63.5,398.8z"/>
				<path class="st12" d="M63.5,398.8L51.8,392c-0.7-0.4-1.8-0.4-2.5,0l-16.4,9.5c-0.3,0.2-0.5,0.5-0.5,0.7c0,0.3,0.2,0.5,0.5,0.7
					l11.7,6.7c0.7,0.4,1.8,0.4,2.5,0l16.4-9.5c0.3-0.2,0.5-0.5,0.5-0.7C64,399.3,63.8,399,63.5,398.8z"/>
			</g>
			<g>
				<path class="st11" d="M50.7,369.3c0-0.4-0.3-0.8-0.8-1c-1-0.6-2.6-0.6-3.6,0c-0.5,0.3-0.8,0.7-0.8,1c0,0.4,0,30.8,0,31.2
					c0,0.4,0.3,0.8,0.8,1c1,0.6,2.6,0.6,3.6,0c0.5-0.3,0.8-0.7,0.8-1C50.7,400.1,50.7,369.6,50.7,369.3z"/>
				<path class="st12" d="M46.4,368.2c-0.5,0.3-0.8,0.7-0.8,1c0,0.4,0.3,0.8,0.8,1c1,0.6,2.6,0.6,3.6,0c0.5-0.3,0.8-0.7,0.8-1
					c0-0.4-0.3-0.8-0.8-1C49,367.6,47.4,367.6,46.4,368.2z"/>
			</g>
		</g>
		<g>
			<path class="st11" d="M49.9,283l-16.4,9.5c-0.9,0.5-1.6,1.8-1.6,2.8v71.2c0,1,0.7,2.3,1.6,2.8l11.9,6.9c0.9,0.5,2.3,0.5,3.2,0
				l16.4-9.5c0.9-0.5,1.6-1.8,1.6-2.8v-71.2c0-1-0.7-2.3-1.6-2.8L53.2,283C52.3,282.5,50.8,282.5,49.9,283z"/>
			<path class="st12" d="M48.6,301.3l16.4-9.5c0.9-0.5,1.6-0.1,1.6,0.9v71.2c0,1-0.7,2.3-1.6,2.8l-16.4,9.5
				c-0.9,0.5-1.6,0.1-1.6-0.9l0-71.2C47,303,47.7,301.8,48.6,301.3z"/>
			<path class="st13" d="M45.4,301.3l-11.9-6.9c-0.9-0.5-1.6-0.1-1.6,0.9v71.2c0,1,0.7,2.3,1.6,2.8l11.9,6.9
				c0.9,0.5,1.6,0.1,1.6-0.9l0-71.2C47,303,46.3,301.8,45.4,301.3z"/>
			<path class="st11" d="M53.2,283l11.9,6.9c0.9,0.5,0.9,1.3,0,1.9l-16.4,9.5c-0.9,0.5-2.3,0.5-3.2,0l-11.9-6.9
				c-0.9-0.5-0.9-1.3,0-1.9l16.4-9.5C50.8,282.5,52.3,282.5,53.2,283z"/>
			<g>
				<path class="st13" d="M56.8,333c3.7-2.2,6.8-7.4,6.8-11.7c0-4.3-3-6.1-6.8-3.9s-6.8,7.4-6.8,11.7
					C50.1,333.4,53.1,335.2,56.8,333z"/>
				<path class="st11" d="M56.8,332.2c3.4-1.9,6.1-6.7,6.1-10.5c0-3.9-2.7-5.5-6.1-3.5c-3.4,1.9-6.1,6.7-6.1,10.5
					C50.7,332.6,53.5,334.2,56.8,332.2z"/>
				<path class="st3" d="M56.8,329.3c2-1.1,3.6-3.9,3.6-6.2c0-2.3-1.6-3.2-3.6-2.1c-2,1.1-3.6,3.9-3.6,6.2
					C53.3,329.5,54.9,330.4,56.8,329.3z"/>
				<path class="st3" d="M56.8,326.4c0.6-0.3,1.1-1.2,1.1-1.8c0-0.7-0.5-0.9-1.1-0.6c-0.6,0.3-1.1,1.2-1.1,1.8
					C55.8,326.5,56.3,326.7,56.8,326.4z"/>
				<path class="st4" d="M56.8,326.4c0.6-0.3,1.1-1.2,1.1-1.8c0-0.7-0.5-0.9-1.1-0.6c-0.6,0.3-1.1,1.2-1.1,1.8
					C55.8,326.5,56.3,326.7,56.8,326.4z"/>
			</g>
			<g>
				<path class="st13" d="M56.8,314.9c2.8-1.6,5-5.5,5-8.6c0-3.2-2.2-4.5-5-2.9c-2.8,1.6-5,5.5-5,8.6
					C51.8,315.2,54.1,316.5,56.8,314.9z"/>
				<path class="st11" d="M56.8,314.3c2.5-1.4,4.5-4.9,4.5-7.8s-2-4-4.5-2.6c-2.5,1.4-4.5,4.9-4.5,7.8
					C52.3,314.6,54.4,315.7,56.8,314.3z"/>
				<path class="st3" d="M56.8,312.1c1.4-0.8,2.6-2.9,2.6-4.5c0-1.7-1.2-2.3-2.6-1.5c-1.4,0.8-2.6,2.9-2.6,4.5
					C54.2,312.3,55.4,313,56.8,312.1z"/>
				<path class="st3" d="M56.8,310c0.4-0.2,0.8-0.9,0.8-1.3c0-0.5-0.3-0.7-0.8-0.4c-0.4,0.2-0.8,0.9-0.8,1.3S56.4,310.2,56.8,310z"
					/>
				<path class="st4" d="M56.8,310c0.4-0.2,0.8-0.9,0.8-1.3c0-0.5-0.3-0.7-0.8-0.4c-0.4,0.2-0.8,0.9-0.8,1.3S56.4,310.2,56.8,310z"
					/>
			</g>
			<g>
				<path class="st13" d="M56.8,336.3c-3.7,2.2-6.8,7.4-6.8,11.7s3,6.1,6.8,3.9c3.7-2.2,6.8-7.4,6.8-11.7
					C63.6,335.9,60.6,334.2,56.8,336.3z"/>
				<path class="st11" d="M56.8,337.1c-3.4,1.9-6.1,6.7-6.1,10.5c0,3.9,2.7,5.5,6.1,3.5c3.4-1.9,6.1-6.7,6.1-10.5
					C62.9,336.8,60.2,335.2,56.8,337.1z"/>
				<path class="st3" d="M56.8,340c-2,1.1-3.6,3.9-3.6,6.2c0,2.3,1.6,3.2,3.6,2.1c2-1.1,3.6-3.9,3.6-6.2
					C60.4,339.8,58.8,338.9,56.8,340z"/>
				<path class="st3" d="M56.8,342.9c-0.6,0.3-1.1,1.2-1.1,1.8c0,0.7,0.5,0.9,1.1,0.6c0.6-0.3,1.1-1.2,1.1-1.8
					C57.9,342.9,57.4,342.6,56.8,342.9z"/>
				<path class="st4" d="M56.8,342.9c-0.6,0.3-1.1,1.2-1.1,1.8c0,0.7,0.5,0.9,1.1,0.6c0.6-0.3,1.1-1.2,1.1-1.8
					C57.9,342.9,57.4,342.6,56.8,342.9z"/>
			</g>
			<g>
				<path class="st13" d="M56.8,354.5c-2.8,1.6-5,5.5-5,8.6c0,3.2,2.2,4.5,5,2.9c2.8-1.6,5-5.5,5-8.6
					C61.8,354.2,59.6,352.9,56.8,354.5z"/>
				<path class="st11" d="M56.8,355.1c-2.5,1.4-4.5,4.9-4.5,7.8c0,2.9,2,4,4.5,2.6c2.5-1.4,4.5-4.9,4.5-7.8
					C61.3,354.8,59.3,353.6,56.8,355.1z"/>
				<path class="st3" d="M56.8,357.2c-1.4,0.8-2.6,2.9-2.6,4.5c0,1.7,1.2,2.3,2.6,1.5c1.4-0.8,2.6-2.9,2.6-4.5
					S58.3,356.4,56.8,357.2z"/>
				<path class="st3" d="M56.8,359.3c-0.4,0.2-0.8,0.9-0.8,1.3c0,0.5,0.3,0.7,0.8,0.4c0.4-0.2,0.8-0.9,0.8-1.3
					C57.6,359.3,57.3,359.1,56.8,359.3z"/>
				<path class="st4" d="M56.8,359.3c-0.4,0.2-0.8,0.9-0.8,1.3c0,0.5,0.3,0.7,0.8,0.4c0.4-0.2,0.8-0.9,0.8-1.3
					C57.6,359.3,57.3,359.1,56.8,359.3z"/>
			</g>
			<path class="st13" d="M64.9,293.6c-0.3,0.2-0.6,0.6-0.6,1c0,0.4,0.3,0.5,0.6,0.3c0.3-0.2,0.6-0.6,0.6-1S65.2,293.4,64.9,293.6z"
				/>
			<path class="st13" d="M49.1,302.7c-0.3,0.2-0.6,0.6-0.6,1c0,0.4,0.3,0.5,0.6,0.3c0.3-0.2,0.6-0.6,0.6-1
				C49.7,302.7,49.4,302.5,49.1,302.7z"/>
			<path class="st13" d="M64.9,363.7c-0.3,0.2-0.6,0.6-0.6,1c0,0.4,0.3,0.5,0.6,0.3c0.3-0.2,0.6-0.6,0.6-1S65.2,363.5,64.9,363.7z"
				/>
			<path class="st13" d="M49.1,372.8c-0.3,0.2-0.6,0.6-0.6,1c0,0.4,0.3,0.5,0.6,0.3c0.3-0.2,0.6-0.6,0.6-1
				C49.7,372.8,49.4,372.7,49.1,372.8z"/>
			<g>
				<path class="st11" d="M38,321.5l2.8,1.6c0.9,0.5,1.6,0.1,1.6-0.9v-8.5c0-1-0.7-2.3-1.6-2.8l-2.8-1.6c-0.9-0.5-1.6-0.1-1.6,0.9
					v8.5C36.4,319.7,37.1,320.9,38,321.5z"/>
				<path class="st13" d="M37.2,310.7c0-0.6,0.4-0.9,1-0.6l2.6,1.5c0.5,0.3,1,1.1,1,1.7v1.5l-4.5-2.6L37.2,310.7z"/>
				<path class="st13" d="M41.7,321.6c0,0.6-0.4,0.9-1,0.6l-2.6-1.5c-0.5-0.3-1-1.1-1-1.7l0-1.5l4.5,2.6V321.6z"/>
			</g>
		</g>
	</g>
</g>
<g id="Device_1">
	<g id="TV_1_">
		<g id="XMLID_00000078005207286350101890000008378517641129930940_">
			<path id="XMLID_384_" class="st12" d="M85.7,297.7l-0.3-0.2c-1.2-0.7-2.2-2.4-2.2-3.8l0-128.6c0-1.4,1-3.1,2.2-3.7l165.3-95
				c1.2-0.7,3.1-0.7,4.3,0l0,0c1.2,0.7,2.2,2.4,2.2,3.8v128.6c0,1.4-1,3.1-2.2,3.7L90,297.7C88.8,298.4,86.9,298.4,85.7,297.7z"/>
			<path id="XMLID_00000119100110969756130850000006130403547624367539_" class="st13" d="M90.7,167.1l-6.9-4
				c-0.4,0.7-0.6,1.4-0.6,2.1l0,128.6c0,1.4,1,3.1,2.2,3.8l0.3,0.2c1.2,0.7,3.1,0.7,4.3,0l0.7-0.4L90.7,167.1z"/>
			<path id="XMLID_00000004520562639817617150000008491702445198270102_" class="st11" d="M87.8,296.5V167.9c0-1.4,1-3.1,2.2-3.8
				l164.9-95.2c1.2-0.7,2.2-0.1,2.2,1.3v128.6c0,1.4-1,3.1-2.2,3.7L90,297.7C88.8,298.4,87.8,297.9,87.8,296.5z"/>
			<path id="XMLID_381_" class="st12" d="M257.1,70.2l0.2,40.4l0.1,40.4l0.1,40.4l0,5.1c0,0.9,0,1.6,0,2.6c-0.1,0.9-0.5,1.8-1,2.5
				c-0.3,0.4-0.6,0.7-1,1c-0.4,0.3-0.8,0.5-1.1,0.7l-2.2,1.3l-4.4,2.5l-17.5,10.1l-70.1,40.3l-35.1,20.2l-35.1,20l34.9-20.4l35-20.3
				l70-40.6l17.5-10.1l4.4-2.5l2.2-1.3c0.4-0.2,0.8-0.4,1-0.6c0.3-0.2,0.6-0.5,0.8-0.8c0.5-0.6,0.8-1.4,0.9-2.1c0-0.8,0-1.7,0-2.5
				l0-5.1l0.1-40.4l0.1-40.4L257.1,70.2z"/>
			<path id="XMLID_365_" class="st7" d="M169.2,245.9l6.4-3.7c0.5-0.3,0.9-0.1,0.9,0.4c0,0.5-0.4,1.2-0.9,1.4l-6.4,3.7
				c-0.5,0.3-0.9,0.1-0.9-0.4C168.3,246.8,168.7,246.2,169.2,245.9z"/>
			<path id="XMLID_367_" class="st14" d="M93.4,167.2l157.9-91.4c0.7-0.4,1.2-0.1,1.2,0.7v115.9c0,0.8-0.6,1.7-1.2,2.1L93.4,285.7
				c-0.7,0.4-1.2,0.1-1.2-0.7V169.3C92.1,168.5,92.7,167.6,93.4,167.2z"/>
			<g>
				<path class="st3" d="M148.2,150.3v12l-1.8,1v-4.9l-3.5,2v4.9l-1.8,1v-12l1.8-1v4.7l3.5-2v-4.7L148.2,150.3z"/>
				<path class="st3" d="M155.8,154.1l-4.5,2.6c0.1,0.5,0.3,0.9,0.6,1c0.3,0.2,0.7,0.1,1.1-0.2c0.3-0.2,0.6-0.4,0.8-0.7
					c0.2-0.3,0.5-0.6,0.7-1.1l0.9,1c-0.6,1.3-1.4,2.3-2.5,2.9c-0.7,0.4-1.3,0.5-1.8,0.4c-0.5-0.1-0.9-0.4-1.2-1
					c-0.3-0.6-0.4-1.3-0.4-2.2c0-0.9,0.1-1.8,0.4-2.7c0.3-0.9,0.7-1.7,1.1-2.4c0.5-0.7,1-1.2,1.6-1.5c0.6-0.3,1.1-0.5,1.6-0.3
					c0.5,0.1,0.8,0.5,1.1,1c0.3,0.6,0.4,1.3,0.4,2.3C155.8,153.4,155.8,153.6,155.8,154.1z M151.7,153.4c-0.3,0.5-0.4,1.1-0.5,1.7
					l2.9-1.7c-0.1-0.5-0.2-0.9-0.5-1.1c-0.3-0.2-0.6-0.2-1,0C152.3,152.6,152,153,151.7,153.4z"/>
				<path class="st3" d="M157,144.5l1.7-1v12.7l-1.7,1V144.5z"/>
				<path class="st3" d="M160.3,142.6l1.7-1v12.7l-1.7,1V142.6z"/>
				<path class="st3" d="M164.8,152.2c-0.5-0.1-0.9-0.5-1.2-1c-0.3-0.6-0.4-1.3-0.4-2.2c0-0.9,0.1-1.8,0.4-2.7
					c0.3-0.9,0.7-1.7,1.2-2.4c0.5-0.7,1.1-1.2,1.7-1.6c0.6-0.4,1.2-0.5,1.7-0.4c0.5,0.1,0.9,0.5,1.2,1c0.3,0.6,0.4,1.3,0.4,2.2
					c0,0.9-0.1,1.8-0.4,2.7c-0.3,0.9-0.7,1.7-1.2,2.4c-0.5,0.7-1.1,1.2-1.7,1.6C165.9,152.2,165.3,152.3,164.8,152.2z M167.6,148.3
					c0.3-0.6,0.4-1.3,0.4-2.1c0-0.8-0.1-1.3-0.4-1.6c-0.3-0.3-0.6-0.3-1.1-0.1c-0.4,0.3-0.8,0.7-1.1,1.3c-0.3,0.6-0.4,1.3-0.4,2.1
					c0,0.8,0.1,1.3,0.4,1.6c0.3,0.3,0.7,0.3,1.1,0.1C166.9,149.4,167.3,149,167.6,148.3z"/>
				<path class="st3" d="M179.1,135.7c0.5,0.1,0.8,0.5,1.1,1c0.3,0.6,0.4,1.3,0.4,2.3c0,0.9-0.1,1.9-0.4,2.7
					c-0.3,0.9-0.6,1.6-1.1,2.3c-0.5,0.7-1,1.1-1.5,1.5c-0.8,0.5-1.4,0.4-1.9-0.1v1.1l-1.7,1v-12.7l1.7-1v4.5c0.4-1,1-1.7,1.8-2.1
					C178.1,135.7,178.7,135.6,179.1,135.7z M178.4,142.1c0.3-0.6,0.4-1.3,0.4-2.1c0-0.8-0.1-1.3-0.4-1.6c-0.3-0.3-0.6-0.3-1.1-0.1
					c-0.4,0.3-0.8,0.7-1.1,1.3c-0.3,0.6-0.4,1.3-0.4,2.1c0,0.8,0.1,1.3,0.4,1.6c0.3,0.3,0.6,0.3,1.1,0.1
					C177.7,143.2,178.1,142.7,178.4,142.1z"/>
				<path class="st3" d="M186.2,132c0.5,0.4,0.7,1.3,0.7,2.6v5.2l-1.6,0.9v-1.1c-0.3,1-0.9,1.8-1.8,2.3c-0.5,0.3-0.9,0.4-1.2,0.3
					c-0.3,0-0.6-0.2-0.8-0.5c-0.2-0.3-0.3-0.7-0.3-1.3c0-0.9,0.2-1.6,0.6-2.4c0.4-0.7,1.1-1.3,1.9-1.9l1.4-0.8c0-0.6-0.1-1-0.3-1.1
					c-0.2-0.2-0.6-0.1-1,0.1c-0.3,0.2-0.6,0.4-0.9,0.8c-0.3,0.3-0.6,0.7-0.8,1.1l-0.6-1.5c0.3-0.5,0.7-1,1.2-1.5
					c0.5-0.5,0.9-0.8,1.4-1.1C185,131.7,185.7,131.7,186.2,132z M184.7,139.2c0.2-0.3,0.4-0.7,0.5-1.2v-0.9l-1.2,0.7
					c-0.7,0.4-1.1,1-1.1,1.7c0,0.3,0.1,0.6,0.3,0.7c0.2,0.1,0.4,0.1,0.7-0.1C184.2,139.8,184.5,139.6,184.7,139.2z"/>
				<path class="st3" d="M193.5,127.4c0.5,0.1,0.8,0.5,1.1,1c0.3,0.6,0.4,1.3,0.4,2.3c0,0.9-0.1,1.9-0.4,2.7
					c-0.3,0.9-0.6,1.6-1.1,2.3c-0.5,0.7-1,1.1-1.5,1.5c-0.8,0.5-1.4,0.4-1.9-0.1v1.1l-1.7,1v-12.7l1.7-1v4.5c0.4-1,1-1.7,1.8-2.1
					C192.6,127.3,193.1,127.2,193.5,127.4z M192.8,133.8c0.3-0.6,0.4-1.3,0.4-2.1s-0.1-1.3-0.4-1.6c-0.3-0.3-0.6-0.3-1.1-0.1
					c-0.4,0.3-0.8,0.7-1.1,1.3c-0.3,0.6-0.4,1.3-0.4,2.1c0,0.8,0.1,1.3,0.4,1.6c0.3,0.3,0.6,0.3,1.1,0.1
					C192.1,134.9,192.5,134.4,192.8,133.8z"/>
				<path class="st3" d="M201.9,122.1l-2.7,11.3c-0.3,1.2-0.6,2.2-1,2.8c-0.4,0.7-0.9,1.2-1.5,1.5c-0.3,0.2-0.6,0.3-0.9,0.3
					c-0.3,0-0.6,0-0.7-0.2l0.6-2.3c0.1,0.1,0.3,0.2,0.5,0.2c0.2,0,0.3,0,0.5-0.1c0.2-0.1,0.4-0.3,0.6-0.6c0.1-0.3,0.3-0.6,0.4-1.1
					l0-0.1l-2.6-7.8l1.8-1l1.7,5.3l1.7-7.2L201.9,122.1z"/>
				<path class="st3" d="M203.7,127.5c0.2,0.2,0.3,0.5,0.3,1c0,0.2,0,0.5-0.1,0.7c0,0.2-0.1,0.6-0.2,1.2l-0.6,2.8l-1.1,0.6l0.5-3
					c-0.2,0-0.3-0.1-0.4-0.3c-0.1-0.2-0.2-0.5-0.2-0.8c0-0.5,0.1-0.9,0.3-1.4c0.2-0.4,0.5-0.7,0.8-0.9
					C203.2,127.3,203.5,127.3,203.7,127.5z"/>
				<path class="st3" d="M146.7,179.8c0.5,0.1,0.8,0.5,1.1,1c0.3,0.6,0.4,1.3,0.4,2.3c0,0.9-0.1,1.9-0.4,2.7
					c-0.3,0.9-0.6,1.6-1.1,2.3c-0.5,0.7-1,1.1-1.5,1.5c-0.8,0.5-1.4,0.4-1.9-0.1v1.1l-1.7,1v-12.7l1.7-1v4.5c0.4-1,1-1.7,1.8-2.1
					C145.8,179.8,146.3,179.7,146.7,179.8z M146,186.2c0.3-0.6,0.4-1.3,0.4-2.1c0-0.8-0.1-1.3-0.4-1.6c-0.3-0.3-0.6-0.3-1.1-0.1
					c-0.4,0.3-0.8,0.7-1.1,1.3c-0.3,0.6-0.4,1.3-0.4,2.1c0,0.8,0.1,1.3,0.4,1.6c0.3,0.3,0.6,0.3,1.1,0.1
					C145.4,187.3,145.7,186.8,146,186.2z"/>
				<path class="st3" d="M153.8,176.1c0.5,0.4,0.7,1.3,0.7,2.6v5.2l-1.6,0.9v-1.1c-0.3,1-0.9,1.8-1.8,2.3c-0.5,0.3-0.9,0.4-1.2,0.3
					c-0.3,0-0.6-0.2-0.8-0.5c-0.2-0.3-0.3-0.7-0.3-1.3c0-0.9,0.2-1.6,0.6-2.4c0.4-0.7,1.1-1.3,1.9-1.9l1.4-0.8c0-0.6-0.1-1-0.3-1.1
					c-0.2-0.2-0.6-0.1-1,0.1c-0.3,0.2-0.6,0.4-0.9,0.8c-0.3,0.3-0.6,0.7-0.8,1.1l-0.6-1.5c0.3-0.5,0.7-1,1.2-1.5
					c0.5-0.5,0.9-0.8,1.4-1.1C152.6,175.8,153.3,175.7,153.8,176.1z M152.3,183.3c0.2-0.3,0.4-0.7,0.5-1.2v-0.9l-1.2,0.7
					c-0.7,0.4-1.1,1-1.1,1.7c0,0.3,0.1,0.6,0.3,0.7c0.2,0.1,0.4,0.1,0.7-0.1C151.8,183.9,152.1,183.7,152.3,183.3z"/>
				<path class="st3" d="M161.1,171.5c0.5,0.1,0.8,0.5,1.1,1c0.3,0.6,0.4,1.3,0.4,2.3c0,0.9-0.1,1.9-0.4,2.7
					c-0.3,0.9-0.6,1.6-1.1,2.3c-0.5,0.7-1,1.1-1.5,1.5c-0.8,0.5-1.4,0.4-1.9-0.1v1.1l-1.7,1v-12.7l1.7-1v4.5c0.4-1,1-1.7,1.8-2.1
					C160.2,171.4,160.7,171.3,161.1,171.5z M160.4,177.9c0.3-0.6,0.4-1.3,0.4-2.1s-0.1-1.3-0.4-1.6c-0.3-0.3-0.6-0.3-1.1-0.1
					c-0.4,0.3-0.8,0.7-1.1,1.3c-0.3,0.6-0.4,1.3-0.4,2.1c0,0.8,0.1,1.3,0.4,1.6c0.3,0.3,0.6,0.3,1.1,0.1
					C159.8,179,160.1,178.5,160.4,177.9z"/>
				<path class="st3" d="M169.5,166.2l-2.7,11.3c-0.3,1.2-0.6,2.2-1,2.8c-0.4,0.7-0.9,1.2-1.5,1.5c-0.3,0.2-0.6,0.3-0.9,0.3
					c-0.3,0-0.6,0-0.7-0.2l0.6-2.3c0.1,0.1,0.3,0.2,0.5,0.2c0.2,0,0.3,0,0.5-0.1c0.2-0.1,0.4-0.3,0.6-0.6c0.1-0.3,0.3-0.6,0.4-1.1
					l0-0.1l-2.6-7.8l1.8-1l1.7,5.3l1.7-7.2L169.5,166.2z"/>
				<path class="st3" d="M171.3,171.6c0.2,0.2,0.3,0.5,0.3,1c0,0.2,0,0.5-0.1,0.7c0,0.2-0.1,0.6-0.2,1.2l-0.6,2.8l-1.1,0.6l0.5-3
					c-0.2,0-0.3-0.1-0.4-0.3c-0.1-0.2-0.2-0.5-0.2-0.8c0-0.5,0.1-0.9,0.3-1.4c0.2-0.4,0.5-0.7,0.8-0.9
					C170.8,171.4,171.1,171.4,171.3,171.6z"/>
				<path class="st0" d="M181,160c0.5,0.1,0.8,0.5,1.1,1c0.3,0.6,0.4,1.3,0.4,2.3s-0.1,1.9-0.4,2.7c-0.3,0.9-0.6,1.6-1.1,2.3
					c-0.5,0.7-1,1.1-1.5,1.5c-0.8,0.5-1.4,0.4-1.9-0.1v1.1l-1.7,1V159l1.7-1v4.5c0.4-1,1-1.7,1.8-2.1C180,160,180.5,159.9,181,160z
					 M180.2,166.4c0.3-0.6,0.4-1.3,0.4-2.1c0-0.8-0.1-1.3-0.4-1.6c-0.3-0.3-0.6-0.3-1.1-0.1c-0.4,0.3-0.8,0.7-1.1,1.3
					c-0.3,0.6-0.4,1.3-0.4,2.1c0,0.8,0.1,1.3,0.4,1.6c0.3,0.3,0.6,0.3,1.1,0.1C179.6,167.5,180,167.1,180.2,166.4z"/>
				<path class="st0" d="M188,156.4c0.5,0.4,0.7,1.3,0.7,2.6v5.2l-1.6,0.9V164c-0.3,1-0.9,1.8-1.8,2.3c-0.5,0.3-0.9,0.4-1.2,0.3
					c-0.3,0-0.6-0.2-0.8-0.5c-0.2-0.3-0.3-0.7-0.3-1.3c0-0.9,0.2-1.6,0.6-2.4c0.4-0.7,1.1-1.3,1.9-1.9l1.4-0.8c0-0.6-0.1-1-0.3-1.1
					c-0.2-0.2-0.6-0.1-1,0.1c-0.3,0.2-0.6,0.4-0.9,0.8c-0.3,0.3-0.6,0.7-0.8,1.1l-0.6-1.5c0.3-0.5,0.7-1,1.2-1.5
					c0.5-0.5,0.9-0.8,1.4-1.1C186.8,156,187.5,156,188,156.4z M186.5,163.6c0.2-0.3,0.4-0.7,0.5-1.2v-0.9l-1.2,0.7
					c-0.7,0.4-1.1,1-1.1,1.7c0,0.3,0.1,0.6,0.3,0.7c0.2,0.1,0.4,0.1,0.7-0.1C186.1,164.2,186.3,163.9,186.5,163.6z"/>
				<path class="st0" d="M195.4,151.7c0.5,0.1,0.8,0.5,1.1,1c0.3,0.6,0.4,1.3,0.4,2.3c0,0.9-0.1,1.9-0.4,2.7
					c-0.3,0.9-0.6,1.6-1.1,2.3c-0.5,0.7-1,1.1-1.5,1.5c-0.8,0.5-1.4,0.4-1.9-0.1v1.1l-1.7,1v-12.7l1.7-1v4.5c0.4-1,1-1.7,1.8-2.1
					C194.4,151.7,194.9,151.6,195.4,151.7z M194.7,158.1c0.3-0.6,0.4-1.3,0.4-2.1c0-0.8-0.1-1.3-0.4-1.6c-0.3-0.3-0.7-0.3-1.1-0.1
					c-0.4,0.3-0.8,0.7-1.1,1.3c-0.3,0.6-0.4,1.3-0.4,2.1c0,0.8,0.1,1.3,0.4,1.6c0.3,0.3,0.6,0.3,1.1,0.1
					C194,159.2,194.4,158.7,194.7,158.1z"/>
				<path class="st0" d="M203.8,146.4l-2.7,11.3c-0.3,1.2-0.6,2.2-1,2.8c-0.4,0.7-0.9,1.2-1.5,1.5c-0.3,0.2-0.6,0.3-0.9,0.3
					c-0.3,0-0.6,0-0.7-0.2l0.6-2.3c0.1,0.1,0.3,0.2,0.5,0.2c0.2,0,0.3,0,0.5-0.1c0.2-0.1,0.4-0.3,0.6-0.6c0.1-0.3,0.3-0.6,0.4-1.1
					l0-0.1l-2.6-7.8l1.8-1l1.7,5.3l1.7-7.2L203.8,146.4z"/>
				<path class="st0" d="M145.3,214.2c-0.6-0.2-1.2-0.6-1.5-1.3c-0.4-0.7-0.5-1.7-0.5-2.9s0.2-2.3,0.5-3.5c0.4-1.2,0.9-2.2,1.5-3.1
					c0.6-0.9,1.4-1.6,2.2-2.1c0.8-0.5,1.5-0.6,2.2-0.5c0.6,0.2,1.2,0.6,1.5,1.3c0.4,0.7,0.6,1.7,0.6,2.9c0,1.2-0.2,2.3-0.6,3.5
					c-0.4,1.2-0.9,2.2-1.5,3.1c-0.6,0.9-1.4,1.6-2.2,2.1C146.7,214.2,145.9,214.3,145.3,214.2z M148.7,210.1
					c0.4-0.5,0.7-1.2,0.9-1.9c0.2-0.7,0.3-1.4,0.3-2.2c0-0.7-0.1-1.3-0.3-1.8c-0.2-0.5-0.5-0.7-0.9-0.9c-0.4-0.1-0.8,0-1.2,0.2
					c-0.5,0.3-0.9,0.7-1.2,1.2c-0.4,0.5-0.7,1.2-0.9,1.9c-0.2,0.7-0.3,1.4-0.3,2.2s0.1,1.3,0.3,1.8c0.2,0.5,0.5,0.7,0.9,0.9
					c0.4,0.1,0.8,0,1.2-0.2C147.9,211.1,148.3,210.7,148.7,210.1z"/>
				<path class="st0" d="M158.4,198.9c0.5,0.4,0.7,1.3,0.7,2.6v5.3l-1.7,1V203c0-0.7-0.1-1.2-0.3-1.5c-0.2-0.2-0.5-0.2-0.9,0
					c-0.4,0.3-0.8,0.7-1,1.2c-0.3,0.6-0.4,1.3-0.4,2.1v4.5l-1.7,1v-12.7l1.7-1v4.4c0.2-0.5,0.5-0.9,0.8-1.3c0.3-0.4,0.7-0.7,1.1-0.9
					C157.3,198.5,157.9,198.5,158.4,198.9z"/>
				<path class="st0" d="M166,194.5c0.5,0.4,0.7,1.3,0.7,2.6v5.3l-1.7,1v-4.9c0-0.7-0.1-1.2-0.3-1.5c-0.2-0.2-0.5-0.2-0.9,0
					c-0.4,0.3-0.8,0.7-1,1.2s-0.4,1.3-0.4,2.1v4.5l-1.7,1v-12.7l1.7-1v4.4c0.2-0.5,0.5-0.9,0.8-1.3c0.3-0.4,0.7-0.7,1.1-0.9
					C165,194,165.6,194,166,194.5z"/>
				<path class="st0" d="M168.3,201.1c-0.2-0.2-0.3-0.5-0.3-0.9c0-0.4,0.1-0.9,0.3-1.3c0.2-0.4,0.5-0.7,0.8-0.9
					c0.3-0.2,0.6-0.2,0.8,0c0.2,0.2,0.3,0.5,0.3,0.9c0,0.4-0.1,0.9-0.3,1.3c-0.2,0.4-0.5,0.7-0.8,0.9
					C168.8,201.3,168.5,201.3,168.3,201.1z M168.1,189.6l2.1-1.2l-0.3,8l-1.4,0.8L168.1,189.6z"/>
				<path class="st0" d="M176.3,196.2c-0.6-0.2-1.2-0.6-1.5-1.3c-0.4-0.7-0.5-1.7-0.5-2.9s0.2-2.3,0.5-3.5c0.4-1.2,0.9-2.2,1.5-3.1
					c0.6-0.9,1.4-1.6,2.2-2.1c0.8-0.5,1.5-0.6,2.2-0.5c0.6,0.2,1.2,0.6,1.5,1.3c0.4,0.7,0.6,1.7,0.6,2.9c0,1.2-0.2,2.3-0.6,3.5
					c-0.4,1.2-0.9,2.2-1.5,3.1c-0.6,0.9-1.4,1.6-2.2,2.1C177.7,196.2,177,196.4,176.3,196.2z M179.8,192.2c0.4-0.5,0.7-1.2,0.9-1.9
					c0.2-0.7,0.3-1.4,0.3-2.2c0-0.7-0.1-1.3-0.3-1.8c-0.2-0.5-0.5-0.7-0.9-0.9c-0.4-0.1-0.8,0-1.2,0.2c-0.5,0.3-0.9,0.7-1.2,1.2
					c-0.4,0.5-0.7,1.2-0.9,1.9c-0.2,0.7-0.3,1.4-0.3,2.2s0.1,1.3,0.3,1.8c0.2,0.5,0.5,0.7,0.9,0.9c0.4,0.1,0.8,0,1.2-0.2
					C179,193.1,179.4,192.7,179.8,192.2z"/>
				<path class="st0" d="M189.4,181c0.5,0.4,0.7,1.3,0.7,2.6v5.3l-1.7,1V185c0-0.7-0.1-1.2-0.3-1.5c-0.2-0.2-0.5-0.2-0.9,0
					c-0.4,0.3-0.8,0.7-1,1.2c-0.3,0.6-0.4,1.3-0.4,2.1v4.5l-1.7,1v-12.7l1.7-1v4.4c0.2-0.5,0.5-0.9,0.8-1.3c0.3-0.4,0.7-0.7,1.1-0.9
					C188.4,180.5,189,180.5,189.4,181z"/>
				<path class="st0" d="M197.1,176.5c0.5,0.4,0.7,1.3,0.7,2.6v5.3l-1.7,1v-4.9c0-0.7-0.1-1.2-0.3-1.5c-0.2-0.2-0.5-0.2-0.9,0
					c-0.4,0.3-0.8,0.7-1,1.2s-0.4,1.3-0.4,2.1v4.5l-1.7,1v-12.7l1.7-1v4.4c0.2-0.5,0.5-0.9,0.8-1.3c0.3-0.4,0.7-0.7,1.1-0.9
					C196.1,176.1,196.7,176.1,197.1,176.5z"/>
				<path class="st0" d="M199.4,183.2c-0.2-0.2-0.3-0.5-0.3-0.9c0-0.4,0.1-0.9,0.3-1.3c0.2-0.4,0.5-0.7,0.8-0.9
					c0.3-0.2,0.6-0.2,0.8,0c0.2,0.2,0.3,0.5,0.3,0.9c0,0.4-0.1,0.9-0.3,1.3c-0.2,0.4-0.5,0.7-0.8,0.9
					C199.9,183.4,199.6,183.4,199.4,183.2z M199.1,171.7l2.1-1.2l-0.3,8l-1.4,0.8L199.1,171.7z"/>
				<path class="st0" d="M136.9,233v12l-1.5,0.9l-3.9-5v7.3l-1.8,1v-12l1.5-0.9l3.9,5v-7.3L136.9,233z"/>
				<path class="st0" d="M144.4,236.8l-4.5,2.6c0.1,0.5,0.3,0.9,0.6,1c0.3,0.2,0.7,0.1,1.1-0.2c0.3-0.2,0.6-0.4,0.8-0.7
					c0.2-0.3,0.5-0.6,0.7-1.1l0.9,1c-0.6,1.3-1.4,2.3-2.5,2.9c-0.7,0.4-1.3,0.5-1.8,0.4c-0.5-0.1-0.9-0.4-1.2-1
					c-0.3-0.6-0.4-1.3-0.4-2.2c0-0.9,0.1-1.8,0.4-2.7c0.3-0.9,0.7-1.7,1.1-2.4c0.5-0.7,1-1.2,1.6-1.5c0.6-0.3,1.1-0.5,1.6-0.3
					c0.5,0.1,0.8,0.5,1.1,1c0.3,0.6,0.4,1.3,0.4,2.3C144.5,236.1,144.4,236.3,144.4,236.8z M140.4,236.2c-0.3,0.5-0.4,1.1-0.5,1.7
					l2.9-1.7c-0.1-0.5-0.2-0.9-0.5-1.1c-0.3-0.2-0.6-0.2-1,0C141,235.3,140.6,235.7,140.4,236.2z"/>
				<path class="st0" d="M151.4,232.8l-4.5,2.6c0.1,0.5,0.3,0.9,0.6,1c0.3,0.2,0.7,0.1,1.1-0.2c0.3-0.2,0.6-0.4,0.8-0.7
					c0.2-0.3,0.5-0.6,0.7-1.1l0.9,1c-0.6,1.3-1.4,2.3-2.5,2.9c-0.7,0.4-1.3,0.5-1.8,0.4c-0.5-0.1-0.9-0.4-1.2-1
					c-0.3-0.6-0.4-1.3-0.4-2.2c0-0.9,0.1-1.8,0.4-2.7c0.3-0.9,0.7-1.7,1.1-2.4c0.5-0.7,1-1.2,1.6-1.5c0.6-0.3,1.1-0.5,1.6-0.3
					c0.5,0.1,0.8,0.5,1.1,1c0.3,0.6,0.4,1.3,0.4,2.3C151.5,232.1,151.5,232.3,151.4,232.8z M147.4,232.1c-0.3,0.5-0.4,1.1-0.5,1.7
					l2.9-1.7c-0.1-0.5-0.2-0.9-0.5-1.1c-0.3-0.2-0.6-0.2-1,0C148,231.3,147.6,231.6,147.4,232.1z"/>
				<path class="st0" d="M158.7,219.7v12.7l-1.7,1v-1.1c-0.4,1-1.1,1.8-1.9,2.3c-0.6,0.3-1.1,0.4-1.5,0.3c-0.5-0.1-0.8-0.5-1.1-1
					c-0.3-0.6-0.4-1.3-0.4-2.3c0-0.9,0.1-1.9,0.4-2.7c0.3-0.9,0.6-1.6,1.1-2.3c0.5-0.7,1-1.1,1.5-1.5c0.8-0.4,1.4-0.4,1.8,0.1v-4.5
					L158.7,219.7z M156.6,230.9c0.3-0.6,0.4-1.3,0.4-2.1c0-0.8-0.1-1.3-0.4-1.6c-0.3-0.3-0.7-0.3-1.1-0.1c-0.4,0.3-0.8,0.7-1.1,1.3
					c-0.3,0.6-0.4,1.3-0.4,2.1c0,0.8,0.1,1.3,0.4,1.6c0.3,0.3,0.7,0.3,1.1,0.1C155.9,232,156.3,231.5,156.6,230.9z"/>
				<path class="st0" d="M169.4,217l-2.7,11.3c-0.3,1.2-0.6,2.2-1,2.8c-0.4,0.7-0.9,1.2-1.5,1.5c-0.3,0.2-0.6,0.3-0.9,0.3
					c-0.3,0-0.6,0-0.7-0.2l0.6-2.3c0.1,0.1,0.3,0.2,0.5,0.2c0.2,0,0.3,0,0.5-0.1c0.2-0.1,0.4-0.3,0.6-0.6c0.1-0.3,0.3-0.6,0.4-1.1
					l0-0.1l-2.6-7.8l1.8-1l1.7,5.3l1.7-7.2L169.4,217z"/>
				<path class="st0" d="M171.1,224.8c-0.5-0.1-0.9-0.5-1.2-1c-0.3-0.6-0.4-1.3-0.4-2.2c0-0.9,0.1-1.8,0.4-2.7
					c0.3-0.9,0.7-1.7,1.2-2.4c0.5-0.7,1.1-1.2,1.7-1.6c0.6-0.4,1.2-0.5,1.7-0.4c0.5,0.1,0.9,0.5,1.2,1c0.3,0.6,0.4,1.3,0.4,2.2
					c0,0.9-0.1,1.8-0.4,2.7c-0.3,0.9-0.7,1.7-1.2,2.4c-0.5,0.7-1.1,1.2-1.7,1.6C172.1,224.8,171.6,224.9,171.1,224.8z M173.9,220.9
					c0.3-0.6,0.4-1.3,0.4-2.1c0-0.8-0.1-1.3-0.4-1.6c-0.3-0.3-0.6-0.3-1.1-0.1c-0.4,0.3-0.8,0.7-1.1,1.3c-0.3,0.6-0.4,1.3-0.4,2.1
					c0,0.8,0.1,1.3,0.4,1.6c0.3,0.3,0.7,0.3,1.1,0.1C173.2,222,173.6,221.5,173.9,220.9z"/>
				<path class="st0" d="M183.2,209.1v9.2l-1.6,0.9v-1.1c-0.2,0.5-0.5,1-0.8,1.4c-0.3,0.4-0.7,0.7-1,0.9c-0.8,0.5-1.4,0.5-1.9,0
					c-0.5-0.4-0.7-1.3-0.7-2.7v-5.2l1.7-1v4.8c0,1.5,0.4,2,1.2,1.5c0.4-0.2,0.7-0.6,1-1.2c0.3-0.6,0.4-1.3,0.4-2.1v-4.5L183.2,209.1
					z"/>
				<path class="st0" d="M193,203.9c0.5,0.1,0.8,0.5,1.1,1c0.3,0.6,0.4,1.3,0.4,2.3c0,0.9-0.1,1.9-0.4,2.7c-0.3,0.9-0.6,1.6-1.1,2.3
					c-0.5,0.7-1,1.1-1.5,1.5c-0.8,0.5-1.4,0.4-1.9-0.1v1.1l-1.7,1v-12.7l1.7-1v4.5c0.4-1,1-1.7,1.8-2.1
					C192,203.8,192.6,203.7,193,203.9z M192.3,210.3c0.3-0.6,0.4-1.3,0.4-2.1c0-0.8-0.1-1.3-0.4-1.6c-0.3-0.3-0.6-0.3-1.1-0.1
					c-0.4,0.3-0.8,0.7-1.1,1.3c-0.3,0.6-0.4,1.3-0.4,2.1c0,0.8,0.1,1.3,0.4,1.6c0.3,0.3,0.6,0.3,1.1,0.1
					C191.6,211.3,192,210.9,192.3,210.3z"/>
				<path class="st0" d="M200.1,200.2c0.5,0.4,0.7,1.3,0.7,2.6v5.2l-1.6,0.9v-1.1c-0.3,1-0.9,1.8-1.8,2.3c-0.5,0.3-0.9,0.4-1.2,0.3
					c-0.3,0-0.6-0.2-0.8-0.5c-0.2-0.3-0.3-0.7-0.3-1.3c0-0.9,0.2-1.6,0.6-2.4c0.4-0.7,1.1-1.3,1.9-1.9l1.4-0.8c0-0.6-0.1-1-0.3-1.1
					c-0.2-0.2-0.6-0.1-1,0.1c-0.3,0.2-0.6,0.4-0.9,0.8c-0.3,0.3-0.6,0.7-0.8,1.1l-0.6-1.5c0.3-0.5,0.7-1,1.2-1.5
					c0.5-0.5,0.9-0.8,1.4-1.1C198.9,199.9,199.6,199.8,200.1,200.2z M198.6,207.4c0.2-0.3,0.4-0.7,0.5-1.2v-0.9l-1.2,0.7
					c-0.7,0.4-1.1,1-1.1,1.7c0,0.3,0.1,0.6,0.3,0.7c0.2,0.1,0.4,0.1,0.7-0.1C198.1,208,198.4,207.7,198.6,207.4z"/>
				<path class="st0" d="M207.4,195.5c0.5,0.1,0.8,0.5,1.1,1c0.3,0.6,0.4,1.3,0.4,2.3s-0.1,1.9-0.4,2.7c-0.3,0.9-0.6,1.6-1.1,2.3
					c-0.5,0.7-1,1.1-1.5,1.5c-0.8,0.5-1.4,0.4-1.9-0.1v1.1l-1.7,1v-12.7l1.7-1v4.5c0.4-1,1-1.7,1.8-2.1
					C206.5,195.5,207,195.4,207.4,195.5z M206.7,202c0.3-0.6,0.4-1.3,0.4-2.1c0-0.8-0.1-1.3-0.4-1.6c-0.3-0.3-0.6-0.3-1.1-0.1
					c-0.4,0.3-0.8,0.7-1.1,1.3c-0.3,0.6-0.4,1.3-0.4,2.1s0.1,1.3,0.4,1.6c0.3,0.3,0.7,0.3,1.1,0.1C206.1,203,206.4,202.6,206.7,202z
					"/>
				<path class="st0" d="M215.8,190.2l-2.7,11.3c-0.3,1.2-0.6,2.2-1,2.8c-0.4,0.7-0.9,1.2-1.5,1.5c-0.3,0.2-0.6,0.3-0.9,0.3
					c-0.3,0-0.6,0-0.7-0.2l0.6-2.3c0.1,0.1,0.3,0.2,0.5,0.2c0.2,0,0.3,0,0.5-0.1c0.2-0.1,0.4-0.3,0.6-0.6c0.1-0.3,0.3-0.6,0.4-1.1
					l0-0.1l-2.6-7.8l1.8-1l1.7,5.3l1.7-7.2L215.8,190.2z"/>
			</g>
		</g>
	</g>
</g>
<g id="Table">
	<g id="Table_5_">
		<g id="Table_6_">
			<g>
				<path class="st11" d="M145,402.5c-9.3-5.4-24.4-5.4-33.6,0c-4.6,2.7-7,6.2-7,9.7c0,0.4,0,2.5,0,3c0.1,3.5,2.4,6.9,7,9.5
					c9.3,5.4,24.4,5.4,33.6,0c4.6-2.7,6.9-6.1,7-9.6c0-0.4,0-2.6,0-3C151.9,408.6,149.6,405.1,145,402.5z"/>
				<path class="st12" d="M111.3,421.9c-9.3-5.4-9.3-14.1,0-19.4c9.3-5.4,24.4-5.4,33.6,0c9.3,5.4,9.3,14.1,0,19.4
					C135.7,427.3,120.6,427.3,111.3,421.9z"/>
				<path class="st11" d="M130.2,412.6L130.2,412.6l0-118.3h-4.1v118.3h0c0,0.3,0.1,0.7,0.6,0.9c0.8,0.5,2.1,0.5,2.9,0
					C130,413.3,130.2,413,130.2,412.6z"/>
			</g>
			<g>
				<g>
					<path class="st3" d="M91.2,279.5c20.4-11.8,53.5-11.8,73.9,0c10.2,5.9,15.3,16.5,15.3,24.2c0,1.6,0-0.1,0,1.5
						c0,7.7-5.1,15.4-15.3,21.3c-20.4,11.8-53.5,11.8-73.9,0c-10.2-5.9-15.3-13.6-15.3-21.3c0-1.6,0,0.1,0-1.5
						C75.9,296,81,285.4,91.2,279.5z"/>
					<path class="st15" d="M91.2,279.5c20.4-11.8,53.5-11.8,73.9,0c10.2,5.9,15.3,16.5,15.3,24.2c0,1.6,0-0.1,0,1.5
						c0,7.7-5.1,15.4-15.3,21.3c-20.4,11.8-53.5,11.8-73.9,0c-10.2-5.9-15.3-13.6-15.3-21.3c0-1.6,0,0.1,0-1.5
						C75.9,296,81,285.4,91.2,279.5z"/>
				</g>
				<g>
					<path class="st3" d="M91.2,275.5c20.4-11.8,53.5-11.8,73.9,0c10.2,5.9,15.3,13.6,15.3,21.3c0,1.6,0,1,0,2.6
						c0,7.7-5.1,18.3-15.3,24.2c-20.4,11.8-53.5,11.8-73.9,0c-10.2-5.9-15.3-17.6-15.3-25.3c0-1.6,0,0.1,0-1.5
						C75.9,289.2,81,281.4,91.2,275.5z"/>
					<path class="st16" d="M91.2,275.5c20.4-11.8,53.5-11.8,73.9,0c10.2,5.9,15.3,13.6,15.3,21.3c0,1.6,0,1,0,2.6
						c0,7.7-5.1,18.3-15.3,24.2c-20.4,11.8-53.5,11.8-73.9,0c-10.2-5.9-15.3-17.6-15.3-25.3c0-1.6,0,0.1,0-1.5
						C75.9,289.2,81,281.4,91.2,275.5z"/>
					<path class="st17" d="M91.2,275.5c20.4-11.8,53.5-11.8,73.9,0c10.2,5.9,15.3,13.6,15.3,21.3c0,1.6,0,1,0,2.6
						c0,7.7-5.1,18.3-15.3,24.2c-20.4,11.8-53.5,11.8-73.9,0c-10.2-5.9-15.3-17.6-15.3-25.3c0-1.6,0,0.1,0-1.5
						C75.9,289.2,81,281.4,91.2,275.5z"/>
				</g>
				<g>
					<path class="st3" d="M165.1,318.2c20.4-11.8,20.4-30.9,0-42.7c-20.4-11.8-53.5-11.8-73.9,0c-20.4,11.8-20.4,30.9,0,42.7
						C111.6,330,144.7,330,165.1,318.2z"/>
					<path class="st18" d="M165.1,318.2c20.4-11.8,20.4-30.9,0-42.7c-20.4-11.8-53.5-11.8-73.9,0c-20.4,11.8-20.4,30.9,0,42.7
						C111.6,330,144.7,330,165.1,318.2z"/>
				</g>
			</g>
		</g>
		<g id="Beer_2_">
			<path id="Shadow_47_" class="st19" d="M120.8,289.2c4.8,2.9,4.8,7.5,0,10.4c-4.8,2.9-12.7,2.9-17.5,0c-4.8-2.9-4.8-7.5,0-10.4
				C108.2,286.4,116,286.4,120.8,289.2z"/>
			<path id="Shadow_00000132065672708943525470000001272550075578153628_" class="st19" d="M152.1,303.5c4.8,2.9,4.8,7.5,0,10.4
				c-4.8,2.9-12.7,2.9-17.5,0c-4.8-2.9-4.8-7.5,0-10.4C139.5,300.6,147.3,300.6,152.1,303.5z"/>
			<g id="Beers_2_">
				<g id="Beer_bottle_2_">
					<g>
						<path class="st11" d="M121.4,293.7c0-0.2,0-27.3,0-29.2c0-1.9-2.1-4.5-2.9-5.6c-1-1.5-1-3.6-1.2-6.2c-0.3-3.7-1.8-7-2-9.7
							c0.3-0.3,0.4-0.6,0.3-1c-0.1-0.6-0.8-0.8-0.8-1c0,0-0.8-0.7-2.7-0.7c-2,0-2.7,0.7-2.7,0.7c0,0.2-0.7,0.4-0.8,1
							c0,0.1,0,0.1,0,0.2c0,0.3,0.1,0.5,0.4,0.8c-0.3,2.7-1.7,6-2,9.7c-0.2,2.6-0.2,4.7-1.2,6.2c-0.7,1.1-2.9,3.7-2.9,5.6
							c0,1.9,0,29.2,0,29.2h0c0,1.2,0.9,2.3,2.7,3.2c3.6,1.8,9.5,1.8,13.1,0C120.5,296,121.4,294.9,121.4,293.7z"/>
						<path class="st13" d="M114.3,242.5c0.6-0.3,0.9-0.7,0.9-1.1c0,0,0,0,0,0c-0.2-0.2-0.4-0.3-0.4-0.4c0,0-0.8-0.7-2.7-0.7
							c-2,0-2.7,0.7-2.7,0.7c0,0.1-0.2,0.2-0.4,0.4c0,0,0,0,0,0c0,0.4,0.3,0.8,0.9,1.1C111.1,243.1,113.1,243.1,114.3,242.5z"/>
						<path class="st13" d="M115.4,244c-0.1-0.4-0.1-0.7-0.2-1.1c-0.2,0.2-0.4,0.3-0.7,0.5c-1.4,0.7-3.7,0.7-5,0
							c-0.3-0.1-0.5-0.3-0.7-0.5c0,0.4-0.1,0.7-0.2,1.1c0,0,0,0,0,0.1c0.2,0.2,0.4,0.4,0.8,0.6c1.4,0.7,3.7,0.7,5,0
							C115,244.5,115.3,244.3,115.4,244z"/>
						<path class="st11" d="M115.2,241c0-0.7,0-1.5-0.5-2c0,0,0,0,0,0c0,0-0.1-0.1-0.1-0.1c-0.1-0.1-0.1-0.1-0.2-0.2c0,0,0,0,0,0h0
							c-0.1-0.1-0.2-0.1-0.3-0.2c-1.1-0.5-3-0.5-4.1,0c-0.1,0.1-0.2,0.1-0.3,0.2h0c0,0,0,0,0,0c-0.1,0.1-0.2,0.1-0.2,0.2
							c0,0-0.1,0.1-0.1,0.1c0,0,0,0,0,0c-0.5,0.5-0.5,1.3-0.5,2c0,0.4,0.3,0.8,0.9,1.1c1.2,0.6,3.2,0.6,4.5,0
							C114.9,241.7,115.2,241.4,115.2,241z"/>
						<path class="st12" d="M110,240.4c-1.1-0.5-1.1-1.4,0-2c1.1-0.5,3-0.5,4.1,0c1.1,0.5,1.1,1.4,0,2C113,241,111.2,241,110,240.4z
							"/>
						<path class="st13" d="M110.6,240.2c-0.8-0.4-0.8-1,0-1.4c0.8-0.4,2.1-0.4,2.9,0c0.8,0.4,0.8,1,0,1.4
							C112.7,240.5,111.4,240.5,110.6,240.2z"/>
					</g>
					<g>
						<path class="st3" d="M120.3,264.5v28.9c0,0.9-0.8,1.7-2.2,2.4c-1.6,0.8-3.7,1.2-6,1.2c-2.3,0-4.4-0.4-6-1.2
							c-1.4-0.7-2.2-1.5-2.2-2.4c0,0,0-26,0-28.9c0-1.3,1.4-3.3,2.2-4.5c0.2-0.3,0.4-0.5,0.5-0.7c0.9-1.4,1.1-2.6,1.2-4.9
							c0-0.6,0.1-1.1,0.1-1.6c0,0,0-0.1,0-0.1c0-0.1,0-0.2,0-0.3c0.1-0.4,0.5-0.8,1.2-1.2c1.6-0.8,4.3-0.8,5.9,0
							c0.7,0.3,1.1,0.8,1.2,1.2c0,0.1,0,0.2,0,0.3l0,0.1c0,0.5,0.1,1.1,0.1,1.6c0.2,2.3,0.3,3.5,1.2,4.9c0.1,0.2,0.3,0.4,0.5,0.7
							C118.9,261.2,120.3,263.1,120.3,264.5z"/>
						<path class="st20" d="M120.3,264.5v28.9c0,0.9-0.8,1.7-2.2,2.4c-1.6,0.8-3.7,1.2-6,1.2c-2.3,0-4.4-0.4-6-1.2
							c-1.4-0.7-2.2-1.5-2.2-2.4c0,0,0-26,0-28.9c0-1.3,1.4-3.3,2.2-4.5c0.2-0.3,0.4-0.5,0.5-0.7c0.9-1.4,1.1-2.6,1.2-4.9
							c0-0.6,0.1-1.1,0.1-1.6c0,0,0-0.1,0-0.1c0-0.1,0-0.2,0-0.3c0.1-0.4,0.5-0.8,1.2-1.2c1.6-0.8,4.3-0.8,5.9,0
							c0.7,0.3,1.1,0.8,1.2,1.2c0,0.1,0,0.2,0,0.3l0,0.1c0,0.5,0.1,1.1,0.1,1.6c0.2,2.3,0.3,3.5,1.2,4.9c0.1,0.2,0.3,0.4,0.5,0.7
							C118.9,261.2,120.3,263.1,120.3,264.5z"/>
						<path class="st17" d="M106.4,295.8c-3.1-1.5-3.1-4,0-5.5c3.1-1.5,8.2-1.5,11.4,0c3.1,1.5,3.1,4,0,5.5
							C114.6,297.3,109.5,297.3,106.4,295.8z"/>
						<path class="st3" d="M116.2,252.6c0,0.5-0.4,1-1.2,1.4c-1.6,0.8-4.3,0.8-5.9,0c-0.8-0.4-1.2-0.9-1.2-1.4c0-0.1,0-0.2,0-0.3
							c0.1-0.4,0.5-0.8,1.2-1.2c1.6-0.8,4.3-0.8,5.9,0c0.7,0.3,1.1,0.8,1.2,1.2C116.2,252.4,116.2,252.5,116.2,252.6z"/>
						<path class="st21" d="M116.2,252.6c0,0.5-0.4,1-1.2,1.4c-1.6,0.8-4.3,0.8-5.9,0c-0.8-0.4-1.2-0.9-1.2-1.4c0-0.1,0-0.2,0-0.3
							c0.1-0.4,0.5-0.8,1.2-1.2c1.6-0.8,4.3-0.8,5.9,0c0.7,0.3,1.1,0.8,1.2,1.2C116.2,252.4,116.2,252.5,116.2,252.6z"/>
					</g>
					<path class="st15" d="M113.7,298.2c-0.8-0.1-1.7-0.3-2.5-0.5c-1.6-0.4-2.8-1.1-3.5-1.7c-0.8-0.7-1.2-1.4-1.2-2.2
						c0,0,0-27.3,0-29.2c0-1.9,1.5-4.4,2.1-5.6c1-2,0.4-4.1,0.7-6.7c0.3-3.3,0.9-6,1.2-8.5c-0.3-0.3-0.3-0.8,0.1-1
						c0.4-0.3,0.7-0.3,0.7-0.3c-0.5-0.3-0.6-1.3,0-1.7c-2.2-0.7-2.1-2.3,0.5-2.7c-0.6,0-1.1,0.2-1.6,0.4c-0.1,0.1-0.2,0.1-0.3,0.2h0
						c0,0,0,0,0,0c-0.1,0.1-0.2,0.1-0.2,0.2c0,0-0.1,0.1-0.1,0.1c0,0,0,0,0,0c-0.5,0.5-0.5,1.3-0.5,2c0,0.1,0,0.2,0.1,0.3
						c-0.2,0.2-0.4,0.4-0.5,0.7c0,0.1,0,0.1,0,0.2c0,0.3,0.1,0.5,0.4,0.8c-0.3,2.7-1.7,6-2,9.7c-0.2,2.6-0.2,4.7-1.2,6.2
						c-0.7,1.1-2.9,3.7-2.9,5.6c0,1.9,0,29.2,0,29.2h0c0,1.2,0.9,2.3,2.7,3.2C107.7,298,110.8,298.4,113.7,298.2z"/>
					<g>
						<path class="st22" d="M115.5,241.8c-0.1-0.2-0.3,0.7-1.2,1.1c-0.8,0.4-2.1,0.7-3.7,0.7c0,0,2.1,0.3,3.6-0.3
							C115.6,242.7,115.6,242.1,115.5,241.8z"/>
						<path class="st22" d="M114.4,238.7c0.4,0.4,0.5,0.6,0.6,1.3c0.1,0.7,0.1,1-0.1,1.3c-0.1,0.3-1.1,1-3.1,1
							c1.4-0.4,2.4-0.8,2.7-1.4C114.8,240.4,115,239.4,114.4,238.7z"/>
						<path class="st23" d="M119.6,264.5v29.2c0,0.6-0.7,1.3-1.8,1.9c-1.5,0.7-3.5,1.1-5.7,1.1c5.8-0.6,5.6-3.2,5.6-5.8v-23.3
							c0-5.5-2-6-3.1-8.2c-1.1-2.3-0.1-6-0.7-9.4c-0.4-2.3-0.8-3.6-1-4.9c0.3,0,0.6-0.1,0.9-0.2c0.2,0.8,0.4,1.6,0.6,2.4
							c0.5,1.7,0.9,3.5,1.1,5.5c0,0.4,0.1,0.8,0.1,1.2c0.2,2.2,0.3,4,1.3,5.6c0.1,0.2,0.3,0.5,0.5,0.7
							C118.2,261.4,119.6,263.3,119.6,264.5z"/>
					</g>
				</g>
			</g>
		</g>
		<g id="Glass_2_">
			<g id="Glass_4_">
				<g>
					<path class="st10" d="M134.8,281.9l0.8,23.3v0c0,0.3,0.1,0.7,0.2,1c0.4,0.8,1.1,1.5,2.2,2.1c3.2,1.8,8.4,1.8,11.6,0
						c1.1-0.6,1.8-1.4,2.2-2.1c0.1-0.3,0.2-0.6,0.2-0.9v0c0-0.1,0-0.2,0-0.3v0l0.7-23.2c0.4-0.6,0.6-1.3,0.7-1.9l-0.9,28.3l0,0.3
						c-0.1,1.2-0.9,2.4-2.5,3.3c-3.4,2-8.9,2-12.3,0c-1.7-1-2.5-2.2-2.6-3.5l0,0l0-0.1l-1-28.3C134.1,280.6,134.4,281.3,134.8,281.9
						z"/>
				</g>
				<g>
					<path class="st3" d="M137,283.8c3.8,2.2,9.9,2.2,13.7,0c1-0.6,1.7-1.2,2.1-1.9l-0.7,23.2v0l0,0.3v0c0,0.3-0.1,0.6-0.2,0.9
						c-0.3,0.8-1.1,1.5-2.2,2.1c-3.2,1.8-8.4,1.8-11.6,0c-1.1-0.6-1.8-1.3-2.2-2.1c-0.2-0.3-0.2-0.7-0.2-1v0l-0.8-23.3
						C135.3,282.6,136,283.2,137,283.8z"/>
					<path class="st24" d="M137,283.8c3.8,2.2,9.9,2.2,13.7,0c1-0.6,1.7-1.2,2.1-1.9l-0.7,23.2v0l0,0.3v0c0,0.3-0.1,0.6-0.2,0.9
						c-0.3,0.8-1.1,1.5-2.2,2.1c-3.2,1.8-8.4,1.8-11.6,0c-1.1-0.6-1.8-1.3-2.2-2.1c-0.2-0.3-0.2-0.7-0.2-1v0l-0.8-23.3
						C135.3,282.6,136,283.2,137,283.8z"/>
				</g>
				<g>
					<path class="st3" d="M152.1,305.2c-0.1,1.1-0.9,2.2-2.4,3.1c-3.2,1.8-8.4,1.8-11.6,0c-1.5-0.9-2.3-2-2.4-3.1l-0.7-19.9
						c-0.1-1.3,0.8-2.6,2.6-3.6c3.5-1.9,9.1-1.9,12.6,0c1.8,1,2.7,2.3,2.6,3.6L152.1,305.2z"/>
					<path class="st25" d="M149.7,308.3c-3.2,1.8-8.4,1.8-11.6,0c-3.2-1.8-3.2-4.7,0-6.5c3.2-1.8,8.4-1.8,11.6,0
						C152.9,303.6,152.9,306.5,149.7,308.3z"/>
					<path class="st26" d="M152.1,305.2c-0.1,1.1-0.9,2.2-2.4,3.1c-3.2,1.8-8.4,1.8-11.6,0c-1.5-0.9-2.3-2-2.4-3.1l-0.7-19.9
						c-0.1-1.3,0.8-2.6,2.6-3.6c3.5-1.9,9.1-1.9,12.6,0c1.8,1,2.7,2.3,2.6,3.6L152.1,305.2z"/>
					<path class="st16" d="M150.1,288.7c-3.5,1.9-9.1,1.9-12.6,0c-3.5-1.9-3.5-5,0-7c3.5-1.9,9.1-1.9,12.6,0
						C153.6,283.6,153.6,286.7,150.1,288.7z"/>
					<path class="st27" d="M137.5,288.7c3,1.7,7.6,1.9,11.1,0.6c-4.8,0.8-9.3-1.4-8.9-4.3c0-0.1,0-0.1,0-0.2c-1-0.3-1.9-0.6-2.8-1.1
						c-0.4-0.2-0.8-0.5-1.1-0.8C134.2,284.9,134.8,287.2,137.5,288.7z"/>
				</g>
				<g>
					<path class="st0" d="M134.1,279.9L134.1,279.9c0,0.7,0.3,1.3,0.7,1.9c0.5,0.7,1.2,1.3,2.2,1.9c3.8,2.2,9.9,2.2,13.7,0
						c1-0.6,1.7-1.2,2.1-1.9c0.4-0.6,0.6-1.3,0.7-1.9c0.1-1.5-0.9-3-2.8-4.1c-3.8-2.2-9.9-2.2-13.7,0
						C135,277,134.1,278.5,134.1,279.9z M137.4,276.3c3.5-2,9.3-2,12.8,0c3.5,2,3.6,5.1,0,7.1c-3.5,2-9.3,2-12.8,0
						C133.8,281.4,133.8,278.2,137.4,276.3z"/>
				</g>
				<g>
					<path class="st3" d="M137.4,283.4c3.5,2,9.3,1.9,12.8,0c3.5-2,3.5-5.2,0-7.1c-3.5-2-9.3-1.9-12.8,0
						C133.8,278.2,133.8,281.4,137.4,283.4z"/>
					<path class="st24" d="M137.4,283.4c3.5,2,9.3,1.9,12.8,0c3.5-2,3.5-5.2,0-7.1c-3.5-2-9.3-1.9-12.8,0
						C133.8,278.2,133.8,281.4,137.4,283.4z"/>
				</g>
				<g>
					<path class="st3" d="M151.4,282.6c-0.3,0.3-0.7,0.5-1.1,0.8c-3.5,2-9.3,2-12.8,0c-0.4-0.2-0.8-0.5-1.1-0.8
						c0.4-0.3,0.8-0.6,1.3-0.9c3.5-1.9,9.1-1.9,12.6,0C150.6,282,151,282.3,151.4,282.6z"/>
					<path class="st28" d="M151.4,282.6c-0.3,0.3-0.7,0.5-1.1,0.8c-3.5,2-9.3,2-12.8,0c-0.4-0.2-0.8-0.5-1.1-0.8
						c0.4-0.3,0.8-0.6,1.3-0.9c3.5-1.9,9.1-1.9,12.6,0C150.6,282,151,282.3,151.4,282.6z"/>
					<path class="st29" d="M150.1,281.7c-0.1-0.1-0.2-0.1-0.3-0.2c0,0,0,0,0,0c-0.2-0.1-0.4-0.2-0.5-0.2c-1-0.4-2.1-0.7-3.2-0.9
						c-0.3,0-0.6-0.1-0.9-0.1c-0.3,0-0.5,0-0.8,0c-0.1,0-0.3,0-0.4,0c-0.3,0-0.6,0-0.9,0c-1,0.1-2,0.2-2.9,0.4
						c-0.9,0.2-1.8,0.6-2.5,1c-0.1,0.1-0.2,0.1-0.3,0.2c0,0,0,0-0.1,0c-0.1,0.1-0.2,0.1-0.3,0.2c0,0,0,0,0,0
						c-0.1,0.1-0.2,0.1-0.3,0.2c0,0,0,0,0,0c-0.1,0.1-0.2,0.2-0.3,0.2c0.3,0.3,0.7,0.5,1.1,0.8c0.8,0.4,1.6,0.7,2.5,1
						C141,281.9,146,280.5,150.1,281.7z"/>
				</g>
				<path class="st30" d="M135.7,306.4l0.1,1.6l0,0.1c0.1,2.4,3.7,4.3,8.1,4.3c4.4,0,8-1.9,8.1-4.3l0-0.1l0-1.6
					c-0.4,2.3-3.9,4-8.2,4C139.6,310.4,136.1,308.7,135.7,306.4z"/>
			</g>
			<g id="Ice_1_">
				<g>
					<path id="XMLID_6439_" class="st31" d="M143.1,289.2l2.5,4c0.2,0.3,0.5,0.5,0.8,0.5l5.1-0.5c0.3,0,0.3-0.3,0.1-0.6l-2.5-4
						c-0.2-0.3-0.5-0.5-0.8-0.5l-5.1,0.5C142.9,288.7,142.9,288.9,143.1,289.2z"/>
					<path id="XMLID_6438_" class="st16" d="M141.6,294.5l2.5,4c0.1,0.1,0.2,0.3,0.4,0.4l1.4-5.2c-0.1-0.1-0.3-0.2-0.4-0.4l-2.5-4
						c-0.2-0.3-0.1-0.5,0.1-0.6c-0.2,0-0.5,0.2-0.5,0.4l-1.2,4.4C141.4,293.8,141.5,294.2,141.6,294.5z"/>
					<path id="XMLID_6437_" class="st4" d="M144.5,298.8c0.1,0,0.1,0.1,0.2,0.1c0,0,0,0,0,0c0,0,0.1,0,0.1,0c0,0,0,0,0.1,0l5.1-0.5
						c0.3,0,0.5-0.2,0.6-0.4l1.2-4.4c0.1-0.2,0-0.6-0.2-0.8c0.1,0.3,0.1,0.5-0.2,0.5l-5.1,0.5c-0.1,0-0.3,0-0.4-0.1L144.5,298.8z"/>
				</g>
				<g>
					<path id="XMLID_6436_" class="st31" d="M138.3,300.7l4.1,1.4c0.3,0.1,0.7,0,0.8-0.1l3.4-3.4c0.2-0.2,0.1-0.4-0.2-0.5l-4.1-1.4
						c-0.3-0.1-0.7,0-0.8,0.1l-3.4,3.4C137.9,300.3,138,300.6,138.3,300.7z"/>
					<path id="XMLID_6435_" class="st16" d="M140.3,305.9l4.1,1.4c0.1,0,0.3,0.1,0.5,0l-2-5.2c-0.2,0-0.3,0-0.5,0l-4.1-1.4
						c-0.3-0.1-0.4-0.3-0.3-0.5c-0.2,0.2-0.2,0.4-0.1,0.6l1.6,4.5C139.7,305.6,140,305.8,140.3,305.9z"/>
					<path id="XMLID_6433_" class="st4" d="M144.9,307.3c0.1,0,0.1,0,0.2-0.1c0,0,0,0,0,0c0,0,0.1,0,0.1-0.1c0,0,0,0,0,0l3.4-3.4
						c0.2-0.2,0.2-0.5,0.1-0.7l-1.7-4.5c-0.1-0.2-0.4-0.4-0.6-0.5c0.2,0.1,0.3,0.3,0.2,0.5l-3.4,3.4c-0.1,0.1-0.2,0.1-0.4,0.2
						L144.9,307.3z"/>
				</g>
				<g>
					<path id="XMLID_6429_" class="st16" d="M136.3,290.4l4.4-1.1c0.2-0.1,0.5-0.3,0.5-0.6l0.9-4.2c0.1-0.3-0.1-0.5-0.3-0.4
						l-4.4,1.1c-0.2,0.1-0.5,0.3-0.5,0.6L136,290C136,290.3,136.1,290.5,136.3,290.4z"/>
					<path id="XMLID_6427_" class="st4" d="M139.4,294.6l4.4-1.1c0.1,0,0.2-0.1,0.3-0.2l-3.1-4.2c-0.1,0.1-0.2,0.2-0.3,0.2l-4.4,1.1
						c-0.2,0.1-0.3-0.1-0.3-0.4c0,0.3,0,0.6,0.1,0.8l2.7,3.6C138.9,294.6,139.2,294.7,139.4,294.6z"/>
					<path id="XMLID_6425_" class="st31" d="M144.1,293.3c0-0.1,0.1-0.1,0.1-0.2c0,0,0,0,0,0c0,0,0-0.1,0-0.1c0,0,0,0,0-0.1l0.9-4.2
						c0.1-0.3,0-0.7-0.1-0.8l-2.7-3.6c-0.1-0.2-0.3-0.2-0.6-0.2c0.2,0,0.3,0.2,0.2,0.4l-0.9,4.2c0,0.1-0.1,0.3-0.2,0.4L144.1,293.3z
						"/>
				</g>
			</g>
		</g>
	</g>
</g>
<g id="Character_2">
	<g id="Character_7_">
		<g id="Bottom_00000118372097195696232800000016065906636923793806_">
			<g>
				<path class="st32" d="M439.8,368.6c-1.3-11.1-0.4-23.5-2.1-40.9v0c-0.3-4.5-0.6-9.2-1.1-13.5c-1.6-14.3-4.1-19.1-4.4-21.8
					c0,0-2.2-27.4-4.5-58.7c-1.1-14.7-5.7-19-9.5-26.7l-43.8,1.7c-3.9,19.5-3,63.5-2.1,83.4c0.5,10.1,2.8,46.7,3.8,63.2
					c0.3,4.4-0.2,6.2-2,8.1c-3.6,4.1-8.9,8-13.5,11.6c0.8,1.7,6.4,1.4,9.2,0c4.4-2.3,8.7-5.7,10.2-6.9c3.8-2.9,9.9-5.4,9.8-9.6
					c0-0.5,0.1-0.7,0.1-0.8c0-2.5,8-38.6,8.2-47c0.1-7.3-1.3-19.5-1.3-19.5l3.6-30.9c0,0,4.7,23.1,8.2,35.4c2.9,10,7.6,27,10.9,39.3
					l0,0c3.2,14.2,7.6,27.9,8.6,35c0.3,1.7,3,18.4,3.9,22.2c1,3.8,9.7,3.6,10-3.1C442.2,384.8,440,370.7,439.8,368.6z"/>
			</g>
			<g>
				<path class="st13" d="M352.9,380c-0.2,0-0.5,2.6,0.8,3.6c1.5,1.2,6,3.1,11.8,2.2c5.8-0.9,8.9-2.7,11.2-4.7
					c2.3-2,5.5-4.7,8.1-5.4c2.4-0.6,5.6-1.9,6.4-2.7c0.8-0.8,0.6-4,0.6-4L352.9,380z"/>
				<path id="XMLID_377_" class="st11" d="M390.2,356.7c0,0,0.4,0,0.5,0.8c0.2,0.9-0.6,2.9,0.2,5.1c0.8,2,1.3,5.5,0.8,7.6
					c-0.4,1.7-4.8,3.1-7.3,4.2c-2.6,1-5.5,3.1-8.1,5.3c-2.7,2.3-8.4,4.6-12.2,4.8c-5.8,0.3-9.6-1.1-10.8-3.1
					c-1.5-2.4-0.4-3.9,6.2-7.1c1.2-0.6,5.6-3.3,7.1-4.2c1.6-1,3.1-2.1,4.4-3.4c0.7-0.6,1.4-1.3,2-2c0.5-0.6,1.3-1.4,1.6-2.1
					c0.1-0.2,0.1-0.4,0.2-0.6c0.2-0.5,0.3-1,0.4-1.5c0.1-0.5,0.1-1.3,0.7-1.7c0.6-0.4,1.7-0.4,2.4-0.3c0.9,0,1.7,0.1,2.6,0.3
					c1.5,0.3,3.2,0.7,3.8,2.3c0.2,0.7,0.2,1.4,0.1,2.1c-0.1,0.4-0.2,0.8-0.3,1.2c0.8-0.7,1.2-1.7,1.7-2.6s1-1.9,1.9-2.5
					c0.5-0.3,1.3-0.5,1.7-1C389.9,357.8,390.1,357.2,390.2,356.7z"/>
				<path class="st0" d="M358.3,374.7c8.4,0.3,11.2,5.2,11.7,8.3c-2.1,0.8-4.2,1.3-5.9,1.4c-5.8,0.3-9.9-1.1-11.1-3.1
					C351.6,379,352.4,377.1,358.3,374.7z"/>
				<g>
					<g>
						<path class="st1" d="M370.9,374.4c0.1,0,0.2,0,0.3-0.1c0.2-0.1,0.2-0.4,0-0.6c-1.2-1.3-4.6-3.1-7.7-2.7
							c-0.2,0-0.4,0.2-0.4,0.4c0,0.2,0.2,0.4,0.5,0.3c2.8-0.4,6,1.3,7,2.4C370.7,374.4,370.8,374.4,370.9,374.4z"/>
					</g>
					<g>
						<path class="st1" d="M374.5,372.3c0.1,0,0.2,0,0.3-0.1c0.2-0.1,0.2-0.4,0-0.6c-1.2-1.3-4.6-3.1-7.7-2.7
							c-0.2,0-0.4,0.2-0.4,0.4c0,0.2,0.2,0.4,0.5,0.3c2.8-0.4,6,1.3,7,2.4C374.3,372.2,374.4,372.3,374.5,372.3z"/>
					</g>
					<g>
						<path class="st1" d="M377.8,369.8c0.1,0,0.2,0,0.3-0.1c0.2-0.1,0.2-0.4,0-0.6c-1.2-1.3-4.7-3.1-7.7-2.7
							c-0.2,0-0.4,0.2-0.4,0.4c0,0.2,0.2,0.4,0.5,0.3c2.8-0.4,6,1.3,7,2.4C377.5,369.8,377.7,369.8,377.8,369.8z"/>
					</g>
					<g>
						<path class="st1" d="M381,367.4c0.1,0,0.2,0,0.3-0.1c0.2-0.1,0.2-0.4,0.1-0.6c-1.7-1.9-5.3-3.1-8.4-2.7
							c-0.2,0-0.4,0.2-0.4,0.4c0,0.2,0.2,0.4,0.5,0.3c2.7-0.4,6.2,0.7,7.7,2.4C380.8,367.4,380.9,367.4,381,367.4z"/>
					</g>
				</g>
			</g>
			<g>
				<path class="st13" d="M429.5,395.5c0.4,3.8,1.1,6.3,2.6,8.5c1.5,2.2,4.2,2.8,6.8,2c2.7-0.8,6-2.7,6.7-6c0.6-3.3,1-5.6,0.2-9.1
					L429.5,395.5z"/>
				<path id="XMLID_376_" class="st11" d="M439.7,367.4c1.1,0,1.6,5.2,2.5,10.3c0.9,5.5,2.7,7.7,3.5,12.2c0.9,5.1,0.1,7.5-1.6,10.7
					c-1.7,3.2-8.3,6.5-11.7,2.2c-2.8-3.5-3.1-7.6-3.1-12.7c0-5.3-0.5-9-0.9-13.1c-0.4-3.9-1.4-7.7-0.5-8.2c0.1,0.6,0.2,1.3,0.3,1.8
					c0.1,0.7,0.2,1.4,0.4,2c0.1,0.3,0.4,0.6,0.5,0.1c0.1-0.3,0-0.6,0-1c-0.2-1.4,0.5-1.6,0.9-1.7c0.9-0.3,4.3-0.8,5.1-0.9
					c0.8-0.1,3.8-0.3,4.2,0.1c0.3,0.3,0.3,0.8,0.4,1.5c0.1,0.8,0.3,1.3,0.3,1.1c0-0.6-0.1-2-0.2-2.3c0-0.3-0.1-0.8-0.1-1.1
					C439.8,368,439.8,367.7,439.7,367.4z"/>
				<path class="st0" d="M446.1,392.8c0.3,3.2-0.4,5.4-1.8,7.9c-1.7,3.2-8.8,6.6-12.3,2.2c-1.7-2.2-2.3-4.8-2.6-7.4
					C431.4,392,442.9,390,446.1,392.8z"/>
				<g>
					<g>
						<path class="st1" d="M431.7,389.8c0,0,0.1,0,0.1,0c0,0,5.1-2.3,10.1-1.4c0.2,0,0.4-0.1,0.5-0.3c0-0.2-0.1-0.4-0.3-0.5
							c-5.3-1-10.5,1.3-10.7,1.4c-0.2,0.1-0.3,0.3-0.2,0.5C431.4,389.8,431.6,389.9,431.7,389.8z"/>
					</g>
					<g>
						<path class="st1" d="M441.6,384.6c0.2,0,0.3-0.1,0.3-0.3c0.1-0.2-0.1-0.4-0.3-0.5c-5-1.4-10.4,1.2-10.7,1.4
							c-0.2,0.1-0.3,0.4-0.2,0.5c0.1,0.2,0.4,0.2,0.6,0.1c0,0,5.3-2.6,10-1.3C441.5,384.6,441.5,384.6,441.6,384.6z"/>
					</g>
					<g>
						<path class="st1" d="M441.3,381c0.2,0,0.3-0.1,0.3-0.3c0.1-0.2-0.1-0.4-0.3-0.5c-5.5-1.7-10.7,1.2-10.9,1.3
							c-0.2,0.1-0.2,0.4-0.1,0.5c0.1,0.2,0.4,0.2,0.6,0.1c0,0,5-2.8,10.2-1.2C441.1,381,441.2,381,441.3,381z"/>
					</g>
					<g>
						<path class="st2" d="M440.8,377.4c0.1,0,0.3-0.1,0.3-0.3c0.1-0.2,0-0.4-0.3-0.5c-5.2-1.6-10.7,1.3-10.9,1.4
							c-0.2,0.1-0.2,0.4-0.1,0.5c0.1,0.2,0.4,0.2,0.6,0.1c0,0,5.4-2.9,10.2-1.4C440.7,377.4,440.8,377.4,440.8,377.4z"/>
					</g>
				</g>
			</g>
			<g>
				<g>
					<path class="st12" d="M419.4,207.3c5.3,8.6,9.3,15.6,10.9,41.6s2.7,38.5,3,41.6c0.2,3.1,2.4,8.7,4.7,24.1
						c2.3,15.4,1.5,33.6,1.5,33.6s-1.5,2.9-7.6,3.7c-5.6,0.7-8.5-1.2-8.5-1.2s-9-29.8-11.5-39c-2.5-9.2-11-44.8-11-44.8l-2.7,25
						c0,0,2.3,9.1,0.5,22.8c-1.8,13.6-4.9,27.1-4.9,27.1s-2.8,1-8.8,1.1c-4.8,0.1-10.2-1.9-10.2-1.9s-2.9-39.4-3.5-54.7
						c-0.6-15.4-1.8-58.1,3-76.7L419.4,207.3z"/>
				</g>
				<path class="st32" d="M427,293.5c0,0-3.2-3-9.2-2.1c-6,0.9-8.3,4.4-8.3,4.4C415.9,292.8,427,293.5,427,293.5z M413.1,296.8
					c3.5,0.5,7.1,0.7,14.7-1.1C424.1,295,413.1,296.8,413.1,296.8z"/>
				<g>
					<path class="st32" d="M371.3,288.5c0,0.5,0.1,1.1,0.1,1.7c1.5-0.2,8.3-0.8,15.2-0.1C384.4,288.9,376.4,287.7,371.3,288.5z"/>
					<path class="st32" d="M371.5,292.3c0,0.5,0.1,1,0.1,1.6c1.2-0.1,8.3-0.8,11.4-1.8C377.8,291.9,372.6,292.2,371.5,292.3z"/>
				</g>
				<g>
					<path class="st11" d="M431.6,300c-1.9-7.1-3.2-21.7-3.6-33.6c-0.1-3.6-0.3-7.3-0.5-11.3c-0.8-15.5-2.7-32.8-11.3-43.7l-0.6,0.5
						c5.8,7.3,8.5,17.6,9.9,28.4c-8.1-0.7-10.2-8.3-13-18.8c-0.4-1.4-0.8-2.9-1.2-4.4l-0.8,0.2c0.4,1.5,0.8,3,1.2,4.4
						c2.8,10.5,5.1,18.8,13.9,19.4c0.6,4.7,0.9,9.5,1.2,14.1c0.2,4,0.3,7.7,0.5,11.3c0.5,12,1.8,26.5,3.6,33.8
						c0.2,0.8,0.4,1.6,0.7,2.5c2.5,9.2,6.2,23,5.6,47.4c0.3-0.2,0.6-0.4,0.8-0.5c0.5-24.1-3.2-37.9-5.6-47.1
						C432,301.7,431.8,300.8,431.6,300z"/>
					<path class="st11" d="M400.8,266.8l-6.3-29.4c0,0-10.7-0.3-16.9-6c1.3,5.1,10,9,13.9,9.8l1.2,5.2c-0.1,2.8-0.2,5.7-0.3,8.7
						c-0.5,16.6-0.9,33.7,0,37.6c1.7,7.5,1.2,14.7,0.3,24.5c-0.9,8.8-2.4,19.8-3.3,25.4c0.3,0,0.5-0.1,0.8-0.1
						c1-5.5,2.2-15.3,3.4-25.2c1.2-10,1.6-16.9-0.4-24.7c-0.9-3.7-0.5-21.6,0-37.4c0.1-1.9,0.1-3.8,0.2-5.6l4.2,18.2l0.5,24.2
						L400.8,266.8z"/>
				</g>
			</g>
		</g>
		<g id="Top_1_">
			<g id="Hair_00000101814478501068989290000007702282537956388259_">
				<path class="st11" d="M393.7,143.1c-0.7-1.5-1.2-3.2-2.3-4.4c-1.1-1.2-2.6-1.9-3.9-2.9c-1.4-1-2.8-2.1-4.2-3.1
					c-5.1-3.3-6.5-10.8-4.6-14.1c4.4-7.8,14.6-9.7,20-9.6c10.3,0.3,15.1,3.4,15.7,8.8c3.2,0.3,4.9,1.9,6.3,4.3
					c1.2,1.9,1.5,3.5,1.2,9.2c-0.1,1.2,0.1,3,0.5,4.1c0.6,1.8,2.1,3.7,2.6,5.6c0.6,2.1,0.8,3.9,0,5.9c-0.8,2-2.4,3.7-4.4,4.4
					c0.7-1.5,0.7-3.2,0-4.7c-0.4,2.1-1,4.4-2.9,5.3c-2,0.9-4.3-0.3-6.4,0c-1.4,0.2-2.6,1.2-3.9,1.4c-0.7,0.1-2.4,0.2-2.8-0.5
					c-0.4-0.7,0.4-1.8,0-2.7c-0.5-1.1-3-1.7-4.1-2.2C398.5,146.8,394.7,145.4,393.7,143.1z"/>
				<path class="st13" d="M395.2,121.7c-0.4-5-5.9-10-12.4-7c-3.2,1.5-5.2,4.5-5.6,8c-0.2,1.5-0.1,3.1,0.3,4.6
					c0.5,1.8,1.7,3,0.5,4.9c-0.7,1-1.7,1.8-2.4,2.8c-2,2.8-1.3,7.2,1.5,9.2c-0.7-2,0.1-4.5,2-5.7c-1.1,2-0.9,4.9-0.5,6.4
					c1.4,4.5,5.9,8.4,10.5,9.3c2.6,0.5,8.2-0.1,8.9-3.3c0.3-1.4-0.2-3.5-0.3-5c-0.1-1.8-0.3-3.5-0.4-5.3c-0.5-5.8-1.2-11.5-1.8-17.3
					C395.4,122.8,395.3,122.3,395.2,121.7z"/>
			</g>
			<g>
				<path class="st33" d="M384.3,159.2c-7,0.2-9.9,1.7-14.2,4.6c-2.4,1.6-21.8,15.8-21.8,15.8l-10,16.2c0,0,1.2,3,7.6,1.1
					c12.3-3.6,29.4-14,29.4-14L384.3,159.2z"/>
			</g>
			<g>
				<path class="st3" d="M426.3,220.6c-3.1-9.7-6.3-14.3-5.8-18.8c0.8-6.9,3.6-15.7,3.8-20.5c0.7-17-2.6-18.7-5.6-20.1
					c0,0-5.5-1.2-8.4-1.9c-1.8-0.4-5.4-0.9-5.4-0.9c-2.8-0.1-8.3,0-10.6,0.2c-1.1,0.1-3.1,0-3.1,0s-6.9,0.4-7,0.4
					c0,0-5.3,4.4-10.5,11.5c-5.3,7.2-7.4,15.8,0.3,22.2c0,0,0.4,6.7,0.3,9.7c-0.3,4.3-1.7,12.1-2.4,21
					C383.7,234.6,413,232,426.3,220.6z"/>
			</g>
			<g id="Head_00000106866678638241098920000015996962722962898346_">
				<path class="st32" d="M408.5,156.1c0.1-1.7,0.7-10.2,0.7-10.2c0,0.6,3,2.5,5.9-0.6c3-3.2,2.7-7.9,0.7-9.8c-3-3-7.6-0.6-8.3,3.6
					c-2.4,1.2-3.2-1.8-1.5-5.1c-0.1-2.7-2.9-3.2-2.6-9.1c-0.2-3-4.7-5.1-8.3-3c-2.2-2.8-7.9-3.2-10.5,1.3c-1.7,3.4-2.2,3.5-1.9,7.8
					c0.1,1.5-1.2,3.4-1.4,5.4c-0.8,9,1.6,13.3,4.4,15c1.9,1.1,3.5,1.6,6.9,1.7l-0.3,2.8l0,0c-0.1,1.4,0,2.7-1.4,3.1
					c-0.6,0.9-2.2,7.4,2.6,11.9c9.2-2,16.6-9.7,17.2-11.1C408.7,158.8,408.4,157.7,408.5,156.1z"/>
				<g>
					<g id="XMLID_369_">
						<path id="XMLID_370_" class="st34" d="M394.3,142.9l-4.7,1.1c0.3,1.3,1.5,2.2,2.8,1.9C393.8,145.6,394.6,144.2,394.3,142.9z"
							/>
						<path class="st33" d="M394,143.9c-1.3-0.1-2.4,0.6-2.8,1.8c0.4,0.2,0.9,0.2,1.3,0.1c0.9-0.2,1.6-1,1.8-1.8
							C394.2,144,394.1,143.9,394,143.9z"/>
					</g>
					<path id="XMLID_368_" class="st13" d="M384.1,129.2l3.8-0.7c-0.1-1.1-1.1-1.8-2.2-1.6C384.7,127.1,384,128.1,384.1,129.2z"/>
					<path id="XMLID_00000000941255642628277000000013663279898101182104_" class="st13" d="M400.6,131.8l-3.4-1.9
						c0.5-1,1.7-1.3,2.6-0.8C400.8,129.6,401.1,130.9,400.6,131.8z"/>
					<path id="XMLID_366_" class="st13" d="M387.7,132.5c0,0.9-0.7,1.6-1.6,1.6c-0.9,0-1.6-0.7-1.6-1.5c0-0.9,0.7-1.6,1.6-1.6
						C387,130.9,387.7,131.6,387.7,132.5z"/>
					<path id="XMLID_00000138554972863277632540000015731455062766424496_" class="st13" d="M398.9,134.3c0,0.9-0.7,1.6-1.6,1.6
						c-0.9,0-1.6-0.7-1.6-1.5c0-0.9,0.7-1.6,1.6-1.6C398.2,132.7,398.9,133.4,398.9,134.3z"/>
				</g>
				<path class="st33" d="M385.9,139.1l4.7,2.1l1.9-8.9C390.5,132.1,388.2,135.3,385.9,139.1z"/>
				<g id="XMLID_00000165195460191427042030000015607208432057980596_">
					<path id="XMLID_00000083086711166777241920000002685705033390613165_" class="st33" d="M392.8,152.9c4.5,0,7.7-0.7,9.7-2
						c1.7-1.1,3-2.5,3.7-3.8c0,0-1,3.3-3.2,5c-4.2,3.2-10.4,2.9-10.4,2.9L392.8,152.9z"/>
				</g>
			</g>
			<g>
				<path class="st32" d="M408.8,217.4c3.3-0.9,7.6-8.5,10.4-14.9c2.8-6.4,6.5-18.4,7.9-22.6c1.2-3.5,4.1-15.9-8.5-18.5
					c0,0-5.7,5.1-8.4,16.7l-9.5,25.2L408.8,217.4z"/>
				<path class="st33" d="M411.3,208.3c0-3.9-0.6-7.7-7.2-13.7l-3.3,8.6l5.8,10.2L411.3,208.3z"/>
				<g>
					<path class="st32" d="M381.4,184.6c0.2,1.3,1.5,5.8,3.6,10.2c2.2,4.4,7.1,13.2,13.2,18.7c2.8,2.5,7.4,4.6,10.5,3.9
						c1.8-0.4,4.4-5.4,1.5-11.9c-3-6.4-6.7-8.5-11-12.4c-3.9-3.6-7.1-8.3-6.2-10.8L381.4,184.6z"/>
					<path class="st33" d="M393.1,182.4l-11.6,2.3c0.2,1.3,1.5,5.8,3.6,10.2c0.5,1,1.1,2.1,1.8,3.5c0,0-2-4.5-1.1-6.5
						c0.4-0.9,0.9-1.5,1.5-2c2.1-1.8,4-3.9,5.3-6.4L393.1,182.4z"/>
					<g>
						<g>
							<circle class="st7" cx="388.1" cy="154.5" r="6.6"/>
							<g>
								<path class="st11" d="M380.9,154.6c-0.3,1,0.1,2.2,1.2,3.3c2.2,2.2,6.4,3.4,9.4,2.6c1.5-0.4,2.4-1.2,2.7-2.2
									c0.3-0.9,0.1-0.2,0.3-1.1c0.3-1-0.1-2.2-1.2-3.3c-2.2-2.2-6.4-3.4-9.4-2.6c-1.5,0.4-2.4,1.2-2.7,2.2
									C381,154.3,381.2,153.7,380.9,154.6z"/>
								<path class="st12" d="M391.6,160.5c1.5-0.4,2.4-1.2,2.7-2.2c0.3-1-0.1-2.2-1.2-3.3c-2.2-2.2-6.4-3.4-9.4-2.6
									c-1.5,0.4-2.4,1.2-2.7,2.2c-0.3,1,0.1,2.2,1.2,3.3C384.3,160.1,388.5,161.3,391.6,160.5z"/>
							</g>
							<path class="st7" d="M393.9,158.5c-1,3.5-4.6,5.6-8.1,4.6c-3.5-1-5.6-4.6-4.6-8.1c0.3-0.9,1.1-1.7,2.6-2.1
								c2.9-0.7,6.9,0.4,9,2.5C393.8,156.5,394.1,157.6,393.9,158.5z"/>
						</g>
						<g>
							<path class="st11" d="M384.3,160.7L384.3,160.7c0.1-0.4,0.4-0.7,0.8-0.8c0.9-0.3,2.1,0,2.7,0.8c0.3,0.4,0.4,0.7,0.3,1.1
								l0,0.1l0.9,0.2l-8.1,25.6l0,0c-0.1,0.3-0.4,0.5-0.8,0.7c-0.9,0.3-2.1,0-2.7-0.8c-0.3-0.3-0.4-0.7-0.3-1l0,0l0-0.1
								c0,0,0,0,0,0l0-0.1l6.3-25.9L384.3,160.7z"/>
							<path class="st11" d="M388.6,160.4c0.4,0.5,0.6,1.1,0.4,1.6c-0.1,0.5-0.5,0.9-1.2,1.1c-1.3,0.4-3.1-0.1-3.9-1.1
								c-0.4-0.5-0.6-1.1-0.4-1.6c0.1-0.5,0.5-0.9,1.2-1.1C386,158.9,387.7,159.4,388.6,160.4z"/>
						</g>
					</g>
					<path class="st32" d="M386.2,187.8c1.9,0,3.8-0.9,5.1-2.4c2.3-2.7,2.4-5.5,2.5-6.9c0-1.5,0.1-5-1-6.4c-1.1-1.4-3.2-2.6-4.7-3.6
						c-1.5-1.1-4.1-3.2-6.1-3.9c-2.1-0.7-2.8,1.1-1.6,2.7c0,0-1.7,1.3-1,2.9c0.6,1.4,4.5,5.2,5,5.8c0.5,0.7-3-2.1-3.9-2.5
						c-0.9-0.4-2.5,0.7-1.7,2.6c-1.1-0.4-2.1,1.5-1.3,3c0.6,1.1,2.8,4,3.3,5.3c1,2.3,2.2,3.3,4.6,3.6
						C385.7,187.8,385.9,187.8,386.2,187.8z"/>
					<path class="st33" d="M388.8,174.2c-0.8-0.5-1.6-1-2.3-1.5c-0.4-0.3-0.8-0.5-1.1-0.8c-0.4-0.3-0.7-0.6-1-0.9
						c-0.7-0.6-1.4-1.2-2-1.8c-0.7-0.6-1.3-1.3-1.9-2c0.7,0.6,1.4,1.1,2.1,1.7c0.7,0.6,1.4,1.2,2.1,1.8l1,0.9
						c0.3,0.3,0.7,0.6,1.1,0.9C387.4,173,388.1,173.6,388.8,174.2z"/>
					<path class="st33" d="M378.7,175.9c0.8,0.7,1.1,0.9,1.8,1.7c0.7,0.8,1.4,1.7,1.9,2.7c-0.8-0.7-1.6-1.5-2.3-2.4
						C379.4,177.1,379.3,176.9,378.7,175.9z"/>
					<g>
						<path class="st33" d="M386.7,171.4c-0.9,0.4-1.6,0-1.6,0s1.7,1.3,2.2,1.7c0.6,0.4,2.7,1.9,3.2,2.3c0.5,0.5,0.8,2.5-0.1,3.3
							c-1.1,1-1.8,0.4-2.4,0.8c-0.5,0.4-0.1,1.5-0.9,2.2c-1.2,1.1-2.2,0.1-2.9,0.5c-0.6,0.4-0.5,1.8-1.9,2.1
							c-1.2,0.2-1.8-0.5-1.9-0.7c0.2,0.3,0.3,0.5,0.3,0.6c1,2.3,2.2,3.3,4.6,3.6c0.3,0,0.5,0,0.8,0c1.9,0,3.8-0.9,5.1-2.4
							c2.3-2.7,2.4-5.5,2.5-6.9c0-1.5,0.1-5-1-6.4c-1.1-1.4-3.2-2.6-4.7-3.6C388.4,169.3,388,170.8,386.7,171.4z"/>
					</g>
				</g>
			</g>
			<g>
				<path class="st33" d="M361.2,143.4c0,0,0.4-0.3,0.4-1.3c0-1-0.2-1.7-0.3-2.8c0-1.1,0.1-3,1.1-3.4c1-0.4,1.9,1.9,2.2,3.7
					c0.3,1.9,0.5,3,2.1,4.9c1.6,1.9,3.1,4.5,2.2,7L361.2,143.4z"/>
				<path class="st32" d="M353.8,140.8c0.3-1.9-0.2-4.2-0.2-5.7c0-1.5,0.2-2.8,0.6-4.3c0.4-1.5,0.5-3.5,1-3.8
					c0.5-0.3,1.5,0.2,1.6,1.3c0,0,0.5-0.9,1-1.9c0.4-1,0.7-2.1,1.5-2.4c0.8-0.3,1.4,0.9,1.2,1.9c-0.1,1-0.3,1.5-0.3,1.5
					s0.9,0.2,0.4,2c-0.2,0.9-0.6,1.5-0.8,2c-0.1,1.3,0,1.9-0.5,3c-0.2,1.2-0.2,2.3-0.6,3.3c0.4,0.8,1.3,1.7,1.5,3.2
					c0.2,1.5,0,1.9,2,3.4c1.3,1,3.5,2.1,4.9,3.6c1.3,1.5,2.4,3.1,1.3,5.5c-1.1,2.4-1.9,4.1-2.9,6.6c-0.7,1.9-1.4,4.3-4.3,13.1
					c-2.3,6.8-2.4,7.6-3.6,10.2c-1.7,3.5-3.6,8.1-8.9,11.2c-5.3,3.1-11.8,3.3-11.7-1.5c0.2-5.8,1.2-10.4,3.2-13.8
					c2.1-3.4,2.8-4.2,5.7-7.8c2.4-2.9,4.1-5.9,6.9-10c2.8-4.1,4.6-7.9,4.4-9.1c-0.3-2.1-1.7-4.9-2.4-6.4
					C353.9,143.5,353.5,143.7,353.8,140.8z"/>
				<path class="st33" d="M368.9,151.6c-0.1,1.2-0.8,2.1-1.2,3.2c-0.5,1.1-0.9,2.1-1.4,3.2c-0.4,1.1-0.9,2.1-1.3,3.2
					c-0.4,1.1-0.8,2.6-1.2,3.7c0.5-1.1,0.9-2.6,1.4-3.6c0.5-1.1,0.9-2.1,1.3-3.2l1.3-3.2l0.7-1.6
					C368.8,152.8,368.9,152.2,368.9,151.6z"/>
				<path class="st33" d="M356.8,128.3c0,0.5-0.1,1-0.2,1.6c-0.1,0.5-0.2,1-0.4,1.5l0,0.1l0,0.1c0.1,0.2,0.1,0.5,0.2,0.8
					c0,0.3,0.1,0.6,0.1,0.8c0,0.6-0.1,1.1-0.2,1.7l0,0.1l0.1,0.1c0.1,0.2,0.2,0.4,0.3,0.6c0.1,0.2,0.2,0.4,0.3,0.6
					c0.1,0.2,0.1,0.4,0.2,0.6c0.1,0.2,0.1,0.4,0.1,0.7c0.1-0.5,0.1-0.9,0-1.4c0-0.2-0.1-0.5-0.2-0.7c-0.1-0.2-0.2-0.4-0.3-0.7l0,0.2
					c0.2-0.6,0.4-1.2,0.4-1.8c0-0.3,0-0.6-0.1-0.9c-0.1-0.3-0.1-0.6-0.3-0.9l0,0.2c0.1-0.5,0.2-1.1,0.2-1.6
					C357,129.4,357,128.8,356.8,128.3z"/>
				<path class="st33" d="M360.2,127.3c-0.1,0.3-0.3,0.5-0.4,0.8c-0.2,0.2-0.4,0.5-0.6,0.7l0,0l0,0.1c-0.1,0.6-0.2,1.2-0.4,1.8
					c-0.2,0.6-0.5,1.1-0.9,1.6l-0.1,0.1l0.1,0.2c0.1,0.3,0.2,0.7,0.3,1c0.1,0.3,0.1,0.7,0.1,1.1c0,0.4,0,0.7,0,1.1
					c0,0.4-0.1,0.7-0.1,1.1c0.2-0.3,0.3-0.7,0.4-1.1c0.1-0.4,0.2-0.7,0.2-1.1c0-0.4,0-0.8,0-1.1c0-0.4-0.1-0.8-0.3-1.1l-0.1,0.3
					c0.2-0.3,0.5-0.5,0.6-0.8c0.2-0.3,0.3-0.6,0.4-0.9c0.1-0.3,0.2-0.7,0.2-1c0-0.3,0.1-0.7,0.1-1l0,0.1c0.2-0.3,0.4-0.5,0.5-0.8
					C360.1,127.9,360.2,127.6,360.2,127.3z"/>
				<path class="st33" d="M358.6,139.8c0.1,0.7,0.4,1.3,0.8,1.8c0.4,0.5,0.9,1,1.4,1.4c-0.2-0.3-0.4-0.5-0.6-0.8
					c-0.2-0.3-0.4-0.5-0.6-0.8C359.2,140.9,358.9,140.4,358.6,139.8z"/>
				<path class="st33" d="M365.4,146.4c0.5,1.1,0.9,2.3,1,3.4c0,0.6,0,1.2-0.2,1.7c-0.1,0.6-0.3,1.1-0.6,1.7c0.4-0.5,0.8-1,1-1.6
					c0.2-0.6,0.3-1.3,0.3-1.9C367,148.5,366.4,147.2,365.4,146.4z"/>
			</g>
		</g>
	</g>
</g>
<g id="Character_1">
	<g id="Character_00000003787978881839633510000000403884673345709210_">
		<g id="Bottom_1_">
			<g>
				<path class="st35" d="M214.3,405.9c0.7-10,1-14.7,2-32.5v0c0.1-4.6,0.3-9.5,0.6-13.8c1-14.7,2.9-18.2,4.2-23.2
					c1.3-5,1.1-18.6,3-50.2c1.1-17.5,3.6-27.2,5.8-35.6H275c4.6,19.8,6,62.6,5.8,83c-0.1,10.4-0.2,64.1,0.1,68.4
					c0.3,4.5,2.6,7.4,4.3,9.3c3.7,4,6.4,5.6,11.1,9.1c-0.7,1.8-10.5,1.7-13.2,0.4c-4.4-2.2-10.2-5.7-11.7-6.9
					c-3.8-2.8-4.7-4.6-4.8-8.9c0-0.5,0-1.3,0-1.4c-0.1-2.5-7.3-40.1-8.9-48.6c-1.2-6.6,0.1-19.4,0.1-19.4l-4.8-31.4
					c0,0-4.2,25.1-7.1,37.8c-2.1,9.3-7.4,24.1-10.8,39l0,0c-4,15.2-4.3,16.5-6.7,27.4c-1.2,5.5-4.1,23.9-5.4,27.7
					c-4.3,12.2-14,6.2-14.5-0.6C208.1,430.7,214.1,408,214.3,405.9z"/>
				<path id="XMLID_00000166649918058424130350000009590670636176308374_" class="st36" d="M253.1,304l3.5-22.7
					c0,0,13.5-1.6,18.4-6.3c0,0-6.2,8.8-15.4,10.2l-3.9,18.8l2,31.2L253.1,304z"/>
			</g>
			<g>
				<path class="st13" d="M306.7,425.3c0.3,0,0.7,2.8-0.7,4c-1.6,1.4-6.2,3.7-12.4,3c-6.2-0.7-9.5-2.6-12-4.6c-2.5-2-6-4.9-8.8-5.5
					c-2.6-0.5-6.8-2-7.7-2.7c-0.8-0.8-0.8-4.3-0.8-4.3L306.7,425.3z"/>
				<path id="XMLID_00000048499220928022692860000004220086080580915848_" class="st11" d="M266.6,402.5c0,0-0.8,0.4-1,1.2
					c-0.2,1-0.2,2.2-0.6,3.9c-0.5,2.2-0.9,6.8-0.5,8.6c0.4,1.8,6,3.3,8.7,4.3c2.8,1,6,3.1,8.8,5.4c2.9,2.4,9,4.7,13,4.7
					c6.1,0,10.1-1.7,11.3-3.9c1.5-2.7,0.3-4.3-6.8-7.5c-1.3-0.6-6.1-3.3-7.7-4.3c-1.7-1-3.3-2.2-4.8-3.5c-0.8-0.7-1.5-1.4-2.2-2.1
					c-0.6-0.7-1.4-1.4-1.8-2.3c-0.1-0.2-0.1-0.4-0.2-0.6c-0.2-0.6-0.4-1.1-0.5-1.6c-0.1-0.6-0.2-1.4-0.8-1.8
					c-0.6-0.4-1.8-0.3-2.5-0.3c-0.9,0.1-1.8,0.2-2.7,0.4c-1,0.2-3.6,0.1-4.2,1.1c-0.5,0.8-0.5,1.7-0.6,2.6c0,0.4,0,0.8,0,1.2
					c0,0.2,0.1,0.5-0.2,0.4c-0.2-0.1-0.5-0.7-0.6-0.9c-0.2-0.5-0.3-0.9-0.5-1.4c-0.3-0.5-0.5-1.1-0.9-1.5c-1.2-1-2.3-0.8-2.7-1.1
					C266.7,403.6,266.6,402.8,266.6,402.5z"/>
				<path class="st0" d="M300.7,419.8c-8.9,0.7-11.6,6.2-11.9,9.6c2.2,0.8,4.5,1.2,6.3,1.3c6.1,0,10.3-1.7,11.5-3.9
					C308,424.1,307,422.1,300.7,419.8z"/>
				<g>
					<g>
						<path class="st1" d="M287.4,420c-0.1,0-0.2,0-0.3-0.1c-0.2-0.1-0.2-0.4-0.1-0.6c1.2-1.5,4.8-3.6,8-3.2c0.2,0,0.4,0.2,0.4,0.5
							c0,0.2-0.2,0.4-0.5,0.4c-3-0.3-6.3,1.7-7.2,2.9C287.6,419.9,287.5,420,287.4,420z"/>
					</g>
					<g>
						<path class="st1" d="M283.5,417.8c-0.1,0-0.2,0-0.3-0.1c-0.2-0.1-0.2-0.4-0.1-0.6c1.2-1.5,4.8-3.6,8-3.2
							c0.2,0,0.4,0.2,0.4,0.5c0,0.2-0.2,0.4-0.5,0.4c-3-0.3-6.3,1.7-7.2,2.9C283.8,417.7,283.7,417.8,283.5,417.8z"/>
					</g>
					<g>
						<path class="st1" d="M280,415.3c-0.1,0-0.2,0-0.3-0.1c-0.2-0.1-0.2-0.4-0.1-0.6c1.2-1.5,4.8-3.6,8-3.2c0.2,0,0.4,0.2,0.4,0.5
							c0,0.2-0.2,0.4-0.5,0.4c-3-0.3-6.3,1.7-7.2,2.9C280.2,415.2,280.1,415.3,280,415.3z"/>
					</g>
					<g>
						<path class="st1" d="M276.5,412.8c-0.1,0-0.2,0-0.3-0.1c-0.2-0.1-0.2-0.4-0.1-0.6c1.7-2.2,5.5-3.6,8.7-3.3
							c0.2,0,0.4,0.2,0.4,0.5c0,0.2-0.2,0.4-0.5,0.4c-2.9-0.3-6.5,1.1-8,3C276.7,412.7,276.6,412.8,276.5,412.8z"/>
					</g>
				</g>
			</g>
			<g>
				<path class="st13" d="M224.4,437.3c-0.7,4.1-1.7,6.8-3.4,9.1c-1.7,2.3-4.6,2.7-7.3,1.7c-2.7-1-6.1-3.3-6.5-7
					c-0.4-3.7-0.6-6.2,0.5-10L224.4,437.3z"/>
				<path id="XMLID_320_" class="st11" d="M214.3,405.9c-1.2,0-1.5,5.5-2.8,11c-1.4,5.9-2.5,8.2-3.7,13c-1.4,5.5-0.7,8.1,0.9,11.7
					c1.6,3.6,8.2,7.7,12.1,3.2c3.2-3.6,3.8-8,4.2-13.6c0.4-5.8,1.4-9.6,2.3-14c1-4.5,2.1-8.5,1.1-9.1c-0.1,0.6-0.8,3.8-1.2,4.5
					c-0.2,0.3-0.7,1-0.7-0.2c0-0.4,0.2-1.1,0.2-1.5c0-1-0.5-1.2-0.9-1.5c-0.8-0.6-2.6-1.4-4.8-1.6c-2.3-0.3-4.2-0.6-5.6,0
					c-0.8,0.3-0.9,1-1,1.7c-0.2,0.8-0.3,1.4-0.5,1.2C213.6,410.3,214.3,406.5,214.3,405.9z"/>
				<path class="st0" d="M207.1,433.1c-0.6,3.5,0,5.9,1.2,8.8c1.6,3.6,8.7,7.8,12.7,3.3c2-2.2,2.7-5,3.3-7.9
					C222.7,433.3,210.7,430.3,207.1,433.1z"/>
				<g>
					<g>
						<path class="st1" d="M222.5,430.9c0,0-0.1,0-0.1-0.1c0,0-5.2-2.8-10.5-2.2c-0.2,0-0.5-0.1-0.5-0.4c0-0.2,0.1-0.5,0.4-0.5
							c5.7-0.7,10.9,2.2,11.1,2.3c0.2,0.1,0.3,0.4,0.1,0.6C222.9,430.8,222.7,430.9,222.5,430.9z"/>
					</g>
					<g>
						<path class="st1" d="M212.6,424.5c-0.2,0-0.3-0.2-0.3-0.3c-0.1-0.2,0.1-0.5,0.3-0.5c5.4-1.2,10.9,2.1,11.1,2.2
							c0.2,0.1,0.3,0.4,0.1,0.6c-0.1,0.2-0.4,0.2-0.6,0.1c0,0-5.4-3.2-10.4-2.1C212.7,424.5,212.6,424.5,212.6,424.5z"/>
					</g>
					<g>
						<path class="st1" d="M213.2,420.5c-0.2,0-0.3-0.2-0.3-0.3c-0.1-0.2,0.1-0.5,0.3-0.5c5.9-1.4,11.1,2.1,11.3,2.2
							c0.2,0.1,0.2,0.4,0.1,0.6c-0.1,0.2-0.4,0.2-0.6,0.1c0,0-5-3.4-10.6-2.1C213.3,420.6,213.3,420.6,213.2,420.5z"/>
					</g>
					<g>
						<path class="st2" d="M213.9,416.7c-0.2,0-0.3-0.2-0.3-0.3c-0.1-0.2,0.1-0.5,0.3-0.5c5.6-1.4,11.2,2.2,11.4,2.4
							c0.2,0.1,0.2,0.4,0.1,0.6c-0.1,0.2-0.4,0.2-0.6,0.1c0,0-5.4-3.5-10.6-2.2C214,416.7,214,416.7,213.9,416.7z"/>
					</g>
				</g>
			</g>
			<path class="st12" d="M228.5,250.5c-3.2,12.3-4.5,15.4-6.4,42.8c-1.8,26.6-0.7,34.7-1,38c-0.6,7.4-3.9,9.9-4.8,27.3
				c-0.9,15.9-1.4,35.5-1.4,35.5s2.1,2.9,8.2,3.5c5.6,0.5,8.4-1.6,8.4-1.6s10.4-37.1,13.3-46.4c3.9-12.7,8.3-39.1,8.3-39.1l3.7,25.5
				c0,0-1.2,12.2,1.2,23.7c2.9,14.3,5.9,29.8,5.9,29.8s3.7,1.5,8.4,1c6.5-0.7,8.7-2.2,8.7-2.2s1.8-43.1,1.8-58.9
				c0-15.8-0.4-54.3-2.5-78.8H228.5z"/>
			<path class="st11" d="M253.1,310.4l4.5-27.6c0,0,9.1-2.4,15-8.5c-0.4,4.6-8.5,10.4-12.3,11.3l-5.1,24.4l1.6,25.8L253.1,310.4z"/>
			<path class="st11" d="M242.5,254.8c-1.4,2.3-2.5,4.7-3.4,7.2c-0.9,2.5-1.6,5.1-2.3,7.7c-0.6,2.6-1.1,5.2-1.4,7.9
				c-0.4,2.6-0.6,5.3-0.5,8c0.6-2.6,1.2-5.2,1.8-7.7c0.6-2.6,1.2-5.1,1.8-7.7c0.6-2.6,1.2-5.1,1.9-7.7
				C241,259.8,241.7,257.3,242.5,254.8z"/>
			<path class="st11" d="M239,255.7c-1.3,1.2-2.5,2.6-3.6,4c-1.1,1.4-2,3-2.9,4.6c-0.9,1.6-1.6,3.2-2.2,4.9
				c-0.6,1.7-1.1,3.5-1.2,5.3l2.4-4.8c0.8-1.6,1.6-3.1,2.5-4.7c0.8-1.6,1.7-3.1,2.6-4.6C237.3,258.9,238.2,257.4,239,255.7z"/>
			<path class="st11" d="M244.8,287.6c-1.1,8.3-2.2,16.5-3.2,24.8c-1.1,8.3-1.9,21.6-3.4,29.7c-1.6,8.2-11.2,40.1-12.4,48.4
				c1.9-8.1,12.5-39.9,14.1-48.1c1.5-8.2,2.2-21.6,3-29.9C243.7,304.2,244.3,295.9,244.8,287.6z"/>
			<path class="st11" d="M274.5,287.6l1.4,21.7c0.2,3.6,0.4,7.2,0.6,10.9c0.2,3.6,0.4,7.2,0.3,10.8c-0.1,3.6-0.3,38.3,0.2,45.6
				c0.9-8.1,1.2-38.2,1.5-45.5c0-7.3-0.6-14.6-1.3-21.8C276.4,302,275.6,294.8,274.5,287.6z"/>
			<path class="st11" d="M263.2,385.9l1.2,7.6c0,0,3,1.9,9.4,1.3c6.4-0.7,7.3-2.7,7.3-2.7v-7.1c0,0-1.5,1.5-7.3,2.1
				C267.9,387.7,263.2,385.9,263.2,385.9z"/>
			<path class="st11" d="M215.1,388.8l-0.6,7.6c0,0,2.5,2.6,8.8,3.4c6.3,0.8,7.7-0.9,7.7-0.9l1.7-6.9c0,0-1.8,1.1-7.6,0.4
				C219.3,391.7,215.1,388.8,215.1,388.8z"/>
		</g>
		<g id="Top_5_">
			<g>
				<path class="st11" d="M270,190.5c4.4-0.5,8,0.8,20.7,4.4c10.9,3.1,14.1,4.2,14.1,4.2s12.3,1.9,13.4,3.7c1.1,1.8,4.7,2.7,5.5,9.2
					c0.8,6.6-2.2,8.7-3.9,9.3c-2.9,1-5.8,0.7-13.8-0.7s-26.9-5.7-26.9-5.7L270,190.5z"/>
				<g>
					<path class="st35" d="M303.6,200.7c-0.3,3.1,0.2,7.1,2.2,10.8c2.1,4.1,6.3,7.4,9.6,8.6c2.6,0.9,6.2,0.6,7.1-5.7
						c1.2-7.6-1.4-14.5-3.5-23c-2.9-11.6-3.7-14.4-4-17.8c-0.2-2.2,0.5-6.2-0.2-8.3c-0.9-2.8-1.7-4.5-3.2-6.9
						c-1.5-2.4-3.2-1.1-3.5-0.8c-1.5-1.7-3.5-1.8-4.5-0.6c-1.1-0.4-3.2,0-4.2,1.7c-1.2-0.4-3,0.2-3.1,1.8c0,0.4,0.2,1,0.6,1.8
						c-0.2,1,1.4,5.2,0.6,6.4c-0.8,1.1-2.4,1.1-4.4,1.3c-2.1,0.2-4.2,1.1-4.8,2.5c-0.5,1.1,0.2,1.6,1.2,1.7c0.9,0.1,3.2-0.2,4.9,0
						c2.5,0.2,3.5,0.2,4.7,0.8c1.2,0.7,3.1,1.7,4,2.6c0.9,0.9,1.8,2.1,1.9,5.7C305.1,187.1,304,196.6,303.6,200.7z"/>
					<path class="st36" d="M305.3,167.7c1,0.8,1.7,1.7,2.3,2.8c0.6,1,1,2.2,1,3.4c-0.2-1.2-0.7-2.3-1.3-3.2
						c-0.7-0.9-1.5-1.8-2.4-2.4L305.3,167.7z"/>
					<path class="st36" d="M312.7,175.4c-1.1,0.6-2.5,0.5-3.5,1s-3.3,1.7-5.3,0.5c-1.6-0.9-4.1-1.9-5.4-2l0,0
						c0.3,0.1,0.6,0.2,0.8,0.4c1.2,0.7,3.1,1.7,4,2.6c0.9,0.9,1.8,2.1,1.9,5.7c0,0.2,0,0.5,0,0.7l0,0c0,0,0.4-2.9,1.3-4.2
						s3.1-2,5.3-3C313.7,176,313.8,174.8,312.7,175.4z"/>
					<g>
						<g>
							<circle class="st7" cx="283.5" cy="169.6" r="6.6"/>
							<g>
								<path class="st11" d="M286.8,176c1-0.2,1.9-1.1,2.4-2.5c1-3,0.1-7.3-1.9-9.6c-1-1.2-2.2-1.6-3.2-1.4c-0.9,0.2-0.2,0-1.2,0.2
									c-1,0.2-1.9,1.1-2.4,2.5c-1,3-0.1,7.3,1.9,9.6c1,1.2,2.2,1.6,3.2,1.4C286.6,176.1,285.9,176.2,286.8,176z"/>
								<path class="st12" d="M287.3,163.9c-1-1.2-2.2-1.6-3.2-1.4c-1,0.2-1.9,1.1-2.4,2.5c-1,3-0.1,7.3,1.9,9.6
									c1,1.2,2.2,1.6,3.2,1.4c1-0.2,1.9-1.1,2.4-2.5C290.2,170.5,289.3,166.2,287.3,163.9z"/>
							</g>
							<path class="st7" d="M284.4,162.7c3.6-0.7,7.1,1.6,7.8,5.2c0.7,3.6-1.6,7.1-5.2,7.8c-1,0.2-2-0.2-3-1.4
								c-2-2.2-2.8-6.3-1.8-9.2C282.6,163.7,283.5,162.9,284.4,162.7z"/>
						</g>
						<g>
							<path class="st11" d="M290.8,170.2L290.8,170.2c-0.4,0.1-0.8,0-1.1-0.4c-0.7-0.7-0.9-1.9-0.6-2.8c0.2-0.4,0.5-0.7,0.8-0.8
								l0.1,0l-0.2-0.9l26.5-4.4l0,0c0.3,0,0.6,0.1,0.9,0.4c0.7,0.7,0.9,1.9,0.6,2.8c-0.2,0.4-0.4,0.6-0.7,0.7l0,0l-0.1,0
								c0,0,0,0,0,0l-0.1,0l-25.9,6.1L290.8,170.2z"/>
							<path class="st11" d="M288.5,166.5c0.3-0.6,0.7-1,1.2-1.1c0.5-0.1,1,0.1,1.5,0.6c1,1,1.3,2.8,0.8,4c-0.3,0.6-0.7,1-1.2,1.1
								c-0.5,0.1-1-0.1-1.5-0.6C288.3,169.6,288,167.8,288.5,166.5z"/>
						</g>
					</g>
					<g>
						<path class="st35" d="M310.1,158c-0.3,0-0.6-0.1-0.9,0c-0.2,0-0.4,0.2-0.7,0.2c-0.1,0-0.2,0-0.3-0.1c-0.2-0.1,0-0.2-0.1-0.3
							c-0.1-0.1-0.2-0.2-0.3-0.3c-0.2-0.2-0.4-0.4-0.7-0.5c-0.4-0.3-0.9-0.5-1.3-0.5c-0.4-0.1-0.9,0-1.3,0.1c-0.1,0-1,0.7-1,0.7
							c-1.1-0.4-3.2,0-4.2,1.7c-1.2-0.4-3,0.2-3.1,1.8c0,0.1,0,0.1,0,0.2c0,0,0,0,0,0c0,0.1,0,0.2,0.1,0.4c0.1,0.3,0.2,0.7,0.3,1
							c0.1,0.1,0.1,0.3,0.2,0.4c0.2,0.4,0.3,0.7,0.5,1.1l1.3,3c0.3,0.5,0.4,1,0.8,1.5c0.2,0.2,0.5,0.4,0.8,0.4
							c0.3,0.1,0.6,0,0.9-0.2c0.5-0.3,0.9-0.8,0.9-1.4c0-0.1,0-0.1,0-0.2c0,0.1,0.1,0.2,0.1,0.3c0.1,0.2,0.3,0.4,0.5,0.6
							c0.2,0.2,0.5,0.3,0.8,0.2c0.4-0.1,0.7-0.3,0.9-0.5c0,0.1,0.1,0.2,0.1,0.3c0.1,0.2,0.2,0.3,0.4,0.5c0.2,0.1,0.3,0.2,0.5,0.3
							c0.4,0.1,0.9,0,1.2-0.3c0.3-0.3,0.5-0.7,0.7-1c0.2,0.3,0.6,0.5,0.9,0.5c0.4,0,0.7-0.1,1-0.3c0.3-0.2,0.4-0.5,0.5-0.8
							c0.4-1.1,0.6-2.1,0.8-3.2c0,0,0,0,0-0.1c0-0.2,0.1-0.4,0.1-0.6c0.6-0.4,1.4-0.9,1.5-1.3c0.1-0.3-1.1-0.4-1-0.7
							c0.2-0.7,0.2-1.7-0.3-2.3c-0.1-0.1-0.2-0.2-0.3-0.3C310.3,158,310.2,158,310.1,158z"/>
						<path class="st36" d="M307.5,166.1L307.5,166.1l0,0.1c0.1,0.5,0.3,0.9,0.7,0.9c0.2,0,0.4,0,0.6-0.1c0.2-0.1,0.3-0.3,0.4-0.6
							c0.4-1,0.7-2,1-3.1l0,0.1l0,0l0,0l0,0c0.1-0.6,0.2-1.2,0.4-1.8c0.1-0.3,0.2-0.6,0.3-0.9c0.1-0.3,0.2-0.6,0.2-0.9
							c0,0.3,0,0.6-0.1,0.9c-0.1,0.3-0.2,0.6-0.3,0.9c-0.2,0.6-0.2,1.2-0.3,1.8l0-0.1l0,0l0,0l0,0c-0.2,1.1-0.4,2.2-0.8,3.2
							c-0.1,0.3-0.2,0.6-0.5,0.8c-0.3,0.2-0.6,0.3-1,0.3c-0.4,0-0.7-0.2-0.9-0.5c-0.2-0.3-0.4-0.6-0.4-0.9l0,0.1l0,0L307.5,166.1z"
							/>
						<path class="st36" d="M312,161.4c-0.1,0.3-0.4,0.6-0.6,0.9c-0.3,0.2-0.5,0.5-0.9,0.6l-0.1-0.3C311,162.3,311.6,162,312,161.4z
							"/>
						<path class="st36" d="M303.6,157.2c0.2,0.5,0.4,1.1,0.5,1.7c0.1,0.6,0.2,1.1,0.3,1.7l0.1,0.8l0.1,0.9l0.2,1.7l0,0l0,0.1l0,0
							l0.1,1.8l0,0.9c0,0.3,0,0.6,0.1,0.8c0.1,0.2,0.3,0.3,0.5,0.3c0.2,0.1,0.4,0,0.5-0.1c0.3-0.3,0.6-0.9,0.7-1.4l0,0l0,0l0-0.1
							c0.1-0.6,0.2-1.4,0.3-2.1l0.2-2.1c0.1-0.7,0.1-1.4,0.3-2.1c0.1-0.4,0.1-0.7,0.2-1.1c0.1-0.3,0.2-0.7,0.4-1
							c-0.2,0.3-0.2,0.7-0.2,1c0,0.4-0.1,0.7-0.1,1.1l-0.1,2.1l-0.1,2.2l-0.1,1.1c0,0.4,0,0.7-0.2,1.1l0-0.1l0,0.1l0,0l0,0
							c-0.2,0.6-0.3,1.3-0.9,1.8c-0.3,0.3-0.8,0.4-1.2,0.3c-0.2-0.1-0.4-0.1-0.5-0.3c-0.2-0.1-0.3-0.3-0.4-0.5
							c-0.2-0.4-0.2-0.7-0.2-1l0-0.9l-0.1-1.8l0,0l0,0l0,0l0,0l-0.1-1.7l0-0.8l-0.1-0.9C303.9,159.4,303.9,158.3,303.6,157.2z"/>
						<path class="st36" d="M299.4,158.9c1,1.7,1.8,3.4,2.5,5.3l0.4,1.4c0.1,0.5,0.3,0.9,0.5,1.3c0.2,0.4,0.4,0.8,0.8,0.8
							c0.4,0,0.9-0.2,1.2-0.6c-0.2,0.4-0.6,0.8-1.2,0.9c-0.3,0-0.6-0.1-0.8-0.2c-0.2-0.2-0.4-0.4-0.5-0.6c-0.3-0.4-0.5-0.9-0.6-1.4
							l-0.4-1.4c-0.3-0.9-0.6-1.8-0.9-2.7C299.9,160.7,299.7,159.8,299.4,158.9z"/>
						<path class="st36" d="M301.8,165.2l0,0.2l0,0l0,0l0,0l0,0c0.1,0.5,0.3,1.1,0.2,1.6c0,0.6-0.4,1.1-0.9,1.4
							c-0.2,0.2-0.6,0.3-0.9,0.2c-0.3-0.1-0.6-0.2-0.8-0.4c-0.4-0.4-0.6-1-0.8-1.5l-1.3-3c-0.2-0.5-0.4-1-0.6-1.5
							c-0.2-0.5-0.4-1-0.4-1.6c0.1,0.5,0.4,1,0.6,1.5l0.7,1.5c0.5,1,0.9,2,1.4,3c0.2,0.5,0.4,1,0.7,1.4c0.3,0.4,0.9,0.5,1.3,0.2
							c0.4-0.2,0.8-0.7,0.8-1.2c0.1-0.5,0-1.1-0.1-1.6l0,0l0,0l0,0l0,0L301.8,165.2z"/>
						<path class="st37" d="M300.5,166.4c-0.9,0.3-1.6,0-2-0.5c0.3,0.7,0.5,1.3,0.8,1.7c0.4,0.7,1.1,1.3,2,0.6
							c0.8-0.6,0.8-1.5,0.5-2.8C301.8,165.5,301.5,166.1,300.5,166.4z M308.6,164.1c-0.9-0.1-1.1-0.9-1.1-1c0,0.1,0,0.5-0.1,0.9
							c0,0.1,0,0.3,0,0.4c0,0,0,0,0,0c0,0.4-0.9,0.9-1.3,0.9c-0.4,0-1.1-0.2-1.5-1.4c0,0,0,0,0,0.1c0,0.5-0.4,1.5-1.3,1.7
							c-0.9,0.2-1.3-0.2-1.4-0.3c0.2,0.7,0.4,1.4,0.8,1.9c0.7,0.9,1.7,0.2,2-0.3c0,0.5,0.2,0.8,0.6,1c0.7,0.4,1.5-0.2,1.8-1.7
							c0,0,0-0.1,0-0.1c0.3,1.4,1.6,1.4,2.1,0.6c0.4-0.7,0.8-2.4,1.1-3.5C310.2,163.8,309.6,164.3,308.6,164.1z"/>
					</g>
				</g>
			</g>
			<g id="Chest_3_">
				<path id="XMLID_15781_" class="st0" d="M276.6,206.9c-1-7.6-5.9-14.2-14.5-17.1l-14.6-1.9c-3.7,1-27.3,7.7-27.3,7.7l7.4,39.7
					c0,0-1.7,16.6-2,26.9c10.9,6.9,41.4,6.5,52.9-0.4C278.9,251.3,277.7,214.4,276.6,206.9z"/>
				<g>
					<path class="st13" d="M273,267.3v4.3c0,0,5.8-1.4,10.3-5.1l0.1-4.8L273,267.3z"/>
					<path class="st3" d="M281.1,216.2c-0.4-9.6-3.4-20.5-6.7-23.6c-2.3-2.2-10.3-3.9-14.9-4.6v1c1,0.1,2.7,1.4,3.5,2.7
						c1.5,2.4,2.9,6.3,4.7,13.2c2.5,9.4,5.2,28.4,5.3,39.7c0.1,11.2,0,22.8,0,22.8s8.6-2.7,10.4-5.6c1.6-4.2-0.1-5.1-0.1-7.9
						C283.4,241.2,281.4,223.2,281.1,216.2z"/>
					<path class="st17" d="M281.1,216.2c-0.4-9.6-3.4-20.5-6.7-23.6c-2.3-2.2-10.3-3.9-14.9-4.6v1c1,0.1,2.7,1.4,3.5,2.7
						c1.5,2.4,2.9,6.3,4.7,13.2c2.5,9.4,5.2,28.4,5.3,39.7c0.1,11.2,0,22.8,0,22.8s8.6-2.7,10.4-5.6c1.6-4.2-0.1-5.1-0.1-7.9
						C283.4,241.2,281.4,223.2,281.1,216.2z"/>
				</g>
				<g>
					<path class="st13" d="M223.3,263.3c0,0-0.9,3.6-0.7,4.6c0.2,1,1.7,2.5,6.8,4.2c4.6,1.6,13.4,4.4,21.2,4.2l0.3-4.9L223.3,263.3z
						"/>
					<path class="st3" d="M246.2,203.5c-1.2-5.1-5.3-10.6-6.6-15.6c0,0-5.3,2.1-12,4.4c0,0-2.7,1.2-5.1,2.2c-4.7,2.1-5.5,7-3.7,13.9
						c0,0,3.1,14.9,4.8,24c1.1,6.2,1.6,13.2-0.3,21.4c-0.7,2.9-2.6,7.5-0.1,9.5c6.9,6,27.5,8.2,27.5,8.2s0.6-12.9,0-38.8
						C250.6,218.1,247.8,210,246.2,203.5z"/>
					<path class="st17" d="M246.2,203.5c-1.2-5.1-5.3-10.6-6.6-15.6c0,0-5.3,2.1-12,4.4c0,0-2.7,1.2-5.1,2.2
						c-4.7,2.1-5.5,7-3.7,13.9c0,0,3.1,14.9,4.8,24c1.1,6.2,1.6,13.2-0.3,21.4c-0.7,2.9-2.6,7.5-0.1,9.5c6.9,6,27.5,8.2,27.5,8.2
						s0.6-12.9,0-38.8C250.6,218.1,247.8,210,246.2,203.5z"/>
				</g>
			</g>
			<g id="Head_1_">
				<path class="st13" d="M254.2,139.7c-12.7-0.8-21.4,6.5-23.8,13.9c-2.4,7.4,1.7,19.1,10.1,26.4l28.5-22.4
					C271.4,148.5,266.8,140.5,254.2,139.7z"/>
				<g id="XMLID_317_">
					<path class="st35" d="M235.3,176.8c3.1,0.9,4.6-1.1,4.6-1.1l1.6,15.5c3.8,4.2,9.7,6.5,15.8,5.2c3.3-0.7,5-3.2,1.5-7.4l-0.4-4.6
						c0,0,3.2,0,5.2-0.4c3.3-0.8,5.2-3.6,6-7.3c1.2-5.9,0.4-18.1-2-25.8c-4-2.6-18.4-1.8-26,3.8c1.2,4.7,1.4,6.1,1.1,9
						c-0.3,3-1.3,4.4-2.1,4.5c-1.6,0.4-2-1.4-3.1-2.4c-1.1-1-5.1-1.3-6.5,2.3C229.5,172,232.9,176.1,235.3,176.8z"/>
					<path class="st36" d="M258.3,184.4c-5.4-0.1-12.3-2.1-14.2-4.5c-1.9-2.3-2.7-4.3-2.7-4.3s0.3,3.3,1.8,5.4
						c1.5,2,6.8,5.4,15.2,5.4L258.3,184.4z"/>
				</g>
				<g id="XMLID_298_">
					<path id="XMLID_315_" class="st13" d="M254.6,163.6c0.1,0.9-0.6,1.7-1.5,1.8c-0.9,0.1-1.7-0.6-1.7-1.5
						c-0.1-0.9,0.6-1.7,1.5-1.8C253.7,162,254.5,162.7,254.6,163.6z"/>
					<path id="XMLID_487_" class="st13" d="M252.9,158l-3.3,2.6c-0.7-0.9-0.6-2.3,0.3-3C250.8,156.9,252.1,157,252.9,158z"/>
					<path id="XMLID_311_" class="st13" d="M266.9,157.6l-3.8-1c0.2-1.1,1.3-1.7,2.3-1.4C266.5,155.5,267.1,156.6,266.9,157.6z"/>
					<path id="XMLID_307_" class="st13" d="M267.2,162.3c0.1,0.9-0.6,1.7-1.5,1.8c-0.9,0.1-1.7-0.6-1.7-1.5
						c-0.1-0.9,0.6-1.7,1.5-1.8C266.4,160.7,267.1,161.4,267.2,162.3z"/>
				</g>
				<polygon class="st36" points="260.2,171.6 265.9,169.2 259.3,159.1 				"/>
				<g>
					<path id="XMLID_263_" class="st36" d="M255.1,173.2l5.3,1.6c-0.4,1.5-2,2.4-3.4,1.9C255.6,176.3,254.7,174.7,255.1,173.2z"/>
				</g>
				<path class="st32" d="M255,174c0,1.2,0.8,2.4,2,2.8c0.6,0.2,1.3,0.1,1.9-0.1C258.3,175.1,256.8,174.1,255,174z"/>
			</g>
			<g>
				<path class="st13" d="M258.7,189c4.3,5.6,10.8,21.2,12.3,33.1c0.5-5.1,1.1-18.2,0-21.5c-1.1-3.3-3.7-6.8-3.7-6.8
					s0.8-2.6,0.6-2.9c-1.2-1.5-9.4-5.1-9.4-5.1L258.7,189z"/>
				<path class="st13" d="M240.8,184.9l0.4,3.6c2.1,4.1,4.4,7.8,6.2,15.2c2.4,10.2,3.1,20.4,3.1,20.4s-8.4-14.1-10.3-17.8
					c-1.2-2.4-0.5-9.5-0.5-9.5s-4.4-1.2-5-1.8c-0.8-0.8,0.7-5.5,0.7-5.5L240.8,184.9z"/>
			</g>
			<g>
				<g>
					<g>
						<path class="st11" d="M227.4,192.4c-10.9,2.9-12.4,5.6-16.9,15c-2.3,4.8-8.1,16.1-9.8,19.9c-5.3,11.8-5.6,18.4-2.1,21.2
							c4,3.2,26.4-24.8,26.4-24.8S236.1,200.6,227.4,192.4z"/>
						<path class="st13" d="M206.2,243.4c0.9-1,2-2.1,3.1-3.4c5.5-6.6,15.6-16.4,15.6-16.4s1.3-2.7,2.7-6.6
							c-3.7,2-18.3,9.2-22.6,12.6c-4.6,3.7-5.1,6.9-6.4,10.7L206.2,243.4z"/>
					</g>
				</g>
				<g>
					<path class="st35" d="M224.3,220.9c4.4-2.3,6-2.9,9.2-6.1c3.3-3.3,6.1-4.9,8.4-6.4c2.3-1.6,3.8-4.3,5-5.4
						c0.9-0.8,2,0.6,1.6,2.7c-0.2,1.4-1.3,3.1-2.8,4.7c-1.5,1.6-0.7,1.4,1.2,1.2c1.9-0.3,8.4-0.3,10.3,0c1.9,0.3,3.7,1,3.4,2.2
						c0,0,3-0.3,3.2,1.3c0.2,1.6-2.1,2.7-2.1,2.7s0.1,1.3-2.2,2.1c-1.3,0.4-5.3,1-6.7,1.4c-1.6,0.4-3.4,1-3.4,1s5.3-0.2,7,0
						c1.9,0.3,1.7,1.6-0.6,2.5c-2.2,0.9-8.6,0.9-10.5,1.7c-1.9,0.8-3.6,1.1-7.3,1.5c-2.5,0.3-3.9,1.3-5.1,2.6
						c-2.2,2.3-12.2,10.5-14.7,13.2c-2.5,2.6-5.6,4.3-9.7,5.4c-4.9,1.3-9.1,0-10-0.9c-1-1-1.4-4,0.6-8.7c2.7-6.3,4.1-7.4,8.5-10.3
						C212.5,226.3,221.9,222.1,224.3,220.9z"/>
					<path class="st36" d="M245.7,210.4c-0.9,1-1,1.3-0.5,1.4l0,0c-0.7,0-2.2,0.3-2.3-0.3c-0.2-0.6,1.3-1.4,2.7-2.4
						c1.4-1,2.6-2.6,3-3.4C248.3,207.1,247.2,208.8,245.7,210.4z"/>
					<path class="st36" d="M260.6,213.7c-2.4-0.3-6.4-0.2-8.8-0.1c-1.2,0.1-2.4,0.3-3.6,0.5c-1.2,0.2-2.4,0.5-3.5,0.9
						c1.2,0,2.4-0.1,3.6-0.2c1.2-0.1,2.4-0.3,3.5-0.3c1.2-0.1,4-0.2,5.2-0.4C258.2,214,259.4,213.9,260.6,213.7z"/>
					<path class="st36" d="M261.6,217.8c0-0.2,0-0.3-0.1-0.5c-0.1-0.1-0.2-0.3-0.4-0.3c-0.3-0.2-0.6-0.2-1-0.3c-0.7-0.1-1.3-0.1-2,0
						c-1.3,0.1-4.3,0.2-5.6,0.4c-0.7,0.1-1.3,0.2-2,0.3c-0.7,0.1-1.3,0.3-1.9,0.5c-1.3,0.3-2.5,0.7-3.8,1.1c1.3-0.1,2.6-0.3,3.9-0.5
						c0.7-0.1,1.3-0.3,1.9-0.3c0.6-0.1,1.3-0.2,1.9-0.2c1.3-0.2,4.2-0.4,5.6-0.5c0.6-0.1,1.3-0.2,1.9-0.2
						C260.7,217.1,261.5,217.1,261.6,217.8z"/>
					<path class="st36" d="M245.4,222.6c0,0,2.1-0.5,3.4-0.8c1.2-0.3,5.2-0.7,5.2-0.7l0,0c-0.3,0.1-1.1,0.2-1.4,0.2
						c-1.6,0.4-3.4,1-3.4,1C248,222.3,245.4,222.6,245.4,222.6z"/>
				</g>
			</g>
		</g>
	</g>
</g>
<g id="Musical_Notes">
	<g id="Musical_Notes_3_">
		<g>
			<path id="Musical_note_12_" class="st3" d="M338.3,61.3L334.9,73c-0.3-0.2-0.6-0.4-1-0.5c-1.7-0.5-3.5,0.5-3.9,2.2
				c-0.5,1.7,0.5,3.5,2.2,3.9c1.7,0.5,3.5-0.5,3.9-2.2l3.1-10.5l11.3,0.3l0,0l0,0l-3,10.4c-0.3-0.2-0.6-0.4-1-0.5
				c-1.7-0.5-3.5,0.5-3.9,2.2c-0.5,1.7,0.5,3.5,2.2,3.9c1.7,0.5,3.5-0.5,3.9-2.2l0,0l5-17.3L338.3,61.3z"/>
			<path id="Musical_note_5_" class="st31" d="M338.3,61.3L334.9,73c-0.3-0.2-0.6-0.4-1-0.5c-1.7-0.5-3.5,0.5-3.9,2.2
				c-0.5,1.7,0.5,3.5,2.2,3.9c1.7,0.5,3.5-0.5,3.9-2.2l3.1-10.5l11.3,0.3l0,0l0,0l-3,10.4c-0.3-0.2-0.6-0.4-1-0.5
				c-1.7-0.5-3.5,0.5-3.9,2.2c-0.5,1.7,0.5,3.5,2.2,3.9c1.7,0.5,3.5-0.5,3.9-2.2l0,0l5-17.3L338.3,61.3z"/>
		</g>
		<path id="Musical_note_11_" class="st3" d="M337.2,103.8c0.5-0.2,1.1-0.3,1.7-0.3c0.8,0,1.6,0.2,2.3,0.4c1,0.3,2,0.6,3.1,0.7
			c1.1,0.1,2.2-0.1,3-0.9c-0.6,0-1.2-0.1-1.8-0.3c-1.4-0.6-2.4-2.1-3.6-3c-1.8-1.3-3.7-1.3-6-0.8c-0.1,1.9-0.2,3.9-0.4,5.8
			c-0.1,1.5-0.2,3-0.3,4.6c0,0.1-0.2,2.1-0.2,2.1c-0.5-0.3-1.3-0.5-1.7-0.5c-1.8-0.1-3.4,1.3-3.5,3.1c-0.1,1.8,1.3,3.4,3.1,3.5
			c1.8,0.1,3.4-1.3,3.5-3.1L337.2,103.8z"/>
		<path id="Musical_note_10_" class="st3" d="M297,69.1c0.3-0.5,0.7-0.9,1.2-1.3c0.7-0.5,1.4-0.8,2.1-1c1-0.4,2-0.7,2.9-1.2
			c0.9-0.6,1.7-1.4,1.9-2.4c-0.5,0.4-1.1,0.7-1.7,0.8c-1.5,0.3-3.2-0.3-4.7-0.3c-2.2,0-3.8,1.1-5.4,2.8c1.1,1.6,2.1,3.3,3.1,5
			c0.8,1.3,1.6,2.6,2.4,3.9c0.1,0.1,1.1,1.8,1.1,1.8c-0.6,0-1.3,0.4-1.7,0.6c-1.5,1-2,3-1.1,4.5c1,1.5,3,2,4.5,1.1
			c1.5-1,2-3,1.1-4.5L297,69.1z"/>
		<g>
			<path id="Musical_note_1_" class="st3" d="M379.3,105.7c0.3-0.4,0.8-0.7,1.3-1c0.6-0.3,1.3-0.5,2-0.6c0.9-0.2,1.9-0.3,2.8-0.7
				c0.9-0.4,1.7-1,2-1.9c-0.5,0.3-1,0.4-1.6,0.5c-1.3,0.1-2.8-0.7-4.1-0.9c-2-0.3-3.5,0.5-5.1,1.8c0.7,1.6,1.4,3.2,2.1,4.8
				c0.5,1.3,1.1,2.5,1.6,3.8c0.1,0.1,0.7,1.7,0.7,1.7c-0.6-0.1-1.2,0.1-1.6,0.3c-1.5,0.7-2.2,2.4-1.5,3.9c0.7,1.5,2.4,2.2,3.9,1.5
				c1.5-0.7,2.2-2.4,1.5-3.9L379.3,105.7z"/>
			<path id="Musical_note_6_" class="st4" d="M379.3,105.7c0.3-0.4,0.8-0.7,1.3-1c0.6-0.3,1.3-0.5,2-0.6c0.9-0.2,1.9-0.3,2.8-0.7
				c0.9-0.4,1.7-1,2-1.9c-0.5,0.3-1,0.4-1.6,0.5c-1.3,0.1-2.8-0.7-4.1-0.9c-2-0.3-3.5,0.5-5.1,1.8c0.7,1.6,1.4,3.2,2.1,4.8
				c0.5,1.3,1.1,2.5,1.6,3.8c0.1,0.1,0.7,1.7,0.7,1.7c-0.6-0.1-1.2,0.1-1.6,0.3c-1.5,0.7-2.2,2.4-1.5,3.9c0.7,1.5,2.4,2.2,3.9,1.5
				c1.5-0.7,2.2-2.4,1.5-3.9L379.3,105.7z"/>
		</g>
	</g>
</g>
</svg>
