<?xml version="1.0" encoding="utf-8"?>
<!-- Generator: Adobe Illustrator 19.0.0, SVG Export Plug-In . SVG Version: 6.00 Build 0)  -->
<svg version="1.1" xmlns="http://www.w3.org/2000/svg" xmlns:xlink="http://www.w3.org/1999/xlink" x="0px" y="0px"
	 viewBox="0 0 500 500" style="enable-background:new 0 0 500 500;" xml:space="preserve">
<style type="text/css">
	.st0{fill:#EEF7FF;}
	.st1{fill:#B9DDFF;}
	.st2{opacity:0.43;fill:url(#SVGID_1_);}
	.st3{opacity:0.5;fill:url(#SVGID_2_);}
	.st4{fill:#252969;}
	.st5{fill:#5597C9;}
	.st6{fill:#F7FAFF;}
	.st7{opacity:0.43;fill:url(#SVGID_3_);}
	.st8{opacity:0.5;fill:url(#SVGID_4_);}
	.st9{fill:#ED2C65;}
	.st10{fill:#F9C5C9;}
	.st11{fill:#3D5AA8;}
	.st12{fill:#6787C1;}
	.st13{fill:#231F20;}
	.st14{font-family:'Montserrat-Bold';}
	.st15{font-size:43.3872px;}
	.st16{letter-spacing:3;}
	.st17{fill:#007EE4;}
	.st18{font-family:'Nickainley-Normal';}
	.st19{fill:#FFFFFF;}
	.st20{fill:#1C1C1B;}
</style>
<g id="background">
</g>
<g id="objects">
	<g>
		<g>
			<g>
				<polygon class="st0" points="92.2,430.4 191.7,411.9 198.1,386.6 265.4,397.7 333.7,384.4 337.5,410.7 435,428.8 318.3,433.1 
					263,456.8 209.1,433.6 				"/>
			</g>
			<g>
				<polygon class="st1" points="113.5,429.1 199.4,412.8 202.7,390.3 265.1,400.2 328.5,388.5 329.4,411.7 413.5,427.6 
					311.2,431.5 262.9,452.5 216,431.9 				"/>
			</g>
			<g>
				<path class="st0" d="M247.9,408.4c20.4-1.9,42.5,0.8,50.6,6.2c8.9,5.4-2.3,11.3-26.2,13.2c-24.6,1.9-50-0.9-55.3-6.3
					C212.4,416.2,226.8,410.3,247.9,408.4z"/>
			</g>
			<g>
				<polygon class="st1" points="228,420.4 243.8,416.9 241.7,412.1 258.5,414.2 275.9,411.8 272.8,416.7 287.8,420 267.2,420.9 
					257.4,425.4 248.6,421 				"/>
			</g>
		</g>
	</g>
	<linearGradient id="SVGID_1_" gradientUnits="userSpaceOnUse" x1="173.2363" y1="125.263" x2="41.7361" y2="302.263">
		<stop  offset="0" style="stop-color:#FFFFFF"/>
		<stop  offset="1" style="stop-color:#FFFFFF;stop-opacity:0"/>
	</linearGradient>
	<polygon class="st2" points="163.7,44.5 0,177.7 0,380.6 117.7,380.8 182.3,53.7 	"/>
	<linearGradient id="SVGID_2_" gradientUnits="userSpaceOnUse" x1="81.2087" y1="80.7544" x2="140.709" y2="373.7544">
		<stop  offset="0" style="stop-color:#FFFFFF"/>
		<stop  offset="1" style="stop-color:#FFFFFF;stop-opacity:0"/>
	</linearGradient>
	<polygon class="st3" points="87.3,46.9 269.6,380.6 14.6,380.6 64.3,47.3 	"/>
	<g>
		<g>
			
				<ellipse transform="matrix(0.9994 3.540047e-002 -3.540047e-002 0.9994 1.2928 -3.0817)" class="st4" cx="87.7" cy="35" rx="0.4" ry="4.8"/>
			
				<ellipse transform="matrix(0.9994 3.540047e-002 -3.540047e-002 0.9994 1.2942 -3.1791)" class="st4" cx="90.4" cy="35" rx="0.4" ry="4.8"/>
			<polygon class="st4" points="87.8,30.2 90.6,30.2 90.3,39.7 87.5,39.7 			"/>
		</g>
		<path class="st4" d="M90.6,42l-33,5.1c-1-6.4-2-12.8-3.1-19.2c0.2-1.5,1.2-6.8,5.5-10.3c0.3-0.3,0.6-0.5,1-0.7
			c0.9-0.6,1.8-1.1,2.8-1.4c6.3-2.3,13.8,0.4,18.1,4.6c3.4,3.3,4.6,7.2,5.1,9.1C88.2,33.4,89.4,37.7,90.6,42z"/>
		<path class="st1" d="M68.5,30.8l-1.8,2.8l-2.6-0.8l-3.9-14.4c0.3-0.3,0.6-0.5,1-0.7c0.9-0.6,1.9-1.1,2.8-1.4L68.5,30.8z"/>
		<ellipse class="st4" cx="74.1" cy="44.8" rx="16.8" ry="15"/>
		<ellipse class="st5" cx="74.6" cy="46.5" rx="13.7" ry="12.9"/>
		<ellipse class="st4" cx="75" cy="48" rx="12.4" ry="10.8"/>
		<ellipse class="st6" cx="75.4" cy="49" rx="10.5" ry="9.4"/>
		<g>
			<g>
				<path class="st4" d="M89.9,32.6l-2,0l0.3-16.7c0-0.2,0.1-1.1-0.5-1.9c-0.5-0.6-1.1-0.8-1.4-0.9L57.4,7.2c0,0-1.1-0.2-1.8,0.6
					c-0.5,0.6-0.5,1.2-0.4,1.4l0,0.1l0,0.1l-0.6,22.4l-2-0.1l0.6-22.4c0-0.5,0-1.8,0.9-2.9c1.1-1.3,2.8-1.4,3.7-1.3l28.9,5.9
					c0.6,0.1,1.7,0.5,2.5,1.6c1,1.3,1,2.7,0.9,3.3L89.9,32.6z"/>
			</g>
		</g>
		<g>
			<polygon class="st4" points="52.3,24.8 55.1,24.8 54.8,34.3 52,34.3 			"/>
			
				<ellipse transform="matrix(0.9994 3.552032e-002 -3.552032e-002 0.9994 1.0826 -1.8345)" class="st5" cx="52.2" cy="29.6" rx="0.4" ry="4.8"/>
			
				<ellipse transform="matrix(0.9994 3.552032e-002 -3.552032e-002 0.9994 1.084 -1.9322)" class="st4" cx="54.9" cy="29.5" rx="0.4" ry="4.8"/>
		</g>
		<rect x="71.8" class="st4" width="1.9" height="9.4"/>
	</g>
	<g>
		
			<ellipse transform="matrix(0.6867 -0.7269 0.7269 0.6867 22.1208 141.9161)" class="st4" cx="175.7" cy="45.3" rx="12.7" ry="16.3"/>
		
			<ellipse transform="matrix(0.6867 -0.7269 0.7269 0.6867 37.6818 145.8454)" class="st4" cx="188" cy="29.2" rx="12.5" ry="16.1"/>
		<polygon class="st4" points="163.5,34.5 176,18.5 201,38.7 188,56 		"/>
		
			<ellipse transform="matrix(0.6867 -0.7269 0.7269 0.6867 20.606 141.2762)" class="st5" cx="174.2" cy="46.7" rx="9.8" ry="12.7"/>
		
			<ellipse transform="matrix(0.6867 -0.7269 0.7269 0.6867 19.7095 141.1258)" class="st4" cx="173.6" cy="47.7" rx="8.2" ry="11.4"/>
		
			<ellipse transform="matrix(0.6867 -0.7269 0.7269 0.6867 19.0177 140.8739)" class="st6" cx="172.9" cy="48.4" rx="6.7" ry="10.6"/>
		<g>
			<g>
				<path class="st4" d="M203.2,28l-2-0.1c0,0,0.4-12.1,0.6-16c0-0.9-0.2-1.5-0.6-1.9c-0.7-0.6-1.9-0.5-1.9-0.5
					c-0.2,0-20.3,1.3-23.5,1.6c-2.4,0.2-2.6,2.1-2.6,2.2l-0.6,14.1l-2-0.1l0.6-14.1c0.1-1.3,1.2-3.8,4.4-4
					c3.2-0.2,23.3-1.6,23.5-1.6c0.2,0,2-0.2,3.4,1c0.9,0.8,1.3,1.9,1.2,3.4C203.6,15.8,203.2,28,203.2,28z"/>
			</g>
		</g>
		<ellipse class="st4" cx="200.2" cy="31.5" rx="1.9" ry="5.1"/>
		<rect x="200.2" y="26.4" class="st4" width="2.7" height="10.2"/>
		<path class="st1" d="M182.3,39l14.2-18c0.5,0.5,1,1.1,1.6,1.8c0.5,0.7,1,1.3,1.3,1.9c-4.5,6.5-9,13-13.4,19.5
			c-0.4-0.8-0.9-1.8-1.6-2.8C183.7,40.5,183,39.7,182.3,39z"/>
		<ellipse class="st5" cx="202.9" cy="31.5" rx="1.9" ry="5.1"/>
		<rect x="184.8" class="st4" width="1.8" height="9.4"/>
	</g>
	
		<linearGradient id="SVGID_3_" gradientUnits="userSpaceOnUse" x1="445.2872" y1="125.263" x2="313.787" y2="302.263" gradientTransform="matrix(-1 0 0 1 772.0509 0)">
		<stop  offset="0" style="stop-color:#FFFFFF"/>
		<stop  offset="1" style="stop-color:#FFFFFF;stop-opacity:0"/>
	</linearGradient>
	<polygon class="st7" points="336.3,44.5 500,177.7 500,380.6 382.3,380.8 317.7,53.7 	"/>
	
		<linearGradient id="SVGID_4_" gradientUnits="userSpaceOnUse" x1="353.2596" y1="80.7544" x2="412.7599" y2="373.7544" gradientTransform="matrix(-1 0 0 1 772.0509 0)">
		<stop  offset="0" style="stop-color:#FFFFFF"/>
		<stop  offset="1" style="stop-color:#FFFFFF;stop-opacity:0"/>
	</linearGradient>
	<polygon class="st8" points="412.8,46.9 230.4,380.6 485.4,380.6 435.7,47.3 	"/>
	<g>
		<g>
			
				<ellipse transform="matrix(-0.9994 3.540047e-002 -3.540047e-002 -0.9994 825.6356 55.3176)" class="st4" cx="412.3" cy="35" rx="0.4" ry="4.8"/>
			
				<ellipse transform="matrix(-0.9994 3.540047e-002 -3.540047e-002 -0.9994 820.137 55.3969)" class="st4" cx="409.6" cy="35" rx="0.4" ry="4.8"/>
			<polygon class="st4" points="412.2,30.2 409.4,30.2 409.7,39.7 412.5,39.7 			"/>
		</g>
		<path class="st4" d="M409.4,42l33,5.1c1-6.4,2-12.8,3.1-19.2c-0.2-1.5-1.2-6.8-5.5-10.3c-0.3-0.3-0.6-0.5-1-0.7
			c-0.9-0.6-1.9-1.1-2.8-1.4c-6.3-2.3-13.8,0.4-18.1,4.6c-3.4,3.3-4.6,7.2-5.1,9.1C411.8,33.4,410.6,37.7,409.4,42z"/>
		<path class="st1" d="M431.5,30.8l1.8,2.8l2.6-0.8l3.9-14.4c-0.3-0.3-0.6-0.5-1-0.7c-0.9-0.6-1.9-1.1-2.8-1.4L431.5,30.8z"/>
		<ellipse class="st4" cx="425.9" cy="44.8" rx="16.8" ry="15"/>
		<ellipse class="st5" cx="425.4" cy="46.5" rx="13.7" ry="12.9"/>
		<ellipse class="st4" cx="425" cy="48" rx="12.4" ry="10.8"/>
		<ellipse class="st6" cx="424.6" cy="49" rx="10.5" ry="9.4"/>
		<g>
			<g>
				<path class="st4" d="M410.1,32.6l2,0l-0.3-16.7c0-0.2-0.1-1.1,0.5-1.9c0.5-0.6,1.1-0.8,1.4-0.9l28.8-5.9c0,0,1.1-0.2,1.8,0.6
					c0.5,0.6,0.5,1.2,0.4,1.4l0,0.1l0,0.1l0.6,22.4l2-0.1l-0.6-22.4c0-0.5,0-1.8-0.9-2.9c-1.1-1.3-2.8-1.4-3.7-1.3l-28.9,5.9
					c-0.6,0.1-1.7,0.5-2.5,1.6c-1,1.3-1,2.7-0.9,3.3L410.1,32.6z"/>
			</g>
		</g>
		<g>
			<polygon class="st4" points="447.7,24.8 444.9,24.8 445.2,34.3 448,34.3 			"/>
			
				<ellipse transform="matrix(-0.9994 3.552032e-002 -3.552032e-002 -0.9994 896.4233 43.1772)" class="st5" cx="447.8" cy="29.6" rx="0.4" ry="4.8"/>
			
				<ellipse transform="matrix(-0.9994 3.552032e-002 -3.552032e-002 -0.9994 890.9247 43.2568)" class="st4" cx="445.1" cy="29.5" rx="0.4" ry="4.8"/>
		</g>
		<rect x="425.4" class="st4" width="2" height="9.6"/>
	</g>
	<g>
		
			<ellipse transform="matrix(-0.6867 -0.7269 0.7269 -0.6867 514.0651 312.1391)" class="st4" cx="324.3" cy="45.3" rx="12.7" ry="16.3"/>
		
			<ellipse transform="matrix(-0.6867 -0.7269 0.7269 -0.6867 504.9474 276.0311)" class="st4" cx="312" cy="29.2" rx="12.5" ry="16.1"/>
		<polygon class="st4" points="336.5,34.5 324,18.5 299,38.7 312,56 		"/>
		
			<ellipse transform="matrix(-0.6867 -0.7269 0.7269 -0.6867 515.55 315.6542)" class="st5" cx="325.8" cy="46.7" rx="9.8" ry="12.7"/>
		
			<ellipse transform="matrix(-0.6867 -0.7269 0.7269 -0.6867 515.8988 317.7342)" class="st4" cx="326.4" cy="47.7" rx="8.2" ry="11.4"/>
		
			<ellipse transform="matrix(-0.6867 -0.7269 0.7269 -0.6867 516.4839 319.3413)" class="st6" cx="327.1" cy="48.4" rx="6.7" ry="10.6"/>
		<g>
			<g>
				<path class="st4" d="M296.8,28l2-0.1c0,0-0.4-12.1-0.6-16c0-0.9,0.2-1.5,0.6-1.9c0.7-0.6,1.9-0.5,1.9-0.5
					c0.2,0,20.3,1.3,23.5,1.6c2.4,0.2,2.6,2.1,2.6,2.2l0.6,14.1l2-0.1l-0.6-14.1c-0.1-1.3-1.2-3.8-4.4-4c-3.2-0.2-23.3-1.6-23.5-1.6
					c-0.2,0-2-0.2-3.4,1c-0.9,0.8-1.3,1.9-1.2,3.4C296.4,15.8,296.8,28,296.8,28z"/>
			</g>
		</g>
		<ellipse class="st4" cx="299.8" cy="31.5" rx="1.9" ry="5.1"/>
		<rect x="297.1" y="26.4" class="st4" width="2.7" height="10.2"/>
		<path class="st1" d="M317.7,39l-14.2-18c-0.5,0.5-1,1.1-1.6,1.8c-0.5,0.7-1,1.3-1.3,1.9c4.5,6.5,9,13,13.4,19.5
			c0.4-0.8,0.9-1.8,1.6-2.8C316.3,40.5,317,39.7,317.7,39z"/>
		<ellipse class="st5" cx="297.1" cy="31.5" rx="1.9" ry="5.1"/>
		<rect x="312" class="st4" width="2.1" height="9.4"/>
	</g>
	<g>
		<polygon class="st5" points="181.8,389.3 194,428.5 192,429.3 179.4,389.1 		"/>
		<polygon class="st5" points="184.1,388.7 193.6,428.5 195.8,428.1 185.6,387.6 		"/>
		<polygon class="st5" points="150.6,377.2 153.7,409.9 152.6,409.9 148.9,376.9 		"/>
		<polygon class="st5" points="155,377.2 155.8,410 156.8,409.9 156.5,376.9 		"/>
		<polygon class="st5" points="100.1,386.5 86.3,424.9 88.3,425.5 102.3,387.2 		"/>
		<polygon class="st5" points="97.9,385.9 85.8,424.6 88.1,425.8 100.6,386.6 		"/>
		<path class="st4" d="M163.9,268l9.6,2.3c0.4,0.2,0.6,0.6,0.6,1.1c-0.1,0.4-0.4,0.8-0.9,0.9c-3.2-0.8-6.5-1.6-9.7-2.4
			c0,0-0.5-0.3-0.6-0.9C162.9,268.6,163.3,268.2,163.9,268z"/>
		<rect x="140.8" y="269" class="st1" width="9.8" height="8.9"/>
		<polygon class="st1" points="148.3,252.7 145,252.7 145,271.8 148.5,271.8 		"/>
		<ellipse class="st1" cx="145" cy="262.3" rx="6.1" ry="9.6"/>
		<ellipse class="st4" cx="177.9" cy="245.4" rx="3.3" ry="4.2"/>
		<ellipse class="st1" cx="155.1" cy="216.3" rx="9.7" ry="15.1"/>
		<ellipse class="st1" cx="134.7" cy="215.3" rx="9.7" ry="15.1"/>
		<polygon class="st1" points="140,200.2 134.7,200.2 134.7,230.4 140.3,230.4 		"/>
		<polygon class="st1" points="160.3,201.2 155.1,201.2 155.1,231.4 160.7,231.4 		"/>
		<polygon class="st1" points="136,234.6 136,213.8 155.2,213.8 155.2,234.4 		"/>
		<ellipse class="st6" cx="140" cy="215.3" rx="9.7" ry="15.1"/>
		<ellipse class="st1" cx="140.6" cy="215.5" rx="5.4" ry="8.4"/>
		<ellipse class="st4" cx="141" cy="215.5" rx="1.9" ry="3"/>
		<ellipse class="st6" cx="160.3" cy="216.3" rx="9.7" ry="15.1"/>
		<ellipse class="st1" cx="160.9" cy="216.5" rx="5.4" ry="8.4"/>
		<ellipse class="st4" cx="161.3" cy="216.5" rx="1.9" ry="3"/>
		<ellipse class="st6" cx="148.3" cy="262.3" rx="6.1" ry="9.6"/>
		<ellipse class="st1" cx="148.7" cy="262.4" rx="3.4" ry="5.3"/>
		<rect x="140" y="277.9" class="st6" width="11.3" height="2.6"/>
		<rect x="139.3" y="280.5" class="st1" width="12.9" height="0.8"/>
		<polygon class="st4" points="132.2,281.4 132.2,284 136.8,285 147.7,285.1 159.4,284.3 159.4,282.4 155.6,281.2 		"/>
		<polygon class="st4" points="136.3,284.1 99.4,386.9 102.7,387.9 139.5,285.1 		"/>
		<polygon class="st4" points="129.8,285 97.1,386.1 101.1,387.4 132.6,285.6 		"/>
		<polygon class="st4" points="140,284.5 150.9,377.7 147.6,377.7 136.8,285 		"/>
		<polygon class="st4" points="155.5,283.8 155,377.6 157.7,377.6 158,283.8 		"/>
		<polygon class="st4" points="149.8,285.8 146.4,286.5 178.7,390.1 181.8,389.3 		"/>
		<polygon class="st4" points="158.7,285.8 184.1,388.7 186.9,388.2 161.4,285.1 		"/>
		<path class="st5" d="M152.7,266l11.5,2.6c0.3,0.1,0.4,0.4,0.4,0.7c0,0.3-0.3,0.5-0.6,0.5c-3.9-0.9-7.8-1.9-11.7-2.8
			c-0.2-0.1-0.3-0.4-0.3-0.6C152.1,266.1,152.4,265.9,152.7,266z"/>
		<polygon class="st6" points="129.8,285.4 131.1,281.8 133.6,281.9 133.6,283.9 132.9,284.1 132.1,286.1 		"/>
		<polygon class="st6" points="147.6,288.3 146.1,283.3 148.6,283.1 150,287.7 		"/>
		<polygon class="st6" points="161,285.4 160.1,282.4 157.5,282.5 157.8,284.2 158.6,284.1 159.3,286.2 		"/>
		<ellipse class="st5" cx="150.7" cy="269.9" rx="2.2" ry="2.6"/>
		<ellipse class="st1" cx="151.2" cy="269.9" rx="1.8" ry="2.6"/>
		<path class="st5" d="M172.4,244.2l3.5-0.1c0.6,0.3,1,0.8,1,1.5c0,0.7-0.4,1.3-1,1.6c-1.2,0-2.3,0-3.5,0.1L172.4,244.2z"/>
		<path class="st1" d="M128.7,235.7v27c0,0-0.2,2.1,1,2.3c1.2,0.2,12.6,0.5,12.6,0.5l0.7-31.3l-12.7,0.2
			C130.2,234.4,128.7,234.5,128.7,235.7z"/>
		<path class="st5" d="M141.1,235.5v28.4c0,0-0.2,1.4,1.7,1.4c1.9,0,21.3-1,21.3-1s2,0,2-1.5c0-1.5,0-27.2,0-27.2s0.3-1.4-1.5-1.4
			c-1.8,0-21.8,0-21.8,0S141.1,234.4,141.1,235.5z"/>
		<polygon class="st4" points="148.5,243 148.4,251.1 164.2,250.2 167.1,247.9 167.1,242.4 		"/>
		<polygon class="st4" points="166.8,243.2 173.3,243.1 173.5,248.5 165.4,248.9 		"/>
		<ellipse class="st5" cx="132" cy="245.3" rx="7" ry="7.8"/>
		<ellipse class="st1" cx="131.1" cy="245.1" rx="5.5" ry="7.3"/>
		<polygon class="st5" points="127.5,234.8 133.4,240.1 133.4,250.1 127.2,255.9 		"/>
		<path class="st4" d="M110,235.1l-0.1,19.1c0,0,0,2.7,1.9,2.8c1.9,0.1,13.4,0.3,13.4,0.3s2.2,0.3,2.4-2.3
			c0.2-2.6,0.1-19.4,0.1-19.4s0.3-2.7-2.7-2.7c-3,0-13.2,0-13.2,0S110.2,232.9,110,235.1z"/>
		<path class="st1" d="M116.5,239.9l0,10.9c0,0,0,1.5,1.1,1.6c1.1,0,7.7,0.2,7.7,0.2s1.3,0.2,1.4-1.3c0.1-1.5,0-11.1,0-11.1
			s0.2-1.5-1.6-1.5s-7.6,0-7.6,0S116.6,238.7,116.5,239.9z"/>
	</g>
	<g>
		<polygon class="st5" points="346.3,330.9 371.5,329.3 371.2,332.3 346.8,334.1 		"/>
		<path class="st5" d="M378.7,389.2l23.5,19.6c0.5-0.3,0.7-0.7,0.8-0.9c0.4-0.9,0-2.1-1-2.9c-7-5.8-14-11.5-21-17.3L378.7,389.2z"/>
		<polygon class="st5" points="409.7,312.9 413.5,314.8 409.7,320.7 384,307.7 385.1,303.1 		"/>
		<path class="st4" d="M317,405.2l69-90.7l-6.2-0.3l-66.1,88.7c-0.7,0.9-0.5,2.1,0.3,2.8C314.9,406.4,316.3,406.2,317,405.2z"/>
		<path class="st4" d="M386.4,403.8L332.3,313l7.5,3.2l50.5,86.2c0.4,1.1,0.1,2.3-0.6,2.8C388.8,405.8,387.1,405.4,386.4,403.8z"/>
		<path class="st4" d="M326.4,252.9l2.3,49.4l3.2,0l-1.8-49.5c-0.3-0.2-1.1-0.6-2.3-0.4C327.1,252.4,326.6,252.7,326.4,252.9z"/>
		<path class="st4" d="M389.8,254.5l2.1,46.3c0,0-3.4,0.1-3.4-0.5c0.1-0.6-2.6-45.8-2.6-45.8L389.8,254.5z"/>
		<polygon class="st4" points="388.7,283.3 388.9,286.1 409.9,288.6 414.7,288.9 414.9,285.5 391,283.3 		"/>
		<polygon class="st5" points="410.8,288.1 409.8,308.7 407.2,308.4 408.1,287.7 		"/>
		<polygon class="st5" points="385,299.4 385.1,303.1 408.4,314 413.6,313.9 413.9,310 389.4,299.4 		"/>
		<polygon class="st9" points="335.4,305 386.3,303.7 408.4,314 347.7,316.1 		"/>
		<path class="st4" d="M341.3,317.6l64.5,99.3c0.7,1.3,2.3,1.7,3.4,1c1-0.7,1.4-2.1,0.7-3.3c-20.8-32.2-41.5-64.3-62.3-96.5
			L341.3,317.6z"/>
		<path class="st4" d="M334.1,426.6l69-108.7c0.9-1.3,2.7-1.6,3.8-0.7c1.1,0.9,1.2,2.8,0.1,3.9c-22.9,36.3-45.8,72.6-68.6,108.9
			c-1.2,1.3-3.1,1.3-4.1,0.2C333.3,429.3,333.2,427.8,334.1,426.6z"/>
		<polygon class="st5" points="362.9,383.5 400.3,381 400.8,377.7 395.9,375.6 359.9,378 359.6,380.7 		"/>
		<path class="st5" d="M359.7,341.5c-0.8,0.2-1.5,0.9-1.5,1.7c0,0.8,0.5,1.5,1.2,1.7c10.4-0.3,20.7-0.7,31.1-1
			c0.9-0.3,1.5-1.1,1.5-1.9c0-0.7-0.4-1.4-1.1-1.8C380.5,340.7,370.1,341.1,359.7,341.5z"/>
		<path class="st5" d="M321.4,392.9l21,24.4c0.6,0.4,1.5,0.3,2-0.2c0.6-0.5,0.7-1.5,0.2-2.2c-7.3-8.1-14.3-15.9-21.6-24
			c-0.1,0-0.7-0.4-1.2-0.1C321.2,391.2,320.9,392.1,321.4,392.9z"/>
		<polygon class="st5" points="326.6,306.1 330,311.8 347.2,323.1 351.5,320.8 348,316.2 		"/>
		<polygon class="st5" points="326.1,301.1 326.1,305.6 343.9,316.4 349.8,316.2 349.6,311.8 330.9,300.8 		"/>
		<polygon class="st5" points="341.5,289.2 343,310.4 345.8,310.6 345.1,289.5 		"/>
		<path class="st9" d="M326.5,255.2l0.9,21.9c0,0,1.6-0.6,4.9-0.3c3.3,0.3,58.5-0.1,58.5-0.1l-1-20.6l-60.5-1.5
			C329.4,254.6,326.6,254.5,326.5,255.2z"/>
		<polygon class="st4" points="331,283.4 348.6,287 348.4,290.2 342,290.3 329.2,287.1 328.7,283.3 		"/>
		<polygon class="st1" points="361.2,259.7 362.6,264.1 367.2,264.1 363.5,266.8 364.9,271.2 361.2,268.4 357.5,271.2 358.9,266.8 
			355.1,264.1 359.8,264.1 		"/>
	</g>
	<g>
		<path class="st10" d="M239,389.5c0,0,1.1,9.8,1.8,11.9c0.7,2.1,1.3,1.3,1.7,5.1c0.3,3.7,2.1,5,1.8,6.9c-0.2,1.9-0.2,6.4-0.2,10.1
			s-0.3,7.3-5.6,6.4c0,0-3.1,0.8-5.2-0.5c0,0-1.5,0.4-1.2-1.3c0.3-1.7,2.8-10.9,2.9-14.6c0.2-3.6-1.5-10.3-2.9-18.6L239,389.5z"/>
		<path class="st10" d="M286.2,392.6c0,0,3.7,10.5,5,15c1.3,4.5,2.2,7.1,2.9,9.2c0.6,2.1,3.3,5.6,4.1,6.4c0.9,0.9,2.2,0.9,2.4,1.6
			c0.2,0.7-0.4,1.7-1.7,1.4c0,0-3.4,2.9-7,0.8c-2.3-0.4-4.4-4.8-4.8-6.4c-0.4-1.7-4.4-3.4-5.9-6c-1.5-2.5,1.2-5.9,0.3-8.7
			c-0.9-2.9-4.3-15.4-4.3-15.4L286.2,392.6z"/>
		<path class="st4" d="M216.7,282.9c0,0-3.8,8.7-2.2,20.5c1.6,11.7,5.2,23.2,7.3,43.2c2.1,20,3.6,29.9,4.9,37.1
			c1.3,7.3,1.2,12.6,1.2,12.6c0.9,0.6,3.2,2,6.4,2c3.6,0,6.1-1.6,6.9-2.1c0,0-0.7-36.2-1.1-42.7c-0.4-6.5-1-26.7-1.1-30.8
			c-0.1-4.2,0.2-17.4,2-17.4c1.8,0,8,15.4,10,20.9c2,5.6,2.4,8.2,7.1,21.7c4.8,13.4,17,47.7,17,47.7s7.4,1.5,12.3-2.3
			c0,0-5.5-26.8-8.6-36.5c-3.1-9.8-4.5-29.8-5.1-33.7c-3.5-20.6-10.2-40.5-10.2-40.5L216.7,282.9z"/>
		<path class="st4" d="M233,179.8c-0.3,5.2-0.7,10.4-1.2,15.7c-0.4,4.6-0.8,9.1-1.3,13.5l37.3,1.2c-1.2-2.2-2.9-5.8-4.3-10.4
			c-4.8-15.9,0-25.4-6.8-32c-3.8-3.7-8.7-4.1-9.2-4.1c-0.9-0.1-5.6-0.3-9.7,3.1C232.2,171.6,232.9,179.2,233,179.8z"/>
		<path class="st10" d="M255.6,181.8c0,0,0.7-0.9,1.6-0.8c0.9,0.1,3.7,4.1-1.9,9.3L255.6,181.8z"/>
		<path class="st10" d="M235.6,181.8c0,0-0.7-0.9-1.6-0.8c-0.9,0.1-3.7,4.1,1.9,9.3L235.6,181.8z"/>
		<path class="st10" d="M238.6,194.4l-0.4,22.5c0.5,0.7,1.7,2.3,4,3.1c3.5,1.3,6.6-0.4,7.1-0.6l3.3-16.7l-0.3-8.2H238.6z"/>
		<path class="st9" d="M237.1,215.2c1.5,3,4.3,4.9,7.4,5.1c3,0.1,5.2-1.5,5.8-2l6.5,71.2c-4.6,1-11.8,1.8-20.2,0.2
			c-4.5-0.8-8.3-2.2-11.3-3.5L237.1,215.2z"/>
		<path class="st11" d="M270.5,210.8c0,0,2.7,0.9,3.2,4.3c0.4,3.4,0.1,9.5,0.3,14.8c0,0,0.5,13.8-0.7,18c-1.2,4.2-2.3,8.7-9.6,14.6
			l-11.1-13.3c0,0,9.3-3.5,11.1-5.8c1.8-2.3,1.8-19.7,1.8-19.7L270.5,210.8z"/>
		<path class="st11" d="M225.9,208.2c1.5-0.1,3.8-0.5,6.3-1.7c3.1-1.4,5.1-3.3,6.3-4.5c-0.3,16.9-0.7,33.8-1,50.7l-0.2,5.3
			c0,0-3.5,5.5-6.2,12.4c-2.7,6.9-4.8,14.2-5.5,15.8c-0.6,1.6-2.8,7.5-7.2,9c0,0-2.3,1-6.7-1.3c0,0,2.9-20.7,5.6-28.5
			c2.7-7.8,4.5-12.2,4.5-12.2L225.9,208.2z"/>
		<path class="st12" d="M238.4,201.5c0,0-5.7,4.8-9.9,10.2c0,0,0.1,13,1.2,18.4c1.1,5.5,7.7,22.5,7.7,22.5L238.4,201.5z"/>
		<path class="st11" d="M256.3,206.6c0,0,5.1,2,8.6,2.8c3.6,0.8,5.6,1.5,5.6,1.5l-2.8,46.6c0,0-0.5,6,0.6,12.1
			c1.1,6.1,6.7,24.2,6.7,24.2s-5.4,6.2-13.1,3.2c-7.7-3-14.8-39.5-14.8-39.5l-0.6-4.4L256.3,206.6z"/>
		<path class="st12" d="M252.5,202.6c0,0-2.7,12.8-4.5,23.2c-1.8,10.5-1.5,28.5-1.5,28.5s6.7-20.6,9-25.9c2.4-5.2,6.2-11,5.7-18.3
			c-1.3-0.9-2.6-1.9-4-3C255.4,205.6,253.8,204.1,252.5,202.6z"/>
		<path class="st10" d="M261.9,260.3l-31.9-4.5c0,0-4.1,1.4-5.3-1.7c-0.3-0.6-0.4-1.7-0.6-3l5.2-4.4c0.1,0.8,0.2,1.3,0.2,1.3
			l23.7,2.1L261.9,260.3z"/>
		<path class="st10" d="M231.2,243.8l25,0.3c0,0,3.7-4.6,5-6.6c1.2-2.1,2.4-4.3,2.4-4.3s0.4-0.8,1.3-1.2c0.9-0.4,3.2-1.5,3.2-1.5
			s1.6-0.2,2.3-0.2c0,0,0.5,0.9-0.5,1.4c-1,0.5-2.7,1-2.7,1l-1.1,0.8l4.2,0.1l2.9,1.9l1.1,1.8c0,0-0.1,0.7-1.2,0.3
			c-1-0.4-2.2-1.9-2.2-1.9l-3-0.2l3.2,1.8l2.4,2.7c0,0,0.5,1.9,0,2c-0.4,0.1-1.3-0.1-1.7-1.4c-1-1.2-2.9-2.3-2.9-2.3l2.7,3.3
			l-0.2,2.2c0,0-1.3,0-1.4-1.3c-0.1-1.3-0.7-2-0.7-2s-1.5-1-2.9-0.2l-3.8,5.7c0,0-0.7,3.5-6.5,3.1c0,0-5.8,1.8-9.2,2.6
			c-3.4,0.8-22.1,2.7-22.1,2.7L231.2,243.8z"/>
		<path class="st11" d="M232.8,243.2l-7.8,11.9c0,0-6.6,0.8-8.9-3.7c-2.3-4.5-1.8-12.9-1.1-18.6c0.6-5.7,0.4-8.6,1-15.4
			c0.6-7.5,4.2-8.3,9.9-9.1l-0.1,2.9l-0.8,17.6l-0.2,5.7l0,0.4l-0.1,2.1v0.2c0,0.4-0.1,1.3-0.1,2.6l0,0.8h0
			c-0.1,2.7-0.1,6.4,0.1,9.2l5.2-4.4c-0.1-0.8-0.2-1.8-0.4-3C231.4,242.8,232.8,243.2,232.8,243.2z"/>
		<path class="st4" d="M238.2,197.1c0,0,2.9,5.1,7.4,5c4.4-0.1,7.3-3.9,7.3-3.9v-4.5l-14.9-0.3L238.2,197.1z"/>
		<path class="st10" d="M236.6,170.5c0,0-1.6,2.3-1.7,8.3c-0.1,6,0.9,13.8,2.2,15.7c1.3,1.9,4.3,6.8,8.2,6.6c4-0.2,7.5-3.2,9-6.8
			c1.5-3.6,2.3-16.1,1.6-20.4c-0.8-4.3-5.9-8-11.2-8C239.4,166,236.6,170.5,236.6,170.5z"/>
		<path class="st4" d="M243.6,168c-0.6,1.9-1.7,4.3-3.4,6.9c-1.9,2.8-3.9,4.8-5.4,6.1c-0.4-1-1.5-4.3-0.2-8c2-5.9,8.3-7.6,8.8-7.7
			L243.6,168z"/>
		<path class="st4" d="M243.6,168c0.5,1.3,1.1,2.7,2.2,4.1c4.3,5.5,11.3,6.1,13,6.3c-0.1-1.2-0.4-5.4-3.7-8.8
			c-4.6-4.9-11.1-4.3-11.8-4.2L243.6,168z"/>
		<g>
			<g>
				<path class="st4" d="M244.1,181c-0.1,0-0.2,0.1-0.5,0.1c-0.2,0-0.4-0.2-0.4-0.2c-0.3-0.2-0.8-0.3-1.3-0.5
					c-0.3-0.1-0.7-0.2-1.4-0.2c-0.8-0.1-2-0.2-3.5,0c-1,0.2-2.3,0.5-2.3,0.5l-0.1,1.2c0,0,0.6,0.2,0.7,0.6c0.1,0.4,0.5,2.4,1,3.2
					c0.5,0.8,1.4,1.9,3,2.1c1.9,0.2,3-0.7,3.8-1.6c0.9-1.1,1.2-3.3,1.2-3.3s-0.3-0.3-0.1-0.7c0.2-0.4,1-0.4,1-0.4l0.4-0.9L244.1,181
					z M242,186.8c-1.1,0.7-2.6,0.7-3.7,0.1c-1.4-0.8-1.9-2.3-1.8-3.4c0-0.3,0.1-1.2,0.7-1.9c0.4-0.5,0.9-0.7,1.2-0.9
					c0.7-0.3,2.5-0.3,3.6,0.1c1.1,0.5,1.7,1.3,1.7,2.7C243.6,184.3,243.4,185.9,242,186.8z"/>
				<path class="st4" d="M245.7,181l-0.4,0.9c0,0,1.2,0,1.4,0.4c0.1,0.3-0.1,0.7-0.1,0.7s0.2,2.2,1.1,3.3c0.8,1,1.9,1.9,3.8,1.7
					c1.6-0.1,2.6-1.2,3.1-2c0.5-0.8,1-2.8,1.1-3.1c0.1-0.4,0.8-0.6,0.8-0.6l0-1.2c0,0-1.2-0.4-2.2-0.6c-1.5-0.3-2.7-0.2-3.5-0.2
					c-0.7,0-1.1,0.1-1.4,0.2c-0.6,0.1-1,0.3-1.4,0.5c0,0-0.2,0.2-0.4,0.2c-0.2,0-0.4-0.1-0.5-0.1L245.7,181z M247.4,183.5
					c0.1-1.3,0.7-2.2,1.8-2.6c1.1-0.4,2.9-0.4,3.6,0c0.4,0.2,0.8,0.4,1.2,0.9c0.6,0.8,0.6,1.6,0.6,2c0,1.1-0.5,2.6-1.9,3.4
					c-1.2,0.6-2.6,0.5-3.7-0.2C247.5,186,247.3,184.4,247.4,183.5z"/>
			</g>
		</g>
		<path class="st10" d="M224.7,237c0-0.1,0-0.2,0-0.2l0,0l-2.4-2.3c0,0-0.9-0.7-0.1-1.6l2.6,1.8l0.5,0.4l-0.5-0.7l-2.4-3.4
			c0,0-0.9-1.3,0.2-1.8l1,0.9l-0.4-1.6c0,0-0.5-1,0.7-1.3l1.1,1.6l2.8,3.8c0,0,1,0.5,0.9,1.9c0,0.8,0.4,4.6,0.8,7.8
			c-1.5-0.5-3.4-1.1-5-1.7c0-0.3,0-0.6,0-0.8C224.6,238.4,224.6,237.4,224.7,237z"/>
		<path class="st13" d="M280.7,412.5l1.1,9.6l0.8,0.4l0.4-5.8c0,0,3.3,2.6,3.6,3.6s1.8,6.1,5.7,7.2c3.9,1.1,8.7-0.7,8.7-0.7
			s0.6-1.6-0.3-2.4S298,423,298,423s-3.5,1.1-6.3-0.4s-10.2-13.7-10.2-13.7S280.5,410.8,280.7,412.5z"/>
		<path class="st13" d="M233,424.5c0,0,0.3,2.9,3.6,2.9s5.6-2.5,6.1-4.4s0.9-9.1,0.9-9.1s0.3-2.3-0.2-3.7c0,0,0.9,0.9,1.1,3.1
			c0,1.3-0.3,9.6-0.4,11.1c-0.1,1.5-0.5,8-7.5,8.4c-5.3-1-4.4-4.7-4.4-4.7S232.5,425.6,233,424.5z"/>
	</g>
	<g>
		<text transform="matrix(1 0 0 1 179.9883 150.6738)" class="st9 st14 st15 st16">HUNT</text>
	</g>
	<g>
		<text transform="matrix(1 0 0 1 180.9863 114.4951)" class="st17 st18 st15">TALENT</text>
	</g>
	<path class="st19" d="M145.3,75.7c0,4-1.4,5.4-5.4,5.4c4,0,5.4,1.4,5.4,5.4c0-4,1.4-5.4,5.4-5.4C146.7,81.1,145.3,79.7,145.3,75.7z
		"/>
	<path class="st19" d="M119.5,141.5c0,4-1.4,5.4-5.4,5.4c4,0,5.4,1.4,5.4,5.4c0-4,1.4-5.4,5.4-5.4
		C120.9,146.9,119.5,145.4,119.5,141.5z"/>
	<path class="st19" d="M57.4,257.1c0,4-1.4,5.4-5.4,5.4c4,0,5.4,1.4,5.4,5.4c0-4,1.4-5.4,5.4-5.4C58.8,262.5,57.4,261.1,57.4,257.1z
		"/>
	<path class="st19" d="M446.5,248.1c0,4-1.4,5.4-5.4,5.4c4,0,5.4,1.4,5.4,5.4c0-4,1.4-5.4,5.4-5.4
		C447.9,253.5,446.5,252.1,446.5,248.1z"/>
	<path class="st19" d="M187.2,181.6c0,4-1.4,5.4-5.4,5.4c4,0,5.4,1.4,5.4,5.4c0-4,1.4-5.4,5.4-5.4
		C188.6,187,187.2,185.5,187.2,181.6z"/>
	<path class="st19" d="M336.5,75.7c0,4-1.4,5.4-5.4,5.4c4,0,5.4,1.4,5.4,5.4c0-4,1.4-5.4,5.4-5.4C337.9,81.1,336.5,79.7,336.5,75.7z
		"/>
	<path class="st19" d="M384,122c0,4-1.4,5.4-5.4,5.4c4,0,5.4,1.4,5.4,5.4c0-4,1.4-5.4,5.4-5.4C385.4,127.4,384,126,384,122z"/>
	<path class="st19" d="M460.4,86.5c0,4-1.4,5.4-5.4,5.4c4,0,5.4,1.4,5.4,5.4c0-4,1.4-5.4,5.4-5.4C461.8,91.9,460.4,90.5,460.4,86.5z
		"/>
	<path class="st19" d="M41.2,91.9c0,4-1.4,5.4-5.4,5.4c4,0,5.4,1.4,5.4,5.4c0-4,1.4-5.4,5.4-5.4C42.6,97.4,41.2,95.9,41.2,91.9z"/>
	<path class="st19" d="M75.4,173c0,4-1.4,5.4-5.4,5.4c4,0,5.4,1.4,5.4,5.4c0-4,1.4-5.4,5.4-5.4C76.9,178.4,75.4,177,75.4,173z"/>
	<path class="st19" d="M398.7,178.1c0,4-1.4,5.4-5.4,5.4c4,0,5.4,1.4,5.4,5.4c0-4,1.4-5.4,5.4-5.4
		C400.2,183.5,398.7,182.1,398.7,178.1z"/>
	<path class="st19" d="M290.4,178.1c0,4-1.4,5.4-5.4,5.4c4,0,5.4,1.4,5.4,5.4c0-4,1.4-5.4,5.4-5.4
		C291.8,183.5,290.4,182.1,290.4,178.1z"/>
	<path class="st19" d="M265.6,47.6c0,4-1.4,5.4-5.4,5.4c4,0,5.4,1.4,5.4,5.4c0-4,1.4-5.4,5.4-5.4C267,53,265.6,51.5,265.6,47.6z"/>
	<path class="st19" d="M217,60.5c0,4-1.4,5.4-5.4,5.4c4,0,5.4,1.4,5.4,5.4c0-4,1.4-5.4,5.4-5.4C218.4,65.9,217,64.4,217,60.5z"/>
</g>
<g id="designed_by_freepik">
	<g>
		<g id="XMLID_319_">
			<g id="XMLID_338_">
				<path id="XMLID_346_" class="st20" d="M718.1,363.6c-0.4,0.4-0.8,0.9-1.1,1.5l-0.5-0.2c-0.1-0.3-0.3-0.5-0.7-0.5
					c-0.3,0-0.6,0.3-0.5,0.7c0,0.3,0.3,0.6,0.7,0.5c0.1,0,0.1,0,0.2-0.1l0.5,0.2c-0.3,0.6-0.4,1.1-0.5,1.7l0.7,0.1
					c0.2-1.3,0.8-2.5,1.8-3.5L718.1,363.6z"/>
				<path id="XMLID_345_" class="st20" d="M723.6,361.3c-0.2,0-0.3,0-0.5,0l-0.1-0.6c0.2-0.1,0.3-0.4,0.3-0.6c0-0.4-0.4-0.7-0.8-0.6
					c-0.4,0-0.7,0.4-0.6,0.8c0,0.3,0.2,0.5,0.4,0.6l0.1,0.6c-0.7,0.1-1.4,0.3-2.1,0.6l0.3,0.7c0.9-0.4,1.9-0.7,3-0.7
					c0.5,0,1,0.1,1.5,0.2l0.2-0.7C724.7,361.4,724.2,361.3,723.6,361.3z"/>
				<path id="XMLID_344_" class="st20" d="M730.2,363.9c0.3,0,0.6-0.3,0.5-0.7c0-0.3-0.3-0.6-0.7-0.5c-0.3,0-0.5,0.3-0.5,0.6
					l-0.4,0.4c-0.4-0.4-0.9-0.8-1.4-1.1l-0.4,0.6c1.1,0.7,2,1.7,2.6,2.9l0.7-0.3c-0.3-0.6-0.6-1.1-0.9-1.5l0.4-0.4
					C730.1,363.9,730.2,363.9,730.2,363.9z"/>
				<path id="XMLID_343_" class="st20" d="M723.1,371.5c-0.4,0-0.8,0-1.2,0c-0.9,0-1.7-0.1-2.5-0.2c-0.4-0.1-0.8-0.2-1.3-0.3
					c1,1.9,3.1,3.1,5.4,3.1c2.9,0,5.3-1.9,5.9-4.5c-0.7,0.4-1.5,0.8-2.5,1.1C725.9,371.2,724.5,371.5,723.1,371.5z"/>
				<path id="XMLID_339_" class="st20" d="M723.6,362.9c-3.4,0-6.1,2.7-6.1,5.9c0,0.4,0,0.8,0.1,1.3c0.7,0.5,2.7,0.9,5.3,0.7
					c2.9-0.2,5.3-1,6.7-2.2c0-0.2,0-0.4,0-0.6C729.3,365.1,726.7,362.9,723.6,362.9z M721.5,369.4c-1,0-1.8-0.8-1.8-1.8
					c0-1,0.8-1.8,1.8-1.8c1,0,1.8,0.8,1.8,1.8C723.3,368.5,722.5,369.4,721.5,369.4z M726.2,368.5c-0.8,0-1.4-0.6-1.4-1.4
					s0.6-1.4,1.4-1.4c0.8,0,1.4,0.6,1.4,1.4S727,368.5,726.2,368.5z"/>
			</g>
			<path id="XMLID_336_" class="st20" d="M739.6,364.7c-0.3-0.1-0.8-0.3-1.4-0.2c-0.6,0.1-0.8,0.3-0.8,1v0.9h2.2v1.7h-2.2v5.5h-1.9
				v-5.5h-1.3v-1.7h1.3v-0.9c0-1.7,0.9-2.8,2.6-2.8c0.6,0,1.2,0.1,1.6,0.3L739.6,364.7z"/>
			<path id="XMLID_334_" class="st20" d="M744.3,368.1c-0.2,0-0.4,0-0.5,0c-0.9,0-1.5,0.5-1.5,1.6v3.9h-1.9v-7.2h1.9v0.8
				c0.5-0.7,1.1-1,2-1c0.4,0,0.8,0.1,1.1,0.3L744.3,368.1z"/>
			<path id="XMLID_331_" class="st20" d="M752,369.9c0,0.2,0,0.5,0,0.7h-5.1c0.2,1,0.9,1.5,1.8,1.5c0.6,0,1.3-0.3,1.8-0.7l1.1,1.2
				c-0.8,0.7-1.9,1.1-3.1,1.1c-2.2,0-3.7-1.5-3.7-3.8c0-2.3,1.5-3.8,3.6-3.8C750.6,366.2,752,367.7,752,369.9z M746.9,369.3h3.2
				c-0.2-0.9-0.7-1.4-1.6-1.4C747.6,367.8,747.1,368.4,746.9,369.3z"/>
			<path id="XMLID_328_" class="st20" d="M759.7,369.9c0,0.2,0,0.5,0,0.7h-5.1c0.2,1,0.9,1.5,1.8,1.5c0.6,0,1.3-0.3,1.8-0.7l1.1,1.2
				c-0.8,0.7-1.9,1.1-3.1,1.1c-2.2,0-3.7-1.5-3.7-3.8c0-2.3,1.5-3.8,3.6-3.8C758.2,366.2,759.6,367.7,759.7,369.9z M754.5,369.3h3.2
				c-0.2-0.9-0.7-1.4-1.6-1.4C755.2,367.8,754.7,368.4,754.5,369.3z"/>
			<path id="XMLID_325_" class="st20" d="M768,369.9c0,2.2-1.5,3.8-3.5,3.8c-1,0-1.6-0.4-2.1-0.9v3.7h-1.9v-10.1h1.9v0.8
				c0.5-0.6,1.2-1,2.1-1C766.5,366.2,768,367.8,768,369.9z M762.3,369.9c0,1.1,0.7,2,1.8,2c1.1,0,1.9-0.9,1.9-2c0-1.1-0.7-2-1.9-2
				C763.1,368,762.3,368.8,762.3,369.9z"/>
			<path id="XMLID_322_" class="st20" d="M771.1,364c0,0.7-0.5,1.2-1.2,1.2c-0.7,0-1.2-0.5-1.2-1.2c0-0.7,0.5-1.2,1.2-1.2
				C770.6,362.8,771.1,363.3,771.1,364z M770.8,373.5h-1.9v-7.2h1.9V373.5z"/>
			<path id="XMLID_320_" class="st20" d="M774.1,368.9l2.7-2.6h2.4l-3.5,3.4l3.5,3.8h-2.4l-2.7-2.9v2.9h-1.9v-10.7h1.9V368.9z"/>
		</g>
		<g>
			<path class="st20" d="M642.5,373.5v-1.1c-0.5,0.7-1.4,1.2-2.4,1.2c-1.8,0-3.1-1.4-3.1-3.7c0-2.3,1.3-3.7,3.1-3.7
				c1,0,1.8,0.5,2.4,1.2v-3.8h1.1v9.8H642.5z M642.5,371.5v-3.2c-0.4-0.6-1.2-1.1-2.1-1.1c-1.4,0-2.3,1.2-2.3,2.7
				c0,1.6,0.8,2.7,2.3,2.7C641.2,372.7,642.1,372.2,642.5,371.5z"/>
			<path class="st20" d="M645,369.9c0-2.1,1.5-3.7,3.5-3.7c2.1,0,3.4,1.7,3.4,3.8v0.3h-5.7c0.1,1.3,1,2.4,2.5,2.4
				c0.8,0,1.6-0.3,2.2-0.9l0.5,0.7c-0.7,0.7-1.7,1.1-2.8,1.1C646.5,373.6,645,372.1,645,369.9z M648.4,367.1c-1.5,0-2.3,1.3-2.3,2.4
				h4.6C650.8,368.4,650.1,367.1,648.4,367.1z"/>
			<path class="st20" d="M652.6,372.5l0.6-0.8c0.5,0.5,1.4,1,2.3,1c1.1,0,1.7-0.5,1.7-1.2c0-1.7-4.4-0.7-4.4-3.3c0-1.1,1-2,2.6-2
				c1.2,0,2.1,0.5,2.6,1l-0.5,0.8c-0.4-0.5-1.2-0.9-2.1-0.9c-1,0-1.6,0.5-1.6,1.1c0,1.6,4.4,0.5,4.4,3.3c0,1.2-1,2.1-2.8,2.1
				C654.3,373.6,653.4,373.3,652.6,372.5z"/>
			<path class="st20" d="M659.5,364.6c0-0.4,0.3-0.7,0.7-0.7c0.4,0,0.7,0.3,0.7,0.7c0,0.4-0.3,0.7-0.7,0.7
				C659.9,365.4,659.5,365.1,659.5,364.6z M659.7,373.5v-7.1h1.1v7.1H659.7z"/>
			<path class="st20" d="M662.6,375.3l0.6-0.8c0.6,0.7,1.3,1,2.3,1c1.2,0,2.3-0.6,2.3-2.1v-1c-0.5,0.7-1.4,1.3-2.4,1.3
				c-1.8,0-3.1-1.4-3.1-3.7c0-2.3,1.3-3.7,3.1-3.7c1,0,1.8,0.5,2.4,1.2v-1.1h1.1v6.9c0,2.3-1.6,3.1-3.4,3.1
				C664.3,376.3,663.5,376.1,662.6,375.3z M667.7,371.4v-3.1c-0.4-0.6-1.2-1.1-2.1-1.1c-1.4,0-2.3,1.1-2.3,2.7
				c0,1.6,0.8,2.7,2.3,2.7C666.5,372.6,667.4,372,667.7,371.4z"/>
			<path class="st20" d="M675.5,373.5v-4.6c0-1.2-0.6-1.6-1.6-1.6c-0.9,0-1.7,0.5-2.1,1.1v5.2h-1.1v-7.1h1.1v1
				c0.5-0.6,1.5-1.2,2.5-1.2c1.5,0,2.3,0.7,2.3,2.3v5H675.5z"/>
			<path class="st20" d="M678,369.9c0-2.1,1.5-3.7,3.5-3.7c2.1,0,3.4,1.7,3.4,3.8v0.3h-5.7c0.1,1.3,1,2.4,2.5,2.4
				c0.8,0,1.6-0.3,2.2-0.9l0.5,0.7c-0.7,0.7-1.7,1.1-2.8,1.1C679.5,373.6,678,372.1,678,369.9z M681.4,367.1c-1.5,0-2.3,1.3-2.3,2.4
				h4.6C683.8,368.4,683.1,367.1,681.4,367.1z"/>
			<path class="st20" d="M691.4,373.5v-1.1c-0.5,0.7-1.4,1.2-2.4,1.2c-1.8,0-3.1-1.4-3.1-3.7c0-2.3,1.3-3.7,3.1-3.7
				c1,0,1.8,0.5,2.4,1.2v-3.8h1.1v9.8H691.4z M691.4,371.5v-3.2c-0.4-0.6-1.2-1.1-2.1-1.1c-1.4,0-2.3,1.2-2.3,2.7
				c0,1.6,0.8,2.7,2.3,2.7C690.1,372.7,691,372.2,691.4,371.5z"/>
			<path class="st20" d="M697.7,373.5v-9.8h1.1v3.8c0.6-0.8,1.4-1.2,2.4-1.2c1.8,0,3.1,1.5,3.1,3.7c0,2.3-1.3,3.7-3.1,3.7
				c-1,0-1.9-0.5-2.4-1.2v1.1H697.7z M700.9,372.7c1.4,0,2.3-1.2,2.3-2.7c0-1.6-0.8-2.7-2.3-2.7c-0.9,0-1.7,0.5-2.1,1.1v3.2
				C699.2,372.2,700.1,372.7,700.9,372.7z"/>
			<path class="st20" d="M705.6,375.2c0.2,0.1,0.4,0.1,0.6,0.1c0.5,0,0.8-0.2,1.1-0.7l0.5-1.1l-3-7.1h1.2l2.4,5.8l2.3-5.8h1.2
				l-3.5,8.5c-0.4,1-1.1,1.4-2.1,1.4c-0.2,0-0.6,0-0.8-0.1L705.6,375.2z"/>
		</g>
	</g>
</g>
</svg>
