<svg width="1372" height="300" viewBox="0 0 1372 300" fill="none" xmlns="http://www.w3.org/2000/svg">
<path d="M1.00012 1.89993C457.7 1.59993 914.4 1.29994 1371.1 0.999939C1370.2 14.7999 1368.5 35.5999 1364.6 60.4999C1353.7 130 1348.2 165.4 1328.1 175C1289 193.8 1241.8 91.7999 1176 99.1999C1100.2 107.7 1089.8 252.3 1020.3 257.3C957.7 261.8 934.6 143.2 858.4 138.4C764.5 132.4 713.6 307.6 632.4 299.2C551.9 290.9 529 111 469 114.1C422.2 116.5 411.5 227.4 359.1 230.3C306.3 233.2 286.2 123.3 217.1 119.5C165.4 116.6 142.4 176.4 95.5001 163.9C66.9001 156.3 50.3001 127.4 32.5001 96.3999C11.0001 58.9999 3.70012 23.7999 1.00012 1.89993Z" fill="url(#paint0_linear_8_12)" stroke="black" stroke-miterlimit="10"/>
<defs>
<linearGradient id="paint0_linear_8_12" x1="686.05" y1="299.493" x2="686.05" y2="0.999939" gradientUnits="userSpaceOnUse">
<stop offset="0.146984" stop-color="#430C2C"/>
<stop offset="0.751162" stop-color="#05001D"/>
<stop offset="0.959499"/>
</linearGradient>
</defs>
</svg>
